<?xml version="1.0" encoding="UTF-8"?>
<svg width="415px" height="415px" viewBox="0 0 415 415" version="1.1" xmlns="http://www.w3.org/2000/svg" xmlns:xlink="http://www.w3.org/1999/xlink">
    <!-- Generator: Sketch 57.1 (83088) - https://sketch.com -->
    <title>Group 5</title>
    <desc>Created with Sketch.</desc>
    <defs>
        <linearGradient x1="0%" y1="100%" x2="100%" y2="0%" id="linearGradient-1">
            <stop stop-color="#0C7CD5" offset="0%"></stop>
            <stop stop-color="#00BCD4" offset="100%"></stop>
        </linearGradient>
        <path d="M43.1199093,38.8630458 C43.1199093,17.3985314 33.4675242,1.42108547e-14 21.5609418,1.42108547e-14 C9.65238556,1.42108547e-14 -2.84217094e-14,17.3985314 -2.84217094e-14,38.8630458 C-2.84217094e-14,60.3255832 9.65238556,77.7241151 21.5609418,77.7241151 C33.4675242,77.7241151 43.1199093,60.3255832 43.1199093,38.8630458 Z" id="path-2"></path>
    </defs>
    <g id="Page-1" stroke="none" stroke-width="1" fill="none" fill-rule="evenodd">
        <g id="Desktop-HD-Copy" transform="translate(-305.000000, -554.000000)">
            <g id="Group-3-Copy" transform="translate(305.000000, 554.000000)">
                <g id="Group-5">
                    <rect id="Rectangle-Copy-2" fill="url(#linearGradient-1)" x="0" y="0" width="415" height="415"></rect>
                    <g id="ghost" transform="translate(91.000000, 86.000000)">
                        <path d="M232.50536,135.599332 C230.885926,143.439607 225.421323,149.940337 217.966002,152.899155 C217.231331,153.172973 216.482837,153.403454 215.722493,153.586656 C215.339358,153.706821 214.950299,153.807287 214.55729,153.888054 C209.122311,155.131072 203.420718,154.414022 198.465644,151.864947 L198.465644,229.842197 C198.477494,231.246749 198.151632,232.635541 197.515708,233.888409 C196.160913,233.124081 194.628375,232.722217 193.072139,232.726157 C190.46722,232.726157 187.986721,233.839161 186.254716,235.781501 L184.702429,237.546547 C183.924311,237.069827 183.225189,236.474912 182.630738,235.781501 C180.900709,233.837191 178.42021,232.726157 175.81529,232.726157 C173.208396,232.726157 170.727897,233.837191 168.997868,235.781501 L161.793361,244 L154.588854,235.781501 C152.862774,233.831282 150.3803,232.714338 147.771431,232.714338 C145.164537,232.714338 142.682063,233.831282 140.955983,235.781501 L139.143007,237.845975 L137.332006,235.781501 C135.605925,233.831282 133.123452,232.714338 130.514582,232.714338 C127.907688,232.714338 125.425214,233.831282 123.699135,235.781501 L116.492653,244 L109.288146,235.781501 C107.562066,233.831282 105.079592,232.714338 102.472698,232.714338 C99.8638286,232.714338 97.3813547,233.831282 95.6552751,235.781501 L93.8442734,237.845975 L92.0312973,235.781501 C90.3052173,233.831282 87.8227434,232.714338 85.2158494,232.714338 C82.6069806,232.714338 80.1245066,233.831282 78.3984266,235.781501 L71.1939195,244 L63.9894125,235.781501 C62.2633329,233.831282 59.7808585,232.714338 57.1719897,232.714338 C54.5650957,232.714338 52.0826218,233.831282 50.3565422,235.781501 C49.762091,236.474912 49.0629697,237.069827 48.2848511,237.546547 L46.7325645,235.781501 C43.9005294,232.572504 39.2021958,231.782566 35.4715721,233.888409 C34.8336729,232.635541 34.5097866,231.246749 34.5216359,229.842197 L34.5216359,151.864947 C29.5665625,154.414022 23.8649692,155.131072 18.4299902,153.888054 C18.0369811,153.807287 17.647922,153.706821 17.2647874,153.586656 L17.2647874,151.864947 C16.5380169,152.253021 15.7895227,152.597757 15.0212786,152.899155 C5.94059809,149.315873 -0.0177344935,140.555646 0,130.8144 C0.019789107,121.073154 6.0116952,112.336566 15.1081756,108.788742 C15.8408704,109.09014 16.5755405,109.434875 17.2647874,109.779611 L17.2647874,108.057903 C19.3680772,107.451168 21.5464133,107.145831 23.7365996,107.15371 C27.4909218,107.14977 31.1919215,108.050023 34.5216359,109.779611 L34.5216359,91.9636695 C34.2155232,44.914139 69.5725106,5.22619383 116.451179,0 C162.956588,4.38700835 198.481444,43.346084 198.465644,89.9405632 L198.465644,109.779611 C201.795359,108.050023 205.496358,107.14977 209.250681,107.15371 C211.438892,107.145831 213.619203,107.451168 215.722493,108.057903 C216.461112,108.237165 217.183933,108.481435 217.879105,108.788742 C228.666116,112.96103 234.851565,124.29791 232.50536,135.599332 L232.50536,135.599332 Z" id="Path" fill="#CFD8DC" fill-rule="nonzero"></path>
                        <g id="Group" transform="translate(71.000000, 72.000000)">
                            <path d="M34.5788317,17.6041037 C34.5788317,27.1434488 26.8569235,34.8761295 17.3308677,34.8761295 C7.80481191,34.8761295 0.0829036702,27.1434488 0.0829036702,17.6041037 C0.0829036702,8.06475904 7.80481191,0.332078313 17.3308677,0.332078313 C26.8569235,0.332078313 34.5788317,8.06475904 34.5788317,17.6041037 Z" id="Path" fill="#37474F" fill-rule="nonzero"></path>
                            <path d="M94.9467045,17.6041037 C94.9467045,27.1434488 87.2247962,34.8761295 77.698741,34.8761295 C68.1726852,34.8761295 60.450777,27.1434488 60.450777,17.6041037 C60.450777,8.06475904 68.1726852,0.332078313 77.698741,0.332078313 C87.2247962,0.332078313 94.9467045,8.06475904 94.9467045,17.6041037 Z" id="Path" fill="#37474F" fill-rule="nonzero"></path>
                            <g id="Path" transform="translate(25.954849, 47.831137)">
                                <mask id="mask-3" fill="white">
                                    <use xlink:href="#path-2"></use>
                                </mask>
                                <use id="Mask" fill="#37474F" fill-rule="nonzero" xlink:href="#path-2"></use>
                                <path d="M40.0451506,62.8648172 C36.2509872,74.1688627 29.3930672,74.1688627 21.5461375,74.1688627 C13.697234,74.1688627 6.83931395,74.1688627 3.04515056,62.8648172 C6.93999116,56.2301841 13.9637336,52.1688627 21.5461375,52.1688627 C29.1265675,52.1688627 36.15031,56.2301841 40.0451506,62.8648172 L40.0451506,62.8648172 Z" fill="#E91E63" fill-rule="nonzero" mask="url(#mask-3)"></path>
                            </g>
                        </g>
                    </g>
                </g>
            </g>
        </g>
    </g>
</svg>