<?xml version="1.0" encoding="UTF-8"?>
<svg width="415px" height="415px" viewBox="0 0 415 415" version="1.1" xmlns="http://www.w3.org/2000/svg" xmlns:xlink="http://www.w3.org/1999/xlink">
    <!-- Generator: Sketch 57.1 (83088) - https://sketch.com -->
    <title>Group 4</title>
    <desc>Created with Sketch.</desc>
    <defs>
        <linearGradient x1="0%" y1="100%" x2="100%" y2="0%" id="linearGradient-1">
            <stop stop-color="#0C7CD5" offset="0%"></stop>
            <stop stop-color="#00BCD4" offset="100%"></stop>
        </linearGradient>
    </defs>
    <g id="Page-1" stroke="none" stroke-width="1" fill="none" fill-rule="evenodd">
        <g id="Desktop-HD-Copy" transform="translate(-305.000000, -204.000000)">
            <g id="Group-4" transform="translate(305.000000, 204.000000)">
                <rect id="Rectangle" fill="url(#linearGradient-1)" x="0" y="0" width="415" height="415"></rect>
                <g id="girl" transform="translate(100.000000, 63.000000)" fill-rule="nonzero">
                    <g id="Group">
                        <polygon id="Path" fill="#421800" points="198.351257 130.748351 198.351257 265.586011 27.4628571 262.678298 27.4628571 127.840638"></polygon>
                        <path d="M177.332914,69.8421809 L177.332914,109.601489 C177.332914,110.298723 177.315943,110.9975 177.302057,111.694734 C177.285086,112.265479 177.269657,112.820798 177.237257,113.391543 C177.221829,113.899043 177.190971,114.406543 177.143143,114.914043 C177.127714,115.278085 177.096857,115.64367 177.064457,116.009255 C177.047486,116.231383 177.0336,116.436543 177.0012,116.65867 C176.970343,117.055106 176.9364,117.466968 176.873143,117.863404 C176.809886,118.625426 176.714229,119.370479 176.603143,120.130957 C176.587714,120.322234 176.556857,120.511968 176.524457,120.701702 C176.476629,121.082713 176.413371,121.463723 176.350114,121.843191 L176.350114,121.891011 C176.256,122.444787 176.160343,122.984681 176.063143,123.54 C175.9212,124.302021 175.777714,125.0625 175.620343,125.807553 C175.603371,125.839947 175.603371,125.870798 175.589486,125.903191 C175.572514,126.014255 175.557086,126.125319 175.524686,126.236383 C175.509257,126.268777 175.509257,126.299628 175.493829,126.332021 C175.415143,126.745426 175.321029,127.140319 175.223829,127.536755 C175.192971,127.711064 175.160571,127.886915 175.097314,128.059681 C175.051029,128.345053 174.9708,128.630426 174.907543,128.915798 C174.859714,129.074681 174.827314,129.248989 174.764057,129.407872 C174.7332,129.55133 174.685371,129.693245 174.652971,129.821277 C174.319714,131.121649 173.940171,132.39117 173.542114,133.659149 C173.352343,134.262287 173.162571,134.848457 172.955829,135.451596 C172.938857,135.51484 172.908,135.578085 172.892571,135.64133 C172.701257,136.181223 172.511486,136.719574 172.321714,137.259468 C172.258457,137.418351 172.1952,137.577234 172.1304,137.751543 C171.940629,138.259043 171.750857,138.766543 171.544114,139.274043 C171.306514,139.892606 171.051943,140.495745 170.798914,141.098883 C170.576743,141.638777 170.339143,142.177128 170.101543,142.715479 C170.069143,142.811117 170.021314,142.889787 169.990457,142.985426 C169.720457,143.55617 169.467429,144.126915 169.197429,144.682234 C168.927429,145.268404 168.642,145.856117 168.3396,146.442287 C167.768743,147.600745 167.1516,148.75766 166.531371,149.883723 L165.675086,151.406223 C163.2312,155.608138 160.518857,159.558617 157.568914,163.205213 C157.170857,163.729681 156.760457,164.237181 156.33,164.727713 C155.743714,165.441915 155.140457,166.139149 154.538743,166.820957 C154.031143,167.391702 153.506571,167.977872 152.966571,168.533191 C152.951143,168.565585 152.934171,168.581011 152.903314,168.611862 C151.382057,170.246968 149.826857,171.800319 148.2408,173.259574 C147.922971,173.57734 147.589714,173.862713 147.256457,174.163511 C146.716457,174.655585 146.178,175.132234 145.622571,175.591915 C145.1952,175.972926 144.750857,176.336968 144.306514,176.702553 C143.1648,177.63734 142.023086,178.541277 140.865943,179.381968 C140.3892,179.746011 139.897029,180.09617 139.4064,180.429362 C138.613371,181.000106 137.804914,181.54 136.994914,182.062926 C136.550571,182.363723 136.0908,182.650638 135.629486,182.920585 C134.011029,183.92016 132.378686,184.839521 130.760229,185.632394 C130.363714,185.839096 129.9672,186.02883 129.570686,186.220106 C129.172629,186.40984 128.762229,186.599574 128.331771,186.790851 C127.808743,187.028404 127.285714,187.250532 126.761143,187.457234 C126.5544,187.552872 126.347657,187.631543 126.144,187.694787 C125.525314,187.947766 124.8912,188.185319 124.270971,188.392021 C123.493371,188.678936 122.700343,188.916489 121.924286,189.137074 C121.384286,189.295957 120.8304,189.437872 120.2904,189.564362 C120.258,189.58133 120.2256,189.596755 120.179314,189.596755 C119.639314,189.723245 119.100857,189.851277 118.560857,189.946915 C118.417371,189.979309 118.275429,190.01016 118.133486,190.025585 C117.689143,190.105798 117.2448,190.186011 116.800457,190.232287 C116.166343,190.329468 115.532229,190.406596 114.898114,190.438989 C114.677486,190.46984 114.470743,190.486809 114.247029,190.486809 C113.739429,190.51766 113.2488,190.533085 112.756629,190.533085 L112.693371,190.533085 C112.2012,190.533085 111.709029,190.51766 111.216857,190.486809 C111.027086,190.486809 110.837314,190.46984 110.647543,190.438989 C110.2032,190.423564 109.741886,190.375745 109.266686,190.3125 C109.169486,190.3125 109.059943,190.295532 108.965829,190.281649 C108.378,190.201436 107.790171,190.10734 107.188457,189.994734 C106.680857,189.916064 106.1748,189.805 105.650229,189.678511 C102.937886,189.059947 100.146857,188.123617 97.3234286,186.871064 C94.9119429,185.809787 92.4696,184.52484 90.0426857,183.034734 C88.8207429,182.289681 87.5988,181.495266 86.3938286,180.654574 C85.7905714,180.227287 85.1888571,179.798457 84.5856,179.354202 C82.6971429,177.973617 80.8256571,176.468085 78.9850286,174.849947 C78.4789714,174.390266 77.9713714,173.929043 77.4637714,173.455479 C76.9561714,172.994255 76.4485714,172.519149 75.9564,172.059468 C74.7822857,170.934947 73.6405714,169.776489 72.5451429,168.554787 C72.4649143,168.491543 72.4016571,168.412872 72.3384,168.349628 C71.8786286,167.857553 71.4173143,167.348511 70.9590857,166.827128 C69.6908571,165.398723 68.4534857,163.924043 67.2793714,162.386117 C66.8180571,161.830798 66.3906857,161.261596 65.9617714,160.687766 C64.3587429,158.56367 62.8374857,156.343936 61.4088,154.042447 C61.0292571,153.423883 60.6481714,152.789894 60.2840571,152.17133 C59.8397143,151.426277 59.4123429,150.664255 58.9834286,149.903777 C57.3973714,147.048511 55.9362857,144.083723 54.6680571,141.021755 C54.4782857,140.5775 54.2869714,140.133245 54.1280571,139.688989 C53.8734857,139.118245 53.6513143,138.530532 53.4461143,137.96133 C53.1298286,137.119096 52.8289714,136.279947 52.542,135.439255 C52.2565714,134.598564 51.9881143,133.742447 51.7181143,132.88633 C51.4635429,132.061064 51.2259429,131.23734 51.0037714,130.396649 C50.7492,129.508138 50.5116,128.604202 50.3064,127.68484 C50.2894286,127.589202 50.2585714,127.493564 50.2416,127.399468 C49.9407429,126.131489 49.6722857,124.846543 49.4346857,123.54617 C49.1168571,121.833936 48.8638286,120.089309 48.6725143,118.329255 C48.5938286,117.773936 48.546,117.218617 48.4981714,116.663298 C48.4349143,116.077128 48.3886286,115.506383 48.3562286,114.91867 C48.276,113.855851 48.2281714,112.777606 48.1957714,111.699362 C48.1803429,111.002128 48.1633714,110.303351 48.1633714,109.606117 L48.1633714,69.8421809 C48.1633714,35.38 75.1788,7.21297872 109.201886,5.37271277 C109.266686,5.35574468 109.312971,5.35574468 109.376229,5.35574468 C109.820571,5.34031915 110.264914,5.32335106 110.709257,5.30792553 C111.375771,5.2925 112.025314,5.27553191 112.691829,5.27553191 L112.755086,5.27553191 C113.435486,5.27553191 114.118971,5.29095745 114.800914,5.30792553 C115.323943,5.32335106 115.848514,5.34031915 116.371543,5.37271277 L116.419371,5.37271277 C120.051257,5.57787234 123.621429,6.08537234 127.062,6.86281915 C131.266286,7.81457447 135.311657,9.17819149 139.148743,10.9073936 C144.3852,13.253617 149.254457,16.267766 153.633086,19.8680851 C157.3128,22.882234 160.6608,26.2758511 163.578343,30.0180851 C172.081029,40.8498936 177.203314,54.4582979 177.3144,69.2698936 C177.332914,69.4611702 177.332914,69.6509043 177.332914,69.8421809 Z" id="Path" fill="#F0D0B4"></path>
                        <path d="M196.891714,289.606649 L196.891714,289.623617 L28.6045714,289.623617 L28.6045714,289.606649 C28.6045714,280.201702 30.1428,271.129947 33.0140571,262.678298 C33.0464571,262.598085 33.0618857,262.517872 33.0942857,262.440745 C33.6173143,260.902819 34.1881714,259.380319 34.8068571,257.873245 L34.8068571,257.856277 C35.4101143,256.349202 36.0750857,254.874521 36.7724571,253.415266 C39.5496,247.562819 43.0071429,242.091383 47.0201143,237.079628 C48.0353143,235.827074 49.0674857,234.605372 50.1305143,233.433032 C50.6535429,232.829894 51.2089714,232.243723 51.7644,231.657553 C52.3198286,231.086809 52.8752571,230.516064 53.4461143,229.945319 C56.2865143,227.105479 59.3305714,224.506277 62.5366286,222.110691 C64.1381143,220.921383 65.7565714,219.810745 67.4382857,218.7325 C67.6604571,218.590585 67.8826286,218.447128 68.1048,218.320638 C68.7234857,217.92266 69.3421714,217.543191 69.9778286,217.179149 C70.8341143,216.671649 71.7058286,216.179574 72.5790857,215.702926 C72.6114857,215.672074 72.6423429,215.672074 72.6423429,215.672074 C73.3242857,215.308032 73.9908,214.911596 74.6573143,214.498191 C76.6398857,213.308883 78.5453143,211.993085 80.352,210.53383 C88.0138286,204.445372 93.9461143,196.260585 97.3249714,186.871064 C98.3093143,184.111436 99.0853714,181.242287 99.6084,178.292926 C100.1484,175.246383 100.433829,172.107287 100.433829,168.903404 L112.694914,168.966649 L112.900114,168.966649 L125.304686,169.029894 C125.304686,172.170532 125.574686,175.246383 126.099257,178.245106 C126.606857,181.194468 127.367486,184.049734 128.334857,186.793936 C131.665886,196.212766 137.582743,204.429947 145.244571,210.550798 C146.386286,211.485585 147.544971,212.341702 148.765371,213.151543 C148.893429,213.248723 149.002971,213.325851 149.131029,213.406064 C149.701886,213.787074 150.272743,214.166543 150.876,214.516702 C151.525543,214.913138 152.1936,215.309574 152.858571,215.673617 C152.968114,215.704468 153.065314,215.75383 153.144,215.817074 C154.540286,216.594521 155.921143,217.402819 157.2696,218.243511 C157.379143,218.306755 157.4748,218.37 157.585886,218.450213 C158.125886,218.783404 158.681314,219.130479 159.204343,219.513032 C160.521943,220.353723 161.807143,221.274628 163.0584,222.226383 C163.0584,222.241809 163.075371,222.241809 163.075371,222.241809 L163.0908,222.241809 C164.693829,223.431117 166.247486,224.700638 167.770286,226.001011 C169.293086,227.301383 170.752629,228.666543 172.164343,230.077979 C181.270286,239.132766 188.296457,250.266915 192.485314,262.686011 C195.336514,271.131489 196.891714,280.187819 196.891714,289.606649 Z" id="Path" fill="#F0D0B4"></path>
                        <path d="M196.891714,289.606649 L28.6045714,289.606649 C28.6045714,280.201702 30.1428,271.129947 33.0140571,262.678298 C33.0464571,262.598085 33.0618857,262.517872 33.0942857,262.440745 C33.6173143,260.902819 34.1881714,259.380319 34.8068571,257.873245 L34.8068571,257.856277 C35.4101143,256.349202 36.0750857,254.874521 36.7724571,253.415266 C39.5496,247.562819 43.0071429,242.091383 47.0201143,237.079628 C48.0353143,235.827074 49.0674857,234.605372 50.1305143,233.433032 C50.6535429,232.829894 51.2089714,232.243723 51.7644,231.657553 C52.3198286,231.086809 52.8752571,230.516064 53.4461143,229.945319 C56.2865143,227.105479 59.3305714,224.506277 62.5366286,222.110691 C64.1381143,220.921383 65.7565714,219.810745 67.4382857,218.7325 C67.6604571,218.590585 67.8826286,218.447128 68.1048,218.320638 C68.7234857,217.92266 69.3421714,217.543191 69.9778286,217.179149 C70.8341143,216.654681 71.7058286,216.164149 72.5790857,215.6875 C72.6114857,215.655106 72.6423429,215.670532 72.6423429,215.670532 L72.6423429,215.655106 C73.3242857,215.274096 73.9908,214.894628 74.6573143,214.496649 C76.6398857,213.291915 78.5453143,211.959149 80.3211429,210.499894 C80.3365714,210.516862 80.3365714,210.516862 80.3535429,210.532287 C88.5692571,218.93766 100.006457,224.156117 112.698,224.188511 L112.9032,224.188511 C125.562343,224.171543 137.014971,218.939202 145.247657,210.549255 L145.264629,210.532287 C146.389371,211.467074 147.563486,212.34016 148.768457,213.148457 C148.896514,213.245638 149.006057,213.322766 149.134114,213.402979 C149.704971,213.783989 150.291257,214.148032 150.879086,214.513617 C151.528629,214.910053 152.196686,215.291064 152.861657,215.655106 C152.9712,215.6875 153.051429,215.750745 153.147086,215.798564 C154.543371,216.574468 155.924229,217.382766 157.272686,218.240426 C157.382229,218.30367 157.477886,218.366915 157.588971,218.447128 C158.128971,218.780319 158.6844,219.127394 159.207429,219.509947 C160.525029,220.350638 161.810229,221.271543 163.061486,222.223298 L163.093886,222.223298 C164.696914,223.428032 166.267543,224.680585 167.773371,225.996383 C169.296171,227.296755 170.755714,228.661915 172.167429,230.073351 C181.273371,239.128138 188.299543,250.262287 192.4884,262.681383 C195.336514,271.131489 196.891714,280.187819 196.891714,289.606649 Z" id="Path" fill="#B34FC5"></path>
                        <path d="M198.716914,243.08016 C198.605829,243.127979 198.479314,243.17734 198.351257,243.191223 C190.009029,245.363138 157.109143,205.725691 156.775886,164.173936 C156.760457,160.826596 156.9348,157.46383 157.363714,154.087181 C158.474571,145.126489 162.789943,136.514415 166.374,127.839096 C169.197429,120.971649 171.591943,114.088777 171.591943,106.983777 C171.591943,68.9212766 160.5528,81.3234043 129.763543,60.7843085 C122.323886,55.8357979 117.041143,51.7757979 112.900114,48.4762766 C101.464457,39.4045213 98.5608,36.1543617 82.8730286,36.1543617 C62.9161714,36.1543617 54.9858857,70.8062766 52.7178857,85.6194149 C50.2755429,101.558617 50.2431429,127.393298 60.1899429,151.990851 C67.8965143,171.050638 67.8980571,189.737128 52.7178857,210.496809 C47.0232,218.28516 38.2983429,244.594947 27.4644,253.078989 C24.0870857,255.727553 20.5169143,256.648457 16.7585143,254.727979 C-12.8427429,239.583191 4.97108571,190.972713 13.8548571,160.538138 C23.4205714,127.788191 26.3072571,94.5939894 33.2547429,61.5262766 C41.0893714,24.2936702 72.9725143,1.59808511 85.8538286,10.7978723 C90.1522286,3.08973404 101.399657,0.203617021 112.898571,0.203617021 C121.322571,0.203617021 129.903943,1.77393617 135.995143,4.13712766 C183.0276,22.3917021 183.822171,65.9734574 186.327771,84.1 C188.390571,99.0720213 195.765429,113.059894 198.351257,127.840638 L198.351257,127.888457 C198.906686,130.996702 199.239943,134.168191 199.256914,137.372074 C199.366457,154.674894 197.431714,166.379787 210.583029,180.794947 C220.559143,191.722394 212.929714,236.848245 198.716914,243.08016 Z" id="Path" fill="#421800"></path>
                        <g transform="translate(67.885714, 209.787234)" fill="#E7ECF2" id="Path">
                            <path d="M45.0128571,14.399734 L44.9665714,14.4799468 L44.9496,14.5107979 C40.4768571,21.4569149 33.0696,25.0726596 25.5975429,25.0726596 C19.5217714,25.0726596 13.4151429,22.678617 8.83131429,17.7625 L0.217542857,8.53340426 C1.67708571,7.59707447 3.16748571,6.72398936 4.69028571,5.90026596 C4.72268571,5.86787234 4.75354286,5.88329787 4.75354286,5.88329787 L4.75354286,5.86787234 C5.43548571,5.4868617 6.102,5.10739362 6.76851429,4.70941489 C8.75108571,3.50468085 10.6565143,2.17191489 12.4323429,0.712659574 C12.4477714,0.72962766 12.4477714,0.72962766 12.4647429,0.745053191 C20.6804571,9.15042553 32.1176571,14.368883 44.8092,14.4012766 L45.0128571,14.4012766 L45.0128571,14.399734 Z"></path>
                            <path d="M89.6986286,8.65835106 L81.2129143,17.7609574 C76.6275429,22.678617 70.5209143,25.071117 64.4297143,25.071117 C56.9746286,25.071117 49.5504,21.4553723 45.0930857,14.5092553 L45.0776571,14.4784043 L45.0128571,14.3981915 C57.672,14.3812234 69.1246286,9.14888298 77.3573143,0.75893617 L77.3742857,0.741968085 C78.4990286,1.67675532 79.6731429,2.54984043 80.8781143,3.3581383 C81.0061714,3.45531915 81.1157143,3.53244681 81.2437714,3.61265957 C81.8146286,3.99367021 82.4009143,4.35771277 82.9887429,4.72329787 C83.6382857,5.11973404 84.3063429,5.50074468 84.9713143,5.86478723 C85.0808571,5.89718085 85.1610857,5.96042553 85.2567429,6.00824468 C86.6530286,6.78414894 88.0338857,7.59244681 89.3823429,8.45010638 C89.4918857,8.51489362 89.586,8.5781383 89.6986286,8.65835106 Z"></path>
                        </g>
                    </g>
                </g>
            </g>
        </g>
    </g>
</svg>