<?xml version="1.0" encoding="UTF-8"?>
<svg width="415px" height="415px" viewBox="0 0 415 415" version="1.1" xmlns="http://www.w3.org/2000/svg" xmlns:xlink="http://www.w3.org/1999/xlink">
    <!-- Generator: Sketch 57.1 (83088) - https://sketch.com -->
    <title>Group 3</title>
    <desc>Created with Sketch.</desc>
    <defs>
        <linearGradient x1="0%" y1="100%" x2="100%" y2="0%" id="linearGradient-1">
            <stop stop-color="#0C7CD5" offset="0%"></stop>
            <stop stop-color="#00BCD4" offset="100%"></stop>
        </linearGradient>
    </defs>
    <g id="Page-1" stroke="none" stroke-width="1" fill="none" fill-rule="evenodd">
        <g id="Desktop-HD-Copy" transform="translate(-810.000000, -204.000000)">
            <g id="Group-3" transform="translate(810.000000, 204.000000)">
                <rect id="Rectangle-Copy-2" fill="url(#linearGradient-1)" x="0" y="0" width="415" height="415"></rect>
                <g id="man" transform="translate(124.000000, 63.000000)" fill-rule="nonzero">
                    <path d="M147,64.6550068 L147,112.205776 C147,112.893198 146.984711,113.580621 146.967893,114.268043 C146.952604,114.830756 146.937315,115.378261 146.905208,115.942495 C146.889919,116.442853 146.857812,116.943211 146.810416,117.443569 C146.795127,117.802489 146.76302,118.16293 146.732441,118.521849 C146.715624,118.742372 146.700334,118.943124 146.668227,119.163646 C146.637649,119.554504 146.605542,119.960569 146.542857,120.351427 C146.480172,121.101204 146.38538,121.837293 146.275299,122.58707 C146.26001,122.775655 146.227903,122.962719 146.197324,123.149783 C146.149928,123.525432 146.087243,123.901081 146.024558,124.275209 L146.024558,124.322356 C145.931295,124.868339 145.836503,125.400635 145.74171,125.94814 C145.599522,126.697917 145.458863,127.449215 145.301386,128.183783 C145.286097,128.215721 145.286097,128.247659 145.270807,128.279597 C145.255518,128.387577 145.2387,128.498599 145.208122,128.608099 C145.192833,128.640037 145.192833,128.670454 145.176015,128.702392 C145.098041,129.109979 145.003249,129.499315 144.908457,129.890173 C144.877879,130.062028 144.845772,130.235405 144.783086,130.40726 C144.73569,130.688617 144.656187,130.968452 144.595031,131.25133 C144.547635,131.407977 144.517057,131.579832 144.452843,131.734959 C144.420736,131.876397 144.374869,132.017836 144.342762,132.142545 C144.012518,133.424619 143.634878,134.676275 143.241949,135.92641 C143.052365,136.521061 142.86431,137.098982 142.660965,137.693633 C142.645676,137.755988 142.613569,137.818343 142.59828,137.880697 C142.410225,138.412993 142.22064,138.943769 142.032585,139.476065 C141.9699,139.632712 141.907215,139.787838 141.844529,139.959694 C141.654945,140.460052 141.46689,140.96041 141.263545,141.460769 C141.028094,142.069107 140.775824,142.663758 140.525084,143.259929 C140.304921,143.792225 140.06947,144.32148 139.834018,144.853776 C139.80344,144.949589 139.756044,145.025631 139.723937,145.119924 C139.456378,145.682637 139.205638,146.24535 138.938079,146.794375 C138.670521,147.372297 138.387673,147.951739 138.089537,148.531181 C137.523841,149.671816 136.91075,150.813971 136.297659,151.922668 L135.449116,153.423743 C133.027329,157.568048 130.341042,161.459893 127.416245,165.056693 C127.023316,165.57226 126.615098,166.072618 126.190062,166.556247 C125.609078,167.260399 125.011276,167.947821 124.413473,168.620035 C123.878356,169.214686 123.344768,169.807816 122.794362,170.387258 C121.285332,171.997834 119.744195,173.529326 118.17248,174.969567 C117.857525,175.281341 117.52881,175.564218 117.198567,175.860783 C116.66345,176.344412 116.129861,176.814353 115.579455,177.267565 C115.155948,177.643214 114.715624,178.002134 114.27377,178.362574 C113.142379,179.284207 112.010989,180.175423 110.862781,181.004284 C110.391878,181.364724 109.904157,181.708436 109.416436,182.036938 C108.630578,182.599651 107.827903,183.131947 107.026756,183.649035 C106.586431,183.9456 106.130817,184.226956 105.675203,184.493104 C104.071381,185.477092 102.452269,186.385037 100.848447,187.166752 C100.455518,187.370545 100.06259,187.55913 99.6696608,187.746194 C99.276732,187.933258 98.8685141,188.121843 98.4434783,188.308907 C97.9251792,188.543117 97.4053512,188.762119 96.8870521,188.965912 C96.6821787,189.058684 96.4788342,189.137768 96.2739608,189.200123 C95.6608696,189.451062 95.0324892,189.683752 94.419398,189.887545 C93.6503583,190.170422 92.8629718,190.404633 92.0939322,190.622114 C91.5588151,190.778761 91.0099379,190.918679 90.4748208,191.043388 C90.4427138,191.060117 90.4121357,191.075326 90.3647396,191.075326 C89.8296226,191.201556 89.2960344,191.326265 88.7609173,191.420558 C88.620258,191.452495 88.4780698,191.482912 88.3374104,191.499642 C87.8970855,191.577205 87.4567606,191.656289 87.0164357,191.703435 C86.3880554,191.797727 85.7581462,191.875291 85.1297659,191.905708 C84.9096034,191.937645 84.706259,191.952854 84.4860965,191.952854 C83.9830865,191.983271 83.4800764,192 82.9923555,192 L82.9449594,192 C82.4587673,192 81.9710463,191.983271 81.4833254,191.952854 C81.2952699,191.952854 81.1056856,191.937645 80.9176302,191.905708 C80.4773053,191.890499 80.0216914,191.843353 79.5492594,191.780998 C79.4559962,191.780998 79.345915,191.76579 79.2511228,191.74906 C78.6701386,191.671497 78.0876254,191.577205 77.4913521,191.467704 C76.9883421,191.38862 76.4853321,191.279119 75.9655041,191.15441 C73.2776875,190.54455 70.5118968,189.621397 67.713999,188.387991 C65.3243192,187.340128 62.9040612,186.073263 60.4990922,184.604126 C59.2897277,183.869558 58.0788342,183.087843 56.8832298,182.258982 C56.2854276,181.836187 55.6891543,181.413391 55.0913521,180.975388 C53.2199713,179.614231 51.3654085,178.129885 49.5429527,176.534518 C49.0399427,176.081306 48.5369326,175.628093 48.0339226,175.159673 C47.5309126,174.706461 47.0279025,174.236519 46.5401816,173.783307 C45.313999,172.610735 44.1199236,171.392538 42.9564262,170.125673 C42.5008122,169.640523 42.0451983,169.141686 41.5880554,168.624598 C40.3312948,167.217815 39.1051123,165.763887 37.9416149,164.246082 C37.486001,163.700099 37.0609651,163.137386 36.6374582,162.573152 C35.048925,160.477426 33.5414238,158.288929 32.125657,156.019827 C31.7480172,155.411488 31.3703774,154.786421 31.0095557,154.175041 C30.5692308,153.440472 30.1457238,152.689174 29.720688,151.939397 C28.1489728,149.124311 26.7026278,146.201245 25.4458672,143.182366 C25.2562828,142.744363 25.0682274,142.306359 24.9107501,141.869876 C24.6600096,141.307163 24.4398471,140.727721 24.2349737,140.165008 C23.9200191,139.336147 23.6218825,138.507286 23.3390349,137.678425 C23.0561873,136.849564 22.7886288,136.003973 22.5210702,135.161425 C22.2703297,134.347772 22.0348782,133.53564 21.8147157,132.706779 C21.5624462,131.830772 21.3269947,130.939556 21.1221214,130.033132 C21.1068323,129.93884 21.0747253,129.844547 21.0594362,129.750255 C20.7612996,128.500119 20.493741,127.233255 20.2582895,125.951182 C19.9433349,124.263043 19.6925944,122.542966 19.5045389,120.80616 C19.4250358,120.260176 19.3776398,119.711151 19.3317726,119.165167 C19.2690874,118.585725 19.2216914,118.023012 19.1895843,117.44509 C19.1116101,116.397227 19.064214,115.332635 19.032107,114.269564 C19.016818,113.582142 19,112.894719 19,112.207297 L19,64.6550068 C19,29.5189031 47.6241758,1.03041692 82.9449594,1 L83.0091734,1 C87.8817965,1 92.6290492,1.54598369 97.1867176,2.56342963 C101.352986,3.50027073 105.361777,4.84621938 109.164166,6.54956684 C114.351744,8.86277351 119.176971,11.8360273 123.516006,15.3856818 C127.163975,18.3558939 130.480172,21.7017549 133.372862,25.392848 C141.798662,36.0722282 146.87463,49.4891311 146.984711,64.0922938 C147,64.2793579 147,64.466422 147,64.6550068 Z" id="Path" fill="#ECC19C"></path>
                    <path d="M167,289.984794 L167,290 L0,290 L0,289.984794 C0,280.619589 1.55861563,271.599553 4.45537474,263.204472 C4.97440293,261.688462 5.54089388,260.187657 6.15637864,258.702057 L6.15637864,258.685331 C6.75502177,257.199732 7.41490717,255.746064 8.10694476,254.309123 C10.8613156,248.540072 14.2939445,243.145081 18.2762228,238.206261 C19.283658,236.970036 20.3064039,235.765742 21.3613019,234.610107 C21.88033,234.015564 22.4315104,233.439267 22.9826908,232.859928 C23.5323401,232.297317 24.0850516,231.734705 24.6500115,231.172093 C27.4686867,228.372719 30.4894614,225.810555 33.670997,223.449106 C35.2602338,222.276744 36.8663122,221.181932 38.5351639,220.120572 C40.2040156,219.072898 41.9034884,218.070841 43.6351135,217.134168 C43.6672656,217.103757 43.6978868,217.103757 43.6978868,217.103757 C44.3746138,216.743381 45.0360303,216.352594 45.6974467,215.946601 C47.6648545,214.77424 49.5541783,213.475671 51.3485767,212.03873 C58.9518038,206.03551 64.8387165,197.967352 68.1917305,188.713148 C70.1912904,183.178265 71.2768095,177.222182 71.2768095,171 L83.4441164,171.062343 L95.9589732,171.126208 C95.9589732,177.26932 97.0138712,183.163059 98.9659684,188.635599 C102.27152,197.921735 108.143122,206.020304 115.746349,212.053936 C116.879331,212.976923 118.029154,213.820841 119.24022,214.619141 C119.367298,214.711896 119.476003,214.789445 119.60308,214.868515 C120.169571,215.244097 120.736062,215.618157 121.334705,215.963327 C121.97928,216.354114 122.640697,216.744902 123.302113,217.105277 C123.412349,217.135689 123.507275,217.182826 123.585359,217.24517 C124.970965,218.011538 126.33973,218.808318 127.677873,219.63703 C128.323979,220.027818 128.968554,220.43381 129.597818,220.886941 C130.90534,221.715653 132.179179,222.623435 133.423928,223.561628 C133.423928,223.576834 133.439239,223.576834 133.439239,223.576834 L133.45455,223.576834 C135.045317,224.749195 136.587091,226.000626 138.098244,227.282469 C139.609397,228.565832 141.057777,229.908497 142.458694,231.301342 C157.632996,246.30483 167,267.036315 167,289.984794 Z" id="Path" fill="#ECC19C"></path>
                    <path d="M167,290 L0,290 C0,280.632517 1.55862992,271.608767 4.45541559,263.213166 C4.97444854,261.696787 5.54247575,260.195617 6.15490401,258.709656 L6.15490401,258.692926 C6.75355263,257.206965 7.41497515,255.752944 8.10701909,254.314133 C10.8614152,248.545199 14.2925445,243.148896 18.2763903,238.207355 C19.2838348,236.97235 20.3081211,235.767764 21.3614977,234.611848 C21.8805306,234.017159 22.4317161,233.439201 22.9829015,232.861243 C23.534087,232.298495 24.0852724,231.735746 24.6517685,231.172997 C27.4689385,228.372943 30.491272,225.810155 33.6713057,223.448132 C35.2620881,222.275486 36.8666502,221.180407 38.5355172,220.117269 C39.4005721,219.57125 40.2671581,219.038921 41.1475237,218.523321 C41.9666465,218.038141 42.80108,217.568169 43.6355135,217.114929 C43.667666,217.082989 43.6982874,217.099719 43.6982874,217.099719 L43.6982874,217.082989 C44.3750206,216.707316 45.0364431,216.333164 45.6978657,215.940761 C47.6652915,214.752905 49.5546326,213.438811 51.316895,212 C51.3322057,212.01673 51.3322057,212.01673 51.3490474,212.03194 C59.5035297,220.319554 70.8533564,225.464901 83.4464125,225.496841 L83.5734914,225.496841 C96.1665475,225.496841 107.562306,220.336284 115.748941,212.04867 L115.764252,212.03194 C116.881933,212.955152 118.047078,213.816005 119.242844,214.612979 C119.368392,214.705756 119.478629,214.783324 119.604177,214.862413 C120.170673,215.238086 120.754011,215.597028 121.335818,215.957492 C121.980399,216.348374 122.643352,216.724046 123.303244,217.082989 C123.413481,217.114929 123.493096,217.177287 123.586492,217.224436 C124.325999,217.632049 125.082348,218.05335 125.806544,218.48986 C126.437345,218.865533 127.066615,219.241206 127.680575,219.632088 C128.325155,220.02297 128.971267,220.429062 129.600537,220.882302 C130.908072,221.711216 132.181922,222.619218 133.425152,223.55764 L133.457304,223.55764 C135.046556,224.745496 136.605185,225.982022 138.101041,227.277864 C139.612208,228.56154 141.060601,229.906053 142.461531,231.297715 C157.634441,246.307893 167,267.042898 167,290 Z" id="Path" fill="#EB6D4A"></path>
                    <path d="M147,112 C147,112.689195 146.984711,113.37839 146.967893,114.067585 C146.952604,114.631749 146.937315,115.180666 146.905208,115.746355 C146.889919,116.248004 146.857812,116.749652 146.810416,117.251301 C146.795127,117.611146 146.76302,117.972516 146.732441,118.332361 C146.715624,118.553453 146.700334,118.754722 146.668227,118.975813 C146.637649,119.367679 146.605542,119.774792 146.542857,120.166657 C146.463354,120.918368 146.38538,121.670078 146.275299,122.408066 C146.26001,122.597137 146.227903,122.784684 146.197324,122.97223 C146.149928,123.348848 146.087243,123.725466 146.024558,124.100558 C145.946584,124.664723 145.836503,125.228887 145.74171,125.779328 C145.61634,126.438028 145.489441,127.079955 145.348782,127.721882 C145.331964,127.863686 145.301386,127.988717 145.269279,128.115272 C145.253989,128.223531 145.221882,128.334839 145.206593,128.444622 C145.191304,128.476642 145.191304,128.507138 145.174486,128.539158 C145.174486,128.616921 145.159197,128.680961 145.143908,128.743477 C145.065934,129.072827 145.00172,129.402177 144.908457,129.730002 C144.877879,129.9023 144.845772,130.076124 144.783086,130.248423 C144.718872,130.561 144.640898,130.85833 144.547635,131.157185 C144.532346,131.298988 144.500239,131.440791 144.452843,131.579545 C144.420736,131.721349 144.374869,131.863152 144.342762,131.988183 C144.012518,133.273562 143.634878,134.528446 143.241949,135.781806 C143.052365,136.37799 142.86431,136.957402 142.660965,137.553586 C142.645676,137.616102 142.613569,137.678617 142.59828,137.741133 C142.410225,138.274801 142.22064,138.806945 142.032585,139.340614 C141.9699,139.497665 141.907215,139.653192 141.844529,139.82549 C141.654945,140.327139 141.46689,140.828788 141.263545,141.330436 C141.028094,141.940343 140.775824,142.536528 140.525084,143.134237 C140.304921,143.667906 140.06947,144.198525 139.834018,144.732194 C139.80344,144.828254 139.756044,144.904492 139.723937,144.999028 C139.456378,145.563192 139.205638,146.127356 138.938079,146.677797 C138.670521,147.257209 138.387673,147.838146 138.089537,148.419082 C137.523841,149.562658 136.91075,150.707759 136.297659,151.819315 L135.449116,153.324261 C133.027329,157.479254 130.341042,161.381135 127.416245,164.987211 C127.023316,165.504107 126.615098,166.005756 126.190062,166.490632 C125.609078,167.1966 125.011276,167.885795 124.413473,168.559742 C123.878356,169.155927 123.344768,169.750586 122.794362,170.331523 C121.285332,171.946252 119.744195,173.481693 118.17248,174.925649 C117.857525,175.238226 117.52881,175.521833 117.198567,175.819163 C116.66345,176.304039 116.129861,176.775192 115.579455,177.229573 C115.155948,177.606191 114.715624,177.966036 114.27377,178.327406 C113.142379,179.251415 112.010989,180.144929 110.862781,180.975928 C110.391878,181.337298 109.904157,181.681895 109.416436,182.011245 C108.630578,182.575409 107.827903,183.109078 107.026756,183.627499 C106.586431,183.924829 106.130817,184.206911 105.675203,184.473745 C104.071381,185.46027 102.452269,186.370557 100.848447,187.154287 C100.455518,187.358606 100.06259,187.547678 99.6696608,187.735224 C99.276732,187.922771 98.8685141,188.111842 98.4434783,188.299388 C97.9251792,188.534202 97.4053512,188.753769 96.8870521,188.958088 C96.6821787,189.051099 96.4788342,189.130387 96.2739608,189.192902 C95.6608696,189.444489 95.0324892,189.677778 94.419398,189.882097 C93.6503583,190.165704 92.8629718,190.400518 92.0939322,190.61856 C91.5588151,190.775611 91.0099379,190.91589 90.4748208,191.040921 C90.4427138,191.057693 90.4121357,191.072941 90.3647396,191.072941 C89.8296226,191.199497 89.2960344,191.324528 88.7609173,191.419063 C88.620258,191.451084 88.4780698,191.481579 88.3374104,191.498351 C87.8970855,191.576115 87.4567606,191.655402 87.0164357,191.70267 C86.3880554,191.797206 85.7581462,191.874969 85.1297659,191.905464 C84.9096034,191.937485 84.706259,191.952732 84.4860965,191.952732 C83.9830865,191.983228 83.4800764,192 82.9923555,192 L82.9449594,192 C82.4587673,192 81.9710463,191.983228 81.4833254,191.952732 C81.2952699,191.952732 81.1056856,191.937485 80.9176302,191.905464 C80.4773053,191.890217 80.0216914,191.842949 79.5492594,191.780433 C79.4559962,191.780433 79.345915,191.765186 79.2511228,191.748413 C78.6701386,191.67065 78.0876254,191.576115 77.4913521,191.466331 C76.9883421,191.387043 76.4853321,191.27726 75.9655041,191.152229 C73.2776875,190.540797 70.5118968,189.615263 67.713999,188.378676 C65.3243192,187.328111 62.9040612,186.057979 60.4990922,184.585053 C59.2897277,183.863838 58.0941233,183.080107 56.8832298,182.233861 C56.2854276,181.809976 55.6891543,181.38609 55.0913521,180.946957 C53.2199713,179.58229 51.3654085,178.094116 49.5429527,176.494635 C49.0399427,176.040254 48.5369326,175.585873 48.0339226,175.116244 C47.5309126,174.661864 47.0279025,174.19071 46.5401816,173.73633 C45.313999,172.560733 44.1199236,171.339394 42.9564262,170.069263 C42.5008122,169.582862 42.0451983,169.082738 41.5880554,168.564317 C40.3312948,167.153906 39.1051123,165.696228 37.9416149,164.17451 C37.486001,163.627118 37.0609651,163.062954 36.6374582,162.497265 C35.048925,160.396135 33.5414238,158.201994 32.125657,155.92704 C31.7480172,155.317133 31.3703774,154.690453 31.0095557,154.077496 C30.5692308,153.341033 30.1457238,152.587798 29.720688,151.836087 C28.1489728,149.013742 26.7026278,146.083138 25.4458672,143.056474 C25.2562828,142.61734 25.0682274,142.178207 24.9107501,141.740599 C24.6600096,141.176435 24.4398471,140.595498 24.2349737,140.031334 C23.9200191,139.200335 23.6218825,138.369337 23.3390349,137.538338 C23.0561873,136.70734 22.7886288,135.859569 22.5210702,135.014847 C22.2703297,134.199097 22.0348782,133.38487 21.8147157,132.553872 C21.5624462,131.675606 21.3269947,130.782092 21.1221214,129.87333 C21.1068323,129.778794 21.0747253,129.684259 21.0594362,129.589723 C20.7612996,128.336364 20.493741,127.066232 20.2582895,125.780853 C19.9433349,124.08836 19.6925944,122.363848 19.5045389,120.622563 C19.4250358,120.075171 19.3776398,119.52473 19.3317726,118.977338 C19.2690874,118.396402 19.2216914,117.832237 19.1895843,117.252826 C19.1116101,116.20226 19.064214,115.134923 19.032107,114.06911 C19.016818,113.379915 19,112.69072 19,112.001525 L29.217678,132.036976 L46.7756331,139.671489 L67.5381749,141.534755 L67.5534639,141.534755 L82.9419016,142.929918 L83.0366937,142.929918 L97.4344004,144.230545 C97.4344004,144.230545 97.4344004,144.215297 97.4496894,144.230545 L129.564357,147.116931 L147,112 Z" id="Path" fill="#543E36"></path>
                    <g id="Group" transform="translate(19.000000, 93.000000)" fill="#543E36">
                        <path d="M64.2422857,28.9036957 L64.2270476,44.3143478 L64.2270476,44.3295652 L64.2118095,49.7286957 L64.2118095,53.9682609 L64.1965714,68.048913 L64.1965714,68.0656522 L64.1813333,68.048913 L64.1660952,68.048913 L64.1188571,68.0169565 L2.49904762,36.695 C2.48380952,36.6006522 2.45180952,36.5063043 2.43657143,36.4119565 C2.13942857,35.161087 1.8727619,33.8934783 1.63809524,32.6106522 C1.32419048,30.9215217 1.07428571,29.2004348 0.886857143,27.4626087 C0.807619048,26.9163043 0.760380952,26.3669565 0.714666667,25.8206522 C0.652190476,25.2408696 0.604952381,24.6778261 0.572952381,24.0995652 C0.495238095,23.051087 0.448,21.9858696 0.416,20.9221739 C0.400761905,20.2343478 0.384,19.5465217 0.384,18.8586957 L0.384,0.162608696 C0.384,0.428913043 0.399238095,0.695217391 0.399238095,0.96 C0.524190476,5.48108696 1.24495238,10.4556522 2.6392381,15.5413043 C3.72114286,19.4521739 5.06666667,23.0663043 6.63466667,26.2893478 L6.63466667,26.3045652 C10.7398095,34.8323913 16.2392381,40.6195652 21.2982857,41.5584783 C21.6121905,41.6056522 21.9398095,41.6376087 22.2537143,41.6680435 C24.2118095,41.8871739 26.264381,42.0119565 28.3794286,42.0119565 C36.3702857,42.0119565 43.4666667,35.5978261 47.9314286,33.0002174 C47.9634286,32.985 47.9939048,32.9682609 48.0259048,32.9545652 C48.2605714,32.8130435 48.4952381,32.6715217 48.6994286,32.5315217 C48.7619048,32.4858696 48.824381,32.453913 48.888381,32.4234783 C52.647619,30.2793478 58.0693333,28.9173913 64.1158095,28.9036957 L64.2422857,28.9036957 L64.2422857,28.9036957 Z" id="Path"></path>
                        <path d="M127.971048,0.155 L127.95581,18.851087 C127.95581,23.5441304 127.516952,28.1443478 126.703238,32.6030435 C126.374095,34.3865217 125.997714,36.1547826 125.558857,37.9063043 L111.097905,58.7617391 L64.1904762,68.0397826 L64.1752381,68.0397826 L64.16,68.0565217 L64.16,68.0397826 L64.1127619,28.8884783 L64.2392381,28.8884783 C70.2857143,28.9052174 75.7226667,30.2656522 79.4819048,32.4082609 C79.5459048,32.4402174 79.591619,32.4706522 79.6540952,32.5178261 C79.8735238,32.6578261 80.1081905,32.7993478 80.344381,32.9393478 C80.359619,32.9545652 80.391619,32.9713043 80.4220952,32.9865217 C84.9020952,35.5826087 91.9832381,42.0028261 99.9740952,42.0028261 C102.089143,42.0028261 104.141714,41.8780435 106.09981,41.658913 C106.428952,41.6269565 106.741333,41.5965217 107.070476,41.5493478 C112.11581,40.6104348 117.630476,34.8217391 121.718857,26.2954348 L121.718857,26.2802174 C123.285333,23.0571739 124.632381,19.4430435 125.714286,15.5321739 C127.12381,10.3673913 127.861333,5.33043478 127.954286,0.746956522 C127.971048,0.546086957 127.971048,0.357391304 127.971048,0.155 Z" id="Path"></path>
                    </g>
                    <ellipse id="Oval" fill="#ECC19C" cx="83.5" cy="142" rx="15.5" ry="5"></ellipse>
                    <path d="M83.0298247,0 L82.9686458,0 C47.6347788,0.0320339573 19,28.6063239 19,63.8467278 L19,92 C19,92 21.6566932,75.202003 28.8130937,67.0470727 C36.5812831,58.1858699 34.6159113,44.7133027 52.0396587,44.7133027 C63.282809,44.7133027 63.9114221,48.8533103 82.9548806,48.8533103 L82.9701753,48.8533103 L83.0313542,48.8533103 L83.0466489,48.8533103 C102.090107,48.8533103 102.718721,44.7133027 113.961871,44.7133027 C131.385618,44.7133027 129.418717,58.1843445 137.188436,67.0470727 C144.343307,75.202003 147,92 147,92 L147,63.8467278 C146.998471,28.6063239 118.363692,0.0305085308 83.0298247,0 Z" id="Path" fill="#543E36"></path>
                    <path d="M125,218.440171 L123.281839,220.178882 C112.567259,231.024692 98.2598835,237 83,237 C67.5851629,236.968305 53.3081709,230.979413 42.6406843,220.148696 L41,218.473376 C41.8127464,217.99191 42.6406843,217.525537 43.4686223,217.075767 C43.5005245,217.044071 43.5309075,217.060674 43.5309075,217.060674 L43.5309075,217.044071 C44.2023728,216.671275 44.8586465,216.299988 45.5149202,215.910589 C47.4670308,214.731828 49.3416646,213.427795 51.0902087,212 C51.1054002,212.016602 51.1054002,212.016602 51.1221109,212.031695 C59.2131153,220.255856 70.4745904,225.361809 82.969617,225.393504 L83.0957066,225.393504 C95.5907332,225.393504 106.897783,220.272458 115.020689,212.048298 L115.035881,212.031695 C116.144862,212.947839 117.300937,213.802101 118.487395,214.592973 C118.611965,214.68504 118.721344,214.762014 118.845915,214.840497 C119.408001,215.213294 119.986798,215.569488 120.564076,215.927191 C121.203639,216.315081 121.861432,216.687877 122.516186,217.044071 C122.625565,217.075767 122.704561,217.137648 122.797229,217.184436 C123.532499,217.588928 124.281441,218.007003 125,218.440171 Z" id="Path" fill="#C34628"></path>
                </g>
            </g>
        </g>
    </g>
</svg>