<?xml version="1.0" encoding="UTF-8"?>
<svg width="231px" height="124px" viewBox="0 0 231 124" version="1.1" xmlns="http://www.w3.org/2000/svg" xmlns:xlink="http://www.w3.org/1999/xlink">
    <!-- Generator: Sketch 55.2 (78181) - https://sketchapp.com -->
    <title>Group Copy</title>
    <desc>Created with Sketch.</desc>
    <defs>
        <path d="M158.526203,14.8124068 L142.363631,27.3043864 C139.253334,29.708321 135.162845,30.4364539 131.414056,29.25348 L59.884173,6.68139704 C47.0770016,2.6399458 33.1094163,4.96675659 22.3040208,12.9417421 L0.312673654,29.1725848 C27.5100586,34.2243288 47.4300468,39.5662294 60.0726384,45.1982866 C69.4302238,49.3669301 85.9824353,58.7678834 109.729273,73.4011466 L109.729273,73.401147 C126.056735,83.462447 147.125872,81.1855945 160.926923,67.8684335 C182.692075,46.8664071 196.264601,34.333501 201.644501,30.2697152 C202.811513,29.3881959 204.047577,28.5618343 205.352693,27.7906303 C209.92725,25.0875077 211.444328,19.1877779 208.74119,14.61323 C207.609608,12.6982421 205.849442,11.234506 203.760216,10.471101 L198.625163,8.59474914 C185.077912,3.6445739 169.938233,5.99209954 158.526203,14.8124068 Z" id="path-1"></path>
        <filter x="-5.5%" y="-3.1%" width="111.1%" height="101.3%" filterUnits="objectBoundingBox" id="filter-3">
            <feGaussianBlur stdDeviation="4" in="SourceGraphic"></feGaussianBlur>
        </filter>
        <linearGradient x1="-9.56134704%" y1="37.1016124%" x2="112.357414%" y2="58.0704357%" id="linearGradient-4">
            <stop stop-color="#0178BC" offset="0%"></stop>
            <stop stop-color="#00BDDA" offset="100%"></stop>
        </linearGradient>
        <path d="M171.119197,56.4997711 L158.527844,66.2315713 C154.299158,69.4999042 148.418695,69.5777409 144.104982,66.4224795 L73.1469727,14.5202997 C61.451653,5.96576731 45.5551381,5.99986878 33.8966284,14.6045002 L14.4976968,28.9219954 C14.3733192,29.013793 14.2934956,29.1538502 14.2779002,29.3076467 C14.265018,29.4346861 14.3575608,29.548115 14.4846002,29.5609972 C14.4881816,29.5613603 14.491771,29.5616398 14.4953654,29.5618376 C35.6863608,30.7147148 56.055909,42.7770104 75.6040098,65.7487245 C88.2798514,80.6445863 103.308782,95.0436528 120.690803,108.945924 L120.690804,108.945923 C137.377571,122.292125 161.42496,120.982675 176.563881,105.903471 C189.637469,92.8814543 197.921487,85.0640703 201.415936,82.4513195 C206.784092,78.4376243 216.671737,74.8761517 231.078871,71.7669017 C231.083289,71.7659481 231.086442,71.7620416 231.086442,71.7575225 C231.086442,71.7529567 231.083368,71.7489631 231.078955,71.7477942 L216.577571,67.9075127 L208.167719,59.193535 C198.311389,48.9807707 182.349173,47.8201727 171.119197,56.4997711 Z" id="path-5"></path>
    </defs>
    <g id="Page-3" stroke="none" stroke-width="1" fill="none" fill-rule="evenodd">
        <g id="Artboard-Copy-29" transform="translate(-288.000000, -134.000000)">
            <g id="Group-2" transform="translate(288.000000, 126.000000)">
                <g id="Group-Copy">
                    <g id="Path-7">
                        <g id="Path-7-Copy" transform="translate(0.426497, 51.464987)">
                            <mask id="mask-2" fill="white">
                                <use xlink:href="#path-1"></use>
                            </mask>
                            <use id="Mask" fill="#FFFFFF" xlink:href="#path-1"></use>
                            <path d="M-125.53527,-22.9719717 C-112.764732,-25.4627979 -84.3613474,-33.951888 -67.9323159,-29.6698035 C-46.8861974,-24.1843153 -42.3961913,-8.03797054 -25.867761,5.99974657 C2.57173482,30.153619 13.8287456,22.9770962 48.8700372,26.1035149 C68.6056845,27.8643488 100.64731,52.0789556 92.0664775,75.1969787 C82.9601955,99.7306396 45.6342444,95.9840486 27.0510866,88.3820511 C23.5601222,86.9539675 20.4921016,84.5590603 17.6623416,82.0643109 C8.81312215,74.262736 1.4744705,64.7494218 -7.89106061,57.5766473 C-17.8132088,49.9775768 -37.8736106,48.2733026 -48.348903,48.0127187 C-77.6296517,47.2843292 -107.042163,50.9493179 -136.217598,48.3619921 C-162.453131,46.0353817 -193.880529,13.922785 -173.492815,-13.338702 C-166.494784,-22.696138 -148.856161,-21.8993413 -139.626087,-22.8307214 L-125.53527,-22.9719717 Z" fill-opacity="0.101043488" fill="#000000" mask="url(#mask-2)"></path>
                            <path d="M166.060516,11.5079984 C154.317825,20.1534585 138.322913,20.1783712 126.553349,11.5695323 L68.0882916,-31.1946873 C56.3929718,-39.7492197 40.4964569,-39.7151182 28.8379472,-31.1104868 L9.43901565,-16.7929916 C9.31463806,-16.701194 9.23481441,-16.5611368 9.219219,-16.4073403 C9.20403263,-16.2575776 9.26876886,-16.1108721 9.38963436,-16.0211446 L111.633605,59.8822688 C132.221342,75.1660991 160.401689,75.1179805 180.937111,59.7639315 L226.021557,26.054919 C226.025462,26.0519999 226.027761,26.0474104 226.027761,26.0425355 C226.027761,26.0376714 226.025425,26.0331033 226.021481,26.0302558 L205.656043,11.3248817 C193.819205,2.77779676 177.817794,2.85179817 166.060516,11.5079984 Z" id="Path-3-Copy-3" fill="#000000" opacity="0.332752046" filter="url(#filter-3)" mask="url(#mask-2)"></path>
                        </g>
                        <mask id="mask-6" fill="white">
                            <use xlink:href="#path-5"></use>
                        </mask>
                        <use id="Mask" fill="url(#linearGradient-4)" xlink:href="#path-5"></use>
                        <path d="M-15.7107081,27.6001582 C-2.94017057,25.109332 25.463214,16.6202419 41.8922455,20.9023263 C62.938364,26.3878145 67.4283701,42.5341593 83.9568004,56.5718764 C112.396296,80.7257489 123.653307,73.5492261 158.694599,76.6756447 C178.430246,78.4364787 210.471871,102.651085 201.891039,125.769109 C192.784757,150.302769 155.458806,146.556178 136.875648,138.954181 C133.384684,137.526097 130.316663,135.13119 127.486903,132.636441 C118.637684,124.834866 111.299032,115.321552 101.933501,108.148777 C92.0113526,100.549707 71.9509508,98.8454325 61.4756584,98.5848486 C32.1949097,97.8564591 2.78239841,101.521448 -26.3930364,98.934122 C-52.6285699,96.6075115 -84.0559681,64.4949148 -63.6682533,37.2334279 C-56.6702221,27.8759918 -39.0315994,28.6727886 -29.8015255,27.7414085 L-15.7107081,27.6001582 Z" fill-opacity="0.14" fill="#000000" style="mix-blend-mode: overlay;" mask="url(#mask-6)"></path>
                        <path d="M-30.1662435,42.0644439 C-17.395706,39.5736177 11.0076786,31.0845276 27.4367101,35.3666121 C48.4828286,40.8521003 52.9728347,56.998445 69.501265,71.0361621 C97.9407608,95.1900346 109.197772,88.0135118 144.239063,91.1399305 C163.974711,92.9007644 196.016336,117.115371 187.435503,140.233394 C178.329222,164.767055 141.00327,161.020464 122.420113,153.418467 C118.929148,151.990383 115.861128,149.595476 113.031368,147.100727 C104.182148,139.299152 96.8434965,129.785837 87.4779654,122.613063 C77.5558172,115.013992 57.4954154,113.309718 47.020123,113.049134 C17.7393743,112.320745 -11.673137,115.985733 -40.8485717,113.398408 C-67.0841053,111.071797 -98.5115035,78.9592005 -78.1237887,51.6977136 C-71.1257575,42.3402775 -53.4871348,43.1370743 -44.2570609,42.2056942 L-30.1662435,42.0644439 Z" id="Path-7-Copy" fill-opacity="0.44" fill="#FFFFFF" style="mix-blend-mode: overlay;" mask="url(#mask-6)"></path>
                    </g>
                </g>
            </g>
        </g>
    </g>
</svg>