<?xml version="1.0" encoding="UTF-8"?>
<svg width="382px" height="89px" viewBox="0 0 382 89" version="1.1" xmlns="http://www.w3.org/2000/svg" xmlns:xlink="http://www.w3.org/1999/xlink">
    <!-- Generator: Sketch 55.2 (78181) - https://sketchapp.com -->
    <title>Group 2</title>
    <desc>Created with Sketch.</desc>
    <defs>
        <linearGradient x1="2.22044605e-14%" y1="57.7174982%" x2="100%" y2="42.2825018%" id="linearGradient-1">
            <stop stop-color="#263238" offset="0%"></stop>
            <stop stop-color="#607D8B" offset="100%"></stop>
        </linearGradient>
        <path d="M116.492546,11.7819458 L106.829543,19.2504382 C103.719246,21.6543728 99.6287569,22.3825057 95.8799676,21.1995318 L49.6683578,6.61692324 C36.8611864,2.575472 22.8936012,4.90228279 12.0882057,12.8772683 L0.231809778,21.6279508 C20.3953882,25.3732093 35.1636554,29.3335839 44.5366112,33.5090746 C50.5255901,36.1770617 60.4896476,41.7359348 74.4287838,50.1856938 L74.428784,50.1856934 C90.6803003,60.0371932 111.52196,57.7484812 125.248297,44.6049848 C137.938683,32.4534519 146.020938,25.0655705 149.495061,22.4413406 C150.360259,21.7878004 151.276652,21.175153 152.244238,20.6033984 C155.63572,18.5993592 156.76045,14.2254215 154.756399,10.8339464 C153.917468,9.41421399 152.612518,8.32903028 151.063608,7.76305761 L148.485832,6.82113642 C137.677046,2.87159831 125.597729,4.74459098 116.492546,11.7819458 Z" id="path-2"></path>
        <filter x="-7.5%" y="-6.3%" width="114.9%" height="106.0%" filterUnits="objectBoundingBox" id="filter-4">
            <feGaussianBlur stdDeviation="4" in="SourceGraphic"></feGaussianBlur>
        </filter>
        <linearGradient x1="-9.56134704%" y1="37.1016124%" x2="112.357414%" y2="58.0704357%" id="linearGradient-5">
            <stop stop-color="#0178BC" offset="0%"></stop>
            <stop stop-color="#00BDDA" offset="100%"></stop>
        </linearGradient>
        <path d="M126.864232,41.8877613 L119.375726,47.6755945 C115.147039,50.9439273 109.266576,51.0217641 104.952864,47.8665026 L54.2296522,10.7650498 C45.5589841,4.42289646 33.7736369,4.44817858 25.130259,10.8274743 L10.7482925,21.442169 C10.6560815,21.5102258 10.5969019,21.6140613 10.5853398,21.7280829 C10.5757892,21.8222673 10.6443985,21.9063611 10.7385829,21.9159117 C10.7412381,21.9161809 10.7438992,21.9163881 10.746564,21.9165347 C26.4571296,22.7712541 41.5586911,31.7139905 56.0512486,48.744744 C63.2664175,57.2235624 71.5099279,65.4852725 80.7817799,73.5298742 C97.2789233,87.843406 121.993242,87.1239869 137.62984,71.8750609 C143.497701,66.1526787 147.396291,62.5702258 149.325608,61.1277024 C153.30545,58.1520299 160.635953,55.5116262 171.317116,53.2064915 C171.320376,53.2057695 171.322707,53.2028824 171.322707,53.1995425 C171.322707,53.1961576 171.320428,53.1931968 171.317156,53.1923302 L160.56613,50.3452249 L154.33124,43.8848622 C147.023961,36.31333 135.189904,35.4528866 126.864232,41.8877613 Z" id="path-6"></path>
    </defs>
    <g id="Page-3" stroke="none" stroke-width="1" fill="none" fill-rule="evenodd">
        <g id="Artboard-Copy-28" transform="translate(-96.000000, -263.000000)">
            <g id="Group-2" transform="translate(96.000000, 257.000000)">
                <g id="Group-3" transform="translate(189.000000, 11.000000)" fill="#333A42" fill-rule="nonzero">
                    <path d="M12.0431056,51.4776759 L37.2120701,51.4776759 L37.2120701,61 L0.189590078,61 L0.189590078,3.47093821 L12.0431056,3.47093821 L12.0431056,51.4776759 Z M58.4841327,61.7902344 C52.2149087,61.7902344 47.1113628,59.86735 43.1733419,56.0215235 C39.2353209,52.175697 37.26634,47.0523955 37.26634,40.6514651 L37.26634,39.545137 C37.26634,35.2515088 38.0960778,31.4123252 39.7555782,28.0274711 C41.4150787,24.642617 43.7660024,22.0348697 46.8084199,20.2041509 C49.8508375,18.3734321 53.3212487,17.4580865 57.2197577,17.4580865 C63.0675212,17.4580865 67.6705904,19.3019482 71.0291032,22.989727 C74.3876161,26.6775058 76.0668473,31.9061709 76.0668473,38.6758792 L76.0668473,43.3382619 L48.8432734,43.3382619 C49.2120513,46.1304373 50.3249536,48.3694123 52.1820136,50.055254 C54.0390737,51.7410958 56.3899974,52.584004 59.2348553,52.584004 C63.6338486,52.584004 67.0713337,50.9903806 69.5474138,47.8030861 L75.1580778,54.0854493 C73.4458948,56.5088468 71.1278972,58.3988051 68.2040154,59.7553809 C65.2801336,61.1119567 62.0402051,61.7902344 58.4841327,61.7902344 Z M57.180246,26.7038285 C54.9148961,26.7038285 53.0776196,27.4677141 51.6683613,28.9955082 C50.259103,30.5233023 49.3569277,32.7095955 48.9618086,35.5544534 L64.8455193,35.5544534 L64.8455193,34.6456839 C64.7928368,32.1169213 64.1079738,30.1611108 62.79091,28.7781938 C61.4738461,27.3952767 59.6036435,26.7038285 57.180246,26.7038285 Z M102.87055,61 C102.343725,59.9726902 101.961782,58.6951574 101.724711,57.1673633 C98.9588765,60.2492928 95.3633461,61.7902344 90.9380116,61.7902344 C86.7497485,61.7902344 83.2793373,60.5785538 80.5266738,58.1551563 C77.7740103,55.7317588 76.3976992,52.6762165 76.3976992,48.9884376 C76.3976992,44.457738 78.0769305,40.9807415 81.4354433,38.557344 C84.7939562,36.1339465 89.6472637,34.9090955 95.9955115,34.8827542 L101.25057,34.8827542 L101.25057,32.4330277 C101.25057,30.4574319 100.743508,28.876979 99.7293689,27.6916215 C98.7152297,26.506264 97.1150211,25.9135942 94.9286951,25.9135942 C93.0057819,25.9135942 91.4977664,26.3745596 90.4046034,27.2965043 C89.3114404,28.218449 88.7648671,29.4828114 88.7648671,31.0896293 L77.3459805,31.0896293 C77.3459805,28.6135492 78.1098661,26.3218925 79.6376601,24.2145903 C81.1654542,22.1072881 83.3254065,20.4543978 86.1175819,19.2558697 C88.9097573,18.0573415 92.0443223,17.4580865 95.5213709,17.4580865 C100.789626,17.4580865 104.971241,18.7817158 108.066341,21.4290142 C111.161442,24.0763125 112.708968,27.7969621 112.708968,32.5910746 L112.708968,51.1220704 C112.73531,55.1786271 113.301639,58.2473399 114.407972,60.3283008 L114.407972,61 L102.87055,61 Z M93.4272498,53.0581446 C95.1130916,53.0581446 96.6672036,52.6827871 98.0896326,51.9320607 C99.5120615,51.1813343 100.565697,50.1737955 101.25057,48.9094142 L101.25057,41.5602346 L96.9833045,41.5602346 C91.2672473,41.5602346 88.2248754,43.5358008 87.8560975,47.4869924 L87.8165858,48.1586916 C87.8165858,49.5811205 88.3170626,50.7532898 89.3180311,51.6752345 C90.3189996,52.5971792 91.6887255,53.0581446 93.4272498,53.0581446 Z M115.252476,39.3080667 C115.252476,32.6437235 116.747322,27.3360358 119.737056,23.3848442 C122.726791,19.4336526 126.816213,17.4580865 132.005445,17.4580865 C136.167367,17.4580865 139.604852,19.0121985 142.318003,22.1204692 L142.318003,0.31000075 L153.776402,0.31000075 L153.776402,61 L143.463843,61 L142.910679,56.4561524 C140.065821,60.0122248 136.404439,61.7902344 131.926422,61.7902344 C126.895238,61.7902344 122.858497,59.808083 119.81608,55.8437208 C116.773662,51.8793585 115.252476,46.367529 115.252476,39.3080667 Z M126.671363,40.1378128 C126.671363,44.1416869 127.369396,47.2103997 128.765484,49.3440431 C130.161572,51.4776866 132.18982,52.5444923 134.850289,52.5444923 C138.38002,52.5444923 140.869233,51.0562325 142.318003,48.0796681 L142.318003,31.2081644 C140.895575,28.2316001 138.432702,26.7433403 134.929312,26.7433403 C129.423985,26.7433403 126.671363,31.2081198 126.671363,40.1378128 Z M181.330828,49.1859962 C181.330828,47.7899085 180.639379,46.6901767 179.256462,45.8867678 C177.873545,45.0833588 175.654326,44.3655698 172.598738,43.7333791 C162.431005,41.5997357 157.347215,37.279831 157.347215,30.7735355 C157.347215,26.9803916 158.921082,23.8129005 162.068865,21.2709673 C165.216648,18.729034 169.33241,17.4580865 174.416277,17.4580865 C179.84258,17.4580865 184.18224,18.7356193 187.435388,21.2907231 C190.688536,23.845827 192.315085,27.1647782 192.315085,31.2476761 L180.896199,31.2476761 C180.896199,29.614517 180.369381,28.2645468 179.31573,27.197725 C178.262079,26.1309033 176.615774,25.5975004 174.376765,25.5975004 C172.453852,25.5975004 170.965592,26.032125 169.911941,26.9013871 C168.85829,27.7706493 168.331472,28.8769663 168.331472,30.2203715 C168.331472,31.4847528 168.930727,32.505462 170.129255,33.2825296 C171.327784,34.0595973 173.349446,34.7312898 176.194304,35.2976273 C179.039162,35.8639647 181.436182,36.5027311 183.385437,37.2139456 C189.417589,39.4266129 192.43362,43.2592112 192.43362,48.7118556 C192.43362,52.6103646 190.760974,55.7646853 187.415632,58.1749121 C184.07029,60.585139 179.750385,61.7902344 174.455789,61.7902344 C170.873375,61.7902344 167.692713,61.151468 164.913709,59.873916 C162.134704,58.5963641 159.954996,56.8446954 158.374519,54.6188575 C156.794043,52.3930196 156.003816,49.9894141 156.003816,47.4079689 L166.830027,47.4079689 C166.935392,49.4362473 167.686107,50.9903593 169.082195,52.0703517 C170.478283,53.150344 172.348485,53.6903321 174.692859,53.6903321 C176.879185,53.6903321 178.532075,53.2754632 179.65158,52.445713 C180.771084,51.6159628 181.330828,50.5294014 181.330828,49.1859962 Z" id="Leads"></path>
                    <path d="M7.2280124,72.3014067 C6.90097953,72.2469012 6.54669923,72.2196489 6.16516088,72.2196489 C4.74801844,72.2196489 3.78640049,72.8230933 3.28027819,74.0300004 L3.28027819,83 L1.11953609,83 L1.11953609,70.3625787 L3.22187975,70.3625787 L3.25691882,71.8225395 C3.96549004,70.6934975 4.96993308,70.1289849 6.27027806,70.1289849 C6.6907489,70.1289849 7.00999049,70.1834896 7.2280124,70.2925005 L7.2280124,72.3014067 Z M12.9203825,83.2335937 C11.2073532,83.2335937 9.81359113,82.6710278 8.73905455,81.545879 C7.66451797,80.4207302 7.12725774,78.9160122 7.12725774,77.0316799 L7.12725774,76.6345706 C7.12725774,75.3809446 7.36668893,74.2616524 7.84555849,73.2766606 C8.32442806,72.2916687 8.99405675,71.5208171 9.85446466,70.9640825 C10.7148726,70.407348 11.6472916,70.1289849 12.6517497,70.1289849 C14.2947006,70.1289849 15.5716669,70.6701383 16.482687,71.7524614 C17.3937072,72.8347845 17.8492104,74.3842741 17.8492104,76.4009768 L17.8492104,77.3003127 L9.28799984,77.3003127 C9.31914583,78.5461522 9.6831591,79.5525419 10.3800506,80.3195118 C11.0769421,81.0864818 11.9626428,81.469961 13.0371794,81.469961 C13.8002561,81.469961 14.4465256,81.3142334 14.9760074,81.0027735 C15.5054892,80.6913136 15.9687788,80.2786355 16.3658902,79.7647267 L17.6856948,80.7925392 C16.6267312,82.419917 15.0383097,83.2335937 12.9203825,83.2335937 Z M12.6517497,71.9042973 C11.779662,71.9042973 11.0477423,72.2215923 10.4559685,72.8561918 C9.86419477,73.4907913 9.49823491,74.3803853 9.35807796,75.5250003 L15.6884683,75.5250003 L15.6884683,75.3614847 C15.6261763,74.2635886 15.3302939,73.4129266 14.8008121,72.8094731 C14.2713303,72.2060196 13.5549833,71.9042973 12.6517497,71.9042973 Z M26.8352523,83 C26.7106683,82.7508321 26.6094454,82.3070084 26.5315804,81.6685157 C25.5271223,82.7119063 24.3280197,83.2335937 22.9342368,83.2335937 C21.6883973,83.2335937 20.6664349,82.88126 19.868319,82.1765821 C19.070203,81.4719041 18.671151,80.578417 18.671151,79.4960939 C18.671151,78.1801759 19.171426,77.1582135 20.1719908,76.4301761 C21.1725557,75.7021386 22.5799439,75.3381253 24.3941977,75.3381253 L26.4965413,75.3381253 L26.4965413,74.3453519 C26.4965413,73.5900617 26.2707363,72.9885639 25.8191195,72.5408403 C25.3675027,72.0931167 24.7017672,71.8692583 23.821893,71.8692583 C23.0510298,71.8692583 22.4047603,72.0639178 21.883065,72.4532426 C21.3613697,72.8425675 21.1005259,73.3136435 21.1005259,73.8664848 L18.9281041,73.8664848 C18.9281041,73.2357785 19.1519626,72.6264943 19.5996862,72.0386137 C20.0474097,71.4507332 20.6547474,70.985497 21.4217173,70.6428911 C22.1886873,70.3002853 23.0315629,70.1289849 23.9503696,70.1289849 C25.4064445,70.1289849 26.5471492,70.4929982 27.3725179,71.2210356 C28.1978865,71.9490731 28.6261374,72.9515696 28.6572834,74.2285551 L28.6572834,80.0450392 C28.6572834,81.2052272 28.8052247,82.1279133 29.1011115,82.813125 L29.1011115,83 L26.8352523,83 Z M23.2495883,81.3531641 C23.9270136,81.3531641 24.5693899,81.1779706 25.1767367,80.8275782 C25.7840835,80.4771859 26.2240139,80.0216826 26.4965413,79.4610548 L26.4965413,76.8681643 L24.8029867,76.8681643 C22.1555778,76.8681643 20.8318931,77.6429091 20.8318931,79.192422 C20.8318931,79.8698473 21.0576982,80.3993211 21.509315,80.7808595 C21.9609318,81.1623978 22.5410171,81.3531641 23.2495883,81.3531641 Z M33.0765676,83 L30.9158255,83 L30.9158255,65.0600008 L33.0765676,65.0600008 L33.0765676,83 Z M40.4624924,83.2335937 C38.749463,83.2335937 37.355701,82.6710278 36.2811644,81.545879 C35.2066278,80.4207302 34.6693676,78.9160122 34.6693676,77.0316799 L34.6693676,76.6345706 C34.6693676,75.3809446 34.9087988,74.2616524 35.3876684,73.2766606 C35.8665379,72.2916687 36.5361666,71.5208171 37.3965745,70.9640825 C38.2569824,70.407348 39.1894015,70.1289849 40.1938596,70.1289849 C41.8368104,70.1289849 43.1137768,70.6701383 44.0247969,71.7524614 C44.935817,72.8347845 45.3913203,74.3842741 45.3913203,76.4009768 L45.3913203,77.3003127 L36.8301097,77.3003127 C36.8612557,78.5461522 37.225269,79.5525419 37.9221604,80.3195118 C38.6190519,81.0864818 39.5047527,81.469961 40.5792892,81.469961 C41.3423659,81.469961 41.9886355,81.3142334 42.5181173,81.0027735 C43.0475991,80.6913136 43.5108887,80.2786355 43.908,79.7647267 L45.2278047,80.7925392 C44.1688411,82.419917 42.5804195,83.2335937 40.4624924,83.2335937 Z M40.1938596,71.9042973 C39.3217719,71.9042973 38.5898522,72.2215923 37.9980784,72.8561918 C37.4063046,73.4907913 37.0403448,74.3803853 36.9001878,75.5250003 L43.2305782,75.5250003 L43.2305782,75.3614847 C43.1682862,74.2635886 42.8724038,73.4129266 42.342922,72.8094731 C41.8134402,72.2060196 41.0970932,71.9042973 40.1938596,71.9042973 Z M53.933534,79.6479298 C53.933534,79.0639426 53.7135688,78.6103859 53.2736317,78.2872463 C52.8336946,77.9641067 52.0667362,77.6857436 50.9727334,77.4521487 C49.8787305,77.2185538 49.0105492,76.9382441 48.3681632,76.6112112 C47.7257772,76.2841783 47.250808,75.8948593 46.9432413,75.4432425 C46.6356747,74.9916257 46.4818937,74.4543655 46.4818937,73.8314457 C46.4818937,72.7958416 46.9198776,71.9198738 47.7958585,71.2035161 C48.6718394,70.4871584 49.7911315,70.1289849 51.1537685,70.1289849 C52.5864839,70.1289849 53.7486012,70.498838 54.6401551,71.2385552 C55.531709,71.9782724 55.9774792,72.9243176 55.9774792,74.0767191 L53.8050575,74.0767191 C53.8050575,73.4849454 53.5539467,72.9749375 53.0517176,72.5466801 C52.5494886,72.1184228 51.9168452,71.9042973 51.1537685,71.9042973 C50.3673323,71.9042973 49.7522083,72.0755977 49.308378,72.4182036 C48.8645476,72.7608094 48.6426358,73.2085263 48.6426358,73.7613676 C48.6426358,74.2830629 48.8489749,74.6762751 49.2616592,74.941016 C49.6743435,75.2057569 50.4198894,75.4588142 51.4983193,75.7001956 C52.5767491,75.941577 53.4507703,76.2296731 54.120409,76.5644925 C54.7900477,76.8993118 55.2864295,77.302257 55.6095691,77.7733401 C55.9327087,78.2444231 56.0942761,78.8186687 56.0942761,79.4960939 C56.0942761,80.625136 55.6426661,81.5303026 54.7394324,82.2116211 C53.8361988,82.8929396 52.6643486,83.2335937 51.2238466,83.2335937 C50.211602,83.2335937 49.3161683,83.054507 48.5375186,82.6963281 C47.7588689,82.3381493 47.1495847,81.8378744 46.7096476,81.1954884 C46.2697105,80.5531024 46.0497453,79.8581679 46.0497453,79.1106642 L48.2104874,79.1106642 C48.2494199,79.8348084 48.5394625,80.409054 49.0806241,80.8334181 C49.6217856,81.2577821 50.336186,81.469961 51.2238466,81.469961 C52.0414288,81.469961 52.6974313,81.3045004 53.1918739,80.9735743 C53.6863164,80.6426482 53.933534,80.2007711 53.933534,79.6479298 Z M60.52524,67.3025007 L60.52524,70.3625787 L62.8845368,70.3625787 L62.8845368,72.0327739 L60.52524,72.0327739 L60.52524,79.8698439 C60.52524,80.3759662 60.6303561,80.7555522 60.8405916,81.0086134 C61.050827,81.2616745 61.4090005,81.3882032 61.9151228,81.3882032 C62.1642907,81.3882032 62.5068914,81.3414849 62.9429352,81.2480469 L62.9429352,83 C62.374521,83.1557299 61.821688,83.2335937 61.2844197,83.2335937 C60.3188941,83.2335937 59.5908675,82.9416045 59.1003182,82.3576172 C58.6097689,81.7736299 58.3644979,80.9443805 58.3644979,79.8698439 L58.3644979,72.0327739 L56.0635996,72.0327739 L56.0635996,70.3625787 L58.3644979,70.3625787 L58.3644979,67.3025007 L60.52524,67.3025007 Z M71.893938,83 C71.7693541,82.7508321 71.6681311,82.3070084 71.5902661,81.6685157 C70.585808,82.7119063 69.3867055,83.2335937 67.9929225,83.2335937 C66.747083,83.2335937 65.7251206,82.88126 64.9270047,82.1765821 C64.1288888,81.4719041 63.7298368,80.578417 63.7298368,79.4960939 C63.7298368,78.1801759 64.2301117,77.1582135 65.2306766,76.4301761 C66.2312414,75.7021386 67.6386296,75.3381253 69.4528834,75.3381253 L71.5552271,75.3381253 L71.5552271,74.3453519 C71.5552271,73.5900617 71.3294221,72.9885639 70.8778052,72.5408403 C70.4261884,72.0931167 69.7604529,71.8692583 68.8805788,71.8692583 C68.1097156,71.8692583 67.463446,72.0639178 66.9417507,72.4532426 C66.4200554,72.8425675 66.1592117,73.3136435 66.1592117,73.8664848 L63.9867899,73.8664848 C63.9867899,73.2357785 64.2106483,72.6264943 64.6583719,72.0386137 C65.1060955,71.4507332 65.7134331,70.985497 66.4804031,70.6428911 C67.247373,70.3002853 68.0902487,70.1289849 69.0090553,70.1289849 C70.4651302,70.1289849 71.6058349,70.4929982 72.4312036,71.2210356 C73.2565723,71.9490731 73.6848232,72.9515696 73.7159692,74.2285551 L73.7159692,80.0450392 C73.7159692,81.2052272 73.8639104,82.1279133 74.1597973,82.813125 L74.1597973,83 L71.893938,83 Z M68.3082741,81.3531641 C68.9856993,81.3531641 69.6280757,81.1779706 70.2354224,80.8275782 C70.8427692,80.4771859 71.2826997,80.0216826 71.5552271,79.4610548 L71.5552271,76.8681643 L69.8616725,76.8681643 C67.2142635,76.8681643 65.8905789,77.6429091 65.8905789,79.192422 C65.8905789,79.8698473 66.1163839,80.3993211 66.5680007,80.7808595 C67.0196175,81.1623978 67.5997029,81.3531641 68.3082741,81.3531641 Z M78.7192377,67.3025007 L78.7192377,70.3625787 L81.0785345,70.3625787 L81.0785345,72.0327739 L78.7192377,72.0327739 L78.7192377,79.8698439 C78.7192377,80.3759662 78.8243539,80.7555522 79.0345893,81.0086134 C79.2448247,81.2616745 79.6029982,81.3882032 80.1091205,81.3882032 C80.3582884,81.3882032 80.7008891,81.3414849 81.136933,81.2480469 L81.136933,83 C80.5685187,83.1557299 80.0156857,83.2335937 79.4784174,83.2335937 C78.5128918,83.2335937 77.7848652,82.9416045 77.2943159,82.3576172 C76.8037666,81.7736299 76.5584956,80.9443805 76.5584956,79.8698439 L76.5584956,72.0327739 L74.2575973,72.0327739 L74.2575973,70.3625787 L76.5584956,70.3625787 L76.5584956,67.3025007 L78.7192377,67.3025007 Z M87.5300843,83.2335937 C85.817055,83.2335937 84.4232929,82.6710278 83.3487563,81.545879 C82.2742197,80.4207302 81.7369595,78.9160122 81.7369595,77.0316799 L81.7369595,76.6345706 C81.7369595,75.3809446 81.9763907,74.2616524 82.4552603,73.2766606 C82.9341298,72.2916687 83.6037585,71.5208171 84.4641664,70.9640825 C85.3245743,70.407348 86.2569934,70.1289849 87.2614515,70.1289849 C88.9044023,70.1289849 90.1813687,70.6701383 91.0923888,71.7524614 C92.003409,72.8347845 92.4589122,74.3842741 92.4589122,76.4009768 L92.4589122,77.3003127 L83.8977016,77.3003127 C83.9288476,78.5461522 84.2928609,79.5525419 84.9897524,80.3195118 C85.6866438,81.0864818 86.5723446,81.469961 87.6468811,81.469961 C88.4099578,81.469961 89.0562274,81.3142334 89.5857092,81.0027735 C90.115191,80.6913136 90.5784806,80.2786355 90.9755919,79.7647267 L92.2953966,80.7925392 C91.236433,82.419917 89.6480114,83.2335937 87.5300843,83.2335937 Z M87.2614515,71.9042973 C86.3893638,71.9042973 85.6574441,72.2215923 85.0656703,72.8561918 C84.4738966,73.4907913 84.1079367,74.3803853 83.9677797,75.5250003 L90.2981701,75.5250003 L90.2981701,75.3614847 C90.2358781,74.2635886 89.9399957,73.4129266 89.4105139,72.8094731 C88.8810321,72.2060196 88.1646851,71.9042973 87.2614515,71.9042973 Z M105.607285,79.6479298 C105.607285,79.0639426 105.38732,78.6103859 104.947383,78.2872463 C104.507446,77.9641067 103.740487,77.6857436 102.646484,77.4521487 C101.552482,77.2185538 100.6843,76.9382441 100.041914,76.6112112 C99.3995283,76.2841783 98.9245591,75.8948593 98.6169925,75.4432425 C98.3094258,74.9916257 98.1556448,74.4543655 98.1556448,73.8314457 C98.1556448,72.7958416 98.5936287,71.9198738 99.4696096,71.2035161 C100.345591,70.4871584 101.464883,70.1289849 102.82752,70.1289849 C104.260235,70.1289849 105.422352,70.498838 106.313906,71.2385552 C107.20546,71.9782724 107.65123,72.9243176 107.65123,74.0767191 L105.478809,74.0767191 C105.478809,73.4849454 105.227698,72.9749375 104.725469,72.5466801 C104.22324,72.1184228 103.590596,71.9042973 102.82752,71.9042973 C102.041083,71.9042973 101.425959,72.0755977 100.982129,72.4182036 C100.538299,72.7608094 100.316387,73.2085263 100.316387,73.7613676 C100.316387,74.2830629 100.522726,74.6762751 100.93541,74.941016 C101.348095,75.2057569 102.093641,75.4588142 103.17207,75.7001956 C104.2505,75.941577 105.124521,76.2296731 105.79416,76.5644925 C106.463799,76.8993118 106.960181,77.302257 107.28332,77.7733401 C107.60646,78.2444231 107.768027,78.8186687 107.768027,79.4960939 C107.768027,80.625136 107.316417,81.5303026 106.413184,82.2116211 C105.50995,82.8929396 104.3381,83.2335937 102.897598,83.2335937 C101.885353,83.2335937 100.989919,83.054507 100.21127,82.6963281 C99.43262,82.3381493 98.8233358,81.8378744 98.3833987,81.1954884 C97.9434616,80.5531024 97.7234964,79.8581679 97.7234964,79.1106642 L99.8842385,79.1106642 C99.923171,79.8348084 100.213214,80.409054 100.754375,80.8334181 C101.295537,81.2577821 102.009937,81.469961 102.897598,81.469961 C103.71518,81.469961 104.371182,81.3045004 104.865625,80.9735743 C105.360068,80.6426482 105.607285,80.2007711 105.607285,79.6479298 Z M108.695085,76.5644925 C108.695085,75.3264394 108.938409,74.2129871 109.425065,73.224102 C109.911722,72.2352169 110.589137,71.4721516 111.457331,70.9348833 C112.325525,70.397615 113.316342,70.1289849 114.429811,70.1289849 C116.150627,70.1289849 117.542443,70.724643 118.605299,71.915977 C119.668156,73.1073111 120.199577,74.6918394 120.199577,76.6696096 L120.199577,76.8214456 C120.199577,78.0517121 119.964039,79.1554315 119.492956,80.1326368 C119.021873,81.1098422 118.348351,81.8709609 117.47237,82.4160156 C116.596389,82.9610704 115.589999,83.2335937 114.453171,83.2335937 C112.740141,83.2335937 111.352219,82.6379357 110.289362,81.4466016 C109.226505,80.2552676 108.695085,78.6785256 108.695085,76.7163284 L108.695085,76.5644925 Z M110.867507,76.8214456 C110.867507,78.223015 111.192588,79.348147 111.842761,80.1968751 C112.492933,81.0456033 113.363061,81.469961 114.453171,81.469961 C115.551067,81.469961 116.423141,81.0397635 117.069421,80.1793556 C117.7157,79.3189477 118.038835,78.1140053 118.038835,76.5644925 C118.038835,75.178496 117.70986,74.0553107 117.051901,73.1949028 C116.393942,72.3344948 115.519921,71.9042973 114.429811,71.9042973 C113.363061,71.9042973 112.502666,72.3286551 111.848601,73.1773832 C111.194535,74.0261114 110.867507,75.2407867 110.867507,76.8214456 Z M123.941439,83 L121.780697,83 L121.780697,65.0600008 L123.941439,65.0600008 L123.941439,83 Z M133.885215,81.7502735 C133.044274,82.7391586 131.810132,83.2335937 130.182754,83.2335937 C128.835691,83.2335937 127.809835,82.8423281 127.105157,82.0597852 C126.400479,81.2772423 126.044252,80.1190182 126.036466,78.5850783 L126.036466,70.3625787 L128.197208,70.3625787 L128.197208,78.5266799 C128.197208,80.4421581 128.975846,81.3998829 130.533145,81.3998829 C132.183882,81.3998829 133.281762,80.7847588 133.826817,79.5544923 L133.826817,70.3625787 L135.987559,70.3625787 L135.987559,83 L133.931934,83 L133.885215,81.7502735 Z M140.88571,67.3025007 L140.88571,70.3625787 L143.245007,70.3625787 L143.245007,72.0327739 L140.88571,72.0327739 L140.88571,79.8698439 C140.88571,80.3759662 140.990826,80.7555522 141.201062,81.0086134 C141.411297,81.2616745 141.769471,81.3882032 142.275593,81.3882032 C142.524761,81.3882032 142.867362,81.3414849 143.303406,81.2480469 L143.303406,83 C142.734991,83.1557299 142.182158,83.2335937 141.64489,83.2335937 C140.679364,83.2335937 139.951338,82.9416045 139.460789,82.3576172 C138.970239,81.7736299 138.724968,80.9443805 138.724968,79.8698439 L138.724968,72.0327739 L136.42407,72.0327739 L136.42407,70.3625787 L138.724968,70.3625787 L138.724968,67.3025007 L140.88571,67.3025007 Z M146.799994,83 L144.639252,83 L144.639252,70.3625787 L146.799994,70.3625787 L146.799994,83 Z M144.464057,67.0105085 C144.464057,66.6601161 144.57112,66.3642337 144.785248,66.1228523 C144.999377,65.8814709 145.316672,65.760782 145.737143,65.760782 C146.157614,65.760782 146.476855,65.8814709 146.694877,66.1228523 C146.912899,66.3642337 147.021909,66.6601161 147.021909,67.0105085 C147.021909,67.3609008 146.912899,67.6528901 146.694877,67.886485 C146.476855,68.1200799 146.157614,68.2368756 145.737143,68.2368756 C145.316672,68.2368756 144.999377,68.1200799 144.785248,67.886485 C144.57112,67.6528901 144.464057,67.3609008 144.464057,67.0105085 Z M148.369435,76.5644925 C148.369435,75.3264394 148.612759,74.2129871 149.099416,73.224102 C149.586072,72.2352169 150.263487,71.4721516 151.131681,70.9348833 C151.999875,70.397615 152.990692,70.1289849 154.104161,70.1289849 C155.824977,70.1289849 157.216793,70.724643 158.279649,71.915977 C159.342506,73.1073111 159.873927,74.6918394 159.873927,76.6696096 L159.873927,76.8214456 C159.873927,78.0517121 159.638389,79.1554315 159.167306,80.1326368 C158.696223,81.1098422 158.022701,81.8709609 157.14672,82.4160156 C156.270739,82.9610704 155.264349,83.2335937 154.127521,83.2335937 C152.414491,83.2335937 151.026569,82.6379357 149.963712,81.4466016 C148.900856,80.2552676 148.369435,78.6785256 148.369435,76.7163284 L148.369435,76.5644925 Z M150.541857,76.8214456 C150.541857,78.223015 150.866938,79.348147 151.517111,80.1968751 C152.167283,81.0456033 153.037411,81.469961 154.127521,81.469961 C155.225417,81.469961 156.097491,81.0397635 156.743771,80.1793556 C157.39005,79.3189477 157.713185,78.1140053 157.713185,76.5644925 C157.713185,75.178496 157.38421,74.0553107 156.726251,73.1949028 C156.068292,72.3344948 155.194271,71.9042973 154.104161,71.9042973 C153.037411,71.9042973 152.177016,72.3286551 151.522951,73.1773832 C150.868885,74.0261114 150.541857,75.2407867 150.541857,76.8214456 Z M163.312117,70.3625787 L163.382195,71.9510161 C164.347721,70.7363226 165.609115,70.1289849 167.166414,70.1289849 C169.837182,70.1289849 171.184226,71.6356495 171.207586,74.6490238 L171.207586,83 L169.046844,83 L169.046844,74.6373441 C169.039057,73.726324 168.830771,73.0528021 168.42198,72.6167582 C168.013189,72.1807144 167.376653,71.9626958 166.512352,71.9626958 C165.811567,71.9626958 165.196443,72.1495689 164.666961,72.5233208 C164.137479,72.8970726 163.724801,73.3876146 163.428914,73.9949613 L163.428914,83 L161.268172,83 L161.268172,70.3625787 L163.312117,70.3625787 Z" id="realestatesolution"></path>
                </g>
                <g id="Group-Copy">
                    <g id="Path-7">
                        <g id="Path-7-Copy" transform="translate(0.316196, 38.155077)">
                            <mask id="mask-3" fill="white">
                                <use xlink:href="#path-2"></use>
                            </mask>
                            <use id="Mask" fill="url(#linearGradient-1)" xlink:href="#path-2"></use>
                            <path d="M-93.0692515,-17.0309445 C-83.6014392,-18.8775915 -62.5437575,-25.1712273 -50.3636135,-21.9965785 C-34.7604567,-17.929751 -31.4316591,-5.95918506 -19.1778228,4.44808797 C1.90663099,22.3552693 10.2523459,17.0347437 36.2312345,19.3526059 C50.8628351,20.6580517 74.6178333,38.6102602 68.2561816,55.7494842 C61.5049725,73.9382328 33.8322846,71.1605878 20.0551159,65.5246241 C17.4669872,64.4658725 15.1924202,62.6903378 13.0944946,60.8407822 C6.53386642,55.056856 1.09314193,48.0038817 -5.85026907,42.6861351 C-13.2063444,37.0523414 -28.0787113,35.7888278 -35.8448764,35.5956363 C-57.5530176,35.0556234 -79.358845,37.7727702 -100.988909,35.8545804 C-120.43939,34.1296795 -143.739013,10.3220647 -128.623983,-9.88903769 C-123.435788,-16.8264472 -110.358878,-16.2357185 -103.515892,-16.9262245 L-93.0692515,-17.0309445 Z" fill-opacity="0.44" fill="#FFFFFF" style="mix-blend-mode: overlay;" mask="url(#mask-3)"></path>
                            <path d="M123.113831,8.53179189 C114.408043,14.9413571 102.549746,14.9598269 93.8240343,8.57741189 L50.4792506,-23.1270958 C41.8085825,-29.4692491 30.0232353,-29.443967 21.3798574,-23.0646713 L6.99789091,-12.4499765 C6.90567994,-12.3819197 6.84650033,-12.2780842 6.83493822,-12.1640626 C6.82367936,-12.0530316 6.87167347,-11.9442673 6.96128065,-11.8777451 L78.8670139,41.5033056 C96.4420357,54.5505702 120.4986,54.5094931 138.028963,41.4022852 L167.567706,19.3165779 C167.570601,19.3144137 167.572305,19.3110112 167.572305,19.307397 C167.572305,19.3037909 167.570573,19.3004041 167.56765,19.2982931 L152.469135,8.39603299 C143.693549,2.05940105 131.830433,2.11426416 123.113831,8.53179189 Z" id="Path-3-Copy-3" fill="#000000" opacity="0.627720424" style="mix-blend-mode: overlay;" filter="url(#filter-4)" mask="url(#mask-3)"></path>
                        </g>
                        <mask id="mask-7" fill="white">
                            <use xlink:href="#path-6"></use>
                        </mask>
                        <use id="Mask" fill="url(#linearGradient-5)" xlink:href="#path-6"></use>
                        <path d="M-11.6475939,20.4621863 C-2.17978163,18.6155392 18.8779001,12.3219034 31.0580441,15.4965523 C46.6612009,19.5633797 49.9899985,31.5339457 62.2438348,41.9412187 C83.3282886,59.8484 91.6740035,54.5278745 117.652892,56.8457366 C132.284493,58.1511825 156.039491,76.103391 149.677839,93.242615 C142.92663,111.431364 115.253942,108.653719 101.476774,103.017755 C98.8886447,101.959003 96.6140778,100.183469 94.5161522,98.333913 C87.955524,92.5499868 82.5147995,85.4970124 75.5713885,80.1792658 C68.2153131,74.5454722 53.3429463,73.2819586 45.5767812,73.088767 C23.86864,72.5487541 2.06281261,75.2659009 -19.5672511,73.3477111 C-39.0177328,71.6228103 -62.3173556,47.8151955 -47.2023258,27.6040931 C-42.0141302,20.6666836 -28.9372202,21.2574122 -22.0942344,20.5669063 L-11.6475939,20.4621863 Z" fill-opacity="0.14" fill="#000000" style="mix-blend-mode: overlay;" mask="url(#mask-7)"></path>
                        <path d="M-22.3646288,31.1857084 C-12.8968165,29.3390614 8.1608652,23.0454256 20.3410092,26.2200745 C35.9441661,30.2869019 39.2729637,42.2574679 51.5267999,52.6647409 C72.6112537,70.5719222 80.9569686,65.2513967 106.935857,67.5692588 C121.567458,68.8747046 145.322456,86.8269131 138.960804,103.966137 C132.209595,122.154886 104.536907,119.377241 90.7597387,113.741277 C88.1716099,112.682525 85.8970429,110.906991 83.7991174,109.057435 C77.2384892,103.273509 71.7977647,96.2205346 64.8543537,90.902788 C57.4982783,85.2689943 42.6259114,84.0054807 34.8597464,83.8122892 C13.1516051,83.2722763 -8.65422224,85.9894231 -30.2842859,84.0712333 C-49.7347677,82.3463324 -73.0343905,58.5387176 -57.9193606,38.3276152 C-52.731165,31.3902058 -39.6542551,31.9809344 -32.8112693,31.2904285 L-22.3646288,31.1857084 Z" id="Path-7-Copy" fill-opacity="0.44" fill="#FFFFFF" style="mix-blend-mode: overlay;" mask="url(#mask-7)"></path>
                    </g>
                </g>
            </g>
        </g>
    </g>
</svg>