<svg viewBox="0 0 31 32" fit="" height="100%" width="100%" preserveAspectRatio="xMidYMid meet" focusable="false">
<path fill="#b3b3b3" style="fill: var(--color1, #b3b3b3)" d="M3.586 2.026h23.578v2.806h-23.578v-2.806z"></path>
<path fill="#bde9ff" style="fill: var(--color2, #bde9ff)" d="M6.172 5.376h4.569v6.134h-4.569v-6.134z"></path>
<path fill="#bde9ff" style="fill: var(--color2, #bde9ff)" d="M13.091 5.376h4.569v6.134h-4.569v-6.134z"></path>
<path fill="#bde9ff" style="fill: var(--color2, #bde9ff)" d="M20.009 5.376h4.569v6.134h-4.569v-6.134z"></path>
<path fill="#bde9ff" style="fill: var(--color2, #bde9ff)" d="M6.172 13.67h4.569v6.134h-4.569v-6.134z"></path>
<path fill="#bde9ff" style="fill: var(--color2, #bde9ff)" d="M13.091 13.67h4.569v6.134h-4.569v-6.134z"></path>
<path fill="#bde9ff" style="fill: var(--color2, #bde9ff)" d="M20.009 13.67h4.569v6.134h-4.569v-6.134z"></path>
<path fill="#bde9ff" style="fill: var(--color2, #bde9ff)" d="M6.172 21.963h4.569v6.134h-4.569v-6.134z"></path>
<path fill="#ffe67f" style="fill: var(--color3, #ffe67f)" d="M13.091 21.963h4.569v9.221h-4.569v-9.221z"></path>
<path fill="#bde9ff" style="fill: var(--color2, #bde9ff)" d="M20.009 21.963h4.569v6.134h-4.569v-6.134z"></path>
<path fill="#ff8431" style="fill: var(--color4, #ff8431)" d="M1.228 0.599h28.294v2.855h-28.294v-2.855z"></path>
<path fill="#000" style="fill: var(--color5, #000)" d="M6.094 11.946h4.608c0.264 0 0.478-0.211 0.478-0.472v-6.185c0-0.261-0.214-0.472-0.478-0.472h-4.608c-0.264 0-0.478 0.211-0.478 0.472v6.185c0 0.261 0.214 0.472 0.478 0.472zM6.572 7.42h1.348v3.582h-1.348v-3.582zM8.876 11.002v-3.582h1.348v3.582h-1.348zM10.224 5.761v0.715h-3.652v-0.715h3.652z"></path>
<path fill="#000" style="fill: var(--color5, #000)" d="M13.071 11.946h4.608c0.264 0 0.478-0.211 0.478-0.472v-6.185c0-0.261-0.214-0.472-0.478-0.472h-4.608c-0.264 0-0.478 0.211-0.478 0.472v6.185c0 0.261 0.214 0.472 0.478 0.472zM13.549 7.42h1.348v3.582h-1.348v-3.582zM15.853 11.002v-3.582h1.348v3.582h-1.348zM17.201 5.761v0.715h-3.652v-0.715h3.652z"></path>
<path fill="#000" style="fill: var(--color5, #000)" d="M20.049 11.946h4.608c0.264 0 0.478-0.211 0.478-0.472v-6.185c0-0.261-0.214-0.472-0.478-0.472h-4.608c-0.264 0-0.478 0.211-0.478 0.472v6.185c0 0.261 0.214 0.472 0.478 0.472zM20.527 7.42h1.348v3.582h-1.348v-3.582zM22.831 11.002v-3.582h1.348v3.582h-1.348zM24.179 5.761v0.715h-3.652v-0.715h3.652z"></path>
<path fill="#000" style="fill: var(--color5, #000)" d="M6.094 20.308h4.608c0.264 0 0.478-0.211 0.478-0.472v-6.185c0-0.261-0.214-0.472-0.478-0.472h-4.608c-0.264 0-0.478 0.211-0.478 0.472v6.185c0 0.261 0.214 0.472 0.478 0.472zM6.572 15.782h1.348v3.582h-1.348v-3.582zM8.876 19.364v-3.582h1.348v3.582l-1.348 0zM10.224 14.123v0.715h-3.652v-0.715h3.652z"></path>
<path fill="#000" style="fill: var(--color5, #000)" d="M13.071 20.308h4.608c0.264 0 0.478-0.211 0.478-0.472v-6.185c0-0.261-0.214-0.472-0.478-0.472h-4.608c-0.264 0-0.478 0.211-0.478 0.472v6.185c0 0.261 0.214 0.472 0.478 0.472zM13.549 15.782h1.348v3.582h-1.348v-3.582zM15.853 19.364v-3.582h1.348v3.582l-1.348 0zM17.201 14.123v0.715h-3.652v-0.715h3.652z"></path>
<path fill="#000" style="fill: var(--color5, #000)" d="M20.049 20.308h4.608c0.264 0 0.478-0.211 0.478-0.472v-6.185c0-0.261-0.214-0.472-0.478-0.472h-4.608c-0.264 0-0.478 0.211-0.478 0.472v6.185c0 0.261 0.214 0.472 0.478 0.472zM20.527 15.782h1.348v3.582h-1.348v-3.582zM22.831 19.364v-3.582h1.348v3.582l-1.348 0zM24.179 14.123v0.715h-3.652v-0.715h3.652z"></path>
<path fill="#000" style="fill: var(--color5, #000)" d="M6.094 28.67h4.608c0.264 0 0.478-0.211 0.478-0.472v-6.185c0-0.261-0.214-0.472-0.478-0.472h-4.608c-0.264 0-0.478 0.211-0.478 0.472v2.766c0 0.261 0.214 0.472 0.478 0.472s0.478-0.211 0.478-0.472v-0.636h1.348v3.582h-1.348v-1.059c0-0.261-0.214-0.472-0.478-0.472s-0.478 0.211-0.478 0.472v1.531c0 0.261 0.214 0.472 0.478 0.472zM6.572 22.485h3.652v0.715h-3.652v-0.715zM8.876 24.144h1.348v3.582h-1.348v-3.582z"></path>
<path fill="#000" style="fill: var(--color5, #000)" d="M20.049 28.67h4.608c0.264 0 0.478-0.211 0.478-0.472v-6.185c0-0.261-0.214-0.472-0.478-0.472h-4.608c-0.264 0-0.478 0.211-0.478 0.472v6.185c0 0.261 0.214 0.472 0.478 0.472zM20.527 24.144h1.348v3.582h-1.348v-3.582zM22.831 27.726v-3.582h1.348v3.582h-1.348zM24.179 22.485v0.715h-3.652v-0.715h3.652z"></path>
<path fill="#000" style="fill: var(--color5, #000)" d="M16.353 26.19h-0.659c-0.264 0-0.478 0.211-0.478 0.472s0.214 0.472 0.478 0.472h0.659c0.264 0 0.478-0.211 0.478-0.472s-0.214-0.472-0.478-0.472z"></path>
<path fill="#000" style="fill: var(--color5, #000)" d="M29.643 0h-4.297c-0.264 0-0.478 0.211-0.478 0.472s0.214 0.472 0.478 0.472h3.819v1.935h-27.58v-1.935h21.849c0.264 0 0.478-0.211 0.478-0.472s-0.214-0.472-0.478-0.472h-22.327c-0.264 0-0.478 0.211-0.478 0.472v2.879c0 0.261 0.214 0.472 0.478 0.472h1.9v27.488c0 0.261 0.214 0.472 0.478 0.472h23.78c0.264 0 0.478-0.211 0.478-0.472v-27.488h1.9c0.264 0 0.478-0.211 0.478-0.472v-2.879c-0-0.261-0.214-0.472-0.478-0.472zM13.549 30.839v-8.353h3.652v8.353h-3.652zM26.787 30.839h-8.63v-8.825c0-0.261-0.214-0.472-0.478-0.472h-4.608c-0.264 0-0.478 0.211-0.478 0.472v8.825h-8.63v-27.016h22.823v27.016z"></path>
</svg>