<svg viewBox="0 0 32 32" fit="" height="100%" width="100%" preserveAspectRatio="xMidYMid meet" focusable="false">
<path d="M6.781 25.333c0.275-0.776 1.017-1.333 1.886-1.333 1.103 0 2 0.897 2 2s-0.897 2-2 2c-0.869 0-1.611-0.557-1.886-1.333h-1.448v2c0 1.103 0.897 2 2 2h18.667c1.103 0 2-0.897 2-2v-25.333c0-1.103-0.897-2-2-2h-18.667c-1.103 0-2 0.897-2 2v2h1.448c0.275-0.776 1.017-1.333 1.886-1.333 1.103 0 2 0.897 2 2s-0.897 2-2 2c-0.869 0-1.611-0.557-1.886-1.333h-1.448v5.333h1.448c0.275-0.776 1.017-1.333 1.886-1.333 1.103 0 2 0.897 2 2s-0.897 2-2 2c-0.869 0-1.611-0.557-1.886-1.333h-1.448v5.333h1.448c0.275-0.776 1.017-1.333 1.886-1.333 1.103 0 2 0.897 2 2s-0.897 2-2 2c-0.869 0-1.611-0.557-1.886-1.333h-1.448v5.333h1.448zM8 12.667c0 0.367 0.299 0.667 0.667 0.667s0.667-0.3 0.667-0.667c0-0.367-0.299-0.667-0.667-0.667s-0.667 0.3-0.667 0.667c0 0 0 0 0 0zM4 6.667h-0.667c-0.368 0-0.667-0.299-0.667-0.667s0.299-0.667 0.667-0.667h0.667v-2c0-1.839 1.496-3.333 3.333-3.333h18.667c1.837 0 3.333 1.495 3.333 3.333v25.333c0 1.839-1.496 3.333-3.333 3.333h-18.667c-1.837 0-3.333-1.495-3.333-3.333v-2h-0.667c-0.368 0-0.667-0.299-0.667-0.667s0.299-0.667 0.667-0.667h0.667v-5.333h-0.667c-0.368 0-0.667-0.299-0.667-0.667s0.299-0.667 0.667-0.667h0.667v-5.333h-0.667c-0.368 0-0.667-0.299-0.667-0.667s0.299-0.667 0.667-0.667h0.667v-5.333zM8.667 6.667c0.368 0 0.667-0.3 0.667-0.667s-0.299-0.667-0.667-0.667-0.667 0.3-0.667 0.667c0 0.367 0.299 0.667 0.667 0.667zM8.667 20c0.368 0 0.667-0.3 0.667-0.667s-0.299-0.667-0.667-0.667-0.667 0.3-0.667 0.667c0 0.367 0.299 0.667 0.667 0.667zM8.667 26.667c0.368 0 0.667-0.3 0.667-0.667s-0.299-0.667-0.667-0.667-0.667 0.3-0.667 0.667c0 0.367 0.299 0.667 0.667 0.667z"></path>
</svg>