<svg viewBox="0 0 32 32" fit="" height="100%" width="100%" preserveAspectRatio="xMidYMid meet" focusable="false">
<path d="M31.643 10.076c0.219 0.115 0.357 0.341 0.357 0.591s-0.139 0.476-0.359 0.591l-15.333 8c-0.096 0.051-0.203 0.076-0.308 0.076s-0.212-0.025-0.308-0.076l-15.333-8c-0.22-0.115-0.359-0.341-0.359-0.591s0.139-0.476 0.359-0.591l15.333-8c0.193-0.101 0.424-0.101 0.617 0l15.333 8zM16 17.916l13.892-7.249-13.892-7.249-13.892 7.249 13.892 7.249zM31.643 15.408c0.219 0.116 0.357 0.343 0.357 0.592s-0.139 0.476-0.359 0.591l-15.333 8c-0.096 0.051-0.203 0.076-0.308 0.076s-0.212-0.025-0.308-0.076l-15.333-8c-0.22-0.115-0.359-0.341-0.359-0.591s0.139-0.476 0.359-0.591l2.229-1.163c0.325-0.167 0.729-0.045 0.9 0.283 0.171 0.327 0.044 0.729-0.283 0.9l-1.097 0.571 13.892 7.249 13.892-7.249-1.096-0.572c-0.327-0.171-0.453-0.573-0.283-0.9s0.575-0.449 0.9-0.283l2.229 1.163zM31.643 20.741c0.219 0.116 0.357 0.343 0.357 0.592s-0.139 0.476-0.359 0.591l-15.333 8c-0.096 0.051-0.203 0.076-0.308 0.076s-0.212-0.025-0.308-0.076l-15.333-8c-0.22-0.115-0.359-0.341-0.359-0.591s0.139-0.476 0.359-0.591l2.229-1.163c0.325-0.168 0.729-0.044 0.9 0.283s0.044 0.729-0.283 0.9l-1.097 0.571 13.892 7.249 13.892-7.249-1.096-0.572c-0.327-0.171-0.453-0.573-0.283-0.9s0.575-0.449 0.9-0.283l2.229 1.163z"></path>
</svg>