<svg viewBox="0 0 32 32" fit="" height="100%" width="100%" preserveAspectRatio="xMidYMid meet" focusable="false">
<path d="M8.948 20.083c1.659-2.064 4.204-3.387 7.052-3.387s5.393 1.323 7.052 3.388c0.836-0.397 1.754-0.605 2.687-0.605 3.452 0 6.261 2.809 6.261 6.261 0 0.384-0.312 0.696-0.696 0.696s-0.696-0.312-0.696-0.696c0-2.685-2.184-4.87-4.87-4.87-0.653 0-1.296 0.13-1.891 0.381 0.76 1.324 1.195 2.856 1.195 4.489 0 0.384-0.312 0.696-0.696 0.696s-0.696-0.312-0.696-0.696c0-4.22-3.432-7.652-7.652-7.652s-7.652 3.432-7.652 7.652c0 0.384-0.312 0.696-0.696 0.696s-0.696-0.312-0.696-0.696c0-1.633 0.435-3.166 1.195-4.489-0.595-0.25-1.237-0.38-1.891-0.38-2.685 0-4.87 2.184-4.87 4.87 0 0.384-0.312 0.696-0.696 0.696s-0.696-0.312-0.696-0.696c0-3.452 2.809-6.261 6.261-6.261 0.934 0 1.852 0.208 2.688 0.605zM16 5.565c2.685 0 4.87 2.184 4.87 4.87s-2.184 4.87-4.87 4.87c-2.685 0-4.87-2.184-4.87-4.87s2.184-4.87 4.87-4.87zM16 13.913c1.917 0 3.478-1.561 3.478-3.478s-1.561-3.478-3.478-3.478c-1.917 0-3.478 1.561-3.478 3.478s1.561 3.478 3.478 3.478zM25.739 11.13c1.917 0 3.478 1.561 3.478 3.478s-1.561 3.478-3.478 3.478c-1.917 0-3.478-1.561-3.478-3.478s1.561-3.478 3.478-3.478zM25.739 16.696c1.151 0 2.087-0.936 2.087-2.087s-0.936-2.087-2.087-2.087c-1.151 0-2.087 0.936-2.087 2.087s0.936 2.087 2.087 2.087zM6.36 11.13c1.919 0 3.478 1.561 3.478 3.478s-1.561 3.478-3.478 3.478c-1.917 0-3.478-1.561-3.478-3.478s1.56-3.478 3.478-3.478zM6.36 16.696c1.151 0 2.087-0.936 2.087-2.087s-0.936-2.087-2.087-2.087c-1.151 0-2.087 0.936-2.087 2.087s0.936 2.087 2.087 2.087z"></path>
</svg>