<svg viewBox="0 0 32 32" fit="" height="100%" width="100%" preserveAspectRatio="xMidYMid meet" focusable="false">
<path fill="#505263" style="fill: var(--color6, #505263)" d="M21.962 5.672v-3.622h3.969v7.241z"></path>
<path fill="#bde9ff" style="fill: var(--color2, #bde9ff)" d="M30.087 13.437l-13.936-9.603-13.936 9.603-1.425-2.068 15.361-10.585 15.361 10.585z"></path>
<path fill="#ff8431" style="fill: var(--color4, #ff8431)" d="M13.54 10.21h5.222v8.754h-5.222v-8.754z"></path>
<path fill="#ffe67f" style="fill: var(--color3, #ffe67f)" d="M13.54 22.765h5.222v8.754h-5.222v-8.754z"></path>
<path fill="#bde9ff" style="fill: var(--color2, #bde9ff)" d="M25.522 12.262v1.301h-4.816v-3.353h1.838z"></path>
<path fill="#bde9ff" style="fill: var(--color2, #bde9ff)" d="M6.781 12.262v1.301h4.816v-3.353h-1.838z"></path>
<path fill="#bde9ff" style="fill: var(--color2, #bde9ff)" d="M6.781 22.765h4.816v5.711h-4.816v-5.711z"></path>
<path fill="#bde9ff" style="fill: var(--color2, #bde9ff)" d="M20.706 22.765h4.816v5.711h-4.816v-5.711z"></path>
<path fill="#000" style="fill: var(--color5, #000)" d="M31.474 10.995c-0.022-0.122-0.092-0.229-0.194-0.299l-5.323-3.668v-5.172c0-0.257-0.209-0.466-0.466-0.466h-3.928c-0.257 0-0.466 0.209-0.466 0.466v1.823l-5.020-3.459c-0.159-0.11-0.37-0.11-0.529 0l-15.203 10.476c-0.102 0.070-0.172 0.178-0.194 0.299s0.004 0.247 0.075 0.349l1.411 2.047c0.146 0.212 0.436 0.265 0.648 0.119l1.095-0.755v1.667h-0.688c-0.257 0-0.466 0.209-0.466 0.466s0.209 0.466 0.466 0.466h0.688v0.921h-0.688c-0.257 0-0.466 0.209-0.466 0.466s0.209 0.466 0.466 0.466h0.688v0.921h-0.688c-0.257 0-0.466 0.209-0.466 0.466s0.209 0.466 0.466 0.466h0.688v11.96c0 0.257 0.209 0.466 0.466 0.466h23.932c0.257 0 0.466-0.209 0.466-0.466v-11.96h0.688c0.257 0 0.466-0.209 0.466-0.466s-0.209-0.466-0.466-0.466h-0.688v-0.921h0.688c0.257 0 0.466-0.209 0.466-0.466s-0.209-0.466-0.466-0.466h-0.688v-0.921h0.688c0.257 0 0.466-0.209 0.466-0.466s-0.209-0.466-0.466-0.466h-0.688v-1.668l1.095 0.755c0.081 0.056 0.173 0.082 0.264 0.082 0.148 0 0.294-0.070 0.384-0.202l1.411-2.047c0.070-0.102 0.097-0.227 0.075-0.349zM22.029 2.322h2.996v4.063l-2.996-2.064v-1.999zM4.312 15.355h3.624v0.921h-3.624v-0.921zM12.762 15.355v0.921h-3.894v-0.921h3.894zM17.93 14.423h-4.236v-4.025h4.236v4.025zM17.93 15.355v0.921h-4.236v-0.921h4.236zM18.862 18.129v-0.921h3.894v0.921h-3.894zM8.868 18.129v-0.921h3.894v0.921h-3.894zM13.695 17.208h4.236v0.921h-4.236v-0.921zM18.862 16.276v-0.921h3.894v0.921h-3.894zM4.312 17.208h3.624v0.921h-3.624v-0.921zM27.313 30.556h-8.45v-8.198c0-0.257-0.209-0.466-0.466-0.466h-5.168c-0.257 0-0.466 0.209-0.466 0.466v5.011c0 0.257 0.209 0.466 0.466 0.466s0.466-0.209 0.466-0.466v-4.545h4.236v7.732h-4.236v-1.322c0-0.257-0.209-0.466-0.466-0.466s-0.466 0.209-0.466 0.466v1.322h-8.45v-11.494h23v11.494zM27.313 18.129h-3.624v-0.921h3.624v0.921zM27.313 16.276h-3.624v-0.921h3.624v0.921zM29.485 12.478l-8.154-5.619c-0.212-0.146-0.502-0.093-0.648 0.119s-0.093 0.502 0.119 0.648l6.51 4.486v2.31h-8.45v-4.491c0-0.257-0.209-0.466-0.466-0.466h-5.168c-0.257 0-0.466 0.209-0.466 0.466v4.491h-8.45v-2.31l11.5-7.925 3.565 2.456c0.212 0.146 0.502 0.093 0.648-0.119s0.093-0.502-0.119-0.648l-3.829-2.639c-0.159-0.11-0.37-0.11-0.529 0l-13.408 9.24-0.882-1.279 14.554-10.030 14.554 10.030-0.882 1.279z"></path>
<path fill="#000" style="fill: var(--color5, #000)" d="M19.854 9.932v3.319c0 0.257 0.209 0.466 0.466 0.466h4.766c0.257 0 0.466-0.209 0.466-0.466v-1.288c0-0.153-0.075-0.297-0.202-0.384l-2.947-2.031c-0.078-0.054-0.17-0.082-0.265-0.082h-1.819c-0.257 0-0.466 0.209-0.466 0.466zM20.786 10.398h1.208l2.626 1.81v0.577h-3.834v-2.386z"></path>
<path fill="#000" style="fill: var(--color5, #000)" d="M11.305 9.466h-1.819c-0.094 0-0.187 0.029-0.264 0.082l-2.947 2.031c-0.126 0.087-0.202 0.23-0.202 0.384v1.288c0 0.257 0.209 0.466 0.466 0.466h4.766c0.257 0 0.466-0.209 0.466-0.466v-3.319c0-0.257-0.209-0.466-0.466-0.466zM10.838 12.784h-3.834v-0.577l2.626-1.81h1.208v2.386z"></path>
<path fill="#000" style="fill: var(--color5, #000)" d="M11.305 21.892h-4.766c-0.257 0-0.466 0.209-0.466 0.466v5.653c0 0.257 0.209 0.466 0.466 0.466h4.766c0.257 0 0.466-0.209 0.466-0.466v-5.653c0-0.257-0.209-0.466-0.466-0.466zM10.838 22.824v1.197h-3.834v-1.197h3.834zM7.005 24.954h1.451v2.591h-1.451v-2.591zM9.388 27.544v-2.591h1.451v2.591h-1.451z"></path>
<path fill="#000" style="fill: var(--color5, #000)" d="M19.854 22.358v5.653c0 0.257 0.209 0.466 0.466 0.466h4.766c0.257 0 0.466-0.209 0.466-0.466v-5.653c0-0.257-0.209-0.466-0.466-0.466h-4.766c-0.257 0-0.466 0.209-0.466 0.466zM20.786 24.954h1.451v2.591h-1.451v-2.591zM23.169 27.544v-2.591h1.451v2.591h-1.451zM24.62 22.824v1.197h-3.834v-1.197h3.834z"></path>
<path fill="#000" style="fill: var(--color5, #000)" d="M16.597 26.63c0.012 0.028 0.026 0.055 0.043 0.080s0.037 0.050 0.058 0.071c0.021 0.022 0.045 0.041 0.071 0.058s0.052 0.031 0.080 0.042c0.028 0.012 0.058 0.021 0.087 0.027 0.030 0.006 0.061 0.009 0.091 0.009 0.122 0 0.243-0.050 0.329-0.137 0.022-0.021 0.041-0.045 0.058-0.071s0.031-0.052 0.043-0.080c0.011-0.029 0.020-0.058 0.026-0.087 0.006-0.030 0.009-0.061 0.009-0.091 0-0.122-0.050-0.243-0.137-0.329-0.108-0.109-0.269-0.158-0.421-0.127-0.029 0.006-0.059 0.015-0.087 0.026s-0.055 0.026-0.080 0.043c-0.025 0.017-0.050 0.037-0.071 0.058-0.087 0.086-0.137 0.206-0.137 0.329 0 0.030 0.003 0.061 0.009 0.091 0.006 0.029 0.015 0.058 0.026 0.087z"></path>
</svg>