<svg viewBox="0 0 32 32" fit="" height="100%" width="100%" preserveAspectRatio="xMidYMid meet" focusable="false">
<path d="M9.578 9.103c-0.149-0.332-0.232-0.7-0.232-1.087 0-1.468 1.194-2.662 2.662-2.662s2.662 1.194 2.662 2.662c0 0.022-0 0.044-0.001 0.066l3.251 0.927c0.488-0.606 1.236-0.994 2.073-0.994 0.493 0 0.955 0.135 1.351 0.369l4.341-4.341c-0.235-0.396-0.369-0.858-0.369-1.351 0-1.468 1.194-2.662 2.662-2.662s2.662 1.194 2.662 2.662c0 1.468-1.194 2.662-2.662 2.662-0.493 0-0.955-0.135-1.351-0.369l-4.341 4.341c0.235 0.396 0.369 0.858 0.369 1.351 0 1.468-1.194 2.662-2.662 2.662s-2.662-1.194-2.662-2.662c0-0.15 0.012-0.298 0.037-0.441l-3.064-0.874c-0.463 0.786-1.318 1.315-2.295 1.315-0.599 0-1.153-0.199-1.598-0.534l-4.059 3.236c0.213 0.382 0.334 0.822 0.334 1.29 0 1.468-1.194 2.662-2.662 2.662s-2.662-1.194-2.662-2.662c0-1.468 1.194-2.662 2.662-2.662 0.516 0 0.998 0.148 1.407 0.403l4.149-3.308zM4.943 13.708c-0.239-0.229-0.563-0.37-0.92-0.37-0.735 0-1.331 0.597-1.331 1.331s0.596 1.331 1.331 1.331 1.331-0.598 1.331-1.331c0-0.356-0.141-0.68-0.37-0.92-0.014-0.013-0.028-0.027-0.041-0.041zM10.994 8.877c0.244 0.287 0.608 0.469 1.014 0.469 0.735 0 1.331-0.597 1.331-1.331s-0.596-1.331-1.331-1.331-1.331 0.597-1.331 1.331c0 0.299 0.099 0.575 0.266 0.798 0.009 0.010 0.018 0.021 0.027 0.031s0.017 0.021 0.024 0.032zM27.063 3.659c0.238 0.226 0.56 0.364 0.914 0.364 0.735 0 1.331-0.598 1.331-1.331s-0.596-1.331-1.331-1.331c-0.735 0-1.331 0.597-1.331 1.331 0 0.353 0.139 0.675 0.364 0.914 0.009 0.008 0.018 0.017 0.027 0.025s0.017 0.018 0.026 0.027zM25.971 31.969h-3.974c-0.003 0-0.006 0-0.009 0h-3.992c-0.003 0-0.006-0-0.009-0h-3.974c-0.003 0-0.006 0-0.009 0h-3.992c-0.003 0-0.006-0-0.009-0h-9.306c-0.367 0-0.665-0.298-0.665-0.665s0.298-0.665 0.665-0.665h0.665v-7.319c0-0.367 0.298-0.665 0.665-0.665h3.992c0.367 0 0.665 0.298 0.665 0.665v7.319h2.661v-13.973c0-0.367 0.298-0.665 0.665-0.665h3.992c0.367 0 0.665 0.298 0.665 0.665v13.973h2.661v-11.311c0-0.367 0.298-0.665 0.665-0.665h3.992c0.367 0 0.665 0.298 0.665 0.665v11.311h2.661v-19.296c0-0.367 0.298-0.665 0.665-0.665h3.992c0.367 0 0.665 0.298 0.665 0.665v19.296h0.665c0.367 0 0.665 0.298 0.665 0.665s-0.298 0.665-0.665 0.665h-1.322c-0.003 0-0.006 0-0.009 0h-3.992c-0.003 0-0.006-0-0.009-0zM29.307 30.638v-18.63h-2.662v18.63h2.662zM18.661 30.638h2.662v-10.646h-2.662v10.646zM13.338 30.638v-13.307h-2.662v13.307h2.662zM2.693 30.638h2.662v-6.654h-2.662v6.654zM19.992 12.008c0.735 0 1.331-0.598 1.331-1.331s-0.596-1.331-1.331-1.331c-0.735 0-1.331 0.597-1.331 1.331s0.596 1.331 1.331 1.331z"></path>
</svg>