<svg aria-hidden="true" style="position: absolute; width: 0; height: 0; overflow: hidden;" version="1.1" xmlns="http://www.w3.org/2000/svg" xmlns:xlink="http://www.w3.org/1999/xlink">
  <defs>
    <svg id="icon-wink" viewBox="0 0 32 32">
      <title>wink</title>
      <path fill="#ffc10e" style="fill: var(--color1, #ffc10e)" d="M32 16c0 8.837-7.163 16-16 16s-16-7.163-16-16c0-8.837 7.163-16 16-16s16 7.163 16 16z"></path>
      <path fill="#333" style="fill: var(--color2, #333)" d="M4.864 16.011c0.070 4.247 2.406 8.047 6.197 9.981 4.13 2.108 9.146 1.2 12.538-1.844 0.608-0.545-0.289-1.436-0.893-0.893-3.119 2.799-7.568 3.401-11.303 1.495-3.267-1.667-5.216-5.126-5.276-8.739-0.013-0.814-1.277-0.815-1.263 0v0z"></path>
      <path fill="#333" style="fill: var(--color2, #333)" d="M13.649 10.481c0 0.698-1.125 1.263-2.513 1.263s-2.513-0.566-2.513-1.263c0-0.698 1.125-1.263 2.513-1.263s2.513 0.566 2.513 1.263z"></path>
      <path fill="#333" style="fill: var(--color2, #333)" d="M23.151 10.481c0 1.388-1.125 2.513-2.513 2.513s-2.513-1.125-2.513-2.513c0-1.388 1.125-2.513 2.513-2.513s2.513 1.125 2.513 2.513z"></path>
    </svg>
    <svg id="icon-sad" viewBox="0 0 32 32">
      <title>sad</title>
      <path fill="#ffc10e" style="fill: var(--color1, #ffc10e)" d="M32 16c0 8.837-7.163 16-16 16s-16-7.163-16-16c0-8.837 7.163-16 16-16s16 7.163 16 16z"></path>
      <path fill="#333" style="fill: var(--color2, #333)" d="M24.082 23.909c-4.472-4.566-11.766-4.547-16.211 0.047-0.566 0.585 0.326 1.48 0.893 0.893 3.975-4.107 10.424-4.132 14.425-0.047 0.571 0.583 1.463-0.311 0.893-0.893v0z"></path>
      <path fill="#333" style="fill: var(--color2, #333)" d="M13.649 10.481c0 1.388-1.125 2.513-2.513 2.513s-2.513-1.125-2.513-2.513c0-1.388 1.125-2.513 2.513-2.513s2.513 1.125 2.513 2.513z"></path>
      <path fill="#333" style="fill: var(--color2, #333)" d="M23.151 10.481c0 1.388-1.125 2.513-2.513 2.513s-2.513-1.125-2.513-2.513c0-1.388 1.125-2.513 2.513-2.513s2.513 1.125 2.513 2.513z"></path>
    </svg>
    <svg id="icon-happy" viewBox="0 0 32 32">
      <title>happy</title>
      <path fill="#ffc10e" style="fill: var(--color1, #ffc10e)" d="M32 16c0 8.837-7.163 16-16 16s-16-7.163-16-16c0-8.837 7.163-16 16-16s16 7.163 16 16z"></path>
      <path fill="#333" style="fill: var(--color2, #333)" d="M25.871 16.011c-0.090 5.449-4.424 9.782-9.872 9.872s-9.784-4.559-9.872-9.872c-0.013-0.814-1.277-0.815-1.263 0 0.101 6.139 4.996 11.034 11.135 11.135s11.037-5.148 11.136-11.135c0.013-0.815-1.25-0.814-1.263 0v0z"></path>
      <path fill="#333" style="fill: var(--color2, #333)" d="M13.649 10.481c0 1.388-1.125 2.513-2.513 2.513s-2.513-1.125-2.513-2.513c0-1.388 1.125-2.513 2.513-2.513s2.513 1.125 2.513 2.513z"></path>
      <path fill="#333" style="fill: var(--color2, #333)" d="M23.151 10.481c0 1.388-1.125 2.513-2.513 2.513s-2.513-1.125-2.513-2.513c0-1.388 1.125-2.513 2.513-2.513s2.513 1.125 2.513 2.513z"></path>
    </svg>
    <svg id="icon-apartment" viewBox="0 0 31 32">
      <title>apartment</title>
      <path fill="#b3b3b3" style="fill: var(--color1, #b3b3b3)" d="M3.586 2.026h23.578v2.806h-23.578v-2.806z"></path>
      <path fill="#bde9ff" style="fill: var(--color2, #bde9ff)" d="M6.172 5.376h4.569v6.134h-4.569v-6.134z"></path>
      <path fill="#bde9ff" style="fill: var(--color2, #bde9ff)" d="M13.091 5.376h4.569v6.134h-4.569v-6.134z"></path>
      <path fill="#bde9ff" style="fill: var(--color2, #bde9ff)" d="M20.009 5.376h4.569v6.134h-4.569v-6.134z"></path>
      <path fill="#bde9ff" style="fill: var(--color2, #bde9ff)" d="M6.172 13.67h4.569v6.134h-4.569v-6.134z"></path>
      <path fill="#bde9ff" style="fill: var(--color2, #bde9ff)" d="M13.091 13.67h4.569v6.134h-4.569v-6.134z"></path>
      <path fill="#bde9ff" style="fill: var(--color2, #bde9ff)" d="M20.009 13.67h4.569v6.134h-4.569v-6.134z"></path>
      <path fill="#bde9ff" style="fill: var(--color2, #bde9ff)" d="M6.172 21.963h4.569v6.134h-4.569v-6.134z"></path>
      <path fill="#ffe67f" style="fill: var(--color3, #ffe67f)" d="M13.091 21.963h4.569v9.221h-4.569v-9.221z"></path>
      <path fill="#bde9ff" style="fill: var(--color2, #bde9ff)" d="M20.009 21.963h4.569v6.134h-4.569v-6.134z"></path>
      <path fill="#ff8431" style="fill: var(--color4, #ff8431)" d="M1.228 0.599h28.294v2.855h-28.294v-2.855z"></path>
      <path fill="#000" style="fill: var(--color5, #000)" d="M6.094 11.946h4.608c0.264 0 0.478-0.211 0.478-0.472v-6.185c0-0.261-0.214-0.472-0.478-0.472h-4.608c-0.264 0-0.478 0.211-0.478 0.472v6.185c0 0.261 0.214 0.472 0.478 0.472zM6.572 7.42h1.348v3.582h-1.348v-3.582zM8.876 11.002v-3.582h1.348v3.582h-1.348zM10.224 5.761v0.715h-3.652v-0.715h3.652z"></path>
      <path fill="#000" style="fill: var(--color5, #000)" d="M13.071 11.946h4.608c0.264 0 0.478-0.211 0.478-0.472v-6.185c0-0.261-0.214-0.472-0.478-0.472h-4.608c-0.264 0-0.478 0.211-0.478 0.472v6.185c0 0.261 0.214 0.472 0.478 0.472zM13.549 7.42h1.348v3.582h-1.348v-3.582zM15.853 11.002v-3.582h1.348v3.582h-1.348zM17.201 5.761v0.715h-3.652v-0.715h3.652z"></path>
      <path fill="#000" style="fill: var(--color5, #000)" d="M20.049 11.946h4.608c0.264 0 0.478-0.211 0.478-0.472v-6.185c0-0.261-0.214-0.472-0.478-0.472h-4.608c-0.264 0-0.478 0.211-0.478 0.472v6.185c0 0.261 0.214 0.472 0.478 0.472zM20.527 7.42h1.348v3.582h-1.348v-3.582zM22.831 11.002v-3.582h1.348v3.582h-1.348zM24.179 5.761v0.715h-3.652v-0.715h3.652z"></path>
      <path fill="#000" style="fill: var(--color5, #000)" d="M6.094 20.308h4.608c0.264 0 0.478-0.211 0.478-0.472v-6.185c0-0.261-0.214-0.472-0.478-0.472h-4.608c-0.264 0-0.478 0.211-0.478 0.472v6.185c0 0.261 0.214 0.472 0.478 0.472zM6.572 15.782h1.348v3.582h-1.348v-3.582zM8.876 19.364v-3.582h1.348v3.582l-1.348 0zM10.224 14.123v0.715h-3.652v-0.715h3.652z"></path>
      <path fill="#000" style="fill: var(--color5, #000)" d="M13.071 20.308h4.608c0.264 0 0.478-0.211 0.478-0.472v-6.185c0-0.261-0.214-0.472-0.478-0.472h-4.608c-0.264 0-0.478 0.211-0.478 0.472v6.185c0 0.261 0.214 0.472 0.478 0.472zM13.549 15.782h1.348v3.582h-1.348v-3.582zM15.853 19.364v-3.582h1.348v3.582l-1.348 0zM17.201 14.123v0.715h-3.652v-0.715h3.652z"></path>
      <path fill="#000" style="fill: var(--color5, #000)" d="M20.049 20.308h4.608c0.264 0 0.478-0.211 0.478-0.472v-6.185c0-0.261-0.214-0.472-0.478-0.472h-4.608c-0.264 0-0.478 0.211-0.478 0.472v6.185c0 0.261 0.214 0.472 0.478 0.472zM20.527 15.782h1.348v3.582h-1.348v-3.582zM22.831 19.364v-3.582h1.348v3.582l-1.348 0zM24.179 14.123v0.715h-3.652v-0.715h3.652z"></path>
      <path fill="#000" style="fill: var(--color5, #000)" d="M6.094 28.67h4.608c0.264 0 0.478-0.211 0.478-0.472v-6.185c0-0.261-0.214-0.472-0.478-0.472h-4.608c-0.264 0-0.478 0.211-0.478 0.472v2.766c0 0.261 0.214 0.472 0.478 0.472s0.478-0.211 0.478-0.472v-0.636h1.348v3.582h-1.348v-1.059c0-0.261-0.214-0.472-0.478-0.472s-0.478 0.211-0.478 0.472v1.531c0 0.261 0.214 0.472 0.478 0.472zM6.572 22.485h3.652v0.715h-3.652v-0.715zM8.876 24.144h1.348v3.582h-1.348v-3.582z"></path>
      <path fill="#000" style="fill: var(--color5, #000)" d="M20.049 28.67h4.608c0.264 0 0.478-0.211 0.478-0.472v-6.185c0-0.261-0.214-0.472-0.478-0.472h-4.608c-0.264 0-0.478 0.211-0.478 0.472v6.185c0 0.261 0.214 0.472 0.478 0.472zM20.527 24.144h1.348v3.582h-1.348v-3.582zM22.831 27.726v-3.582h1.348v3.582h-1.348zM24.179 22.485v0.715h-3.652v-0.715h3.652z"></path>
      <path fill="#000" style="fill: var(--color5, #000)" d="M16.353 26.19h-0.659c-0.264 0-0.478 0.211-0.478 0.472s0.214 0.472 0.478 0.472h0.659c0.264 0 0.478-0.211 0.478-0.472s-0.214-0.472-0.478-0.472z"></path>
      <path fill="#000" style="fill: var(--color5, #000)" d="M29.643 0h-4.297c-0.264 0-0.478 0.211-0.478 0.472s0.214 0.472 0.478 0.472h3.819v1.935h-27.58v-1.935h21.849c0.264 0 0.478-0.211 0.478-0.472s-0.214-0.472-0.478-0.472h-22.327c-0.264 0-0.478 0.211-0.478 0.472v2.879c0 0.261 0.214 0.472 0.478 0.472h1.9v27.488c0 0.261 0.214 0.472 0.478 0.472h23.78c0.264 0 0.478-0.211 0.478-0.472v-27.488h1.9c0.264 0 0.478-0.211 0.478-0.472v-2.879c-0-0.261-0.214-0.472-0.478-0.472zM13.549 30.839v-8.353h3.652v8.353h-3.652zM26.787 30.839h-8.63v-8.825c0-0.261-0.214-0.472-0.478-0.472h-4.608c-0.264 0-0.478 0.211-0.478 0.472v8.825h-8.63v-27.016h22.823v27.016z"></path>
    </svg>
    <svg id="icon-chalet" viewBox="0 0 32 32">
      <title>chalet</title>
      <path fill="#505263" style="fill: var(--color6, #505263)" d="M21.962 5.672v-3.622h3.969v7.241z"></path>
      <path fill="#bde9ff" style="fill: var(--color2, #bde9ff)" d="M30.087 13.437l-13.936-9.603-13.936 9.603-1.425-2.068 15.361-10.585 15.361 10.585z"></path>
      <path fill="#ff8431" style="fill: var(--color4, #ff8431)" d="M13.54 10.21h5.222v8.754h-5.222v-8.754z"></path>
      <path fill="#ffe67f" style="fill: var(--color3, #ffe67f)" d="M13.54 22.765h5.222v8.754h-5.222v-8.754z"></path>
      <path fill="#bde9ff" style="fill: var(--color2, #bde9ff)" d="M25.522 12.262v1.301h-4.816v-3.353h1.838z"></path>
      <path fill="#bde9ff" style="fill: var(--color2, #bde9ff)" d="M6.781 12.262v1.301h4.816v-3.353h-1.838z"></path>
      <path fill="#bde9ff" style="fill: var(--color2, #bde9ff)" d="M6.781 22.765h4.816v5.711h-4.816v-5.711z"></path>
      <path fill="#bde9ff" style="fill: var(--color2, #bde9ff)" d="M20.706 22.765h4.816v5.711h-4.816v-5.711z"></path>
      <path fill="#000" style="fill: var(--color5, #000)" d="M31.474 10.995c-0.022-0.122-0.092-0.229-0.194-0.299l-5.323-3.668v-5.172c0-0.257-0.209-0.466-0.466-0.466h-3.928c-0.257 0-0.466 0.209-0.466 0.466v1.823l-5.020-3.459c-0.159-0.11-0.37-0.11-0.529 0l-15.203 10.476c-0.102 0.070-0.172 0.178-0.194 0.299s0.004 0.247 0.075 0.349l1.411 2.047c0.146 0.212 0.436 0.265 0.648 0.119l1.095-0.755v1.667h-0.688c-0.257 0-0.466 0.209-0.466 0.466s0.209 0.466 0.466 0.466h0.688v0.921h-0.688c-0.257 0-0.466 0.209-0.466 0.466s0.209 0.466 0.466 0.466h0.688v0.921h-0.688c-0.257 0-0.466 0.209-0.466 0.466s0.209 0.466 0.466 0.466h0.688v11.96c0 0.257 0.209 0.466 0.466 0.466h23.932c0.257 0 0.466-0.209 0.466-0.466v-11.96h0.688c0.257 0 0.466-0.209 0.466-0.466s-0.209-0.466-0.466-0.466h-0.688v-0.921h0.688c0.257 0 0.466-0.209 0.466-0.466s-0.209-0.466-0.466-0.466h-0.688v-0.921h0.688c0.257 0 0.466-0.209 0.466-0.466s-0.209-0.466-0.466-0.466h-0.688v-1.668l1.095 0.755c0.081 0.056 0.173 0.082 0.264 0.082 0.148 0 0.294-0.070 0.384-0.202l1.411-2.047c0.070-0.102 0.097-0.227 0.075-0.349zM22.029 2.322h2.996v4.063l-2.996-2.064v-1.999zM4.312 15.355h3.624v0.921h-3.624v-0.921zM12.762 15.355v0.921h-3.894v-0.921h3.894zM17.93 14.423h-4.236v-4.025h4.236v4.025zM17.93 15.355v0.921h-4.236v-0.921h4.236zM18.862 18.129v-0.921h3.894v0.921h-3.894zM8.868 18.129v-0.921h3.894v0.921h-3.894zM13.695 17.208h4.236v0.921h-4.236v-0.921zM18.862 16.276v-0.921h3.894v0.921h-3.894zM4.312 17.208h3.624v0.921h-3.624v-0.921zM27.313 30.556h-8.45v-8.198c0-0.257-0.209-0.466-0.466-0.466h-5.168c-0.257 0-0.466 0.209-0.466 0.466v5.011c0 0.257 0.209 0.466 0.466 0.466s0.466-0.209 0.466-0.466v-4.545h4.236v7.732h-4.236v-1.322c0-0.257-0.209-0.466-0.466-0.466s-0.466 0.209-0.466 0.466v1.322h-8.45v-11.494h23v11.494zM27.313 18.129h-3.624v-0.921h3.624v0.921zM27.313 16.276h-3.624v-0.921h3.624v0.921zM29.485 12.478l-8.154-5.619c-0.212-0.146-0.502-0.093-0.648 0.119s-0.093 0.502 0.119 0.648l6.51 4.486v2.31h-8.45v-4.491c0-0.257-0.209-0.466-0.466-0.466h-5.168c-0.257 0-0.466 0.209-0.466 0.466v4.491h-8.45v-2.31l11.5-7.925 3.565 2.456c0.212 0.146 0.502 0.093 0.648-0.119s0.093-0.502-0.119-0.648l-3.829-2.639c-0.159-0.11-0.37-0.11-0.529 0l-13.408 9.24-0.882-1.279 14.554-10.030 14.554 10.030-0.882 1.279z"></path>
      <path fill="#000" style="fill: var(--color5, #000)" d="M19.854 9.932v3.319c0 0.257 0.209 0.466 0.466 0.466h4.766c0.257 0 0.466-0.209 0.466-0.466v-1.288c0-0.153-0.075-0.297-0.202-0.384l-2.947-2.031c-0.078-0.054-0.17-0.082-0.265-0.082h-1.819c-0.257 0-0.466 0.209-0.466 0.466zM20.786 10.398h1.208l2.626 1.81v0.577h-3.834v-2.386z"></path>
      <path fill="#000" style="fill: var(--color5, #000)" d="M11.305 9.466h-1.819c-0.094 0-0.187 0.029-0.264 0.082l-2.947 2.031c-0.126 0.087-0.202 0.23-0.202 0.384v1.288c0 0.257 0.209 0.466 0.466 0.466h4.766c0.257 0 0.466-0.209 0.466-0.466v-3.319c0-0.257-0.209-0.466-0.466-0.466zM10.838 12.784h-3.834v-0.577l2.626-1.81h1.208v2.386z"></path>
      <path fill="#000" style="fill: var(--color5, #000)" d="M11.305 21.892h-4.766c-0.257 0-0.466 0.209-0.466 0.466v5.653c0 0.257 0.209 0.466 0.466 0.466h4.766c0.257 0 0.466-0.209 0.466-0.466v-5.653c0-0.257-0.209-0.466-0.466-0.466zM10.838 22.824v1.197h-3.834v-1.197h3.834zM7.005 24.954h1.451v2.591h-1.451v-2.591zM9.388 27.544v-2.591h1.451v2.591h-1.451z"></path>
      <path fill="#000" style="fill: var(--color5, #000)" d="M19.854 22.358v5.653c0 0.257 0.209 0.466 0.466 0.466h4.766c0.257 0 0.466-0.209 0.466-0.466v-5.653c0-0.257-0.209-0.466-0.466-0.466h-4.766c-0.257 0-0.466 0.209-0.466 0.466zM20.786 24.954h1.451v2.591h-1.451v-2.591zM23.169 27.544v-2.591h1.451v2.591h-1.451zM24.62 22.824v1.197h-3.834v-1.197h3.834z"></path>
      <path fill="#000" style="fill: var(--color5, #000)" d="M16.597 26.63c0.012 0.028 0.026 0.055 0.043 0.080s0.037 0.050 0.058 0.071c0.021 0.022 0.045 0.041 0.071 0.058s0.052 0.031 0.080 0.042c0.028 0.012 0.058 0.021 0.087 0.027 0.030 0.006 0.061 0.009 0.091 0.009 0.122 0 0.243-0.050 0.329-0.137 0.022-0.021 0.041-0.045 0.058-0.071s0.031-0.052 0.043-0.080c0.011-0.029 0.020-0.058 0.026-0.087 0.006-0.030 0.009-0.061 0.009-0.091 0-0.122-0.050-0.243-0.137-0.329-0.108-0.109-0.269-0.158-0.421-0.127-0.029 0.006-0.059 0.015-0.087 0.026s-0.055 0.026-0.080 0.043c-0.025 0.017-0.050 0.037-0.071 0.058-0.087 0.086-0.137 0.206-0.137 0.329 0 0.030 0.003 0.061 0.009 0.091 0.006 0.029 0.015 0.058 0.026 0.087z"></path>
    </svg>
    <svg id="icon-townhouse" viewBox="0 0 65 32">
      <title>townhouse</title>
      <path fill="#ff8431" style="fill: var(--color4, #ff8431)" d="M15.12 10.217v-7.759h3.835v7.759z"></path>
      <path fill="#bde9ff" style="fill: var(--color2, #bde9ff)" d="M3.637 10.846h4.009v6.711h-4.009v-6.711z"></path>
      <path fill="#bde9ff" style="fill: var(--color2, #bde9ff)" d="M10.045 10.846h4.009v6.711h-4.009v-6.711z"></path>
      <path fill="#bde9ff" style="fill: var(--color2, #bde9ff)" d="M10.045 20.157h4.009v6.711h-4.009v-6.711z"></path>
      <path fill="#77beed" style="fill: var(--color7, #77beed)" d="M3.637 23.836h4.009v7.013h-4.009v-7.013z"></path>
      <path fill="#bde9ff" style="fill: var(--color2, #bde9ff)" d="M3.637 20.157h4.009v1.845h-4.009v-1.845z"></path>
      <path fill="#31333f" style="fill: var(--color8, #31333f)" d="M10.451 4.981c0 0.854-0.719 1.545-1.606 1.545s-1.606-0.692-1.606-1.545c0-0.854 0.719-1.545 1.606-1.545s1.606 0.692 1.606 1.545z"></path>
      <path fill="#bde9ff" style="fill: var(--color2, #bde9ff)" d="M26.429 10.846h4.009v6.711h-4.009v-6.711z"></path>
      <path fill="#bde9ff" style="fill: var(--color2, #bde9ff)" d="M20.021 10.846h4.009v6.711h-4.009v-6.711z"></path>
      <path fill="#bde9ff" style="fill: var(--color2, #bde9ff)" d="M20.021 20.157h4.009v6.711h-4.009v-6.711z"></path>
      <path fill="#ffe67f" style="fill: var(--color3, #ffe67f)" d="M26.429 23.836h4.009v7.013h-4.009v-7.013z"></path>
      <path fill="#bde9ff" style="fill: var(--color2, #bde9ff)" d="M26.429 20.157h4.009v1.845h-4.009v-1.845z"></path>
      <path fill="#31333f" style="fill: var(--color8, #31333f)" d="M26.835 4.981c0 0.854-0.719 1.545-1.606 1.545s-1.606-0.692-1.606-1.545c0-0.854 0.719-1.545 1.606-1.545s1.606 0.692 1.606 1.545z"></path>
      <path fill="#000" style="fill: var(--color5, #000)" d="M3.453 18.062h3.971c0.274 0 0.497-0.218 0.497-0.488v-6.777c0-0.269-0.222-0.488-0.497-0.488h-3.971c-0.274 0-0.497 0.218-0.497 0.488v6.777c0 0.269 0.222 0.487 0.497 0.487zM3.949 17.087v-3.938h2.977v3.938h-2.977zM6.927 11.285v0.889h-2.977v-0.889h2.977z"></path>
      <path fill="#000" style="fill: var(--color5, #000)" d="M9.8 18.062h3.971c0.274 0 0.497-0.218 0.497-0.488v-6.777c0-0.269-0.222-0.488-0.497-0.488h-3.971c-0.274 0-0.497 0.218-0.497 0.488v6.777c0 0.269 0.222 0.487 0.497 0.487zM10.297 17.087v-3.938h2.977v3.938h-2.977zM13.275 11.285v0.889h-2.977v-0.889h2.977z"></path>
      <path fill="#000" style="fill: var(--color5, #000)" d="M9.304 26.977c0 0.269 0.222 0.488 0.497 0.488h3.971c0.274 0 0.497-0.218 0.497-0.488v-6.777c0-0.269-0.222-0.488-0.497-0.488h-3.971c-0.274 0-0.497 0.218-0.497 0.488v6.777zM10.297 26.489v-3.938h2.977v3.938h-2.977zM13.275 20.688v0.889h-2.977v-0.889h2.977z"></path>
      <path fill="#000" style="fill: var(--color5, #000)" d="M2.956 22.064c0 0.269 0.222 0.488 0.497 0.488h3.971c0.274 0 0.497-0.218 0.497-0.488v-1.864c0-0.269-0.222-0.488-0.497-0.488h-3.971c-0.274 0-0.497 0.218-0.497 0.488v1.864zM3.949 20.688h2.977v0.889h-2.977v-0.889z"></path>
      <path fill="#000" style="fill: var(--color5, #000)" d="M6.492 27.050c-0.184-0.119-0.433-0.105-0.6 0.036-0.152 0.128-0.21 0.342-0.145 0.527s0.244 0.319 0.445 0.329c0.207 0.010 0.404-0.113 0.483-0.301 0.089-0.211 0.013-0.466-0.183-0.592z"></path>
      <path fill="#000" style="fill: var(--color5, #000)" d="M6.525 4.874c0 1.129 0.936 2.048 2.087 2.048s2.087-0.919 2.087-2.048c0-1.129-0.936-2.048-2.087-2.048s-2.087 0.919-2.087 2.048zM9.706 4.874c0 0.592-0.491 1.073-1.094 1.073s-1.094-0.481-1.094-1.073c0-0.592 0.491-1.073 1.094-1.073s1.094 0.481 1.094 1.073z"></path>
      <path fill="#000" style="fill: var(--color5, #000)" d="M30.499 10.798c0-0.269-0.222-0.488-0.497-0.488h-3.971c-0.274 0-0.497 0.218-0.497 0.488v6.777c0 0.269 0.222 0.488 0.497 0.488h3.971c0.274 0 0.497-0.218 0.497-0.488v-6.777zM29.505 11.285v0.889h-2.977v-0.889h2.977zM26.528 17.087v-3.938h2.977v3.938h-2.977z"></path>
      <path fill="#000" style="fill: var(--color5, #000)" d="M24.151 10.798c0-0.269-0.222-0.488-0.497-0.488h-3.971c-0.274 0-0.497 0.218-0.497 0.488v6.777c0 0.269 0.222 0.488 0.497 0.488h3.971c0.274 0 0.497-0.218 0.497-0.488v-6.777zM23.157 11.285v0.889h-2.977v-0.889h2.977zM20.18 17.087v-3.938h2.977v3.938h-2.977z"></path>
      <path fill="#000" style="fill: var(--color5, #000)" d="M23.654 19.713h-3.971c-0.274 0-0.497 0.218-0.497 0.488v6.777c0 0.269 0.222 0.488 0.497 0.488h3.971c0.274 0 0.497-0.218 0.497-0.488v-6.777c0-0.269-0.222-0.488-0.497-0.488zM23.157 20.688v0.889h-2.977v-0.889h2.977zM20.18 26.489v-3.938h2.977v3.938h-2.977z"></path>
      <path fill="#000" style="fill: var(--color5, #000)" d="M30.002 19.713h-3.971c-0.274 0-0.497 0.218-0.497 0.488v1.864c0 0.269 0.222 0.488 0.497 0.488h3.971c0.274 0 0.497-0.218 0.497-0.488v-1.864c0-0.269-0.222-0.488-0.497-0.488zM29.505 21.576h-2.977v-0.889h2.977v0.889z"></path>
      <path fill="#000" style="fill: var(--color5, #000)" d="M27.697 27.27c-0.161-0.395-0.754-0.391-0.918 0-0.082 0.196-0.024 0.429 0.144 0.563 0.161 0.129 0.391 0.146 0.569 0.042 0.208-0.122 0.299-0.385 0.204-0.605z"></path>
      <path fill="#000" style="fill: var(--color5, #000)" d="M22.755 4.874c0 1.129 0.936 2.048 2.087 2.048s2.087-0.919 2.087-2.048c0-1.129-0.936-2.048-2.087-2.048s-2.087 0.919-2.087 2.048zM25.936 4.874c0 0.592-0.491 1.073-1.094 1.073s-1.094-0.481-1.094-1.073c0-0.592 0.491-1.073 1.094-1.073s1.094 0.481 1.094 1.073z"></path>
      <path fill="#000" style="fill: var(--color5, #000)" d="M32.958 12.894c0.274 0 0.497-0.218 0.497-0.488v-4.699c0-0.005-0.001-0.009-0.002-0.013-0.004-0.131-0.060-0.259-0.164-0.35l-8.115-7.124c-0.189-0.166-0.474-0.166-0.663 0l-5.388 4.73v-2.623c0-0.269-0.222-0.488-0.497-0.488h-3.799c-0.274 0-0.497 0.218-0.497 0.488v2.623l-5.388-4.73c-0.189-0.166-0.474-0.166-0.663 0l-8.115 7.124c-0.104 0.091-0.16 0.219-0.164 0.35-0.001 0.004-0.002 0.009-0.002 0.013v18.931c0 0.269 0.222 0.488 0.497 0.488s0.497-0.218 0.497-0.488v-18.443h15.237v22.314h-8.31v-6.594c0-0.269-0.222-0.488-0.497-0.488h-3.971c-0.274 0-0.497 0.218-0.497 0.488v6.594h-1.962v-1.921c0-0.269-0.222-0.488-0.497-0.488s-0.497 0.218-0.497 0.488v2.409c0 0.269 0.222 0.488 0.497 0.488h32.461c0.274 0 0.497-0.218 0.497-0.488v-16.64c0-0.269-0.222-0.488-0.497-0.488s-0.497 0.218-0.497 0.488v16.152h-1.962v-6.594c0-0.269-0.222-0.488-0.497-0.488h-3.971c-0.274 0-0.497 0.218-0.497 0.488v6.594h-8.31v-22.314h15.237v4.212c0 0.269 0.222 0.488 0.497 0.488zM26.528 24.403h2.977v6.107h-2.977v-6.107zM15.325 2.814h2.805v3.008l-1.403 1.231-1.402-1.231v-3.008zM1.797 7.22l6.815-5.982 6.815 5.982h-13.629zM3.949 30.509v-6.107h2.977v6.107h-2.977zM18.028 7.22l6.815-5.982 6.815 5.982h-13.629z"></path>
      <path fill="#ff8431" style="fill: var(--color4, #ff8431)" d="M47.12 10.217v-7.759h3.835v7.759z"></path>
      <path fill="#bde9ff" style="fill: var(--color2, #bde9ff)" d="M35.637 10.846h4.009v6.711h-4.009v-6.711z"></path>
      <path fill="#bde9ff" style="fill: var(--color2, #bde9ff)" d="M42.045 10.846h4.009v6.711h-4.009v-6.711z"></path>
      <path fill="#bde9ff" style="fill: var(--color2, #bde9ff)" d="M42.045 20.157h4.009v6.711h-4.009v-6.711z"></path>
      <path fill="#77beed" style="fill: var(--color7, #77beed)" d="M35.637 23.836h4.009v7.013h-4.009v-7.013z"></path>
      <path fill="#bde9ff" style="fill: var(--color2, #bde9ff)" d="M35.637 20.157h4.009v1.845h-4.009v-1.845z"></path>
      <path fill="#31333f" style="fill: var(--color8, #31333f)" d="M42.451 4.981c0 0.854-0.719 1.545-1.606 1.545s-1.606-0.692-1.606-1.545c0-0.854 0.719-1.545 1.606-1.545s1.606 0.692 1.606 1.545z"></path>
      <path fill="#bde9ff" style="fill: var(--color2, #bde9ff)" d="M58.429 10.846h4.009v6.711h-4.009v-6.711z"></path>
      <path fill="#bde9ff" style="fill: var(--color2, #bde9ff)" d="M52.021 10.846h4.009v6.711h-4.009v-6.711z"></path>
      <path fill="#bde9ff" style="fill: var(--color2, #bde9ff)" d="M52.021 20.157h4.009v6.711h-4.009v-6.711z"></path>
      <path fill="#ffe67f" style="fill: var(--color3, #ffe67f)" d="M58.429 23.836h4.009v7.013h-4.009v-7.013z"></path>
      <path fill="#bde9ff" style="fill: var(--color2, #bde9ff)" d="M58.429 20.157h4.009v1.845h-4.009v-1.845z"></path>
      <path fill="#31333f" style="fill: var(--color8, #31333f)" d="M58.835 4.981c0 0.854-0.719 1.545-1.606 1.545s-1.606-0.692-1.606-1.545c0-0.854 0.719-1.545 1.606-1.545s1.606 0.692 1.606 1.545z"></path>
      <path fill="#000" style="fill: var(--color5, #000)" d="M35.453 18.062h3.971c0.274 0 0.497-0.218 0.497-0.488v-6.777c0-0.269-0.222-0.488-0.497-0.488h-3.971c-0.274 0-0.497 0.218-0.497 0.488v6.777c0 0.269 0.222 0.487 0.497 0.487zM35.949 17.087v-3.938h2.977v3.938h-2.977zM38.927 11.285v0.889h-2.977v-0.889h2.977z"></path>
      <path fill="#000" style="fill: var(--color5, #000)" d="M41.8 18.062h3.971c0.274 0 0.497-0.218 0.497-0.488v-6.777c0-0.269-0.222-0.488-0.497-0.488h-3.971c-0.274 0-0.497 0.218-0.497 0.488v6.777c0 0.269 0.222 0.487 0.497 0.487zM42.297 17.087v-3.938h2.977v3.938h-2.977zM45.275 11.285v0.889h-2.977v-0.889h2.977z"></path>
      <path fill="#000" style="fill: var(--color5, #000)" d="M41.304 26.977c0 0.269 0.222 0.488 0.497 0.488h3.971c0.274 0 0.497-0.218 0.497-0.488v-6.777c0-0.269-0.222-0.488-0.497-0.488h-3.971c-0.274 0-0.497 0.218-0.497 0.488v6.777zM42.297 26.489v-3.938h2.977v3.938h-2.977zM45.275 20.688v0.889h-2.977v-0.889h2.977z"></path>
      <path fill="#000" style="fill: var(--color5, #000)" d="M34.956 22.064c0 0.269 0.222 0.488 0.497 0.488h3.971c0.274 0 0.497-0.218 0.497-0.488v-1.864c0-0.269-0.222-0.488-0.497-0.488h-3.971c-0.274 0-0.497 0.218-0.497 0.488v1.864zM35.949 20.688h2.977v0.889h-2.977v-0.889z"></path>
      <path fill="#000" style="fill: var(--color5, #000)" d="M38.492 27.050c-0.184-0.119-0.433-0.105-0.6 0.036-0.152 0.128-0.21 0.342-0.145 0.527s0.244 0.319 0.445 0.329c0.207 0.010 0.404-0.113 0.483-0.301 0.089-0.211 0.013-0.466-0.182-0.592z"></path>
      <path fill="#000" style="fill: var(--color5, #000)" d="M38.525 4.874c0 1.129 0.936 2.048 2.087 2.048s2.087-0.919 2.087-2.048c0-1.129-0.936-2.048-2.087-2.048s-2.087 0.919-2.087 2.048zM41.706 4.874c0 0.592-0.491 1.073-1.094 1.073s-1.094-0.481-1.094-1.073c0-0.592 0.491-1.073 1.094-1.073s1.094 0.481 1.094 1.073z"></path>
      <path fill="#000" style="fill: var(--color5, #000)" d="M62.499 10.798c0-0.269-0.222-0.488-0.497-0.488h-3.971c-0.274 0-0.497 0.218-0.497 0.488v6.777c0 0.269 0.222 0.488 0.497 0.488h3.971c0.274 0 0.497-0.218 0.497-0.488v-6.777zM61.505 11.285v0.889h-2.977v-0.889h2.977zM58.528 17.087v-3.938h2.977v3.938h-2.977z"></path>
      <path fill="#000" style="fill: var(--color5, #000)" d="M56.151 10.798c0-0.269-0.222-0.488-0.497-0.488h-3.971c-0.274 0-0.497 0.218-0.497 0.488v6.777c0 0.269 0.222 0.488 0.497 0.488h3.971c0.274 0 0.497-0.218 0.497-0.488v-6.777zM55.157 11.285v0.889h-2.977v-0.889h2.977zM52.18 17.087v-3.938h2.977v3.938h-2.977z"></path>
      <path fill="#000" style="fill: var(--color5, #000)" d="M55.654 19.713h-3.971c-0.274 0-0.497 0.218-0.497 0.488v6.777c0 0.269 0.222 0.488 0.497 0.488h3.971c0.274 0 0.497-0.218 0.497-0.488v-6.777c0-0.269-0.222-0.488-0.497-0.488zM55.157 20.688v0.889h-2.977v-0.889h2.977zM52.18 26.489v-3.938h2.977v3.938h-2.977z"></path>
      <path fill="#000" style="fill: var(--color5, #000)" d="M62.002 19.713h-3.971c-0.274 0-0.497 0.218-0.497 0.488v1.864c0 0.269 0.222 0.488 0.497 0.488h3.971c0.274 0 0.497-0.218 0.497-0.488v-1.864c0-0.269-0.222-0.488-0.497-0.488zM61.505 21.576h-2.977v-0.889h2.977v0.889z"></path>
      <path fill="#000" style="fill: var(--color5, #000)" d="M59.697 27.27c-0.161-0.395-0.754-0.391-0.918 0-0.082 0.196-0.024 0.429 0.144 0.563 0.161 0.129 0.391 0.146 0.569 0.042 0.208-0.122 0.299-0.385 0.204-0.605z"></path>
      <path fill="#000" style="fill: var(--color5, #000)" d="M54.755 4.874c0 1.129 0.936 2.048 2.087 2.048s2.087-0.919 2.087-2.048c0-1.129-0.936-2.048-2.087-2.048s-2.087 0.919-2.087 2.048zM57.936 4.874c0 0.592-0.491 1.073-1.094 1.073s-1.094-0.481-1.094-1.073c0-0.592 0.491-1.073 1.094-1.073s1.094 0.481 1.094 1.073z"></path>
      <path fill="#000" style="fill: var(--color5, #000)" d="M64.958 12.894c0.274 0 0.497-0.218 0.497-0.488v-4.699c0-0.005-0.001-0.009-0.002-0.013-0.004-0.131-0.060-0.259-0.164-0.35l-8.115-7.124c-0.189-0.166-0.474-0.166-0.663 0l-5.388 4.73v-2.623c0-0.269-0.222-0.488-0.497-0.488h-3.799c-0.274 0-0.497 0.218-0.497 0.488v2.623l-5.388-4.73c-0.189-0.166-0.474-0.166-0.663 0l-8.115 7.124c-0.104 0.091-0.16 0.219-0.164 0.35-0.001 0.004-0.002 0.009-0.002 0.013v18.931c0 0.269 0.222 0.488 0.497 0.488s0.497-0.218 0.497-0.488v-18.443h15.237v22.314h-8.31v-6.594c0-0.269-0.222-0.488-0.497-0.488h-3.971c-0.274 0-0.497 0.218-0.497 0.488v6.594h-1.962v-1.921c0-0.269-0.222-0.488-0.497-0.488s-0.497 0.218-0.497 0.488v2.409c0 0.269 0.222 0.488 0.497 0.488h32.461c0.274 0 0.497-0.218 0.497-0.488v-16.64c0-0.269-0.222-0.488-0.497-0.488s-0.497 0.218-0.497 0.488v16.152h-1.962v-6.594c0-0.269-0.222-0.488-0.497-0.488h-3.971c-0.274 0-0.497 0.218-0.497 0.488v6.594h-8.31v-22.314h15.237v4.212c0 0.269 0.222 0.488 0.497 0.488zM58.528 24.403h2.977v6.107h-2.977v-6.107zM47.325 2.814h2.805v3.008l-1.403 1.231-1.402-1.231v-3.008zM33.797 7.22l6.815-5.982 6.815 5.982h-13.629zM35.949 30.509v-6.107h2.977v6.107h-2.977zM50.028 7.22l6.815-5.982 6.815 5.982h-13.629z"></path>
    </svg>
    <svg id="icon-twin-villa" viewBox="0 0 33 32">
      <title>twin-villa</title>
      <path fill="#ff8431" style="fill: var(--color4, #ff8431)" d="M15.019 7.335c0.43 0.829 0.646 0.769 0.646-0.182 0-0.115-0.815-0.903-0.822-1.037-0.030-0.646 0.028-1.881 0.176-3.704h3.809l-1.107 4.853 1.107 0.070z"></path>
      <path fill="#bde9ff" style="fill: var(--color2, #bde9ff)" d="M3.612 10.961h3.982v6.84h-3.982v-6.84z"></path>
      <path fill="#bde9ff" style="fill: var(--color2, #bde9ff)" d="M9.977 10.961h3.982v6.84h-3.982v-6.84z"></path>
      <path fill="#bde9ff" style="fill: var(--color2, #bde9ff)" d="M9.977 20.451h3.982v6.84h-3.982v-6.84z"></path>
      <path fill="#77beed" style="fill: var(--color7, #77beed)" d="M3.612 24.2h3.982v7.147h-3.982v-7.147z"></path>
      <path fill="#bde9ff" style="fill: var(--color2, #bde9ff)" d="M3.612 20.451h3.982v1.881h-3.982v-1.881z"></path>
      <path fill="#31333f" style="fill: var(--color8, #31333f)" d="M10.381 4.983c0 0.87-0.714 1.575-1.595 1.575s-1.595-0.705-1.595-1.575c0-0.87 0.714-1.575 1.595-1.575s1.595 0.705 1.595 1.575z"></path>
      <path fill="#bde9ff" style="fill: var(--color2, #bde9ff)" d="M26.252 10.961h3.982v6.84h-3.982v-6.84z"></path>
      <path fill="#bde9ff" style="fill: var(--color2, #bde9ff)" d="M19.887 10.961h3.982v6.84h-3.982v-6.84z"></path>
      <path fill="#bde9ff" style="fill: var(--color2, #bde9ff)" d="M19.887 20.451h3.982v6.84h-3.982v-6.84z"></path>
      <path fill="#ffe67f" style="fill: var(--color3, #ffe67f)" d="M26.252 24.2h3.982v7.147h-3.982v-7.147z"></path>
      <path fill="#bde9ff" style="fill: var(--color2, #bde9ff)" d="M26.252 20.451h3.982v1.881h-3.982v-1.881z"></path>
      <path fill="#31333f" style="fill: var(--color8, #31333f)" d="M26.655 4.983c0 0.87-0.714 1.575-1.595 1.575s-1.595-0.705-1.595-1.575c0-0.87 0.714-1.575 1.595-1.575s1.595 0.705 1.595 1.575z"></path>
      <path fill="#000" style="fill: var(--color5, #000)" d="M3.429 18.315h3.945c0.273 0 0.494-0.222 0.494-0.497v-6.907c0-0.274-0.221-0.497-0.494-0.497h-3.945c-0.273 0-0.494 0.222-0.494 0.497v6.907c0 0.274 0.221 0.497 0.494 0.497zM3.923 17.321v-4.014h2.958v4.014h-2.958zM6.881 11.408v0.906h-2.958v-0.906h2.958z"></path>
      <path fill="#000" style="fill: var(--color5, #000)" d="M9.735 18.315h3.945c0.273 0 0.494-0.222 0.494-0.497v-6.907c0-0.274-0.221-0.497-0.494-0.497h-3.945c-0.273 0-0.494 0.222-0.494 0.497v6.907c0 0.274 0.221 0.497 0.494 0.497zM10.228 17.321v-4.014h2.958v4.014h-2.958zM13.186 11.408v0.906h-2.958v-0.906h2.958z"></path>
      <path fill="#000" style="fill: var(--color5, #000)" d="M9.241 27.402c0 0.274 0.221 0.497 0.494 0.497h3.945c0.273 0 0.494-0.222 0.494-0.497v-6.907c0-0.274-0.221-0.497-0.494-0.497h-3.945c-0.273 0-0.494 0.222-0.494 0.497v6.907zM10.228 26.905v-4.014h2.958v4.014h-2.958zM13.186 20.992v0.906h-2.958v-0.906h2.958z"></path>
      <path fill="#000" style="fill: var(--color5, #000)" d="M2.936 22.394c0 0.274 0.221 0.497 0.494 0.497h3.945c0.273 0 0.494-0.222 0.494-0.497v-1.899c0-0.274-0.221-0.497-0.494-0.497h-3.945c-0.273 0-0.494 0.222-0.494 0.497v1.899zM3.923 20.992h2.958v0.906h-2.958v-0.906z"></path>
      <path fill="#000" style="fill: var(--color5, #000)" d="M6.448 27.477c-0.183-0.122-0.43-0.107-0.596 0.037-0.151 0.131-0.209 0.348-0.144 0.538s0.242 0.325 0.442 0.335c0.206 0.011 0.401-0.115 0.48-0.306 0.088-0.215 0.013-0.475-0.181-0.603z"></path>
      <path fill="#000" style="fill: var(--color5, #000)" d="M6.481 4.874c0 1.151 0.93 2.088 2.073 2.088s2.073-0.936 2.073-2.088c0-1.151-0.93-2.088-2.073-2.088s-2.073 0.936-2.073 2.088zM9.641 4.874c0 0.603-0.487 1.094-1.086 1.094s-1.086-0.491-1.086-1.094c0-0.603 0.487-1.094 1.086-1.094s1.086 0.491 1.086 1.094z"></path>
      <path fill="#000" style="fill: var(--color5, #000)" d="M30.295 10.911c0-0.274-0.221-0.497-0.494-0.497h-3.945c-0.273 0-0.494 0.222-0.494 0.497v6.907c0 0.274 0.221 0.497 0.494 0.497h3.945c0.273 0 0.494-0.222 0.494-0.497v-6.907zM29.308 11.408v0.906h-2.958v-0.906h2.958zM26.35 17.321v-4.014h2.958v4.014h-2.958z"></path>
      <path fill="#000" style="fill: var(--color5, #000)" d="M23.989 10.911c0-0.274-0.221-0.497-0.494-0.497h-3.945c-0.273 0-0.494 0.222-0.494 0.497v6.907c0 0.274 0.221 0.497 0.494 0.497h3.945c0.273 0 0.494-0.222 0.494-0.497v-6.907zM23.002 11.408v0.906h-2.958v-0.906h2.958zM20.045 17.321v-4.014h2.958v4.014h-2.958z"></path>
      <path fill="#000" style="fill: var(--color5, #000)" d="M23.496 19.998h-3.945c-0.273 0-0.494 0.222-0.494 0.497v6.907c0 0.274 0.221 0.497 0.494 0.497h3.945c0.273 0 0.494-0.222 0.494-0.497v-6.907c0-0.274-0.221-0.497-0.494-0.497zM23.002 20.992v0.906h-2.958v-0.906h2.958zM20.045 26.905v-4.014h2.958v4.014h-2.958z"></path>
      <path fill="#000" style="fill: var(--color5, #000)" d="M29.801 19.998h-3.945c-0.273 0-0.494 0.222-0.494 0.497v1.899c0 0.274 0.221 0.497 0.494 0.497h3.945c0.273 0 0.494-0.222 0.494-0.497v-1.899c0-0.274-0.221-0.497-0.494-0.497zM29.308 21.897h-2.958v-0.906h2.958v0.906z"></path>
      <path fill="#000" style="fill: var(--color5, #000)" d="M27.512 27.7c-0.16-0.403-0.749-0.398-0.911 0-0.081 0.2-0.023 0.437 0.143 0.574 0.16 0.131 0.389 0.149 0.566 0.043 0.207-0.124 0.297-0.393 0.203-0.617z"></path>
      <path fill="#000" style="fill: var(--color5, #000)" d="M22.603 4.874c0 1.151 0.93 2.088 2.073 2.088s2.073-0.936 2.073-2.088c0-1.151-0.93-2.088-2.073-2.088s-2.073 0.936-2.073 2.088zM25.763 4.874c0 0.603-0.487 1.094-1.086 1.094s-1.086-0.491-1.086-1.094c0-0.603 0.487-1.094 1.086-1.094s1.086 0.491 1.086 1.094z"></path>
      <path fill="#000" style="fill: var(--color5, #000)" d="M32.737 13.049c0.273 0 0.494-0.222 0.494-0.497v-4.79c0-0.005-0.001-0.009-0.002-0.013-0.004-0.134-0.060-0.264-0.163-0.357l-8.061-7.261c-0.187-0.169-0.471-0.169-0.658 0l-5.352 4.821v-2.673c0-0.274-0.221-0.497-0.494-0.497h-3.773c-0.273 0-0.494 0.222-0.494 0.497v2.674l-5.352-4.821c-0.187-0.169-0.471-0.169-0.658 0l-8.061 7.261c-0.103 0.093-0.159 0.223-0.163 0.357-0.001 0.004-0.002 0.009-0.002 0.013v19.295c0 0.274 0.221 0.497 0.494 0.497s0.494-0.222 0.494-0.497v-18.798h15.135v22.743h-8.254v-6.721c0-0.274-0.221-0.497-0.494-0.497h-3.945c-0.273 0-0.494 0.222-0.494 0.497v6.721h-1.949v-1.958c0-0.274-0.221-0.497-0.494-0.497s-0.494 0.222-0.494 0.497v2.455c0 0.274 0.221 0.497 0.494 0.497h32.244c0.273 0 0.494-0.222 0.494-0.497v-16.96c0-0.274-0.221-0.497-0.494-0.497s-0.494 0.222-0.494 0.497v16.463h-1.949v-6.721c0-0.274-0.221-0.497-0.494-0.497h-3.945c-0.273 0-0.494 0.222-0.494 0.497v6.721h-8.254v-22.743h15.135v4.293c0 0.274 0.221 0.497 0.494 0.497zM26.35 24.778h2.958v6.224h-2.958v-6.224zM15.223 2.775h2.786v3.066l-1.393 1.255-1.393-1.255v-3.066zM1.785 7.265l6.769-6.097 6.769 6.097h-13.538zM3.923 31.002v-6.224h2.958v6.224h-2.958zM17.907 7.265l6.769-6.097 6.769 6.097h-13.538z"></path>
    </svg>
    <svg id="icon-stats" viewBox="0 0 32 32">
      <title>stats</title>
      <path d="M9.578 9.103c-0.149-0.332-0.232-0.7-0.232-1.087 0-1.468 1.194-2.662 2.662-2.662s2.662 1.194 2.662 2.662c0 0.022-0 0.044-0.001 0.066l3.251 0.927c0.488-0.606 1.236-0.994 2.073-0.994 0.493 0 0.955 0.135 1.351 0.369l4.341-4.341c-0.235-0.396-0.369-0.858-0.369-1.351 0-1.468 1.194-2.662 2.662-2.662s2.662 1.194 2.662 2.662c0 1.468-1.194 2.662-2.662 2.662-0.493 0-0.955-0.135-1.351-0.369l-4.341 4.341c0.235 0.396 0.369 0.858 0.369 1.351 0 1.468-1.194 2.662-2.662 2.662s-2.662-1.194-2.662-2.662c0-0.15 0.012-0.298 0.037-0.441l-3.064-0.874c-0.463 0.786-1.318 1.315-2.295 1.315-0.599 0-1.153-0.199-1.598-0.534l-4.059 3.236c0.213 0.382 0.334 0.822 0.334 1.29 0 1.468-1.194 2.662-2.662 2.662s-2.662-1.194-2.662-2.662c0-1.468 1.194-2.662 2.662-2.662 0.516 0 0.998 0.148 1.407 0.403l4.149-3.308zM4.943 13.708c-0.239-0.229-0.563-0.37-0.92-0.37-0.735 0-1.331 0.597-1.331 1.331s0.596 1.331 1.331 1.331 1.331-0.598 1.331-1.331c0-0.356-0.141-0.68-0.37-0.92-0.014-0.013-0.028-0.027-0.041-0.041zM10.994 8.877c0.244 0.287 0.608 0.469 1.014 0.469 0.735 0 1.331-0.597 1.331-1.331s-0.596-1.331-1.331-1.331-1.331 0.597-1.331 1.331c0 0.299 0.099 0.575 0.266 0.798 0.009 0.010 0.018 0.021 0.027 0.031s0.017 0.021 0.024 0.032zM27.063 3.659c0.238 0.226 0.56 0.364 0.914 0.364 0.735 0 1.331-0.598 1.331-1.331s-0.596-1.331-1.331-1.331c-0.735 0-1.331 0.597-1.331 1.331 0 0.353 0.139 0.675 0.364 0.914 0.009 0.008 0.018 0.017 0.027 0.025s0.017 0.018 0.026 0.027zM25.971 31.969h-3.974c-0.003 0-0.006 0-0.009 0h-3.992c-0.003 0-0.006-0-0.009-0h-3.974c-0.003 0-0.006 0-0.009 0h-3.992c-0.003 0-0.006-0-0.009-0h-9.306c-0.367 0-0.665-0.298-0.665-0.665s0.298-0.665 0.665-0.665h0.665v-7.319c0-0.367 0.298-0.665 0.665-0.665h3.992c0.367 0 0.665 0.298 0.665 0.665v7.319h2.661v-13.973c0-0.367 0.298-0.665 0.665-0.665h3.992c0.367 0 0.665 0.298 0.665 0.665v13.973h2.661v-11.311c0-0.367 0.298-0.665 0.665-0.665h3.992c0.367 0 0.665 0.298 0.665 0.665v11.311h2.661v-19.296c0-0.367 0.298-0.665 0.665-0.665h3.992c0.367 0 0.665 0.298 0.665 0.665v19.296h0.665c0.367 0 0.665 0.298 0.665 0.665s-0.298 0.665-0.665 0.665h-1.322c-0.003 0-0.006 0-0.009 0h-3.992c-0.003 0-0.006-0-0.009-0zM29.307 30.638v-18.63h-2.662v18.63h2.662zM18.661 30.638h2.662v-10.646h-2.662v10.646zM13.338 30.638v-13.307h-2.662v13.307h2.662zM2.693 30.638h2.662v-6.654h-2.662v6.654zM19.992 12.008c0.735 0 1.331-0.598 1.331-1.331s-0.596-1.331-1.331-1.331c-0.735 0-1.331 0.597-1.331 1.331s0.596 1.331 1.331 1.331z"></path>
    </svg>
    <svg id="icon-information" viewBox="0 0 32 32">
      <title>information</title>
      <path d="M16 0c8.823 0 16 7.177 16 16s-7.177 16-16 16c-8.823 0-16-7.177-16-16s7.177-16 16-16zM16 30.667c8.087 0 14.667-6.58 14.667-14.667s-6.58-14.667-14.667-14.667c-8.087 0-14.667 6.58-14.667 14.667s6.58 14.667 14.667 14.667zM20.667 22.667c1.103 0 2 0.897 2 2s-0.897 2-2 2h-8c-1.103 0-2-0.897-2-2s0.897-2 2-2h0.667v-4h-0.667c-1.103 0-2-0.897-2-2s0.897-2 2-2h5.333c1.103 0 2 0.897 2 2v6h0.667zM20.667 25.333c0.368 0 0.667-0.3 0.667-0.667s-0.299-0.667-0.667-0.667h-1.333c-0.368 0-0.667-0.299-0.667-0.667v-6.667c0-0.367-0.299-0.667-0.667-0.667h-5.333c-0.368 0-0.667 0.3-0.667 0.667s0.299 0.667 0.667 0.667h1.333c0.368 0 0.667 0.299 0.667 0.667v5.333c0 0.368-0.299 0.667-0.667 0.667h-1.333c-0.368 0-0.667 0.3-0.667 0.667s0.299 0.667 0.667 0.667h8zM16 5.333c2.205 0 4 1.795 4 4s-1.795 4-4 4c-2.205 0-4-1.795-4-4s1.795-4 4-4zM16 12c1.471 0 2.667-1.196 2.667-2.667s-1.196-2.667-2.667-2.667c-1.471 0-2.667 1.196-2.667 2.667s1.196 2.667 2.667 2.667z"></path>
    </svg>
    <svg id="icon-dashboard" viewBox="0 0 32 32">
      <title>dashboard</title>
      <path d="M31.643 10.076c0.219 0.115 0.357 0.341 0.357 0.591s-0.139 0.476-0.359 0.591l-15.333 8c-0.096 0.051-0.203 0.076-0.308 0.076s-0.212-0.025-0.308-0.076l-15.333-8c-0.22-0.115-0.359-0.341-0.359-0.591s0.139-0.476 0.359-0.591l15.333-8c0.193-0.101 0.424-0.101 0.617 0l15.333 8zM16 17.916l13.892-7.249-13.892-7.249-13.892 7.249 13.892 7.249zM31.643 15.408c0.219 0.116 0.357 0.343 0.357 0.592s-0.139 0.476-0.359 0.591l-15.333 8c-0.096 0.051-0.203 0.076-0.308 0.076s-0.212-0.025-0.308-0.076l-15.333-8c-0.22-0.115-0.359-0.341-0.359-0.591s0.139-0.476 0.359-0.591l2.229-1.163c0.325-0.167 0.729-0.045 0.9 0.283 0.171 0.327 0.044 0.729-0.283 0.9l-1.097 0.571 13.892 7.249 13.892-7.249-1.096-0.572c-0.327-0.171-0.453-0.573-0.283-0.9s0.575-0.449 0.9-0.283l2.229 1.163zM31.643 20.741c0.219 0.116 0.357 0.343 0.357 0.592s-0.139 0.476-0.359 0.591l-15.333 8c-0.096 0.051-0.203 0.076-0.308 0.076s-0.212-0.025-0.308-0.076l-15.333-8c-0.22-0.115-0.359-0.341-0.359-0.591s0.139-0.476 0.359-0.591l2.229-1.163c0.325-0.168 0.729-0.044 0.9 0.283s0.044 0.729-0.283 0.9l-1.097 0.571 13.892 7.249 13.892-7.249-1.096-0.572c-0.327-0.171-0.453-0.573-0.283-0.9s0.575-0.449 0.9-0.283l2.229 1.163z"></path>
    </svg>
    <svg id="icon-clients" viewBox="0 0 32 32">
      <title>clients</title>
      <path d="M6.781 25.333c0.275-0.776 1.017-1.333 1.886-1.333 1.103 0 2 0.897 2 2s-0.897 2-2 2c-0.869 0-1.611-0.557-1.886-1.333h-1.448v2c0 1.103 0.897 2 2 2h18.667c1.103 0 2-0.897 2-2v-25.333c0-1.103-0.897-2-2-2h-18.667c-1.103 0-2 0.897-2 2v2h1.448c0.275-0.776 1.017-1.333 1.886-1.333 1.103 0 2 0.897 2 2s-0.897 2-2 2c-0.869 0-1.611-0.557-1.886-1.333h-1.448v5.333h1.448c0.275-0.776 1.017-1.333 1.886-1.333 1.103 0 2 0.897 2 2s-0.897 2-2 2c-0.869 0-1.611-0.557-1.886-1.333h-1.448v5.333h1.448c0.275-0.776 1.017-1.333 1.886-1.333 1.103 0 2 0.897 2 2s-0.897 2-2 2c-0.869 0-1.611-0.557-1.886-1.333h-1.448v5.333h1.448zM8 12.667c0 0.367 0.299 0.667 0.667 0.667s0.667-0.3 0.667-0.667c0-0.367-0.299-0.667-0.667-0.667s-0.667 0.3-0.667 0.667c0 0 0 0 0 0zM4 6.667h-0.667c-0.368 0-0.667-0.299-0.667-0.667s0.299-0.667 0.667-0.667h0.667v-2c0-1.839 1.496-3.333 3.333-3.333h18.667c1.837 0 3.333 1.495 3.333 3.333v25.333c0 1.839-1.496 3.333-3.333 3.333h-18.667c-1.837 0-3.333-1.495-3.333-3.333v-2h-0.667c-0.368 0-0.667-0.299-0.667-0.667s0.299-0.667 0.667-0.667h0.667v-5.333h-0.667c-0.368 0-0.667-0.299-0.667-0.667s0.299-0.667 0.667-0.667h0.667v-5.333h-0.667c-0.368 0-0.667-0.299-0.667-0.667s0.299-0.667 0.667-0.667h0.667v-5.333zM8.667 6.667c0.368 0 0.667-0.3 0.667-0.667s-0.299-0.667-0.667-0.667-0.667 0.3-0.667 0.667c0 0.367 0.299 0.667 0.667 0.667zM8.667 20c0.368 0 0.667-0.3 0.667-0.667s-0.299-0.667-0.667-0.667-0.667 0.3-0.667 0.667c0 0.367 0.299 0.667 0.667 0.667zM8.667 26.667c0.368 0 0.667-0.3 0.667-0.667s-0.299-0.667-0.667-0.667-0.667 0.3-0.667 0.667c0 0.367 0.299 0.667 0.667 0.667z"></path>
    </svg>
    <svg id="icon-units" viewBox="0 0 32 32">
      <title>units</title>
      <path d="M8.583 12.747c-0.215-0.299-0.628-0.368-0.931-0.155-0.679 0.485-1.48 0.741-2.319 0.741-2.205 0-4-1.795-4-4v-0.667c0-0.368-0.299-0.667-0.667-0.667s-0.667 0.299-0.667 0.667v0.667c0 2.941 2.392 5.333 5.333 5.333 1.119 0 2.189-0.341 3.095-0.991 0.299-0.213 0.368-0.629 0.155-0.929z"></path>
      <path d="M16.344 12.5c-0.312-0.191-0.723-0.089-0.916 0.227-0.731 1.215-2.012 1.94-3.428 1.94-1.389 0-2.659-0.705-3.396-1.885-0.195-0.313-0.608-0.407-0.917-0.213-0.313 0.196-0.408 0.607-0.213 0.919 0.983 1.573 2.673 2.513 4.527 2.513 1.887 0 3.596-0.967 4.572-2.585 0.189-0.315 0.087-0.724-0.228-0.915z"></path>
      <path d="M24.313 12.569c-0.307-0.192-0.723-0.099-0.917 0.213-0.737 1.18-2.007 1.884-3.396 1.884-1.416 0-2.7-0.725-3.431-1.943-0.191-0.315-0.599-0.415-0.916-0.228-0.315 0.191-0.419 0.6-0.228 0.916 0.961 1.596 2.713 2.588 4.575 2.588 1.852 0 3.544-0.939 4.525-2.512 0.196-0.312 0.1-0.724-0.212-0.919z"></path>
      <path d="M31.333 8c-0.368 0-0.667 0.299-0.667 0.667v0.667c0 2.205-1.795 4-4 4-0.836 0-1.637-0.255-2.316-0.737-0.297-0.213-0.715-0.144-0.928 0.157-0.213 0.3-0.144 0.716 0.157 0.929 0.905 0.644 1.973 0.984 3.087 0.984 2.941 0 5.333-2.392 5.333-5.333v-0.667c0-0.368-0.299-0.667-0.667-0.667z"></path>
      <path d="M8 8c-0.368 0-0.667 0.299-0.667 0.667v4.404c0 0.368 0.299 0.667 0.667 0.667s0.667-0.297 0.667-0.667v-4.404c0-0.368-0.299-0.667-0.667-0.667z"></path>
      <path d="M16 2.667c-0.368 0-0.667 0.299-0.667 0.667v9.737c0 0.368 0.299 0.667 0.667 0.667s0.667-0.297 0.667-0.667v-9.737c0-0.368-0.299-0.667-0.667-0.667z"></path>
      <path d="M24 8c-0.368 0-0.667 0.299-0.667 0.667v4.427c0 0.368 0.299 0.667 0.667 0.667s0.667-0.299 0.667-0.667v-4.427c0-0.368-0.299-0.667-0.667-0.667z"></path>
      <path d="M31.333 8h-30.667c-0.368 0-0.667 0.299-0.667 0.667s0.299 0.667 0.667 0.667h30.667c0.368 0 0.667-0.299 0.667-0.667s-0.299-0.667-0.667-0.667z"></path>
      <path d="M31.867 8.267l-4-5.333c-0.125-0.168-0.324-0.267-0.533-0.267h-22.667c-0.209 0-0.408 0.099-0.533 0.267l-4 5.333c-0.22 0.295-0.161 0.712 0.133 0.933 0.295 0.22 0.712 0.163 0.933-0.133l3.8-5.067h22l3.8 5.067c0.131 0.175 0.332 0.267 0.533 0.267 0.139 0 0.28-0.044 0.399-0.133 0.295-0.221 0.355-0.639 0.135-0.933z"></path>
      <path d="M27.333 13.333c-0.368 0-0.667 0.299-0.667 0.667v14h-21.333v-14c0-0.368-0.299-0.667-0.667-0.667s-0.667 0.299-0.667 0.667v14.667c0 0.368 0.299 0.667 0.667 0.667h22.667c0.368 0 0.667-0.299 0.667-0.667v-14.667c-0-0.368-0.299-0.667-0.667-0.667z"></path>
      <path d="M24.667 17.333h-6.667c-0.368 0-0.667 0.299-0.667 0.667v10.667c0 0.368 0.299 0.667 0.667 0.667h6.667c0.368 0 0.667-0.299 0.667-0.667v-10.667c-0-0.368-0.299-0.667-0.667-0.667zM24 28h-5.333v-9.333h5.333v9.333z"></path>
      <path d="M15.333 17.333h-8c-0.368 0-0.667 0.299-0.667 0.667v5.333c0 0.368 0.299 0.667 0.667 0.667h8c0.368 0 0.667-0.299 0.667-0.667v-5.333c0-0.368-0.299-0.667-0.667-0.667zM14.667 22.667h-6.667v-4h6.667v4z"></path>
      <path d="M10.965 2.736c-0.329-0.161-0.728-0.031-0.895 0.299l-2.667 5.333c-0.164 0.329-0.032 0.731 0.297 0.895 0.097 0.048 0.199 0.071 0.299 0.071 0.244 0 0.479-0.135 0.596-0.368l2.667-5.333c0.164-0.329 0.032-0.731-0.297-0.896z"></path>
      <path d="M24.597 8.369l-2.667-5.333c-0.165-0.329-0.565-0.461-0.895-0.299-0.329 0.165-0.463 0.565-0.299 0.895l2.667 5.333c0.117 0.233 0.352 0.368 0.596 0.368 0.1 0 0.201-0.023 0.299-0.069 0.329-0.165 0.463-0.565 0.299-0.895z"></path>
    </svg>
    <svg id="icon-employees" viewBox="0 0 32 32">
      <title>employees</title>
      <path d="M8.948 20.083c1.659-2.064 4.204-3.387 7.052-3.387s5.393 1.323 7.052 3.388c0.836-0.397 1.754-0.605 2.687-0.605 3.452 0 6.261 2.809 6.261 6.261 0 0.384-0.312 0.696-0.696 0.696s-0.696-0.312-0.696-0.696c0-2.685-2.184-4.87-4.87-4.87-0.653 0-1.296 0.13-1.891 0.381 0.76 1.324 1.195 2.856 1.195 4.489 0 0.384-0.312 0.696-0.696 0.696s-0.696-0.312-0.696-0.696c0-4.22-3.432-7.652-7.652-7.652s-7.652 3.432-7.652 7.652c0 0.384-0.312 0.696-0.696 0.696s-0.696-0.312-0.696-0.696c0-1.633 0.435-3.166 1.195-4.489-0.595-0.25-1.237-0.38-1.891-0.38-2.685 0-4.87 2.184-4.87 4.87 0 0.384-0.312 0.696-0.696 0.696s-0.696-0.312-0.696-0.696c0-3.452 2.809-6.261 6.261-6.261 0.934 0 1.852 0.208 2.688 0.605zM16 5.565c2.685 0 4.87 2.184 4.87 4.87s-2.184 4.87-4.87 4.87c-2.685 0-4.87-2.184-4.87-4.87s2.184-4.87 4.87-4.87zM16 13.913c1.917 0 3.478-1.561 3.478-3.478s-1.561-3.478-3.478-3.478c-1.917 0-3.478 1.561-3.478 3.478s1.561 3.478 3.478 3.478zM25.739 11.13c1.917 0 3.478 1.561 3.478 3.478s-1.561 3.478-3.478 3.478c-1.917 0-3.478-1.561-3.478-3.478s1.561-3.478 3.478-3.478zM25.739 16.696c1.151 0 2.087-0.936 2.087-2.087s-0.936-2.087-2.087-2.087c-1.151 0-2.087 0.936-2.087 2.087s0.936 2.087 2.087 2.087zM6.36 11.13c1.919 0 3.478 1.561 3.478 3.478s-1.561 3.478-3.478 3.478c-1.917 0-3.478-1.561-3.478-3.478s1.56-3.478 3.478-3.478zM6.36 16.696c1.151 0 2.087-0.936 2.087-2.087s-0.936-2.087-2.087-2.087c-1.151 0-2.087 0.936-2.087 2.087s0.936 2.087 2.087 2.087z"></path>
    </svg>


    <svg id="icon-requests2" viewBox="0 0 32 32">
      <title>requests</title>
      <path fill="#ffd782" style="fill: var(--color1, #ffd782)" d="M20.009 31.5h-8.017c-0.443 0-0.802-0.359-0.802-0.802v-29.397c0-0.443 0.359-0.802 0.802-0.802h8.017c0.443 0 0.802 0.359 0.802 0.802v29.397c0 0.443-0.359 0.802-0.802 0.802z"></path>
      <path fill="#eff2fa" style="fill: var(--color2, #eff2fa)" d="M18.672 19.207h-5.345c-0.295 0-0.534-0.239-0.534-0.535v-13.362c0-0.295 0.239-0.534 0.534-0.534h5.345c0.295 0 0.535 0.239 0.535 0.534v13.362c0 0.295-0.239 0.535-0.535 0.535z"></path>
      <path fill="#d7deed" style="fill: var(--color3, #d7deed)" d="M17.603 9.586h-3.207c-0.295 0-0.534-0.239-0.534-0.534s0.239-0.534 0.534-0.534h3.207c0.295 0 0.535 0.239 0.535 0.534s-0.239 0.534-0.535 0.534z"></path>
      <path fill="#d7deed" style="fill: var(--color3, #d7deed)" d="M17.603 11.724h-3.207c-0.295 0-0.534-0.239-0.534-0.534s0.239-0.534 0.534-0.534h3.207c0.295 0 0.535 0.239 0.535 0.534s-0.239 0.534-0.535 0.534z"></path>
      <path fill="#d7deed" style="fill: var(--color3, #d7deed)" d="M17.603 13.862h-3.207c-0.295 0-0.534-0.239-0.534-0.534s0.239-0.534 0.534-0.534h3.207c0.295 0 0.535 0.239 0.535 0.534s-0.239 0.534-0.535 0.534z"></path>
      <path fill="#d7deed" style="fill: var(--color3, #d7deed)" d="M17.603 18.138h-3.207c-0.295 0-0.534-0.239-0.534-0.535s0.239-0.535 0.534-0.535h3.207c0.295 0 0.535 0.239 0.535 0.535s-0.239 0.535-0.535 0.535z"></path>
      <path fill="#c7cfe2" style="fill: var(--color4, #c7cfe2)" d="M12.793 14.931h6.414v1.069h-6.414v-1.069z"></path>
      <path fill="#c7cfe2" style="fill: var(--color4, #c7cfe2)" d="M19.207 6.914h-6.414v-2.138c0-0.295 0.239-0.534 0.534-0.534h5.345c0.295 0 0.535 0.239 0.535 0.534v2.138z"></path>
      <path fill="#464655" style="fill: var(--color5, #464655)" d="M17.336 24.017c0 0.738-0.598 1.336-1.336 1.336s-1.336-0.598-1.336-1.336c0-0.738 0.598-1.336 1.336-1.336s1.336 0.598 1.336 1.336z"></path>
      <path fill="#eff2fa" style="fill: var(--color2, #eff2fa)" d="M16 26.422c-1.326 0-2.405-1.079-2.405-2.405s1.079-2.405 2.405-2.405 2.405 1.079 2.405 2.405-1.079 2.405-2.405 2.405zM16 22.681c-0.737 0-1.336 0.599-1.336 1.336s0.6 1.336 1.336 1.336c0.737 0 1.336-0.599 1.336-1.336s-0.599-1.336-1.336-1.336z"></path>
      <path fill="#c3e678" style="fill: var(--color6, #c3e678)" d="M29.629 31.5h-8.017c-0.443 0-0.802-0.359-0.802-0.802v-29.397c-0-0.443 0.359-0.802 0.802-0.802h8.017c0.443 0 0.802 0.359 0.802 0.802v29.397c0 0.443-0.359 0.802-0.802 0.802z"></path>
      <path fill="#eff2fa" style="fill: var(--color2, #eff2fa)" d="M28.293 19.207h-5.345c-0.295 0-0.535-0.239-0.535-0.535v-13.362c0-0.295 0.239-0.534 0.535-0.534h5.345c0.295 0 0.535 0.239 0.535 0.534v13.362c0 0.295-0.239 0.535-0.535 0.535z"></path>
      <path fill="#d7deed" style="fill: var(--color3, #d7deed)" d="M27.224 9.586h-3.207c-0.295 0-0.535-0.239-0.535-0.534s0.239-0.534 0.535-0.534h3.207c0.295 0 0.535 0.239 0.535 0.534s-0.239 0.534-0.535 0.534z"></path>
      <path fill="#d7deed" style="fill: var(--color3, #d7deed)" d="M27.224 11.724h-3.207c-0.295 0-0.535-0.239-0.535-0.534s0.239-0.534 0.535-0.534h3.207c0.295 0 0.535 0.239 0.535 0.534s-0.239 0.534-0.535 0.534z"></path>
      <path fill="#d7deed" style="fill: var(--color3, #d7deed)" d="M27.224 13.862h-3.207c-0.295 0-0.535-0.239-0.535-0.534s0.239-0.534 0.535-0.534h3.207c0.295 0 0.535 0.239 0.535 0.534s-0.239 0.534-0.535 0.534z"></path>
      <path fill="#d7deed" style="fill: var(--color3, #d7deed)" d="M27.224 18.138h-3.207c-0.295 0-0.535-0.239-0.535-0.535s0.239-0.535 0.535-0.535h3.207c0.295 0 0.535 0.239 0.535 0.535s-0.239 0.535-0.535 0.535z"></path>
      <path fill="#c7cfe2" style="fill: var(--color4, #c7cfe2)" d="M22.414 14.931h6.414v1.069h-6.414v-1.069z"></path>
      <path fill="#c7cfe2" style="fill: var(--color4, #c7cfe2)" d="M28.828 6.914h-6.414v-2.138c0-0.295 0.239-0.534 0.535-0.534h5.345c0.295 0 0.535 0.239 0.535 0.534v2.138z"></path>
      <path fill="#464655" style="fill: var(--color5, #464655)" d="M26.957 24.017c0 0.738-0.598 1.336-1.336 1.336s-1.336-0.598-1.336-1.336c0-0.738 0.598-1.336 1.336-1.336s1.336 0.598 1.336 1.336z"></path>
      <path fill="#eff2fa" style="fill: var(--color2, #eff2fa)" d="M25.621 26.422c-1.326 0-2.405-1.079-2.405-2.405s1.079-2.405 2.405-2.405 2.405 1.079 2.405 2.405-1.079 2.405-2.405 2.405zM25.621 22.681c-0.737 0-1.336 0.599-1.336 1.336s0.599 1.336 1.336 1.336 1.336-0.599 1.336-1.336-0.6-1.336-1.336-1.336z"></path>
      <path fill="#ff6464" style="fill: var(--color7, #ff6464)" d="M10.388 31.5h-8.017c-0.443 0-0.802-0.359-0.802-0.802v-29.397c-0-0.443 0.359-0.802 0.802-0.802h8.017c0.443 0 0.802 0.359 0.802 0.802v29.397c0 0.443-0.359 0.802-0.802 0.802z"></path>
      <path fill="#eff2fa" style="fill: var(--color2, #eff2fa)" d="M9.052 19.207h-5.345c-0.295 0-0.534-0.239-0.534-0.535v-13.362c0-0.295 0.239-0.534 0.534-0.534h5.345c0.295 0 0.534 0.239 0.534 0.534v13.362c-0 0.295-0.239 0.535-0.535 0.535z"></path>
      <path fill="#d7deed" style="fill: var(--color3, #d7deed)" d="M7.983 9.586h-3.207c-0.295 0-0.535-0.239-0.535-0.534s0.239-0.534 0.534-0.534h3.207c0.295 0 0.534 0.239 0.534 0.534s-0.239 0.534-0.535 0.534z"></path>
      <path fill="#d7deed" style="fill: var(--color3, #d7deed)" d="M7.983 11.724h-3.207c-0.295 0-0.535-0.239-0.535-0.534s0.239-0.534 0.534-0.534h3.207c0.295 0 0.534 0.239 0.534 0.534s-0.239 0.534-0.535 0.534z"></path>
      <path fill="#d7deed" style="fill: var(--color3, #d7deed)" d="M7.983 13.862h-3.207c-0.295 0-0.535-0.239-0.535-0.534s0.239-0.534 0.534-0.534h3.207c0.295 0 0.534 0.239 0.534 0.534s-0.239 0.534-0.535 0.534z"></path>
      <path fill="#d7deed" style="fill: var(--color3, #d7deed)" d="M7.983 18.138h-3.207c-0.295 0-0.535-0.239-0.535-0.535s0.239-0.535 0.534-0.535h3.207c0.295 0 0.534 0.239 0.534 0.535s-0.239 0.535-0.535 0.535z"></path>
      <path fill="#c7cfe2" style="fill: var(--color4, #c7cfe2)" d="M3.172 14.931h6.414v1.069h-6.414v-1.069z"></path>
      <path fill="#c7cfe2" style="fill: var(--color4, #c7cfe2)" d="M9.586 6.914h-6.414v-2.138c0-0.295 0.239-0.534 0.534-0.534h5.345c0.295 0 0.534 0.239 0.534 0.534v2.138z"></path>
      <path fill="#464655" style="fill: var(--color5, #464655)" d="M7.715 24.017c0 0.738-0.598 1.336-1.336 1.336s-1.336-0.598-1.336-1.336c0-0.738 0.598-1.336 1.336-1.336s1.336 0.598 1.336 1.336z"></path>
      <path fill="#eff2fa" style="fill: var(--color2, #eff2fa)" d="M6.379 26.422c-1.326 0-2.405-1.079-2.405-2.405s1.079-2.405 2.405-2.405 2.405 1.079 2.405 2.405-1.079 2.405-2.405 2.405zM6.379 22.681c-0.737 0-1.336 0.599-1.336 1.336s0.599 1.336 1.336 1.336 1.336-0.599 1.336-1.336-0.599-1.336-1.336-1.336z"></path>
    </svg>
    <svg id="icon-settings2" viewBox="0 0 32 32">
      <title>settings</title>
      <path fill="#9bb9c3" style="fill: var(--color8, #9bb9c3)" d="M27.754 17.34c-0 0-0-0 0 0-0.023-0.023-0.034-0.054-0.030-0.084 0.049-0.434 0.073-0.877 0.073-1.316s-0.025-0.882-0.073-1.316c-0.003-0.030 0.008-0.061 0.030-0.084l2.121-2.179c0.737-0.757 0.882-1.924 0.355-2.839l-1.538-2.664c-0.528-0.915-1.612-1.372-2.635-1.112l-2.948 0.748c-0.031 0.008-0.063 0.002-0.088-0.016-0.708-0.523-1.476-0.967-2.28-1.319-0.028-0.012-0.049-0.037-0.058-0.068l-0.826-2.925c-0.287-1.016-1.225-1.726-2.281-1.726h-3.076c-1.056 0-1.994 0.71-2.281 1.726l-0.826 2.924c-0.009 0.031-0.030 0.056-0.058 0.068-0.805 0.351-1.572 0.795-2.28 1.319-0.025 0.018-0.057 0.024-0.088 0.016l-2.948-0.748c-1.024-0.26-2.108 0.198-2.635 1.112l-1.538 2.664c-0.528 0.915-0.382 2.082 0.354 2.839l2.122 2.179c0.022 0.023 0.034 0.054 0.030 0.084-0.048 0.434-0.073 0.877-0.073 1.316s0.025 0.882 0.073 1.316c0.004 0.030-0.008 0.061-0.030 0.084l-2.122 2.179c-0.736 0.757-0.882 1.924-0.354 2.839l1.538 2.664c0.528 0.915 1.612 1.372 2.635 1.112l2.948-0.748c0.031-0.008 0.063-0.002 0.088 0.016 0.708 0.523 1.476 0.967 2.28 1.319 0.028 0.012 0.049 0.037 0.058 0.068l0.826 2.924c0.287 1.016 1.225 1.726 2.281 1.726h3.076c1.056 0 1.994-0.71 2.281-1.726l0.826-2.924c0.009-0.031 0.030-0.056 0.058-0.068 0.805-0.351 1.572-0.795 2.28-1.319 0.025-0.018 0.057-0.024 0.088-0.016l2.948 0.748c1.024 0.26 2.107-0.198 2.635-1.113l1.538-2.663c0.528-0.915 0.382-2.082-0.354-2.839z"></path>
      <path fill="#87a0af" style="fill: var(--color9, #87a0af)" d="M27.754 17.34c-0 0-0-0 0 0-0.023-0.023-0.034-0.054-0.030-0.084 0.049-0.434 0.073-0.877 0.073-1.316s-0.025-0.882-0.073-1.316c-0.003-0.030 0.008-0.061 0.030-0.084l2.121-2.179c0.737-0.757 0.882-1.924 0.355-2.839l-1.538-2.664c-0.486-0.842-1.445-1.297-2.393-1.16l1.509 2.613c0.528 0.915 0.382 2.082-0.355 2.839l-2.121 2.179c-0.023 0.023-0.034 0.054-0.030 0.084 0.049 0.434 0.073 0.877 0.073 1.316s-0.025 0.882-0.073 1.316c-0.003 0.030 0.008 0.061 0.030 0.084h0l2.121 2.179c0.737 0.757 0.882 1.924 0.355 2.839l-1.538 2.663c-0.528 0.915-1.612 1.372-2.635 1.113l-2.948-0.748c-0.031-0.008-0.064-0.002-0.088 0.016-0.708 0.524-1.476 0.967-2.28 1.319-0.028 0.012-0.049 0.037-0.058 0.068l-0.826 2.924c-0.287 1.016-1.225 1.726-2.281 1.726h-2.72c0.413 0.733 1.2 1.211 2.067 1.211h3.076c1.056 0 1.994-0.71 2.281-1.726l0.826-2.924c0.009-0.031 0.030-0.056 0.058-0.068 0.805-0.351 1.572-0.795 2.28-1.319 0.025-0.018 0.057-0.024 0.088-0.016l2.948 0.748c1.024 0.26 2.107-0.198 2.635-1.113l1.538-2.663c0.528-0.915 0.382-2.082-0.355-2.839z"></path>
      <path fill="#87a0af" style="fill: var(--color9, #87a0af)" d="M21.731 15.939c0 3.144-2.549 5.694-5.694 5.694s-5.694-2.549-5.694-5.694 2.549-5.694 5.694-5.694c3.144 0 5.694 2.549 5.694 5.694z"></path>
      <path fill="#a0cafe" style="fill: var(--color10, #a0cafe)" d="M16.037 7.117c-4.872 0-8.822 3.95-8.822 8.822s3.95 8.822 8.822 8.822c4.872 0 8.822-3.95 8.822-8.822s-3.95-8.822-8.822-8.822zM16.037 21.633c-3.144 0-5.694-2.549-5.694-5.694s2.549-5.694 5.694-5.694c3.144 0 5.694 2.549 5.694 5.694s-2.549 5.694-5.694 5.694z"></path>
      <path fill="#81b8fd" style="fill: var(--color11, #81b8fd)" d="M18.721 7.533c2.249 1.599 3.717 4.226 3.717 7.196 0 4.872-3.95 8.822-8.822 8.822-0.936 0-1.837-0.146-2.684-0.416 1.441 1.024 3.203 1.627 5.106 1.627 4.872 0 8.822-3.95 8.822-8.822 0-3.937-2.578-7.271-6.138-8.407z"></path>
      <path fill="#e1ebf0" style="fill: var(--color12, #e1ebf0)" d="M19.32 15.939c0 1.813-1.47 3.283-3.283 3.283s-3.283-1.47-3.283-3.283 1.47-3.283 3.283-3.283c1.813 0 3.283 1.47 3.283 3.283z"></path>
      <path fill="#b4d2d7" style="fill: var(--color13, #b4d2d7)" d="M16.846 12.757c0.413 0.549 0.658 1.232 0.658 1.972 0 1.813-1.47 3.283-3.283 3.283-0.279 0-0.55-0.035-0.809-0.1 0.599 0.796 1.552 1.311 2.625 1.311 1.813 0 3.283-1.47 3.283-3.283 0-1.534-1.052-2.822-2.474-3.183z"></path>
      <path fill="#b4d2d7" style="fill: var(--color13, #b4d2d7)" d="M15 17.431c-0.116 0-0.232-0.044-0.321-0.133-0.177-0.177-0.177-0.465 0-0.642l2.074-2.074c0.177-0.177 0.465-0.177 0.642 0s0.177 0.465 0 0.642l-2.074 2.074c-0.088 0.089-0.205 0.133-0.321 0.133z"></path>
      <path fill="#9bb9c3" style="fill: var(--color8, #9bb9c3)" d="M17.504 14.755c-0.001 0.117-0.008 0.232-0.021 0.346 0.052-0.108 0.059-0.233 0.021-0.346z"></path>
    </svg>
    <svg id="icon-employees2" viewBox="0 0 32 32">
      <title>employees</title>
      <path fill="#dbd9dc" style="fill: var(--color14, #dbd9dc)" d="M29.777 17.938l-2.688-1.057h-9.54l-2.688 1.057c-1.031 0.405-1.691 1.419-1.647 2.525l0.326 8.147c0.019 0.465 0.401 0.833 0.867 0.833h15.824c0.465 0 0.848-0.367 0.867-0.833l0.326-8.147c0.044-1.107-0.617-2.12-1.647-2.525z"></path>
      <path fill="#5d5360" style="fill: var(--color15, #5d5360)" d="M21.686 19.903l-0.555 9.54h2.376l-0.555-9.54z"></path>
      <path fill="#4b3f4e" style="fill: var(--color16, #4b3f4e)" d="M22.689 20.337h-0.739c-0.275 0-0.498-0.223-0.498-0.498v-1.237h1.735v1.237c-0 0.275-0.223 0.498-0.498 0.498z"></path>
      <path fill="#b48764" style="fill: var(--color17, #b48764)" d="M19.284 13.398h6.071v5.204h-6.071v-5.204z"></path>
      <path fill="#966d50" style="fill: var(--color18, #966d50)" d="M19.284 15.018c0.86 0.619 1.91 0.982 3.035 0.982s2.175-0.363 3.035-0.982v-1.619h-6.071v1.619z"></path>
      <path fill="#5c414b" style="fill: var(--color19, #5c414b)" d="M22.319 2.571c-2.165 0.117-3.397 1.301-3.397 1.301s-1.807 0-1.807 2.168c0 1.735 0.434 3.455 0.434 3.455h9.974c0.867-4.77-1.192-7.141-5.204-6.925z"></path>
      <path fill="#503441" style="fill: var(--color20, #503441)" d="M19.717 7.706c-1.593-1.992-0.795-3.834-0.795-3.834s-1.807 0-1.807 2.168c0 1.735 0.434 3.456 0.434 3.456h2.168v-1.789h0z"></path>
      <path fill="#c39772" style="fill: var(--color21, #c39772)" d="M27.089 9.062h-0.434l-0.571-1.043c-0.090-0.165-0.278-0.249-0.463-0.215-2.856 0.522-4.733-0.141-5.444-0.474-0.186-0.087-0.408-0.030-0.528 0.137-0.439 0.613-0.923 1.096-1.213 1.363-0.161 0.148-0.37 0.231-0.59 0.231h-0.312c-0 0-0 0-0.001 0-0.047 0.001-0.096 0.006-0.145 0.015-0.422 0.082-0.706 0.485-0.706 0.915v0.314c0 0.415 0.266 0.806 0.669 0.9 0.091 0.021 0.18 0.027 0.264 0.021 0.216-0.017 0.404 0.14 0.443 0.352 0.369 2.021 2.134 3.553 4.261 3.553s3.892-1.532 4.261-3.553c0.037-0.205 0.214-0.354 0.42-0.35h0.089c0.479 0 0.867-0.388 0.867-0.867v-0.434c-0-0.479-0.388-0.867-0.867-0.867z"></path>
      <path fill="#b48764" style="fill: var(--color17, #b48764)" d="M19.717 10.797v-3.395c-0.024 0.021-0.049 0.040-0.068 0.066-0.439 0.613-0.923 1.096-1.213 1.363-0.161 0.148-0.37 0.231-0.59 0.231h-0.312c-0 0-0 0-0.001 0-0.047 0.001-0.096 0.006-0.145 0.015-0.422 0.082-0.706 0.485-0.706 0.915v0.314c0 0.415 0.266 0.806 0.669 0.9 0.091 0.021 0.18 0.027 0.264 0.021 0.216-0.017 0.404 0.14 0.443 0.352 0.369 2.021 2.134 3.553 4.261 3.553 0.295 0 0.582-0.032 0.86-0.088-1.976-0.405-3.462-2.153-3.462-4.248z"></path>
      <path fill="#edebed" style="fill: var(--color22, #edebed)" d="M22.319 18.616l-3.164-2.768c-0.172-0.15-0.431-0.142-0.592 0.020l-1.014 1.014 2.015 3.023c0.304 0.455 0.948 0.519 1.335 0.132l1.42-1.42z"></path>
      <path fill="#edebed" style="fill: var(--color22, #edebed)" d="M22.319 18.616l3.164-2.768c0.172-0.15 0.431-0.142 0.592 0.020l1.014 1.014-2.015 3.023c-0.304 0.455-0.948 0.519-1.335 0.132l-1.42-1.42z"></path>
      <path fill="#edebed" style="fill: var(--color22, #edebed)" d="M29.152 20.889l1.887-1.887c0.263 0.429 0.406 0.934 0.385 1.461l-0.326 8.147c-0.019 0.465-0.401 0.833-0.867 0.833h-1.841v-6.714c0-0.69 0.274-1.352 0.762-1.84z"></path>
      <path fill="#edebed" style="fill: var(--color22, #edebed)" d="M18.047 23.806h2.040c0.275 0 0.498-0.223 0.498-0.498v-0.305c0-0.275-0.223-0.498-0.498-0.498h-2.040c-0.275 0-0.498 0.223-0.498 0.498v0.305c0 0.275 0.223 0.498 0.498 0.498z"></path>
      <path fill="#5d5360" style="fill: var(--color15, #5d5360)" d="M14.624 20.491l-2.34-1.021h-7.81l-2.34 1.021c-0.985 0.43-1.604 1.421-1.559 2.495l0.238 5.627c0.020 0.464 0.402 0.831 0.867 0.831h13.396c0.465 0 0.847-0.366 0.867-0.831l0.238-5.627c0.045-1.074-0.574-2.065-1.559-2.495z"></path>
      <path fill="#fad7a5" style="fill: var(--color23, #fad7a5)" d="M6.211 16.434h4.336v4.336h-4.336v-4.336z"></path>
      <path fill="#f0c891" style="fill: var(--color24, #f0c891)" d="M6.211 17.693c0.663 0.305 1.398 0.475 2.168 0.475s1.505-0.17 2.168-0.475v-1.26h-4.336v1.26z"></path>
      <path fill="#deaf73" style="fill: var(--color25, #deaf73)" d="M10.981 5.159c0 1.437-1.165 2.602-2.602 2.602s-2.602-1.165-2.602-2.602c0-1.437 1.165-2.602 2.602-2.602s2.602 1.165 2.602 2.602z"></path>
      <path fill="#d59f63" style="fill: var(--color26, #d59f63)" d="M13.583 9.712c0 2.754-2.33 4.987-5.204 4.987s-5.204-2.233-5.204-4.987c0-2.754 2.33-4.987 5.204-4.987s5.204 2.233 5.204 4.987z"></path>
      <path fill="#cd915a" style="fill: var(--color27, #cd915a)" d="M6.645 10.363c-1.735-1.735-1.994-3.23-1.953-4.168-0.937 0.902-1.516 2.145-1.516 3.518 0 0.94 0.273 1.819 0.745 2.568l2.724-1.918z"></path>
      <path fill="#ffe1b4" style="fill: var(--color28, #ffe1b4)" d="M13.323 11.248c-0.035-0.011-0.249-0.018-0.249-0.018-0.23 0-0.451-0.091-0.613-0.254l-0.374-0.374c-0.15-0.15-0.349-0.241-0.561-0.252-0.844-0.047-3.185-0.257-5.044-1.17-0.199-0.097-0.441-0.044-0.56 0.142-0.487 0.763-1.090 1.368-1.428 1.679-0.161 0.148-0.369 0.229-0.588 0.229h-0.312c-0 0-0 0-0.001 0-0.047 0.001-0.096 0.006-0.146 0.015-0.422 0.082-0.706 0.485-0.706 0.915v0.314c0 0.415 0.266 0.806 0.67 0.9 0.091 0.021 0.179 0.027 0.264 0.021 0.216-0.017 0.404 0.14 0.443 0.352 0.369 2.021 2.134 3.553 4.261 3.553s3.892-1.532 4.261-3.553c0.039-0.213 0.227-0.37 0.443-0.352 0.085 0.007 0.173 0.001 0.264-0.021 0.404-0.094 0.67-0.486 0.67-0.9v-0.395c-0-0.408-0.305-0.705-0.693-0.831z"></path>
      <path fill="#fad7a5" style="fill: var(--color23, #fad7a5)" d="M5.777 12.965v-3.428c-0.457 0.66-0.978 1.183-1.283 1.464-0.161 0.148-0.369 0.229-0.588 0.229h-0.312c-0 0-0 0-0.001 0-0.047 0.001-0.096 0.006-0.145 0.015-0.422 0.082-0.706 0.485-0.706 0.915v0.314c0 0.415 0.266 0.806 0.67 0.9 0.091 0.021 0.179 0.027 0.264 0.021 0.216-0.017 0.404 0.14 0.443 0.352 0.369 2.021 2.134 3.553 4.261 3.553 0.295 0 0.582-0.032 0.86-0.088-1.976-0.405-3.462-2.153-3.462-4.248z"></path>
      <path fill="#6f6571" style="fill: var(--color29, #6f6571)" d="M2.906 22.961l-1.584-1.901c-0.493 0.504-0.776 1.193-0.745 1.925l0.239 5.627c0.020 0.464 0.402 0.831 0.867 0.831h1.928v-4.538c0-0.71-0.249-1.398-0.704-1.943z"></path>
      <path fill="#6f6571" style="fill: var(--color29, #6f6571)" d="M13.853 22.961l1.584-1.901c0.493 0.504 0.776 1.193 0.745 1.925l-0.239 5.627c-0.020 0.464-0.402 0.831-0.867 0.831h-1.928v-4.538c0-0.71 0.249-1.398 0.704-1.943z"></path>
      <path fill="#6f6571" style="fill: var(--color29, #6f6571)" d="M11.288 18.475c-0.169-0.169-0.444-0.169-0.613 0l-2.096 2.096c-0.11 0.11-0.288 0.11-0.398 0l-2.096-2.096c-0.169-0.169-0.444-0.169-0.613 0l-0.994 0.994 1.604 2.604c0.14 0.227 0.448 0.275 0.651 0.102l0.962-0.821c0.099-0.085 0.252-0.014 0.252 0.116v7.971h0.867v-7.971c0-0.131 0.153-0.201 0.252-0.116l0.962 0.821c0.202 0.173 0.511 0.124 0.651-0.102l1.604-2.604-0.994-0.994z"></path>
      <path fill="#6f6571" style="fill: var(--color29, #6f6571)" d="M4.974 25.974h1.606c0.275 0 0.498-0.223 0.498-0.498v-0.305c0-0.275-0.223-0.498-0.498-0.498h-1.606c-0.275 0-0.498 0.223-0.498 0.498v0.305c-0 0.275 0.223 0.498 0.498 0.498z"></path>
    </svg>
    <svg id="icon-clients2" viewBox="0 0 32 32">
      <title>clients</title>
      <path fill="#61b4e4" style="fill: var(--color30, #61b4e4)" d="M19.1 6.292c0 1.281 1.048 2.329 2.329 2.329h7.732c1.281 0 2.329-1.048 2.329-2.329v-2.721c0-1.281-1.048-2.329-2.329-2.329h-7.732c-1.281 0-2.329 1.048-2.329 2.329v2.721z"></path>
      <path fill="#005cb9" style="fill: var(--color31, #005cb9)" d="M19.1 13.671c0 1.281 1.048 2.329 2.329 2.329h7.732c1.281 0 2.329-1.048 2.329-2.329v-2.721c0-1.281-1.048-2.329-2.329-2.329h-7.732c-1.281 0-2.329 1.048-2.329 2.329v2.721z"></path>
      <path fill="#fee050" style="fill: var(--color32, #fee050)" d="M19.1 21.050c0 1.281 1.048 2.329 2.329 2.329h7.732c1.281 0 2.329-1.048 2.329-2.329v-2.721c0-1.281-1.048-2.329-2.329-2.329h-7.732c-1.281 0-2.329 1.048-2.329 2.329v2.721z"></path>
      <path fill="#af8400" style="fill: var(--color33, #af8400)" d="M19.1 28.429c0 1.281 1.048 2.329 2.329 2.329h7.732c1.281 0 2.329-1.048 2.329-2.329v-2.721c0-1.281-1.048-2.329-2.329-2.329h-7.732c-1.281 0-2.329 1.048-2.329 2.329v2.721z"></path>
      <path fill="#e8e8e8" style="fill: var(--color34, #e8e8e8)" d="M24.696 3.185c0-1.321-1.081-2.401-2.401-2.401h-19.384c-1.321 0-2.401 1.081-2.401 2.401v25.63c0 1.321 1.081 2.401 2.401 2.401h19.384c1.321 0 2.401-1.081 2.401-2.401v-25.63z"></path>
      <path fill="#7d868c" style="fill: var(--color35, #7d868c)" d="M3.67 21.865h17.865v1.477h-17.865v-1.477z"></path>
      <path fill="#c3c6c8" style="fill: var(--color36, #c3c6c8)" d="M6.214 18.874h12.778c-0.374-1.757-1.453-3.252-2.927-4.176 1.034-0.941 1.683-2.298 1.683-3.806 0-2.842-2.304-5.145-5.145-5.145s-5.145 2.304-5.145 5.145c0 1.508 0.649 2.865 1.683 3.806-1.474 0.924-2.553 2.419-2.927 4.176z"></path>
      <path fill="#7d868c" style="fill: var(--color35, #7d868c)" d="M5.92 24.714h13.366v1.477h-13.366v-1.477z"></path>
    </svg>
    <svg id="icon-units2" viewBox="0 0 32 32">
      <title>units</title>
      <path fill="#695a69" style="fill: var(--color37, #695a69)" d="M21.689 2.184h2.438v2.438h-2.438v-2.438z"></path>
      <path fill="#f2d057" style="fill: var(--color38, #f2d057)" d="M1.372 13.562v13.003h11.378v-9.752h6.502v9.752h11.378v-13.003h-29.257zM10.311 16.813v6.502h-5.689v-7.314h5.689v0.813zM21.689 22.502v-6.502h5.689v7.314h-5.689v-0.813z"></path>
      <path fill="#bf515a" style="fill: var(--color39, #bf515a)" d="M27.378 4.622h-22.755l-4.063 8.94h30.882z"></path>
      <path fill="#95ffff" style="fill: var(--color40, #95ffff)" d="M5.435 22.502h3.251l-3.251-3.251z"></path>
      <path fill="#80d7f0" style="fill: var(--color41, #80d7f0)" d="M8.686 22.502h0.813v-3.251h-4.063z"></path>
      <path fill="#6eb1e2" style="fill: var(--color42, #6eb1e2)" d="M5.435 16.813h4.063v1.625h-4.063v-1.625z"></path>
      <path fill="#695a69" style="fill: var(--color37, #695a69)" d="M5.435 16h-0.813v7.314h5.689v-7.314h-4.876zM9.498 22.502h-4.063v-3.251h4.063v3.251zM9.498 18.438h-4.063v-1.625h4.063v1.625z"></path>
      <path fill="#95ffff" style="fill: var(--color40, #95ffff)" d="M22.502 19.251v3.251h3.251z"></path>
      <path fill="#80d7f0" style="fill: var(--color41, #80d7f0)" d="M26.565 22.502v-3.251h-4.063l3.251 3.251z"></path>
      <path fill="#6eb1e2" style="fill: var(--color42, #6eb1e2)" d="M22.502 16.813h4.063v1.625h-4.063v-1.625z"></path>
      <path fill="#695a69" style="fill: var(--color37, #695a69)" d="M26.565 23.314h0.813v-7.314h-5.689v7.314h4.876zM22.502 16.813h4.063v1.625h-4.063v-1.625zM22.502 19.251h4.063v3.251h-4.063v-3.251z"></path>
      <path fill="#944851" style="fill: var(--color43, #944851)" d="M19.251 16.813h-6.502v13.003h6.502v-3.251z"></path>
      <path fill="#e9a868" style="fill: var(--color44, #e9a868)" d="M1.372 26.565h11.378v3.251h-11.378v-3.251z"></path>
      <path fill="#e9a868" style="fill: var(--color44, #e9a868)" d="M19.251 26.565h11.378v3.251h-11.378v-3.251z"></path>
    </svg>
    <svg id="icon-gamification2" viewBox="0 0 32 32">
      <title>gamification</title>
      <path fill="#ffcd38" style="fill: var(--color45, #ffcd38)" d="M11.181 25.826l-1.532-3.475-3.475-1.532s-6.928 0.657-5.474 9.711c0.064 0.395 0.375 0.707 0.77 0.77 9.054 1.454 9.711-5.474 9.711-5.474z"></path>
      <path fill="#e7b835" style="fill: var(--color46, #e7b835)" d="M0.77 29.565c-0.070-0.011-0.136-0.030-0.2-0.054 0.032 0.328 0.075 0.666 0.131 1.019 0.064 0.395 0.375 0.707 0.77 0.77 9.054 1.454 9.711-5.474 9.711-5.474l-0.254-0.575c-0.861 2.129-3.313 5.414-10.158 4.315z"></path>
      <path fill="#da5b65" style="fill: var(--color47, #da5b65)" d="M3.733 28.267c0.022-1.964 0.48-3.576 1.354-4.721 0.791-1.037 1.804-1.561 2.434-1.805l2.004 0.734 0.734 2.004c-0.244 0.63-0.768 1.643-1.805 2.434-1.146 0.874-2.757 1.333-4.721 1.354z"></path>
      <path fill="#3c474d" style="fill: var(--color48, #3c474d)" d="M8.529 19.184s-0.99-0.122-1.956 0.133c-0.667 0.176-0.886 1.014-0.399 1.502l5.007 5.007c0.488 0.488 1.325 0.268 1.502-0.399 0.255-0.966 0.133-1.956 0.133-1.956l-1.327-3.389z"></path>
      <path fill="#d4d2d3" style="fill: var(--color49, #d4d2d3)" d="M16.319 5.196c-2.615 1.073-7.373-0.248-13.281 4.371l1.249 3.312 3.384 1.322 5.686-1.548 3.976-8.115z"></path>
      <path fill="#d4d2d3" style="fill: var(--color49, #d4d2d3)" d="M27.462 14.666l-4.557 0.472-5.106 9.191 1.151 3.213 3.483 1.42c4.966-6.351 3.067-11.374 4.656-13.833z"></path>
      <path fill="#efedee" style="fill: var(--color50, #efedee)" d="M30.855 2.037c-0.105-0.442-0.45-0.786-0.892-0.892-1.995-0.479-7.678-1.559-10.195 0.958l-12.098 12.098 4.033 6.095 6.095 4.033 12.098-12.098c2.517-2.517 1.438-8.2 0.958-10.195z"></path>
      <path fill="#49c3e0" style="fill: var(--color51, #49c3e0)" d="M29.052 3.77c-0.076-0.418-0.404-0.747-0.822-0.823-2.822-0.51-5.813-0.491-6.96 0.656l-0.824 0.824c-0.38 0.38-0.38 0.997 0 1.377l5.749 5.749c0.38 0.38 0.997 0.38 1.377 0l0.824-0.824c1.147-1.147 1.167-4.138 0.656-6.96z"></path>
      <path fill="#3a484a" style="fill: var(--color52, #3a484a)" d="M22.498 5.47c-0.12 0-0.239-0.046-0.331-0.137-0.183-0.183-0.183-0.479-0-0.662l0.407-0.407c0.183-0.183 0.479-0.183 0.662 0s0.183 0.479 0 0.662l-0.407 0.407c-0.091 0.091-0.211 0.137-0.331 0.137z"></path>
      <path fill="#3a484a" style="fill: var(--color52, #3a484a)" d="M26.998 9.97c-0.12 0-0.24-0.046-0.331-0.137-0.183-0.183-0.183-0.479 0-0.662l0.407-0.407c0.183-0.183 0.479-0.183 0.662 0s0.183 0.479 0 0.662l-0.407 0.407c-0.091 0.091-0.211 0.137-0.331 0.137z"></path>
      <path fill="#3a484a" style="fill: var(--color52, #3a484a)" d="M25.266 8.249c-0.394 0-0.778-0.161-1.066-0.449-0.312-0.312-0.474-0.736-0.446-1.163 0.017-0.258 0.243-0.453 0.498-0.435 0.258 0.018 0.453 0.241 0.435 0.498-0.011 0.158 0.053 0.318 0.174 0.439s0.281 0.184 0.439 0.174c0.258-0.018 0.481 0.178 0.498 0.435s-0.178 0.481-0.435 0.498c-0.032 0.002-0.065 0.003-0.097 0.003z"></path>
      <path fill="#465059" style="fill: var(--color53, #465059)" d="M17.799 24.329c-1.249 1.249-2.063 2.063-2.063 2.063l-10.128-10.128s0.814-0.814 2.063-2.063z"></path>
      <path fill="#3c474d" style="fill: var(--color48, #3c474d)" d="M7.671 14.201l-2.063 2.063-3.422-3.422c-0.746-0.746-0.704-1.973 0.098-2.658 0.253-0.216 0.504-0.422 0.753-0.616z"></path>
      <path fill="#3c474d" style="fill: var(--color48, #3c474d)" d="M19.158 29.813l-3.422-3.422 2.063-2.063 4.634 4.634c-0.194 0.249-0.4 0.5-0.616 0.753-0.685 0.802-1.912 0.844-2.658 0.098z"></path>
    </svg>
    <svg id="icon-statistics2" viewBox="0 0 32 32">
      <title>statistics</title>
      <path fill="#49c3e0" style="fill: var(--color51, #49c3e0)" d="M5.242 18.802h-4c-0.442 0-0.801 0.358-0.801 0.801v11.89h5.602v-11.89c0-0.442-0.359-0.801-0.801-0.801z"></path>
      <path fill="#00a5c6" style="fill: var(--color54, #00a5c6)" d="M3.113 18.802h-1.871c-0.442 0-0.801 0.358-0.801 0.801v11.89h1.871v-11.89c0-0.442 0.358-0.801 0.801-0.801z"></path>
      <path fill="#3ac7b4" style="fill: var(--color55, #3ac7b4)" d="M13.707 15.666h-4c-0.442 0-0.801 0.358-0.801 0.801v15.026h5.602v-15.026c0-0.442-0.359-0.801-0.801-0.801z"></path>
      <path fill="#00ad94" style="fill: var(--color56, #00ad94)" d="M11.578 15.666h-1.871c-0.442 0-0.801 0.358-0.801 0.801v15.026h1.871v-15.026c0-0.442 0.358-0.801 0.801-0.801z"></path>
      <path fill="#ffcd38" style="fill: var(--color45, #ffcd38)" d="M22.172 12.529h-4c-0.442 0-0.801 0.358-0.801 0.801v18.163h5.602v-18.163c0-0.442-0.358-0.801-0.801-0.801z"></path>
      <path fill="#e7b835" style="fill: var(--color46, #e7b835)" d="M20.043 12.529h-1.871c-0.442 0-0.801 0.359-0.801 0.801v18.163h1.871v-18.163c0-0.442 0.359-0.801 0.801-0.801z"></path>
      <path fill="#ff8c57" style="fill: var(--color57, #ff8c57)" d="M30.636 9.393h-4c-0.442 0-0.801 0.358-0.801 0.801v21.299h5.601v-21.299c0-0.442-0.358-0.801-0.801-0.801z"></path>
      <path fill="#ec6a34" style="fill: var(--color58, #ec6a34)" d="M28.508 9.393h-1.871c-0.442 0-0.801 0.358-0.801 0.801v21.3h1.871v-21.3c0-0.442 0.359-0.801 0.801-0.801z"></path>
      <path fill="#da5b65" style="fill: var(--color47, #da5b65)" d="M29.997 0.803l-5.060-0.179c-0.418-0.015-0.674 0.454-0.436 0.798l0.816 1.175c-2.748 1.647-11.543 6.276-23.524 6.276v3.361c8.119 0 14.826-2.011 19.023-3.698 3.070-1.234 5.272-2.469 6.423-3.172l0.724 1.042c0.239 0.344 0.768 0.268 0.9-0.13l1.599-4.805c0.107-0.322-0.125-0.657-0.464-0.669z"></path>
    </svg>
    <svg id="icon-dashboard2" viewBox="0 0 32 32">
      <title>dashboard</title>
      <path fill="#f8b64c" style="fill: var(--color1, #f8b64c)" d="M16 5.755c3.093 0 5.928 1.289 7.99 3.286l2.964-2.964c-2.771-2.771-6.637-4.51-10.954-4.51-4.253 0-8.119 1.74-10.954 4.51l2.964 2.964c2.062-2.062 4.897-3.286 7.99-3.286z"></path>
      <path fill="#54c0eb" style="fill: var(--color2, #54c0eb)" d="M8.010 9.041l-2.964-2.964c-2.771 2.835-4.51 6.701-4.51 10.954s1.74 8.119 4.51 10.954l2.964-2.964c-2.062-2.062-3.286-4.897-3.286-7.99s1.224-5.928 3.286-7.99z"></path>
      <path fill="#f1543f" style="fill: var(--color3, #f1543f)" d="M26.954 6.077l-2.964 2.964c2.062 2.062 3.286 4.897 3.286 7.99s-1.289 5.928-3.286 7.99l2.964 2.964c2.771-2.771 4.51-6.637 4.51-10.954 0-4.253-1.74-8.119-4.51-10.954z"></path>
      <path fill="#ffd15c" style="fill: var(--color4, #ffd15c)" d="M23.99 9.041l-2.835 2.835c-1.353-1.289-3.157-2.126-5.155-2.126s-3.866 0.838-5.155 2.126v0l-2.835-2.835c2.062-2.062 4.897-3.286 7.99-3.286s5.928 1.224 7.99 3.286z"></path>
      <path fill="#84dbff" style="fill: var(--color5, #84dbff)" d="M10.845 22.186l-2.835 2.835c-2.062-2.062-3.286-4.897-3.286-7.99s1.289-5.928 3.286-7.99l2.835 2.835c-1.289 1.289-2.126 3.157-2.126 5.155-0.064 1.998 0.773 3.866 2.126 5.155z"></path>
      <path fill="#ff7058" style="fill: var(--color6, #ff7058)" d="M27.276 17.031c0 3.093-1.289 5.928-3.286 7.99l-2.835-2.835c1.289-1.353 2.126-3.157 2.126-5.155s-0.838-3.866-2.126-5.155l2.835-2.835c2.062 2.062 3.286 4.897 3.286 7.99z"></path>
      <path fill="#40596b" style="fill: var(--color7, #40596b)" d="M25.923 10.91l-8.377 6.379c-0.129 0.773-0.773 1.289-1.546 1.289-0.902 0-1.611-0.709-1.611-1.611s0.709-1.611 1.611-1.611c0.193 0 0.322 0 0.515 0.064l9.408-4.51z"></path>
      <path fill="#cdd6e0" style="fill: var(--color8, #cdd6e0)" d="M21.541 30.433h-11.083c-1.353 0-2.449-1.095-2.449-2.448v0c0-1.353 1.095-2.448 2.448-2.448h11.018c1.353 0 2.448 1.095 2.448 2.448v0c0.064 1.353-1.031 2.448-2.384 2.448z"></path>
      <path fill="#fff" style="fill: var(--color9, #fff)" d="M16.644 17.031c0 0.356-0.288 0.644-0.644 0.644s-0.644-0.288-0.644-0.644c0-0.356 0.288-0.644 0.644-0.644s0.644 0.288 0.644 0.644z"></path>
    </svg>
  </defs>
</svg>
