<svg aria-hidden="true" style="position: absolute; width: 0; height: 0; overflow: hidden;" version="1.1" xmlns="http://www.w3.org/2000/svg" xmlns:xlink="http://www.w3.org/1999/xlink">
<defs>
  <svg id="icon-wink" viewBox="0 0 32 32">
    <path fill="#ffc10e" style="fill: var(--color1, #ffc10e)" d="M32 16c0 8.837-7.163 16-16 16s-16-7.163-16-16c0-8.837 7.163-16 16-16s16 7.163 16 16z"></path>
    <path fill="#333" style="fill: var(--color2, #333)" d="M4.864 16.011c0.070 4.247 2.406 8.047 6.197 9.981 4.13 2.108 9.146 1.2 12.538-1.844 0.608-0.545-0.289-1.436-0.893-0.893-3.119 2.799-7.568 3.401-11.303 1.495-3.267-1.667-5.216-5.126-5.276-8.739-0.013-0.814-1.277-0.815-1.263 0v0z"></path>
    <path fill="#333" style="fill: var(--color2, #333)" d="M13.649 10.481c0 0.698-1.125 1.263-2.513 1.263s-2.513-0.566-2.513-1.263c0-0.698 1.125-1.263 2.513-1.263s2.513 0.566 2.513 1.263z"></path>
    <path fill="#333" style="fill: var(--color2, #333)" d="M23.151 10.481c0 1.388-1.125 2.513-2.513 2.513s-2.513-1.125-2.513-2.513c0-1.388 1.125-2.513 2.513-2.513s2.513 1.125 2.513 2.513z"></path>
  </svg>
  <svg id="icon-sad" viewBox="0 0 32 32">
    <title>sad</title>
    <path fill="#ffc10e" style="fill: var(--color1, #ffc10e)" d="M32 16c0 8.837-7.163 16-16 16s-16-7.163-16-16c0-8.837 7.163-16 16-16s16 7.163 16 16z"></path>
    <path fill="#333" style="fill: var(--color2, #333)" d="M24.082 23.909c-4.472-4.566-11.766-4.547-16.211 0.047-0.566 0.585 0.326 1.48 0.893 0.893 3.975-4.107 10.424-4.132 14.425-0.047 0.571 0.583 1.463-0.311 0.893-0.893v0z"></path>
    <path fill="#333" style="fill: var(--color2, #333)" d="M13.649 10.481c0 1.388-1.125 2.513-2.513 2.513s-2.513-1.125-2.513-2.513c0-1.388 1.125-2.513 2.513-2.513s2.513 1.125 2.513 2.513z"></path>
    <path fill="#333" style="fill: var(--color2, #333)" d="M23.151 10.481c0 1.388-1.125 2.513-2.513 2.513s-2.513-1.125-2.513-2.513c0-1.388 1.125-2.513 2.513-2.513s2.513 1.125 2.513 2.513z"></path>
  </svg>
  <svg id="icon-happy" viewBox="0 0 32 32">
    <title>happy</title>
    <path fill="#ffc10e" style="fill: var(--color1, #ffc10e)" d="M32 16c0 8.837-7.163 16-16 16s-16-7.163-16-16c0-8.837 7.163-16 16-16s16 7.163 16 16z"></path>
    <path fill="#333" style="fill: var(--color2, #333)" d="M25.871 16.011c-0.090 5.449-4.424 9.782-9.872 9.872s-9.784-4.559-9.872-9.872c-0.013-0.814-1.277-0.815-1.263 0 0.101 6.139 4.996 11.034 11.135 11.135s11.037-5.148 11.136-11.135c0.013-0.815-1.25-0.814-1.263 0v0z"></path>
    <path fill="#333" style="fill: var(--color2, #333)" d="M13.649 10.481c0 1.388-1.125 2.513-2.513 2.513s-2.513-1.125-2.513-2.513c0-1.388 1.125-2.513 2.513-2.513s2.513 1.125 2.513 2.513z"></path>
    <path fill="#333" style="fill: var(--color2, #333)" d="M23.151 10.481c0 1.388-1.125 2.513-2.513 2.513s-2.513-1.125-2.513-2.513c0-1.388 1.125-2.513 2.513-2.513s2.513 1.125 2.513 2.513z"></path>
  </svg>
<svg id="icon-apartment" viewBox="0 0 31 32">
<title>apartment</title>
<path fill="#b3b3b3" style="fill: var(--color1, #b3b3b3)" d="M3.586 2.026h23.578v2.806h-23.578v-2.806z"></path>
<path fill="#bde9ff" style="fill: var(--color2, #bde9ff)" d="M6.172 5.376h4.569v6.134h-4.569v-6.134z"></path>
<path fill="#bde9ff" style="fill: var(--color2, #bde9ff)" d="M13.091 5.376h4.569v6.134h-4.569v-6.134z"></path>
<path fill="#bde9ff" style="fill: var(--color2, #bde9ff)" d="M20.009 5.376h4.569v6.134h-4.569v-6.134z"></path>
<path fill="#bde9ff" style="fill: var(--color2, #bde9ff)" d="M6.172 13.67h4.569v6.134h-4.569v-6.134z"></path>
<path fill="#bde9ff" style="fill: var(--color2, #bde9ff)" d="M13.091 13.67h4.569v6.134h-4.569v-6.134z"></path>
<path fill="#bde9ff" style="fill: var(--color2, #bde9ff)" d="M20.009 13.67h4.569v6.134h-4.569v-6.134z"></path>
<path fill="#bde9ff" style="fill: var(--color2, #bde9ff)" d="M6.172 21.963h4.569v6.134h-4.569v-6.134z"></path>
<path fill="#ffe67f" style="fill: var(--color3, #ffe67f)" d="M13.091 21.963h4.569v9.221h-4.569v-9.221z"></path>
<path fill="#bde9ff" style="fill: var(--color2, #bde9ff)" d="M20.009 21.963h4.569v6.134h-4.569v-6.134z"></path>
<path fill="#ff8431" style="fill: var(--color4, #ff8431)" d="M1.228 0.599h28.294v2.855h-28.294v-2.855z"></path>
<path fill="#000" style="fill: var(--color5, #000)" d="M6.094 11.946h4.608c0.264 0 0.478-0.211 0.478-0.472v-6.185c0-0.261-0.214-0.472-0.478-0.472h-4.608c-0.264 0-0.478 0.211-0.478 0.472v6.185c0 0.261 0.214 0.472 0.478 0.472zM6.572 7.42h1.348v3.582h-1.348v-3.582zM8.876 11.002v-3.582h1.348v3.582h-1.348zM10.224 5.761v0.715h-3.652v-0.715h3.652z"></path>
<path fill="#000" style="fill: var(--color5, #000)" d="M13.071 11.946h4.608c0.264 0 0.478-0.211 0.478-0.472v-6.185c0-0.261-0.214-0.472-0.478-0.472h-4.608c-0.264 0-0.478 0.211-0.478 0.472v6.185c0 0.261 0.214 0.472 0.478 0.472zM13.549 7.42h1.348v3.582h-1.348v-3.582zM15.853 11.002v-3.582h1.348v3.582h-1.348zM17.201 5.761v0.715h-3.652v-0.715h3.652z"></path>
<path fill="#000" style="fill: var(--color5, #000)" d="M20.049 11.946h4.608c0.264 0 0.478-0.211 0.478-0.472v-6.185c0-0.261-0.214-0.472-0.478-0.472h-4.608c-0.264 0-0.478 0.211-0.478 0.472v6.185c0 0.261 0.214 0.472 0.478 0.472zM20.527 7.42h1.348v3.582h-1.348v-3.582zM22.831 11.002v-3.582h1.348v3.582h-1.348zM24.179 5.761v0.715h-3.652v-0.715h3.652z"></path>
<path fill="#000" style="fill: var(--color5, #000)" d="M6.094 20.308h4.608c0.264 0 0.478-0.211 0.478-0.472v-6.185c0-0.261-0.214-0.472-0.478-0.472h-4.608c-0.264 0-0.478 0.211-0.478 0.472v6.185c0 0.261 0.214 0.472 0.478 0.472zM6.572 15.782h1.348v3.582h-1.348v-3.582zM8.876 19.364v-3.582h1.348v3.582l-1.348 0zM10.224 14.123v0.715h-3.652v-0.715h3.652z"></path>
<path fill="#000" style="fill: var(--color5, #000)" d="M13.071 20.308h4.608c0.264 0 0.478-0.211 0.478-0.472v-6.185c0-0.261-0.214-0.472-0.478-0.472h-4.608c-0.264 0-0.478 0.211-0.478 0.472v6.185c0 0.261 0.214 0.472 0.478 0.472zM13.549 15.782h1.348v3.582h-1.348v-3.582zM15.853 19.364v-3.582h1.348v3.582l-1.348 0zM17.201 14.123v0.715h-3.652v-0.715h3.652z"></path>
<path fill="#000" style="fill: var(--color5, #000)" d="M20.049 20.308h4.608c0.264 0 0.478-0.211 0.478-0.472v-6.185c0-0.261-0.214-0.472-0.478-0.472h-4.608c-0.264 0-0.478 0.211-0.478 0.472v6.185c0 0.261 0.214 0.472 0.478 0.472zM20.527 15.782h1.348v3.582h-1.348v-3.582zM22.831 19.364v-3.582h1.348v3.582l-1.348 0zM24.179 14.123v0.715h-3.652v-0.715h3.652z"></path>
<path fill="#000" style="fill: var(--color5, #000)" d="M6.094 28.67h4.608c0.264 0 0.478-0.211 0.478-0.472v-6.185c0-0.261-0.214-0.472-0.478-0.472h-4.608c-0.264 0-0.478 0.211-0.478 0.472v2.766c0 0.261 0.214 0.472 0.478 0.472s0.478-0.211 0.478-0.472v-0.636h1.348v3.582h-1.348v-1.059c0-0.261-0.214-0.472-0.478-0.472s-0.478 0.211-0.478 0.472v1.531c0 0.261 0.214 0.472 0.478 0.472zM6.572 22.485h3.652v0.715h-3.652v-0.715zM8.876 24.144h1.348v3.582h-1.348v-3.582z"></path>
<path fill="#000" style="fill: var(--color5, #000)" d="M20.049 28.67h4.608c0.264 0 0.478-0.211 0.478-0.472v-6.185c0-0.261-0.214-0.472-0.478-0.472h-4.608c-0.264 0-0.478 0.211-0.478 0.472v6.185c0 0.261 0.214 0.472 0.478 0.472zM20.527 24.144h1.348v3.582h-1.348v-3.582zM22.831 27.726v-3.582h1.348v3.582h-1.348zM24.179 22.485v0.715h-3.652v-0.715h3.652z"></path>
<path fill="#000" style="fill: var(--color5, #000)" d="M16.353 26.19h-0.659c-0.264 0-0.478 0.211-0.478 0.472s0.214 0.472 0.478 0.472h0.659c0.264 0 0.478-0.211 0.478-0.472s-0.214-0.472-0.478-0.472z"></path>
<path fill="#000" style="fill: var(--color5, #000)" d="M29.643 0h-4.297c-0.264 0-0.478 0.211-0.478 0.472s0.214 0.472 0.478 0.472h3.819v1.935h-27.58v-1.935h21.849c0.264 0 0.478-0.211 0.478-0.472s-0.214-0.472-0.478-0.472h-22.327c-0.264 0-0.478 0.211-0.478 0.472v2.879c0 0.261 0.214 0.472 0.478 0.472h1.9v27.488c0 0.261 0.214 0.472 0.478 0.472h23.78c0.264 0 0.478-0.211 0.478-0.472v-27.488h1.9c0.264 0 0.478-0.211 0.478-0.472v-2.879c-0-0.261-0.214-0.472-0.478-0.472zM13.549 30.839v-8.353h3.652v8.353h-3.652zM26.787 30.839h-8.63v-8.825c0-0.261-0.214-0.472-0.478-0.472h-4.608c-0.264 0-0.478 0.211-0.478 0.472v8.825h-8.63v-27.016h22.823v27.016z"></path>
</svg>
<svg id="icon-chalet" viewBox="0 0 32 32">
<title>chalet</title>
<path fill="#505263" style="fill: var(--color6, #505263)" d="M21.962 5.672v-3.622h3.969v7.241z"></path>
<path fill="#bde9ff" style="fill: var(--color2, #bde9ff)" d="M30.087 13.437l-13.936-9.603-13.936 9.603-1.425-2.068 15.361-10.585 15.361 10.585z"></path>
<path fill="#ff8431" style="fill: var(--color4, #ff8431)" d="M13.54 10.21h5.222v8.754h-5.222v-8.754z"></path>
<path fill="#ffe67f" style="fill: var(--color3, #ffe67f)" d="M13.54 22.765h5.222v8.754h-5.222v-8.754z"></path>
<path fill="#bde9ff" style="fill: var(--color2, #bde9ff)" d="M25.522 12.262v1.301h-4.816v-3.353h1.838z"></path>
<path fill="#bde9ff" style="fill: var(--color2, #bde9ff)" d="M6.781 12.262v1.301h4.816v-3.353h-1.838z"></path>
<path fill="#bde9ff" style="fill: var(--color2, #bde9ff)" d="M6.781 22.765h4.816v5.711h-4.816v-5.711z"></path>
<path fill="#bde9ff" style="fill: var(--color2, #bde9ff)" d="M20.706 22.765h4.816v5.711h-4.816v-5.711z"></path>
<path fill="#000" style="fill: var(--color5, #000)" d="M31.474 10.995c-0.022-0.122-0.092-0.229-0.194-0.299l-5.323-3.668v-5.172c0-0.257-0.209-0.466-0.466-0.466h-3.928c-0.257 0-0.466 0.209-0.466 0.466v1.823l-5.020-3.459c-0.159-0.11-0.37-0.11-0.529 0l-15.203 10.476c-0.102 0.070-0.172 0.178-0.194 0.299s0.004 0.247 0.075 0.349l1.411 2.047c0.146 0.212 0.436 0.265 0.648 0.119l1.095-0.755v1.667h-0.688c-0.257 0-0.466 0.209-0.466 0.466s0.209 0.466 0.466 0.466h0.688v0.921h-0.688c-0.257 0-0.466 0.209-0.466 0.466s0.209 0.466 0.466 0.466h0.688v0.921h-0.688c-0.257 0-0.466 0.209-0.466 0.466s0.209 0.466 0.466 0.466h0.688v11.96c0 0.257 0.209 0.466 0.466 0.466h23.932c0.257 0 0.466-0.209 0.466-0.466v-11.96h0.688c0.257 0 0.466-0.209 0.466-0.466s-0.209-0.466-0.466-0.466h-0.688v-0.921h0.688c0.257 0 0.466-0.209 0.466-0.466s-0.209-0.466-0.466-0.466h-0.688v-0.921h0.688c0.257 0 0.466-0.209 0.466-0.466s-0.209-0.466-0.466-0.466h-0.688v-1.668l1.095 0.755c0.081 0.056 0.173 0.082 0.264 0.082 0.148 0 0.294-0.070 0.384-0.202l1.411-2.047c0.070-0.102 0.097-0.227 0.075-0.349zM22.029 2.322h2.996v4.063l-2.996-2.064v-1.999zM4.312 15.355h3.624v0.921h-3.624v-0.921zM12.762 15.355v0.921h-3.894v-0.921h3.894zM17.93 14.423h-4.236v-4.025h4.236v4.025zM17.93 15.355v0.921h-4.236v-0.921h4.236zM18.862 18.129v-0.921h3.894v0.921h-3.894zM8.868 18.129v-0.921h3.894v0.921h-3.894zM13.695 17.208h4.236v0.921h-4.236v-0.921zM18.862 16.276v-0.921h3.894v0.921h-3.894zM4.312 17.208h3.624v0.921h-3.624v-0.921zM27.313 30.556h-8.45v-8.198c0-0.257-0.209-0.466-0.466-0.466h-5.168c-0.257 0-0.466 0.209-0.466 0.466v5.011c0 0.257 0.209 0.466 0.466 0.466s0.466-0.209 0.466-0.466v-4.545h4.236v7.732h-4.236v-1.322c0-0.257-0.209-0.466-0.466-0.466s-0.466 0.209-0.466 0.466v1.322h-8.45v-11.494h23v11.494zM27.313 18.129h-3.624v-0.921h3.624v0.921zM27.313 16.276h-3.624v-0.921h3.624v0.921zM29.485 12.478l-8.154-5.619c-0.212-0.146-0.502-0.093-0.648 0.119s-0.093 0.502 0.119 0.648l6.51 4.486v2.31h-8.45v-4.491c0-0.257-0.209-0.466-0.466-0.466h-5.168c-0.257 0-0.466 0.209-0.466 0.466v4.491h-8.45v-2.31l11.5-7.925 3.565 2.456c0.212 0.146 0.502 0.093 0.648-0.119s0.093-0.502-0.119-0.648l-3.829-2.639c-0.159-0.11-0.37-0.11-0.529 0l-13.408 9.24-0.882-1.279 14.554-10.030 14.554 10.030-0.882 1.279z"></path>
<path fill="#000" style="fill: var(--color5, #000)" d="M19.854 9.932v3.319c0 0.257 0.209 0.466 0.466 0.466h4.766c0.257 0 0.466-0.209 0.466-0.466v-1.288c0-0.153-0.075-0.297-0.202-0.384l-2.947-2.031c-0.078-0.054-0.17-0.082-0.265-0.082h-1.819c-0.257 0-0.466 0.209-0.466 0.466zM20.786 10.398h1.208l2.626 1.81v0.577h-3.834v-2.386z"></path>
<path fill="#000" style="fill: var(--color5, #000)" d="M11.305 9.466h-1.819c-0.094 0-0.187 0.029-0.264 0.082l-2.947 2.031c-0.126 0.087-0.202 0.23-0.202 0.384v1.288c0 0.257 0.209 0.466 0.466 0.466h4.766c0.257 0 0.466-0.209 0.466-0.466v-3.319c0-0.257-0.209-0.466-0.466-0.466zM10.838 12.784h-3.834v-0.577l2.626-1.81h1.208v2.386z"></path>
<path fill="#000" style="fill: var(--color5, #000)" d="M11.305 21.892h-4.766c-0.257 0-0.466 0.209-0.466 0.466v5.653c0 0.257 0.209 0.466 0.466 0.466h4.766c0.257 0 0.466-0.209 0.466-0.466v-5.653c0-0.257-0.209-0.466-0.466-0.466zM10.838 22.824v1.197h-3.834v-1.197h3.834zM7.005 24.954h1.451v2.591h-1.451v-2.591zM9.388 27.544v-2.591h1.451v2.591h-1.451z"></path>
<path fill="#000" style="fill: var(--color5, #000)" d="M19.854 22.358v5.653c0 0.257 0.209 0.466 0.466 0.466h4.766c0.257 0 0.466-0.209 0.466-0.466v-5.653c0-0.257-0.209-0.466-0.466-0.466h-4.766c-0.257 0-0.466 0.209-0.466 0.466zM20.786 24.954h1.451v2.591h-1.451v-2.591zM23.169 27.544v-2.591h1.451v2.591h-1.451zM24.62 22.824v1.197h-3.834v-1.197h3.834z"></path>
<path fill="#000" style="fill: var(--color5, #000)" d="M16.597 26.63c0.012 0.028 0.026 0.055 0.043 0.080s0.037 0.050 0.058 0.071c0.021 0.022 0.045 0.041 0.071 0.058s0.052 0.031 0.080 0.042c0.028 0.012 0.058 0.021 0.087 0.027 0.030 0.006 0.061 0.009 0.091 0.009 0.122 0 0.243-0.050 0.329-0.137 0.022-0.021 0.041-0.045 0.058-0.071s0.031-0.052 0.043-0.080c0.011-0.029 0.020-0.058 0.026-0.087 0.006-0.030 0.009-0.061 0.009-0.091 0-0.122-0.050-0.243-0.137-0.329-0.108-0.109-0.269-0.158-0.421-0.127-0.029 0.006-0.059 0.015-0.087 0.026s-0.055 0.026-0.080 0.043c-0.025 0.017-0.050 0.037-0.071 0.058-0.087 0.086-0.137 0.206-0.137 0.329 0 0.030 0.003 0.061 0.009 0.091 0.006 0.029 0.015 0.058 0.026 0.087z"></path>
</svg>
<svg id="icon-townhouse" viewBox="0 0 65 32">
<title>townhouse</title>
<path fill="#ff8431" style="fill: var(--color4, #ff8431)" d="M15.12 10.217v-7.759h3.835v7.759z"></path>
<path fill="#bde9ff" style="fill: var(--color2, #bde9ff)" d="M3.637 10.846h4.009v6.711h-4.009v-6.711z"></path>
<path fill="#bde9ff" style="fill: var(--color2, #bde9ff)" d="M10.045 10.846h4.009v6.711h-4.009v-6.711z"></path>
<path fill="#bde9ff" style="fill: var(--color2, #bde9ff)" d="M10.045 20.157h4.009v6.711h-4.009v-6.711z"></path>
<path fill="#77beed" style="fill: var(--color7, #77beed)" d="M3.637 23.836h4.009v7.013h-4.009v-7.013z"></path>
<path fill="#bde9ff" style="fill: var(--color2, #bde9ff)" d="M3.637 20.157h4.009v1.845h-4.009v-1.845z"></path>
<path fill="#31333f" style="fill: var(--color8, #31333f)" d="M10.451 4.981c0 0.854-0.719 1.545-1.606 1.545s-1.606-0.692-1.606-1.545c0-0.854 0.719-1.545 1.606-1.545s1.606 0.692 1.606 1.545z"></path>
<path fill="#bde9ff" style="fill: var(--color2, #bde9ff)" d="M26.429 10.846h4.009v6.711h-4.009v-6.711z"></path>
<path fill="#bde9ff" style="fill: var(--color2, #bde9ff)" d="M20.021 10.846h4.009v6.711h-4.009v-6.711z"></path>
<path fill="#bde9ff" style="fill: var(--color2, #bde9ff)" d="M20.021 20.157h4.009v6.711h-4.009v-6.711z"></path>
<path fill="#ffe67f" style="fill: var(--color3, #ffe67f)" d="M26.429 23.836h4.009v7.013h-4.009v-7.013z"></path>
<path fill="#bde9ff" style="fill: var(--color2, #bde9ff)" d="M26.429 20.157h4.009v1.845h-4.009v-1.845z"></path>
<path fill="#31333f" style="fill: var(--color8, #31333f)" d="M26.835 4.981c0 0.854-0.719 1.545-1.606 1.545s-1.606-0.692-1.606-1.545c0-0.854 0.719-1.545 1.606-1.545s1.606 0.692 1.606 1.545z"></path>
<path fill="#000" style="fill: var(--color5, #000)" d="M3.453 18.062h3.971c0.274 0 0.497-0.218 0.497-0.488v-6.777c0-0.269-0.222-0.488-0.497-0.488h-3.971c-0.274 0-0.497 0.218-0.497 0.488v6.777c0 0.269 0.222 0.487 0.497 0.487zM3.949 17.087v-3.938h2.977v3.938h-2.977zM6.927 11.285v0.889h-2.977v-0.889h2.977z"></path>
<path fill="#000" style="fill: var(--color5, #000)" d="M9.8 18.062h3.971c0.274 0 0.497-0.218 0.497-0.488v-6.777c0-0.269-0.222-0.488-0.497-0.488h-3.971c-0.274 0-0.497 0.218-0.497 0.488v6.777c0 0.269 0.222 0.487 0.497 0.487zM10.297 17.087v-3.938h2.977v3.938h-2.977zM13.275 11.285v0.889h-2.977v-0.889h2.977z"></path>
<path fill="#000" style="fill: var(--color5, #000)" d="M9.304 26.977c0 0.269 0.222 0.488 0.497 0.488h3.971c0.274 0 0.497-0.218 0.497-0.488v-6.777c0-0.269-0.222-0.488-0.497-0.488h-3.971c-0.274 0-0.497 0.218-0.497 0.488v6.777zM10.297 26.489v-3.938h2.977v3.938h-2.977zM13.275 20.688v0.889h-2.977v-0.889h2.977z"></path>
<path fill="#000" style="fill: var(--color5, #000)" d="M2.956 22.064c0 0.269 0.222 0.488 0.497 0.488h3.971c0.274 0 0.497-0.218 0.497-0.488v-1.864c0-0.269-0.222-0.488-0.497-0.488h-3.971c-0.274 0-0.497 0.218-0.497 0.488v1.864zM3.949 20.688h2.977v0.889h-2.977v-0.889z"></path>
<path fill="#000" style="fill: var(--color5, #000)" d="M6.492 27.050c-0.184-0.119-0.433-0.105-0.6 0.036-0.152 0.128-0.21 0.342-0.145 0.527s0.244 0.319 0.445 0.329c0.207 0.010 0.404-0.113 0.483-0.301 0.089-0.211 0.013-0.466-0.183-0.592z"></path>
<path fill="#000" style="fill: var(--color5, #000)" d="M6.525 4.874c0 1.129 0.936 2.048 2.087 2.048s2.087-0.919 2.087-2.048c0-1.129-0.936-2.048-2.087-2.048s-2.087 0.919-2.087 2.048zM9.706 4.874c0 0.592-0.491 1.073-1.094 1.073s-1.094-0.481-1.094-1.073c0-0.592 0.491-1.073 1.094-1.073s1.094 0.481 1.094 1.073z"></path>
<path fill="#000" style="fill: var(--color5, #000)" d="M30.499 10.798c0-0.269-0.222-0.488-0.497-0.488h-3.971c-0.274 0-0.497 0.218-0.497 0.488v6.777c0 0.269 0.222 0.488 0.497 0.488h3.971c0.274 0 0.497-0.218 0.497-0.488v-6.777zM29.505 11.285v0.889h-2.977v-0.889h2.977zM26.528 17.087v-3.938h2.977v3.938h-2.977z"></path>
<path fill="#000" style="fill: var(--color5, #000)" d="M24.151 10.798c0-0.269-0.222-0.488-0.497-0.488h-3.971c-0.274 0-0.497 0.218-0.497 0.488v6.777c0 0.269 0.222 0.488 0.497 0.488h3.971c0.274 0 0.497-0.218 0.497-0.488v-6.777zM23.157 11.285v0.889h-2.977v-0.889h2.977zM20.18 17.087v-3.938h2.977v3.938h-2.977z"></path>
<path fill="#000" style="fill: var(--color5, #000)" d="M23.654 19.713h-3.971c-0.274 0-0.497 0.218-0.497 0.488v6.777c0 0.269 0.222 0.488 0.497 0.488h3.971c0.274 0 0.497-0.218 0.497-0.488v-6.777c0-0.269-0.222-0.488-0.497-0.488zM23.157 20.688v0.889h-2.977v-0.889h2.977zM20.18 26.489v-3.938h2.977v3.938h-2.977z"></path>
<path fill="#000" style="fill: var(--color5, #000)" d="M30.002 19.713h-3.971c-0.274 0-0.497 0.218-0.497 0.488v1.864c0 0.269 0.222 0.488 0.497 0.488h3.971c0.274 0 0.497-0.218 0.497-0.488v-1.864c0-0.269-0.222-0.488-0.497-0.488zM29.505 21.576h-2.977v-0.889h2.977v0.889z"></path>
<path fill="#000" style="fill: var(--color5, #000)" d="M27.697 27.27c-0.161-0.395-0.754-0.391-0.918 0-0.082 0.196-0.024 0.429 0.144 0.563 0.161 0.129 0.391 0.146 0.569 0.042 0.208-0.122 0.299-0.385 0.204-0.605z"></path>
<path fill="#000" style="fill: var(--color5, #000)" d="M22.755 4.874c0 1.129 0.936 2.048 2.087 2.048s2.087-0.919 2.087-2.048c0-1.129-0.936-2.048-2.087-2.048s-2.087 0.919-2.087 2.048zM25.936 4.874c0 0.592-0.491 1.073-1.094 1.073s-1.094-0.481-1.094-1.073c0-0.592 0.491-1.073 1.094-1.073s1.094 0.481 1.094 1.073z"></path>
<path fill="#000" style="fill: var(--color5, #000)" d="M32.958 12.894c0.274 0 0.497-0.218 0.497-0.488v-4.699c0-0.005-0.001-0.009-0.002-0.013-0.004-0.131-0.060-0.259-0.164-0.35l-8.115-7.124c-0.189-0.166-0.474-0.166-0.663 0l-5.388 4.73v-2.623c0-0.269-0.222-0.488-0.497-0.488h-3.799c-0.274 0-0.497 0.218-0.497 0.488v2.623l-5.388-4.73c-0.189-0.166-0.474-0.166-0.663 0l-8.115 7.124c-0.104 0.091-0.16 0.219-0.164 0.35-0.001 0.004-0.002 0.009-0.002 0.013v18.931c0 0.269 0.222 0.488 0.497 0.488s0.497-0.218 0.497-0.488v-18.443h15.237v22.314h-8.31v-6.594c0-0.269-0.222-0.488-0.497-0.488h-3.971c-0.274 0-0.497 0.218-0.497 0.488v6.594h-1.962v-1.921c0-0.269-0.222-0.488-0.497-0.488s-0.497 0.218-0.497 0.488v2.409c0 0.269 0.222 0.488 0.497 0.488h32.461c0.274 0 0.497-0.218 0.497-0.488v-16.64c0-0.269-0.222-0.488-0.497-0.488s-0.497 0.218-0.497 0.488v16.152h-1.962v-6.594c0-0.269-0.222-0.488-0.497-0.488h-3.971c-0.274 0-0.497 0.218-0.497 0.488v6.594h-8.31v-22.314h15.237v4.212c0 0.269 0.222 0.488 0.497 0.488zM26.528 24.403h2.977v6.107h-2.977v-6.107zM15.325 2.814h2.805v3.008l-1.403 1.231-1.402-1.231v-3.008zM1.797 7.22l6.815-5.982 6.815 5.982h-13.629zM3.949 30.509v-6.107h2.977v6.107h-2.977zM18.028 7.22l6.815-5.982 6.815 5.982h-13.629z"></path>
<path fill="#ff8431" style="fill: var(--color4, #ff8431)" d="M47.12 10.217v-7.759h3.835v7.759z"></path>
<path fill="#bde9ff" style="fill: var(--color2, #bde9ff)" d="M35.637 10.846h4.009v6.711h-4.009v-6.711z"></path>
<path fill="#bde9ff" style="fill: var(--color2, #bde9ff)" d="M42.045 10.846h4.009v6.711h-4.009v-6.711z"></path>
<path fill="#bde9ff" style="fill: var(--color2, #bde9ff)" d="M42.045 20.157h4.009v6.711h-4.009v-6.711z"></path>
<path fill="#77beed" style="fill: var(--color7, #77beed)" d="M35.637 23.836h4.009v7.013h-4.009v-7.013z"></path>
<path fill="#bde9ff" style="fill: var(--color2, #bde9ff)" d="M35.637 20.157h4.009v1.845h-4.009v-1.845z"></path>
<path fill="#31333f" style="fill: var(--color8, #31333f)" d="M42.451 4.981c0 0.854-0.719 1.545-1.606 1.545s-1.606-0.692-1.606-1.545c0-0.854 0.719-1.545 1.606-1.545s1.606 0.692 1.606 1.545z"></path>
<path fill="#bde9ff" style="fill: var(--color2, #bde9ff)" d="M58.429 10.846h4.009v6.711h-4.009v-6.711z"></path>
<path fill="#bde9ff" style="fill: var(--color2, #bde9ff)" d="M52.021 10.846h4.009v6.711h-4.009v-6.711z"></path>
<path fill="#bde9ff" style="fill: var(--color2, #bde9ff)" d="M52.021 20.157h4.009v6.711h-4.009v-6.711z"></path>
<path fill="#ffe67f" style="fill: var(--color3, #ffe67f)" d="M58.429 23.836h4.009v7.013h-4.009v-7.013z"></path>
<path fill="#bde9ff" style="fill: var(--color2, #bde9ff)" d="M58.429 20.157h4.009v1.845h-4.009v-1.845z"></path>
<path fill="#31333f" style="fill: var(--color8, #31333f)" d="M58.835 4.981c0 0.854-0.719 1.545-1.606 1.545s-1.606-0.692-1.606-1.545c0-0.854 0.719-1.545 1.606-1.545s1.606 0.692 1.606 1.545z"></path>
<path fill="#000" style="fill: var(--color5, #000)" d="M35.453 18.062h3.971c0.274 0 0.497-0.218 0.497-0.488v-6.777c0-0.269-0.222-0.488-0.497-0.488h-3.971c-0.274 0-0.497 0.218-0.497 0.488v6.777c0 0.269 0.222 0.487 0.497 0.487zM35.949 17.087v-3.938h2.977v3.938h-2.977zM38.927 11.285v0.889h-2.977v-0.889h2.977z"></path>
<path fill="#000" style="fill: var(--color5, #000)" d="M41.8 18.062h3.971c0.274 0 0.497-0.218 0.497-0.488v-6.777c0-0.269-0.222-0.488-0.497-0.488h-3.971c-0.274 0-0.497 0.218-0.497 0.488v6.777c0 0.269 0.222 0.487 0.497 0.487zM42.297 17.087v-3.938h2.977v3.938h-2.977zM45.275 11.285v0.889h-2.977v-0.889h2.977z"></path>
<path fill="#000" style="fill: var(--color5, #000)" d="M41.304 26.977c0 0.269 0.222 0.488 0.497 0.488h3.971c0.274 0 0.497-0.218 0.497-0.488v-6.777c0-0.269-0.222-0.488-0.497-0.488h-3.971c-0.274 0-0.497 0.218-0.497 0.488v6.777zM42.297 26.489v-3.938h2.977v3.938h-2.977zM45.275 20.688v0.889h-2.977v-0.889h2.977z"></path>
<path fill="#000" style="fill: var(--color5, #000)" d="M34.956 22.064c0 0.269 0.222 0.488 0.497 0.488h3.971c0.274 0 0.497-0.218 0.497-0.488v-1.864c0-0.269-0.222-0.488-0.497-0.488h-3.971c-0.274 0-0.497 0.218-0.497 0.488v1.864zM35.949 20.688h2.977v0.889h-2.977v-0.889z"></path>
<path fill="#000" style="fill: var(--color5, #000)" d="M38.492 27.050c-0.184-0.119-0.433-0.105-0.6 0.036-0.152 0.128-0.21 0.342-0.145 0.527s0.244 0.319 0.445 0.329c0.207 0.010 0.404-0.113 0.483-0.301 0.089-0.211 0.013-0.466-0.182-0.592z"></path>
<path fill="#000" style="fill: var(--color5, #000)" d="M38.525 4.874c0 1.129 0.936 2.048 2.087 2.048s2.087-0.919 2.087-2.048c0-1.129-0.936-2.048-2.087-2.048s-2.087 0.919-2.087 2.048zM41.706 4.874c0 0.592-0.491 1.073-1.094 1.073s-1.094-0.481-1.094-1.073c0-0.592 0.491-1.073 1.094-1.073s1.094 0.481 1.094 1.073z"></path>
<path fill="#000" style="fill: var(--color5, #000)" d="M62.499 10.798c0-0.269-0.222-0.488-0.497-0.488h-3.971c-0.274 0-0.497 0.218-0.497 0.488v6.777c0 0.269 0.222 0.488 0.497 0.488h3.971c0.274 0 0.497-0.218 0.497-0.488v-6.777zM61.505 11.285v0.889h-2.977v-0.889h2.977zM58.528 17.087v-3.938h2.977v3.938h-2.977z"></path>
<path fill="#000" style="fill: var(--color5, #000)" d="M56.151 10.798c0-0.269-0.222-0.488-0.497-0.488h-3.971c-0.274 0-0.497 0.218-0.497 0.488v6.777c0 0.269 0.222 0.488 0.497 0.488h3.971c0.274 0 0.497-0.218 0.497-0.488v-6.777zM55.157 11.285v0.889h-2.977v-0.889h2.977zM52.18 17.087v-3.938h2.977v3.938h-2.977z"></path>
<path fill="#000" style="fill: var(--color5, #000)" d="M55.654 19.713h-3.971c-0.274 0-0.497 0.218-0.497 0.488v6.777c0 0.269 0.222 0.488 0.497 0.488h3.971c0.274 0 0.497-0.218 0.497-0.488v-6.777c0-0.269-0.222-0.488-0.497-0.488zM55.157 20.688v0.889h-2.977v-0.889h2.977zM52.18 26.489v-3.938h2.977v3.938h-2.977z"></path>
<path fill="#000" style="fill: var(--color5, #000)" d="M62.002 19.713h-3.971c-0.274 0-0.497 0.218-0.497 0.488v1.864c0 0.269 0.222 0.488 0.497 0.488h3.971c0.274 0 0.497-0.218 0.497-0.488v-1.864c0-0.269-0.222-0.488-0.497-0.488zM61.505 21.576h-2.977v-0.889h2.977v0.889z"></path>
<path fill="#000" style="fill: var(--color5, #000)" d="M59.697 27.27c-0.161-0.395-0.754-0.391-0.918 0-0.082 0.196-0.024 0.429 0.144 0.563 0.161 0.129 0.391 0.146 0.569 0.042 0.208-0.122 0.299-0.385 0.204-0.605z"></path>
<path fill="#000" style="fill: var(--color5, #000)" d="M54.755 4.874c0 1.129 0.936 2.048 2.087 2.048s2.087-0.919 2.087-2.048c0-1.129-0.936-2.048-2.087-2.048s-2.087 0.919-2.087 2.048zM57.936 4.874c0 0.592-0.491 1.073-1.094 1.073s-1.094-0.481-1.094-1.073c0-0.592 0.491-1.073 1.094-1.073s1.094 0.481 1.094 1.073z"></path>
<path fill="#000" style="fill: var(--color5, #000)" d="M64.958 12.894c0.274 0 0.497-0.218 0.497-0.488v-4.699c0-0.005-0.001-0.009-0.002-0.013-0.004-0.131-0.060-0.259-0.164-0.35l-8.115-7.124c-0.189-0.166-0.474-0.166-0.663 0l-5.388 4.73v-2.623c0-0.269-0.222-0.488-0.497-0.488h-3.799c-0.274 0-0.497 0.218-0.497 0.488v2.623l-5.388-4.73c-0.189-0.166-0.474-0.166-0.663 0l-8.115 7.124c-0.104 0.091-0.16 0.219-0.164 0.35-0.001 0.004-0.002 0.009-0.002 0.013v18.931c0 0.269 0.222 0.488 0.497 0.488s0.497-0.218 0.497-0.488v-18.443h15.237v22.314h-8.31v-6.594c0-0.269-0.222-0.488-0.497-0.488h-3.971c-0.274 0-0.497 0.218-0.497 0.488v6.594h-1.962v-1.921c0-0.269-0.222-0.488-0.497-0.488s-0.497 0.218-0.497 0.488v2.409c0 0.269 0.222 0.488 0.497 0.488h32.461c0.274 0 0.497-0.218 0.497-0.488v-16.64c0-0.269-0.222-0.488-0.497-0.488s-0.497 0.218-0.497 0.488v16.152h-1.962v-6.594c0-0.269-0.222-0.488-0.497-0.488h-3.971c-0.274 0-0.497 0.218-0.497 0.488v6.594h-8.31v-22.314h15.237v4.212c0 0.269 0.222 0.488 0.497 0.488zM58.528 24.403h2.977v6.107h-2.977v-6.107zM47.325 2.814h2.805v3.008l-1.403 1.231-1.402-1.231v-3.008zM33.797 7.22l6.815-5.982 6.815 5.982h-13.629zM35.949 30.509v-6.107h2.977v6.107h-2.977zM50.028 7.22l6.815-5.982 6.815 5.982h-13.629z"></path>
</svg>
<svg id="icon-twin-villa" viewBox="0 0 33 32">
<title>twin-villa</title>
<path fill="#ff8431" style="fill: var(--color4, #ff8431)" d="M15.019 7.335c0.43 0.829 0.646 0.769 0.646-0.182 0-0.115-0.815-0.903-0.822-1.037-0.030-0.646 0.028-1.881 0.176-3.704h3.809l-1.107 4.853 1.107 0.070z"></path>
<path fill="#bde9ff" style="fill: var(--color2, #bde9ff)" d="M3.612 10.961h3.982v6.84h-3.982v-6.84z"></path>
<path fill="#bde9ff" style="fill: var(--color2, #bde9ff)" d="M9.977 10.961h3.982v6.84h-3.982v-6.84z"></path>
<path fill="#bde9ff" style="fill: var(--color2, #bde9ff)" d="M9.977 20.451h3.982v6.84h-3.982v-6.84z"></path>
<path fill="#77beed" style="fill: var(--color7, #77beed)" d="M3.612 24.2h3.982v7.147h-3.982v-7.147z"></path>
<path fill="#bde9ff" style="fill: var(--color2, #bde9ff)" d="M3.612 20.451h3.982v1.881h-3.982v-1.881z"></path>
<path fill="#31333f" style="fill: var(--color8, #31333f)" d="M10.381 4.983c0 0.87-0.714 1.575-1.595 1.575s-1.595-0.705-1.595-1.575c0-0.87 0.714-1.575 1.595-1.575s1.595 0.705 1.595 1.575z"></path>
<path fill="#bde9ff" style="fill: var(--color2, #bde9ff)" d="M26.252 10.961h3.982v6.84h-3.982v-6.84z"></path>
<path fill="#bde9ff" style="fill: var(--color2, #bde9ff)" d="M19.887 10.961h3.982v6.84h-3.982v-6.84z"></path>
<path fill="#bde9ff" style="fill: var(--color2, #bde9ff)" d="M19.887 20.451h3.982v6.84h-3.982v-6.84z"></path>
<path fill="#ffe67f" style="fill: var(--color3, #ffe67f)" d="M26.252 24.2h3.982v7.147h-3.982v-7.147z"></path>
<path fill="#bde9ff" style="fill: var(--color2, #bde9ff)" d="M26.252 20.451h3.982v1.881h-3.982v-1.881z"></path>
<path fill="#31333f" style="fill: var(--color8, #31333f)" d="M26.655 4.983c0 0.87-0.714 1.575-1.595 1.575s-1.595-0.705-1.595-1.575c0-0.87 0.714-1.575 1.595-1.575s1.595 0.705 1.595 1.575z"></path>
<path fill="#000" style="fill: var(--color5, #000)" d="M3.429 18.315h3.945c0.273 0 0.494-0.222 0.494-0.497v-6.907c0-0.274-0.221-0.497-0.494-0.497h-3.945c-0.273 0-0.494 0.222-0.494 0.497v6.907c0 0.274 0.221 0.497 0.494 0.497zM3.923 17.321v-4.014h2.958v4.014h-2.958zM6.881 11.408v0.906h-2.958v-0.906h2.958z"></path>
<path fill="#000" style="fill: var(--color5, #000)" d="M9.735 18.315h3.945c0.273 0 0.494-0.222 0.494-0.497v-6.907c0-0.274-0.221-0.497-0.494-0.497h-3.945c-0.273 0-0.494 0.222-0.494 0.497v6.907c0 0.274 0.221 0.497 0.494 0.497zM10.228 17.321v-4.014h2.958v4.014h-2.958zM13.186 11.408v0.906h-2.958v-0.906h2.958z"></path>
<path fill="#000" style="fill: var(--color5, #000)" d="M9.241 27.402c0 0.274 0.221 0.497 0.494 0.497h3.945c0.273 0 0.494-0.222 0.494-0.497v-6.907c0-0.274-0.221-0.497-0.494-0.497h-3.945c-0.273 0-0.494 0.222-0.494 0.497v6.907zM10.228 26.905v-4.014h2.958v4.014h-2.958zM13.186 20.992v0.906h-2.958v-0.906h2.958z"></path>
<path fill="#000" style="fill: var(--color5, #000)" d="M2.936 22.394c0 0.274 0.221 0.497 0.494 0.497h3.945c0.273 0 0.494-0.222 0.494-0.497v-1.899c0-0.274-0.221-0.497-0.494-0.497h-3.945c-0.273 0-0.494 0.222-0.494 0.497v1.899zM3.923 20.992h2.958v0.906h-2.958v-0.906z"></path>
<path fill="#000" style="fill: var(--color5, #000)" d="M6.448 27.477c-0.183-0.122-0.43-0.107-0.596 0.037-0.151 0.131-0.209 0.348-0.144 0.538s0.242 0.325 0.442 0.335c0.206 0.011 0.401-0.115 0.48-0.306 0.088-0.215 0.013-0.475-0.181-0.603z"></path>
<path fill="#000" style="fill: var(--color5, #000)" d="M6.481 4.874c0 1.151 0.93 2.088 2.073 2.088s2.073-0.936 2.073-2.088c0-1.151-0.93-2.088-2.073-2.088s-2.073 0.936-2.073 2.088zM9.641 4.874c0 0.603-0.487 1.094-1.086 1.094s-1.086-0.491-1.086-1.094c0-0.603 0.487-1.094 1.086-1.094s1.086 0.491 1.086 1.094z"></path>
<path fill="#000" style="fill: var(--color5, #000)" d="M30.295 10.911c0-0.274-0.221-0.497-0.494-0.497h-3.945c-0.273 0-0.494 0.222-0.494 0.497v6.907c0 0.274 0.221 0.497 0.494 0.497h3.945c0.273 0 0.494-0.222 0.494-0.497v-6.907zM29.308 11.408v0.906h-2.958v-0.906h2.958zM26.35 17.321v-4.014h2.958v4.014h-2.958z"></path>
<path fill="#000" style="fill: var(--color5, #000)" d="M23.989 10.911c0-0.274-0.221-0.497-0.494-0.497h-3.945c-0.273 0-0.494 0.222-0.494 0.497v6.907c0 0.274 0.221 0.497 0.494 0.497h3.945c0.273 0 0.494-0.222 0.494-0.497v-6.907zM23.002 11.408v0.906h-2.958v-0.906h2.958zM20.045 17.321v-4.014h2.958v4.014h-2.958z"></path>
<path fill="#000" style="fill: var(--color5, #000)" d="M23.496 19.998h-3.945c-0.273 0-0.494 0.222-0.494 0.497v6.907c0 0.274 0.221 0.497 0.494 0.497h3.945c0.273 0 0.494-0.222 0.494-0.497v-6.907c0-0.274-0.221-0.497-0.494-0.497zM23.002 20.992v0.906h-2.958v-0.906h2.958zM20.045 26.905v-4.014h2.958v4.014h-2.958z"></path>
<path fill="#000" style="fill: var(--color5, #000)" d="M29.801 19.998h-3.945c-0.273 0-0.494 0.222-0.494 0.497v1.899c0 0.274 0.221 0.497 0.494 0.497h3.945c0.273 0 0.494-0.222 0.494-0.497v-1.899c0-0.274-0.221-0.497-0.494-0.497zM29.308 21.897h-2.958v-0.906h2.958v0.906z"></path>
<path fill="#000" style="fill: var(--color5, #000)" d="M27.512 27.7c-0.16-0.403-0.749-0.398-0.911 0-0.081 0.2-0.023 0.437 0.143 0.574 0.16 0.131 0.389 0.149 0.566 0.043 0.207-0.124 0.297-0.393 0.203-0.617z"></path>
<path fill="#000" style="fill: var(--color5, #000)" d="M22.603 4.874c0 1.151 0.93 2.088 2.073 2.088s2.073-0.936 2.073-2.088c0-1.151-0.93-2.088-2.073-2.088s-2.073 0.936-2.073 2.088zM25.763 4.874c0 0.603-0.487 1.094-1.086 1.094s-1.086-0.491-1.086-1.094c0-0.603 0.487-1.094 1.086-1.094s1.086 0.491 1.086 1.094z"></path>
<path fill="#000" style="fill: var(--color5, #000)" d="M32.737 13.049c0.273 0 0.494-0.222 0.494-0.497v-4.79c0-0.005-0.001-0.009-0.002-0.013-0.004-0.134-0.060-0.264-0.163-0.357l-8.061-7.261c-0.187-0.169-0.471-0.169-0.658 0l-5.352 4.821v-2.673c0-0.274-0.221-0.497-0.494-0.497h-3.773c-0.273 0-0.494 0.222-0.494 0.497v2.674l-5.352-4.821c-0.187-0.169-0.471-0.169-0.658 0l-8.061 7.261c-0.103 0.093-0.159 0.223-0.163 0.357-0.001 0.004-0.002 0.009-0.002 0.013v19.295c0 0.274 0.221 0.497 0.494 0.497s0.494-0.222 0.494-0.497v-18.798h15.135v22.743h-8.254v-6.721c0-0.274-0.221-0.497-0.494-0.497h-3.945c-0.273 0-0.494 0.222-0.494 0.497v6.721h-1.949v-1.958c0-0.274-0.221-0.497-0.494-0.497s-0.494 0.222-0.494 0.497v2.455c0 0.274 0.221 0.497 0.494 0.497h32.244c0.273 0 0.494-0.222 0.494-0.497v-16.96c0-0.274-0.221-0.497-0.494-0.497s-0.494 0.222-0.494 0.497v16.463h-1.949v-6.721c0-0.274-0.221-0.497-0.494-0.497h-3.945c-0.273 0-0.494 0.222-0.494 0.497v6.721h-8.254v-22.743h15.135v4.293c0 0.274 0.221 0.497 0.494 0.497zM26.35 24.778h2.958v6.224h-2.958v-6.224zM15.223 2.775h2.786v3.066l-1.393 1.255-1.393-1.255v-3.066zM1.785 7.265l6.769-6.097 6.769 6.097h-13.538zM3.923 31.002v-6.224h2.958v6.224h-2.958zM17.907 7.265l6.769-6.097 6.769 6.097h-13.538z"></path>
</svg>
<svg id="icon-stats" viewBox="0 0 32 32">
<title>stats</title>
<path d="M9.578 9.103c-0.149-0.332-0.232-0.7-0.232-1.087 0-1.468 1.194-2.662 2.662-2.662s2.662 1.194 2.662 2.662c0 0.022-0 0.044-0.001 0.066l3.251 0.927c0.488-0.606 1.236-0.994 2.073-0.994 0.493 0 0.955 0.135 1.351 0.369l4.341-4.341c-0.235-0.396-0.369-0.858-0.369-1.351 0-1.468 1.194-2.662 2.662-2.662s2.662 1.194 2.662 2.662c0 1.468-1.194 2.662-2.662 2.662-0.493 0-0.955-0.135-1.351-0.369l-4.341 4.341c0.235 0.396 0.369 0.858 0.369 1.351 0 1.468-1.194 2.662-2.662 2.662s-2.662-1.194-2.662-2.662c0-0.15 0.012-0.298 0.037-0.441l-3.064-0.874c-0.463 0.786-1.318 1.315-2.295 1.315-0.599 0-1.153-0.199-1.598-0.534l-4.059 3.236c0.213 0.382 0.334 0.822 0.334 1.29 0 1.468-1.194 2.662-2.662 2.662s-2.662-1.194-2.662-2.662c0-1.468 1.194-2.662 2.662-2.662 0.516 0 0.998 0.148 1.407 0.403l4.149-3.308zM4.943 13.708c-0.239-0.229-0.563-0.37-0.92-0.37-0.735 0-1.331 0.597-1.331 1.331s0.596 1.331 1.331 1.331 1.331-0.598 1.331-1.331c0-0.356-0.141-0.68-0.37-0.92-0.014-0.013-0.028-0.027-0.041-0.041zM10.994 8.877c0.244 0.287 0.608 0.469 1.014 0.469 0.735 0 1.331-0.597 1.331-1.331s-0.596-1.331-1.331-1.331-1.331 0.597-1.331 1.331c0 0.299 0.099 0.575 0.266 0.798 0.009 0.010 0.018 0.021 0.027 0.031s0.017 0.021 0.024 0.032zM27.063 3.659c0.238 0.226 0.56 0.364 0.914 0.364 0.735 0 1.331-0.598 1.331-1.331s-0.596-1.331-1.331-1.331c-0.735 0-1.331 0.597-1.331 1.331 0 0.353 0.139 0.675 0.364 0.914 0.009 0.008 0.018 0.017 0.027 0.025s0.017 0.018 0.026 0.027zM25.971 31.969h-3.974c-0.003 0-0.006 0-0.009 0h-3.992c-0.003 0-0.006-0-0.009-0h-3.974c-0.003 0-0.006 0-0.009 0h-3.992c-0.003 0-0.006-0-0.009-0h-9.306c-0.367 0-0.665-0.298-0.665-0.665s0.298-0.665 0.665-0.665h0.665v-7.319c0-0.367 0.298-0.665 0.665-0.665h3.992c0.367 0 0.665 0.298 0.665 0.665v7.319h2.661v-13.973c0-0.367 0.298-0.665 0.665-0.665h3.992c0.367 0 0.665 0.298 0.665 0.665v13.973h2.661v-11.311c0-0.367 0.298-0.665 0.665-0.665h3.992c0.367 0 0.665 0.298 0.665 0.665v11.311h2.661v-19.296c0-0.367 0.298-0.665 0.665-0.665h3.992c0.367 0 0.665 0.298 0.665 0.665v19.296h0.665c0.367 0 0.665 0.298 0.665 0.665s-0.298 0.665-0.665 0.665h-1.322c-0.003 0-0.006 0-0.009 0h-3.992c-0.003 0-0.006-0-0.009-0zM29.307 30.638v-18.63h-2.662v18.63h2.662zM18.661 30.638h2.662v-10.646h-2.662v10.646zM13.338 30.638v-13.307h-2.662v13.307h2.662zM2.693 30.638h2.662v-6.654h-2.662v6.654zM19.992 12.008c0.735 0 1.331-0.598 1.331-1.331s-0.596-1.331-1.331-1.331c-0.735 0-1.331 0.597-1.331 1.331s0.596 1.331 1.331 1.331z"></path>
</svg>
<svg id="icon-information" viewBox="0 0 32 32">
<title>information</title>
<path d="M16 0c8.823 0 16 7.177 16 16s-7.177 16-16 16c-8.823 0-16-7.177-16-16s7.177-16 16-16zM16 30.667c8.087 0 14.667-6.58 14.667-14.667s-6.58-14.667-14.667-14.667c-8.087 0-14.667 6.58-14.667 14.667s6.58 14.667 14.667 14.667zM20.667 22.667c1.103 0 2 0.897 2 2s-0.897 2-2 2h-8c-1.103 0-2-0.897-2-2s0.897-2 2-2h0.667v-4h-0.667c-1.103 0-2-0.897-2-2s0.897-2 2-2h5.333c1.103 0 2 0.897 2 2v6h0.667zM20.667 25.333c0.368 0 0.667-0.3 0.667-0.667s-0.299-0.667-0.667-0.667h-1.333c-0.368 0-0.667-0.299-0.667-0.667v-6.667c0-0.367-0.299-0.667-0.667-0.667h-5.333c-0.368 0-0.667 0.3-0.667 0.667s0.299 0.667 0.667 0.667h1.333c0.368 0 0.667 0.299 0.667 0.667v5.333c0 0.368-0.299 0.667-0.667 0.667h-1.333c-0.368 0-0.667 0.3-0.667 0.667s0.299 0.667 0.667 0.667h8zM16 5.333c2.205 0 4 1.795 4 4s-1.795 4-4 4c-2.205 0-4-1.795-4-4s1.795-4 4-4zM16 12c1.471 0 2.667-1.196 2.667-2.667s-1.196-2.667-2.667-2.667c-1.471 0-2.667 1.196-2.667 2.667s1.196 2.667 2.667 2.667z"></path>
</svg>
<svg id="icon-dashboard" viewBox="0 0 32 32">
<title>dashboard</title>
<path d="M31.643 10.076c0.219 0.115 0.357 0.341 0.357 0.591s-0.139 0.476-0.359 0.591l-15.333 8c-0.096 0.051-0.203 0.076-0.308 0.076s-0.212-0.025-0.308-0.076l-15.333-8c-0.22-0.115-0.359-0.341-0.359-0.591s0.139-0.476 0.359-0.591l15.333-8c0.193-0.101 0.424-0.101 0.617 0l15.333 8zM16 17.916l13.892-7.249-13.892-7.249-13.892 7.249 13.892 7.249zM31.643 15.408c0.219 0.116 0.357 0.343 0.357 0.592s-0.139 0.476-0.359 0.591l-15.333 8c-0.096 0.051-0.203 0.076-0.308 0.076s-0.212-0.025-0.308-0.076l-15.333-8c-0.22-0.115-0.359-0.341-0.359-0.591s0.139-0.476 0.359-0.591l2.229-1.163c0.325-0.167 0.729-0.045 0.9 0.283 0.171 0.327 0.044 0.729-0.283 0.9l-1.097 0.571 13.892 7.249 13.892-7.249-1.096-0.572c-0.327-0.171-0.453-0.573-0.283-0.9s0.575-0.449 0.9-0.283l2.229 1.163zM31.643 20.741c0.219 0.116 0.357 0.343 0.357 0.592s-0.139 0.476-0.359 0.591l-15.333 8c-0.096 0.051-0.203 0.076-0.308 0.076s-0.212-0.025-0.308-0.076l-15.333-8c-0.22-0.115-0.359-0.341-0.359-0.591s0.139-0.476 0.359-0.591l2.229-1.163c0.325-0.168 0.729-0.044 0.9 0.283s0.044 0.729-0.283 0.9l-1.097 0.571 13.892 7.249 13.892-7.249-1.096-0.572c-0.327-0.171-0.453-0.573-0.283-0.9s0.575-0.449 0.9-0.283l2.229 1.163z"></path>
</svg>
<svg id="icon-clients" viewBox="0 0 32 32">
<title>clients</title>
<path d="M6.781 25.333c0.275-0.776 1.017-1.333 1.886-1.333 1.103 0 2 0.897 2 2s-0.897 2-2 2c-0.869 0-1.611-0.557-1.886-1.333h-1.448v2c0 1.103 0.897 2 2 2h18.667c1.103 0 2-0.897 2-2v-25.333c0-1.103-0.897-2-2-2h-18.667c-1.103 0-2 0.897-2 2v2h1.448c0.275-0.776 1.017-1.333 1.886-1.333 1.103 0 2 0.897 2 2s-0.897 2-2 2c-0.869 0-1.611-0.557-1.886-1.333h-1.448v5.333h1.448c0.275-0.776 1.017-1.333 1.886-1.333 1.103 0 2 0.897 2 2s-0.897 2-2 2c-0.869 0-1.611-0.557-1.886-1.333h-1.448v5.333h1.448c0.275-0.776 1.017-1.333 1.886-1.333 1.103 0 2 0.897 2 2s-0.897 2-2 2c-0.869 0-1.611-0.557-1.886-1.333h-1.448v5.333h1.448zM8 12.667c0 0.367 0.299 0.667 0.667 0.667s0.667-0.3 0.667-0.667c0-0.367-0.299-0.667-0.667-0.667s-0.667 0.3-0.667 0.667c0 0 0 0 0 0zM4 6.667h-0.667c-0.368 0-0.667-0.299-0.667-0.667s0.299-0.667 0.667-0.667h0.667v-2c0-1.839 1.496-3.333 3.333-3.333h18.667c1.837 0 3.333 1.495 3.333 3.333v25.333c0 1.839-1.496 3.333-3.333 3.333h-18.667c-1.837 0-3.333-1.495-3.333-3.333v-2h-0.667c-0.368 0-0.667-0.299-0.667-0.667s0.299-0.667 0.667-0.667h0.667v-5.333h-0.667c-0.368 0-0.667-0.299-0.667-0.667s0.299-0.667 0.667-0.667h0.667v-5.333h-0.667c-0.368 0-0.667-0.299-0.667-0.667s0.299-0.667 0.667-0.667h0.667v-5.333zM8.667 6.667c0.368 0 0.667-0.3 0.667-0.667s-0.299-0.667-0.667-0.667-0.667 0.3-0.667 0.667c0 0.367 0.299 0.667 0.667 0.667zM8.667 20c0.368 0 0.667-0.3 0.667-0.667s-0.299-0.667-0.667-0.667-0.667 0.3-0.667 0.667c0 0.367 0.299 0.667 0.667 0.667zM8.667 26.667c0.368 0 0.667-0.3 0.667-0.667s-0.299-0.667-0.667-0.667-0.667 0.3-0.667 0.667c0 0.367 0.299 0.667 0.667 0.667z"></path>
</svg>
<svg id="icon-units" viewBox="0 0 32 32">
<title>units</title>
<path d="M8.583 12.747c-0.215-0.299-0.628-0.368-0.931-0.155-0.679 0.485-1.48 0.741-2.319 0.741-2.205 0-4-1.795-4-4v-0.667c0-0.368-0.299-0.667-0.667-0.667s-0.667 0.299-0.667 0.667v0.667c0 2.941 2.392 5.333 5.333 5.333 1.119 0 2.189-0.341 3.095-0.991 0.299-0.213 0.368-0.629 0.155-0.929z"></path>
<path d="M16.344 12.5c-0.312-0.191-0.723-0.089-0.916 0.227-0.731 1.215-2.012 1.94-3.428 1.94-1.389 0-2.659-0.705-3.396-1.885-0.195-0.313-0.608-0.407-0.917-0.213-0.313 0.196-0.408 0.607-0.213 0.919 0.983 1.573 2.673 2.513 4.527 2.513 1.887 0 3.596-0.967 4.572-2.585 0.189-0.315 0.087-0.724-0.228-0.915z"></path>
<path d="M24.313 12.569c-0.307-0.192-0.723-0.099-0.917 0.213-0.737 1.18-2.007 1.884-3.396 1.884-1.416 0-2.7-0.725-3.431-1.943-0.191-0.315-0.599-0.415-0.916-0.228-0.315 0.191-0.419 0.6-0.228 0.916 0.961 1.596 2.713 2.588 4.575 2.588 1.852 0 3.544-0.939 4.525-2.512 0.196-0.312 0.1-0.724-0.212-0.919z"></path>
<path d="M31.333 8c-0.368 0-0.667 0.299-0.667 0.667v0.667c0 2.205-1.795 4-4 4-0.836 0-1.637-0.255-2.316-0.737-0.297-0.213-0.715-0.144-0.928 0.157-0.213 0.3-0.144 0.716 0.157 0.929 0.905 0.644 1.973 0.984 3.087 0.984 2.941 0 5.333-2.392 5.333-5.333v-0.667c0-0.368-0.299-0.667-0.667-0.667z"></path>
<path d="M8 8c-0.368 0-0.667 0.299-0.667 0.667v4.404c0 0.368 0.299 0.667 0.667 0.667s0.667-0.297 0.667-0.667v-4.404c0-0.368-0.299-0.667-0.667-0.667z"></path>
<path d="M16 2.667c-0.368 0-0.667 0.299-0.667 0.667v9.737c0 0.368 0.299 0.667 0.667 0.667s0.667-0.297 0.667-0.667v-9.737c0-0.368-0.299-0.667-0.667-0.667z"></path>
<path d="M24 8c-0.368 0-0.667 0.299-0.667 0.667v4.427c0 0.368 0.299 0.667 0.667 0.667s0.667-0.299 0.667-0.667v-4.427c0-0.368-0.299-0.667-0.667-0.667z"></path>
<path d="M31.333 8h-30.667c-0.368 0-0.667 0.299-0.667 0.667s0.299 0.667 0.667 0.667h30.667c0.368 0 0.667-0.299 0.667-0.667s-0.299-0.667-0.667-0.667z"></path>
<path d="M31.867 8.267l-4-5.333c-0.125-0.168-0.324-0.267-0.533-0.267h-22.667c-0.209 0-0.408 0.099-0.533 0.267l-4 5.333c-0.22 0.295-0.161 0.712 0.133 0.933 0.295 0.22 0.712 0.163 0.933-0.133l3.8-5.067h22l3.8 5.067c0.131 0.175 0.332 0.267 0.533 0.267 0.139 0 0.28-0.044 0.399-0.133 0.295-0.221 0.355-0.639 0.135-0.933z"></path>
<path d="M27.333 13.333c-0.368 0-0.667 0.299-0.667 0.667v14h-21.333v-14c0-0.368-0.299-0.667-0.667-0.667s-0.667 0.299-0.667 0.667v14.667c0 0.368 0.299 0.667 0.667 0.667h22.667c0.368 0 0.667-0.299 0.667-0.667v-14.667c-0-0.368-0.299-0.667-0.667-0.667z"></path>
<path d="M24.667 17.333h-6.667c-0.368 0-0.667 0.299-0.667 0.667v10.667c0 0.368 0.299 0.667 0.667 0.667h6.667c0.368 0 0.667-0.299 0.667-0.667v-10.667c-0-0.368-0.299-0.667-0.667-0.667zM24 28h-5.333v-9.333h5.333v9.333z"></path>
<path d="M15.333 17.333h-8c-0.368 0-0.667 0.299-0.667 0.667v5.333c0 0.368 0.299 0.667 0.667 0.667h8c0.368 0 0.667-0.299 0.667-0.667v-5.333c0-0.368-0.299-0.667-0.667-0.667zM14.667 22.667h-6.667v-4h6.667v4z"></path>
<path d="M10.965 2.736c-0.329-0.161-0.728-0.031-0.895 0.299l-2.667 5.333c-0.164 0.329-0.032 0.731 0.297 0.895 0.097 0.048 0.199 0.071 0.299 0.071 0.244 0 0.479-0.135 0.596-0.368l2.667-5.333c0.164-0.329 0.032-0.731-0.297-0.896z"></path>
<path d="M24.597 8.369l-2.667-5.333c-0.165-0.329-0.565-0.461-0.895-0.299-0.329 0.165-0.463 0.565-0.299 0.895l2.667 5.333c0.117 0.233 0.352 0.368 0.596 0.368 0.1 0 0.201-0.023 0.299-0.069 0.329-0.165 0.463-0.565 0.299-0.895z"></path>
</svg>
<svg id="icon-employees" viewBox="0 0 32 32">
<title>employees</title>
<path d="M8.948 20.083c1.659-2.064 4.204-3.387 7.052-3.387s5.393 1.323 7.052 3.388c0.836-0.397 1.754-0.605 2.687-0.605 3.452 0 6.261 2.809 6.261 6.261 0 0.384-0.312 0.696-0.696 0.696s-0.696-0.312-0.696-0.696c0-2.685-2.184-4.87-4.87-4.87-0.653 0-1.296 0.13-1.891 0.381 0.76 1.324 1.195 2.856 1.195 4.489 0 0.384-0.312 0.696-0.696 0.696s-0.696-0.312-0.696-0.696c0-4.22-3.432-7.652-7.652-7.652s-7.652 3.432-7.652 7.652c0 0.384-0.312 0.696-0.696 0.696s-0.696-0.312-0.696-0.696c0-1.633 0.435-3.166 1.195-4.489-0.595-0.25-1.237-0.38-1.891-0.38-2.685 0-4.87 2.184-4.87 4.87 0 0.384-0.312 0.696-0.696 0.696s-0.696-0.312-0.696-0.696c0-3.452 2.809-6.261 6.261-6.261 0.934 0 1.852 0.208 2.688 0.605zM16 5.565c2.685 0 4.87 2.184 4.87 4.87s-2.184 4.87-4.87 4.87c-2.685 0-4.87-2.184-4.87-4.87s2.184-4.87 4.87-4.87zM16 13.913c1.917 0 3.478-1.561 3.478-3.478s-1.561-3.478-3.478-3.478c-1.917 0-3.478 1.561-3.478 3.478s1.561 3.478 3.478 3.478zM25.739 11.13c1.917 0 3.478 1.561 3.478 3.478s-1.561 3.478-3.478 3.478c-1.917 0-3.478-1.561-3.478-3.478s1.561-3.478 3.478-3.478zM25.739 16.696c1.151 0 2.087-0.936 2.087-2.087s-0.936-2.087-2.087-2.087c-1.151 0-2.087 0.936-2.087 2.087s0.936 2.087 2.087 2.087zM6.36 11.13c1.919 0 3.478 1.561 3.478 3.478s-1.561 3.478-3.478 3.478c-1.917 0-3.478-1.561-3.478-3.478s1.56-3.478 3.478-3.478zM6.36 16.696c1.151 0 2.087-0.936 2.087-2.087s-0.936-2.087-2.087-2.087c-1.151 0-2.087 0.936-2.087 2.087s0.936 2.087 2.087 2.087z"></path>
</svg>
</defs>
</svg>
