<svg viewBox="0 0 65 32" fit="" height="100%" width="100%" preserveAspectRatio="xMidYMid meet" focusable="false">
<path fill="#ff8431" style="fill: var(--color4, #ff8431)" d="M15.12 10.217v-7.759h3.835v7.759z"></path>
<path fill="#bde9ff" style="fill: var(--color2, #bde9ff)" d="M3.637 10.846h4.009v6.711h-4.009v-6.711z"></path>
<path fill="#bde9ff" style="fill: var(--color2, #bde9ff)" d="M10.045 10.846h4.009v6.711h-4.009v-6.711z"></path>
<path fill="#bde9ff" style="fill: var(--color2, #bde9ff)" d="M10.045 20.157h4.009v6.711h-4.009v-6.711z"></path>
<path fill="#77beed" style="fill: var(--color7, #77beed)" d="M3.637 23.836h4.009v7.013h-4.009v-7.013z"></path>
<path fill="#bde9ff" style="fill: var(--color2, #bde9ff)" d="M3.637 20.157h4.009v1.845h-4.009v-1.845z"></path>
<path fill="#31333f" style="fill: var(--color8, #31333f)" d="M10.451 4.981c0 0.854-0.719 1.545-1.606 1.545s-1.606-0.692-1.606-1.545c0-0.854 0.719-1.545 1.606-1.545s1.606 0.692 1.606 1.545z"></path>
<path fill="#bde9ff" style="fill: var(--color2, #bde9ff)" d="M26.429 10.846h4.009v6.711h-4.009v-6.711z"></path>
<path fill="#bde9ff" style="fill: var(--color2, #bde9ff)" d="M20.021 10.846h4.009v6.711h-4.009v-6.711z"></path>
<path fill="#bde9ff" style="fill: var(--color2, #bde9ff)" d="M20.021 20.157h4.009v6.711h-4.009v-6.711z"></path>
<path fill="#ffe67f" style="fill: var(--color3, #ffe67f)" d="M26.429 23.836h4.009v7.013h-4.009v-7.013z"></path>
<path fill="#bde9ff" style="fill: var(--color2, #bde9ff)" d="M26.429 20.157h4.009v1.845h-4.009v-1.845z"></path>
<path fill="#31333f" style="fill: var(--color8, #31333f)" d="M26.835 4.981c0 0.854-0.719 1.545-1.606 1.545s-1.606-0.692-1.606-1.545c0-0.854 0.719-1.545 1.606-1.545s1.606 0.692 1.606 1.545z"></path>
<path fill="#000" style="fill: var(--color5, #000)" d="M3.453 18.062h3.971c0.274 0 0.497-0.218 0.497-0.488v-6.777c0-0.269-0.222-0.488-0.497-0.488h-3.971c-0.274 0-0.497 0.218-0.497 0.488v6.777c0 0.269 0.222 0.487 0.497 0.487zM3.949 17.087v-3.938h2.977v3.938h-2.977zM6.927 11.285v0.889h-2.977v-0.889h2.977z"></path>
<path fill="#000" style="fill: var(--color5, #000)" d="M9.8 18.062h3.971c0.274 0 0.497-0.218 0.497-0.488v-6.777c0-0.269-0.222-0.488-0.497-0.488h-3.971c-0.274 0-0.497 0.218-0.497 0.488v6.777c0 0.269 0.222 0.487 0.497 0.487zM10.297 17.087v-3.938h2.977v3.938h-2.977zM13.275 11.285v0.889h-2.977v-0.889h2.977z"></path>
<path fill="#000" style="fill: var(--color5, #000)" d="M9.304 26.977c0 0.269 0.222 0.488 0.497 0.488h3.971c0.274 0 0.497-0.218 0.497-0.488v-6.777c0-0.269-0.222-0.488-0.497-0.488h-3.971c-0.274 0-0.497 0.218-0.497 0.488v6.777zM10.297 26.489v-3.938h2.977v3.938h-2.977zM13.275 20.688v0.889h-2.977v-0.889h2.977z"></path>
<path fill="#000" style="fill: var(--color5, #000)" d="M2.956 22.064c0 0.269 0.222 0.488 0.497 0.488h3.971c0.274 0 0.497-0.218 0.497-0.488v-1.864c0-0.269-0.222-0.488-0.497-0.488h-3.971c-0.274 0-0.497 0.218-0.497 0.488v1.864zM3.949 20.688h2.977v0.889h-2.977v-0.889z"></path>
<path fill="#000" style="fill: var(--color5, #000)" d="M6.492 27.050c-0.184-0.119-0.433-0.105-0.6 0.036-0.152 0.128-0.21 0.342-0.145 0.527s0.244 0.319 0.445 0.329c0.207 0.010 0.404-0.113 0.483-0.301 0.089-0.211 0.013-0.466-0.183-0.592z"></path>
<path fill="#000" style="fill: var(--color5, #000)" d="M6.525 4.874c0 1.129 0.936 2.048 2.087 2.048s2.087-0.919 2.087-2.048c0-1.129-0.936-2.048-2.087-2.048s-2.087 0.919-2.087 2.048zM9.706 4.874c0 0.592-0.491 1.073-1.094 1.073s-1.094-0.481-1.094-1.073c0-0.592 0.491-1.073 1.094-1.073s1.094 0.481 1.094 1.073z"></path>
<path fill="#000" style="fill: var(--color5, #000)" d="M30.499 10.798c0-0.269-0.222-0.488-0.497-0.488h-3.971c-0.274 0-0.497 0.218-0.497 0.488v6.777c0 0.269 0.222 0.488 0.497 0.488h3.971c0.274 0 0.497-0.218 0.497-0.488v-6.777zM29.505 11.285v0.889h-2.977v-0.889h2.977zM26.528 17.087v-3.938h2.977v3.938h-2.977z"></path>
<path fill="#000" style="fill: var(--color5, #000)" d="M24.151 10.798c0-0.269-0.222-0.488-0.497-0.488h-3.971c-0.274 0-0.497 0.218-0.497 0.488v6.777c0 0.269 0.222 0.488 0.497 0.488h3.971c0.274 0 0.497-0.218 0.497-0.488v-6.777zM23.157 11.285v0.889h-2.977v-0.889h2.977zM20.18 17.087v-3.938h2.977v3.938h-2.977z"></path>
<path fill="#000" style="fill: var(--color5, #000)" d="M23.654 19.713h-3.971c-0.274 0-0.497 0.218-0.497 0.488v6.777c0 0.269 0.222 0.488 0.497 0.488h3.971c0.274 0 0.497-0.218 0.497-0.488v-6.777c0-0.269-0.222-0.488-0.497-0.488zM23.157 20.688v0.889h-2.977v-0.889h2.977zM20.18 26.489v-3.938h2.977v3.938h-2.977z"></path>
<path fill="#000" style="fill: var(--color5, #000)" d="M30.002 19.713h-3.971c-0.274 0-0.497 0.218-0.497 0.488v1.864c0 0.269 0.222 0.488 0.497 0.488h3.971c0.274 0 0.497-0.218 0.497-0.488v-1.864c0-0.269-0.222-0.488-0.497-0.488zM29.505 21.576h-2.977v-0.889h2.977v0.889z"></path>
<path fill="#000" style="fill: var(--color5, #000)" d="M27.697 27.27c-0.161-0.395-0.754-0.391-0.918 0-0.082 0.196-0.024 0.429 0.144 0.563 0.161 0.129 0.391 0.146 0.569 0.042 0.208-0.122 0.299-0.385 0.204-0.605z"></path>
<path fill="#000" style="fill: var(--color5, #000)" d="M22.755 4.874c0 1.129 0.936 2.048 2.087 2.048s2.087-0.919 2.087-2.048c0-1.129-0.936-2.048-2.087-2.048s-2.087 0.919-2.087 2.048zM25.936 4.874c0 0.592-0.491 1.073-1.094 1.073s-1.094-0.481-1.094-1.073c0-0.592 0.491-1.073 1.094-1.073s1.094 0.481 1.094 1.073z"></path>
<path fill="#000" style="fill: var(--color5, #000)" d="M32.958 12.894c0.274 0 0.497-0.218 0.497-0.488v-4.699c0-0.005-0.001-0.009-0.002-0.013-0.004-0.131-0.060-0.259-0.164-0.35l-8.115-7.124c-0.189-0.166-0.474-0.166-0.663 0l-5.388 4.73v-2.623c0-0.269-0.222-0.488-0.497-0.488h-3.799c-0.274 0-0.497 0.218-0.497 0.488v2.623l-5.388-4.73c-0.189-0.166-0.474-0.166-0.663 0l-8.115 7.124c-0.104 0.091-0.16 0.219-0.164 0.35-0.001 0.004-0.002 0.009-0.002 0.013v18.931c0 0.269 0.222 0.488 0.497 0.488s0.497-0.218 0.497-0.488v-18.443h15.237v22.314h-8.31v-6.594c0-0.269-0.222-0.488-0.497-0.488h-3.971c-0.274 0-0.497 0.218-0.497 0.488v6.594h-1.962v-1.921c0-0.269-0.222-0.488-0.497-0.488s-0.497 0.218-0.497 0.488v2.409c0 0.269 0.222 0.488 0.497 0.488h32.461c0.274 0 0.497-0.218 0.497-0.488v-16.64c0-0.269-0.222-0.488-0.497-0.488s-0.497 0.218-0.497 0.488v16.152h-1.962v-6.594c0-0.269-0.222-0.488-0.497-0.488h-3.971c-0.274 0-0.497 0.218-0.497 0.488v6.594h-8.31v-22.314h15.237v4.212c0 0.269 0.222 0.488 0.497 0.488zM26.528 24.403h2.977v6.107h-2.977v-6.107zM15.325 2.814h2.805v3.008l-1.403 1.231-1.402-1.231v-3.008zM1.797 7.22l6.815-5.982 6.815 5.982h-13.629zM3.949 30.509v-6.107h2.977v6.107h-2.977zM18.028 7.22l6.815-5.982 6.815 5.982h-13.629z"></path>
<path fill="#ff8431" style="fill: var(--color4, #ff8431)" d="M47.12 10.217v-7.759h3.835v7.759z"></path>
<path fill="#bde9ff" style="fill: var(--color2, #bde9ff)" d="M35.637 10.846h4.009v6.711h-4.009v-6.711z"></path>
<path fill="#bde9ff" style="fill: var(--color2, #bde9ff)" d="M42.045 10.846h4.009v6.711h-4.009v-6.711z"></path>
<path fill="#bde9ff" style="fill: var(--color2, #bde9ff)" d="M42.045 20.157h4.009v6.711h-4.009v-6.711z"></path>
<path fill="#77beed" style="fill: var(--color7, #77beed)" d="M35.637 23.836h4.009v7.013h-4.009v-7.013z"></path>
<path fill="#bde9ff" style="fill: var(--color2, #bde9ff)" d="M35.637 20.157h4.009v1.845h-4.009v-1.845z"></path>
<path fill="#31333f" style="fill: var(--color8, #31333f)" d="M42.451 4.981c0 0.854-0.719 1.545-1.606 1.545s-1.606-0.692-1.606-1.545c0-0.854 0.719-1.545 1.606-1.545s1.606 0.692 1.606 1.545z"></path>
<path fill="#bde9ff" style="fill: var(--color2, #bde9ff)" d="M58.429 10.846h4.009v6.711h-4.009v-6.711z"></path>
<path fill="#bde9ff" style="fill: var(--color2, #bde9ff)" d="M52.021 10.846h4.009v6.711h-4.009v-6.711z"></path>
<path fill="#bde9ff" style="fill: var(--color2, #bde9ff)" d="M52.021 20.157h4.009v6.711h-4.009v-6.711z"></path>
<path fill="#ffe67f" style="fill: var(--color3, #ffe67f)" d="M58.429 23.836h4.009v7.013h-4.009v-7.013z"></path>
<path fill="#bde9ff" style="fill: var(--color2, #bde9ff)" d="M58.429 20.157h4.009v1.845h-4.009v-1.845z"></path>
<path fill="#31333f" style="fill: var(--color8, #31333f)" d="M58.835 4.981c0 0.854-0.719 1.545-1.606 1.545s-1.606-0.692-1.606-1.545c0-0.854 0.719-1.545 1.606-1.545s1.606 0.692 1.606 1.545z"></path>
<path fill="#000" style="fill: var(--color5, #000)" d="M35.453 18.062h3.971c0.274 0 0.497-0.218 0.497-0.488v-6.777c0-0.269-0.222-0.488-0.497-0.488h-3.971c-0.274 0-0.497 0.218-0.497 0.488v6.777c0 0.269 0.222 0.487 0.497 0.487zM35.949 17.087v-3.938h2.977v3.938h-2.977zM38.927 11.285v0.889h-2.977v-0.889h2.977z"></path>
<path fill="#000" style="fill: var(--color5, #000)" d="M41.8 18.062h3.971c0.274 0 0.497-0.218 0.497-0.488v-6.777c0-0.269-0.222-0.488-0.497-0.488h-3.971c-0.274 0-0.497 0.218-0.497 0.488v6.777c0 0.269 0.222 0.487 0.497 0.487zM42.297 17.087v-3.938h2.977v3.938h-2.977zM45.275 11.285v0.889h-2.977v-0.889h2.977z"></path>
<path fill="#000" style="fill: var(--color5, #000)" d="M41.304 26.977c0 0.269 0.222 0.488 0.497 0.488h3.971c0.274 0 0.497-0.218 0.497-0.488v-6.777c0-0.269-0.222-0.488-0.497-0.488h-3.971c-0.274 0-0.497 0.218-0.497 0.488v6.777zM42.297 26.489v-3.938h2.977v3.938h-2.977zM45.275 20.688v0.889h-2.977v-0.889h2.977z"></path>
<path fill="#000" style="fill: var(--color5, #000)" d="M34.956 22.064c0 0.269 0.222 0.488 0.497 0.488h3.971c0.274 0 0.497-0.218 0.497-0.488v-1.864c0-0.269-0.222-0.488-0.497-0.488h-3.971c-0.274 0-0.497 0.218-0.497 0.488v1.864zM35.949 20.688h2.977v0.889h-2.977v-0.889z"></path>
<path fill="#000" style="fill: var(--color5, #000)" d="M38.492 27.050c-0.184-0.119-0.433-0.105-0.6 0.036-0.152 0.128-0.21 0.342-0.145 0.527s0.244 0.319 0.445 0.329c0.207 0.010 0.404-0.113 0.483-0.301 0.089-0.211 0.013-0.466-0.182-0.592z"></path>
<path fill="#000" style="fill: var(--color5, #000)" d="M38.525 4.874c0 1.129 0.936 2.048 2.087 2.048s2.087-0.919 2.087-2.048c0-1.129-0.936-2.048-2.087-2.048s-2.087 0.919-2.087 2.048zM41.706 4.874c0 0.592-0.491 1.073-1.094 1.073s-1.094-0.481-1.094-1.073c0-0.592 0.491-1.073 1.094-1.073s1.094 0.481 1.094 1.073z"></path>
<path fill="#000" style="fill: var(--color5, #000)" d="M62.499 10.798c0-0.269-0.222-0.488-0.497-0.488h-3.971c-0.274 0-0.497 0.218-0.497 0.488v6.777c0 0.269 0.222 0.488 0.497 0.488h3.971c0.274 0 0.497-0.218 0.497-0.488v-6.777zM61.505 11.285v0.889h-2.977v-0.889h2.977zM58.528 17.087v-3.938h2.977v3.938h-2.977z"></path>
<path fill="#000" style="fill: var(--color5, #000)" d="M56.151 10.798c0-0.269-0.222-0.488-0.497-0.488h-3.971c-0.274 0-0.497 0.218-0.497 0.488v6.777c0 0.269 0.222 0.488 0.497 0.488h3.971c0.274 0 0.497-0.218 0.497-0.488v-6.777zM55.157 11.285v0.889h-2.977v-0.889h2.977zM52.18 17.087v-3.938h2.977v3.938h-2.977z"></path>
<path fill="#000" style="fill: var(--color5, #000)" d="M55.654 19.713h-3.971c-0.274 0-0.497 0.218-0.497 0.488v6.777c0 0.269 0.222 0.488 0.497 0.488h3.971c0.274 0 0.497-0.218 0.497-0.488v-6.777c0-0.269-0.222-0.488-0.497-0.488zM55.157 20.688v0.889h-2.977v-0.889h2.977zM52.18 26.489v-3.938h2.977v3.938h-2.977z"></path>
<path fill="#000" style="fill: var(--color5, #000)" d="M62.002 19.713h-3.971c-0.274 0-0.497 0.218-0.497 0.488v1.864c0 0.269 0.222 0.488 0.497 0.488h3.971c0.274 0 0.497-0.218 0.497-0.488v-1.864c0-0.269-0.222-0.488-0.497-0.488zM61.505 21.576h-2.977v-0.889h2.977v0.889z"></path>
<path fill="#000" style="fill: var(--color5, #000)" d="M59.697 27.27c-0.161-0.395-0.754-0.391-0.918 0-0.082 0.196-0.024 0.429 0.144 0.563 0.161 0.129 0.391 0.146 0.569 0.042 0.208-0.122 0.299-0.385 0.204-0.605z"></path>
<path fill="#000" style="fill: var(--color5, #000)" d="M54.755 4.874c0 1.129 0.936 2.048 2.087 2.048s2.087-0.919 2.087-2.048c0-1.129-0.936-2.048-2.087-2.048s-2.087 0.919-2.087 2.048zM57.936 4.874c0 0.592-0.491 1.073-1.094 1.073s-1.094-0.481-1.094-1.073c0-0.592 0.491-1.073 1.094-1.073s1.094 0.481 1.094 1.073z"></path>
<path fill="#000" style="fill: var(--color5, #000)" d="M64.958 12.894c0.274 0 0.497-0.218 0.497-0.488v-4.699c0-0.005-0.001-0.009-0.002-0.013-0.004-0.131-0.060-0.259-0.164-0.35l-8.115-7.124c-0.189-0.166-0.474-0.166-0.663 0l-5.388 4.73v-2.623c0-0.269-0.222-0.488-0.497-0.488h-3.799c-0.274 0-0.497 0.218-0.497 0.488v2.623l-5.388-4.73c-0.189-0.166-0.474-0.166-0.663 0l-8.115 7.124c-0.104 0.091-0.16 0.219-0.164 0.35-0.001 0.004-0.002 0.009-0.002 0.013v18.931c0 0.269 0.222 0.488 0.497 0.488s0.497-0.218 0.497-0.488v-18.443h15.237v22.314h-8.31v-6.594c0-0.269-0.222-0.488-0.497-0.488h-3.971c-0.274 0-0.497 0.218-0.497 0.488v6.594h-1.962v-1.921c0-0.269-0.222-0.488-0.497-0.488s-0.497 0.218-0.497 0.488v2.409c0 0.269 0.222 0.488 0.497 0.488h32.461c0.274 0 0.497-0.218 0.497-0.488v-16.64c0-0.269-0.222-0.488-0.497-0.488s-0.497 0.218-0.497 0.488v16.152h-1.962v-6.594c0-0.269-0.222-0.488-0.497-0.488h-3.971c-0.274 0-0.497 0.218-0.497 0.488v6.594h-8.31v-22.314h15.237v4.212c0 0.269 0.222 0.488 0.497 0.488zM58.528 24.403h2.977v6.107h-2.977v-6.107zM47.325 2.814h2.805v3.008l-1.403 1.231-1.402-1.231v-3.008zM33.797 7.22l6.815-5.982 6.815 5.982h-13.629zM35.949 30.509v-6.107h2.977v6.107h-2.977zM50.028 7.22l6.815-5.982 6.815 5.982h-13.629z"></path>
</svg>