<svg viewBox="0 0 33 32" fit="" height="100%" width="100%" preserveAspectRatio="xMidYMid meet" focusable="false">
<path fill="#ff8431" style="fill: var(--color4, #ff8431)" d="M15.019 7.335c0.43 0.829 0.646 0.769 0.646-0.182 0-0.115-0.815-0.903-0.822-1.037-0.030-0.646 0.028-1.881 0.176-3.704h3.809l-1.107 4.853 1.107 0.070z"></path>
<path fill="#bde9ff" style="fill: var(--color2, #bde9ff)" d="M3.612 10.961h3.982v6.84h-3.982v-6.84z"></path>
<path fill="#bde9ff" style="fill: var(--color2, #bde9ff)" d="M9.977 10.961h3.982v6.84h-3.982v-6.84z"></path>
<path fill="#bde9ff" style="fill: var(--color2, #bde9ff)" d="M9.977 20.451h3.982v6.84h-3.982v-6.84z"></path>
<path fill="#77beed" style="fill: var(--color7, #77beed)" d="M3.612 24.2h3.982v7.147h-3.982v-7.147z"></path>
<path fill="#bde9ff" style="fill: var(--color2, #bde9ff)" d="M3.612 20.451h3.982v1.881h-3.982v-1.881z"></path>
<path fill="#31333f" style="fill: var(--color8, #31333f)" d="M10.381 4.983c0 0.87-0.714 1.575-1.595 1.575s-1.595-0.705-1.595-1.575c0-0.87 0.714-1.575 1.595-1.575s1.595 0.705 1.595 1.575z"></path>
<path fill="#bde9ff" style="fill: var(--color2, #bde9ff)" d="M26.252 10.961h3.982v6.84h-3.982v-6.84z"></path>
<path fill="#bde9ff" style="fill: var(--color2, #bde9ff)" d="M19.887 10.961h3.982v6.84h-3.982v-6.84z"></path>
<path fill="#bde9ff" style="fill: var(--color2, #bde9ff)" d="M19.887 20.451h3.982v6.84h-3.982v-6.84z"></path>
<path fill="#ffe67f" style="fill: var(--color3, #ffe67f)" d="M26.252 24.2h3.982v7.147h-3.982v-7.147z"></path>
<path fill="#bde9ff" style="fill: var(--color2, #bde9ff)" d="M26.252 20.451h3.982v1.881h-3.982v-1.881z"></path>
<path fill="#31333f" style="fill: var(--color8, #31333f)" d="M26.655 4.983c0 0.87-0.714 1.575-1.595 1.575s-1.595-0.705-1.595-1.575c0-0.87 0.714-1.575 1.595-1.575s1.595 0.705 1.595 1.575z"></path>
<path fill="#000" style="fill: var(--color5, #000)" d="M3.429 18.315h3.945c0.273 0 0.494-0.222 0.494-0.497v-6.907c0-0.274-0.221-0.497-0.494-0.497h-3.945c-0.273 0-0.494 0.222-0.494 0.497v6.907c0 0.274 0.221 0.497 0.494 0.497zM3.923 17.321v-4.014h2.958v4.014h-2.958zM6.881 11.408v0.906h-2.958v-0.906h2.958z"></path>
<path fill="#000" style="fill: var(--color5, #000)" d="M9.735 18.315h3.945c0.273 0 0.494-0.222 0.494-0.497v-6.907c0-0.274-0.221-0.497-0.494-0.497h-3.945c-0.273 0-0.494 0.222-0.494 0.497v6.907c0 0.274 0.221 0.497 0.494 0.497zM10.228 17.321v-4.014h2.958v4.014h-2.958zM13.186 11.408v0.906h-2.958v-0.906h2.958z"></path>
<path fill="#000" style="fill: var(--color5, #000)" d="M9.241 27.402c0 0.274 0.221 0.497 0.494 0.497h3.945c0.273 0 0.494-0.222 0.494-0.497v-6.907c0-0.274-0.221-0.497-0.494-0.497h-3.945c-0.273 0-0.494 0.222-0.494 0.497v6.907zM10.228 26.905v-4.014h2.958v4.014h-2.958zM13.186 20.992v0.906h-2.958v-0.906h2.958z"></path>
<path fill="#000" style="fill: var(--color5, #000)" d="M2.936 22.394c0 0.274 0.221 0.497 0.494 0.497h3.945c0.273 0 0.494-0.222 0.494-0.497v-1.899c0-0.274-0.221-0.497-0.494-0.497h-3.945c-0.273 0-0.494 0.222-0.494 0.497v1.899zM3.923 20.992h2.958v0.906h-2.958v-0.906z"></path>
<path fill="#000" style="fill: var(--color5, #000)" d="M6.448 27.477c-0.183-0.122-0.43-0.107-0.596 0.037-0.151 0.131-0.209 0.348-0.144 0.538s0.242 0.325 0.442 0.335c0.206 0.011 0.401-0.115 0.48-0.306 0.088-0.215 0.013-0.475-0.181-0.603z"></path>
<path fill="#000" style="fill: var(--color5, #000)" d="M6.481 4.874c0 1.151 0.93 2.088 2.073 2.088s2.073-0.936 2.073-2.088c0-1.151-0.93-2.088-2.073-2.088s-2.073 0.936-2.073 2.088zM9.641 4.874c0 0.603-0.487 1.094-1.086 1.094s-1.086-0.491-1.086-1.094c0-0.603 0.487-1.094 1.086-1.094s1.086 0.491 1.086 1.094z"></path>
<path fill="#000" style="fill: var(--color5, #000)" d="M30.295 10.911c0-0.274-0.221-0.497-0.494-0.497h-3.945c-0.273 0-0.494 0.222-0.494 0.497v6.907c0 0.274 0.221 0.497 0.494 0.497h3.945c0.273 0 0.494-0.222 0.494-0.497v-6.907zM29.308 11.408v0.906h-2.958v-0.906h2.958zM26.35 17.321v-4.014h2.958v4.014h-2.958z"></path>
<path fill="#000" style="fill: var(--color5, #000)" d="M23.989 10.911c0-0.274-0.221-0.497-0.494-0.497h-3.945c-0.273 0-0.494 0.222-0.494 0.497v6.907c0 0.274 0.221 0.497 0.494 0.497h3.945c0.273 0 0.494-0.222 0.494-0.497v-6.907zM23.002 11.408v0.906h-2.958v-0.906h2.958zM20.045 17.321v-4.014h2.958v4.014h-2.958z"></path>
<path fill="#000" style="fill: var(--color5, #000)" d="M23.496 19.998h-3.945c-0.273 0-0.494 0.222-0.494 0.497v6.907c0 0.274 0.221 0.497 0.494 0.497h3.945c0.273 0 0.494-0.222 0.494-0.497v-6.907c0-0.274-0.221-0.497-0.494-0.497zM23.002 20.992v0.906h-2.958v-0.906h2.958zM20.045 26.905v-4.014h2.958v4.014h-2.958z"></path>
<path fill="#000" style="fill: var(--color5, #000)" d="M29.801 19.998h-3.945c-0.273 0-0.494 0.222-0.494 0.497v1.899c0 0.274 0.221 0.497 0.494 0.497h3.945c0.273 0 0.494-0.222 0.494-0.497v-1.899c0-0.274-0.221-0.497-0.494-0.497zM29.308 21.897h-2.958v-0.906h2.958v0.906z"></path>
<path fill="#000" style="fill: var(--color5, #000)" d="M27.512 27.7c-0.16-0.403-0.749-0.398-0.911 0-0.081 0.2-0.023 0.437 0.143 0.574 0.16 0.131 0.389 0.149 0.566 0.043 0.207-0.124 0.297-0.393 0.203-0.617z"></path>
<path fill="#000" style="fill: var(--color5, #000)" d="M22.603 4.874c0 1.151 0.93 2.088 2.073 2.088s2.073-0.936 2.073-2.088c0-1.151-0.93-2.088-2.073-2.088s-2.073 0.936-2.073 2.088zM25.763 4.874c0 0.603-0.487 1.094-1.086 1.094s-1.086-0.491-1.086-1.094c0-0.603 0.487-1.094 1.086-1.094s1.086 0.491 1.086 1.094z"></path>
<path fill="#000" style="fill: var(--color5, #000)" d="M32.737 13.049c0.273 0 0.494-0.222 0.494-0.497v-4.79c0-0.005-0.001-0.009-0.002-0.013-0.004-0.134-0.060-0.264-0.163-0.357l-8.061-7.261c-0.187-0.169-0.471-0.169-0.658 0l-5.352 4.821v-2.673c0-0.274-0.221-0.497-0.494-0.497h-3.773c-0.273 0-0.494 0.222-0.494 0.497v2.674l-5.352-4.821c-0.187-0.169-0.471-0.169-0.658 0l-8.061 7.261c-0.103 0.093-0.159 0.223-0.163 0.357-0.001 0.004-0.002 0.009-0.002 0.013v19.295c0 0.274 0.221 0.497 0.494 0.497s0.494-0.222 0.494-0.497v-18.798h15.135v22.743h-8.254v-6.721c0-0.274-0.221-0.497-0.494-0.497h-3.945c-0.273 0-0.494 0.222-0.494 0.497v6.721h-1.949v-1.958c0-0.274-0.221-0.497-0.494-0.497s-0.494 0.222-0.494 0.497v2.455c0 0.274 0.221 0.497 0.494 0.497h32.244c0.273 0 0.494-0.222 0.494-0.497v-16.96c0-0.274-0.221-0.497-0.494-0.497s-0.494 0.222-0.494 0.497v16.463h-1.949v-6.721c0-0.274-0.221-0.497-0.494-0.497h-3.945c-0.273 0-0.494 0.222-0.494 0.497v6.721h-8.254v-22.743h15.135v4.293c0 0.274 0.221 0.497 0.494 0.497zM26.35 24.778h2.958v6.224h-2.958v-6.224zM15.223 2.775h2.786v3.066l-1.393 1.255-1.393-1.255v-3.066zM1.785 7.265l6.769-6.097 6.769 6.097h-13.538zM3.923 31.002v-6.224h2.958v6.224h-2.958zM17.907 7.265l6.769-6.097 6.769 6.097h-13.538z"></path>
</svg>