<svg viewBox="0 0 32 32" fit="" height="100%" width="100%" preserveAspectRatio="xMidYMid meet" focusable="false">
<path d="M8.583 12.747c-0.215-0.299-0.628-0.368-0.931-0.155-0.679 0.485-1.48 0.741-2.319 0.741-2.205 0-4-1.795-4-4v-0.667c0-0.368-0.299-0.667-0.667-0.667s-0.667 0.299-0.667 0.667v0.667c0 2.941 2.392 5.333 5.333 5.333 1.119 0 2.189-0.341 3.095-0.991 0.299-0.213 0.368-0.629 0.155-0.929z"></path>
<path d="M16.344 12.5c-0.312-0.191-0.723-0.089-0.916 0.227-0.731 1.215-2.012 1.94-3.428 1.94-1.389 0-2.659-0.705-3.396-1.885-0.195-0.313-0.608-0.407-0.917-0.213-0.313 0.196-0.408 0.607-0.213 0.919 0.983 1.573 2.673 2.513 4.527 2.513 1.887 0 3.596-0.967 4.572-2.585 0.189-0.315 0.087-0.724-0.228-0.915z"></path>
<path d="M24.313 12.569c-0.307-0.192-0.723-0.099-0.917 0.213-0.737 1.18-2.007 1.884-3.396 1.884-1.416 0-2.7-0.725-3.431-1.943-0.191-0.315-0.599-0.415-0.916-0.228-0.315 0.191-0.419 0.6-0.228 0.916 0.961 1.596 2.713 2.588 4.575 2.588 1.852 0 3.544-0.939 4.525-2.512 0.196-0.312 0.1-0.724-0.212-0.919z"></path>
<path d="M31.333 8c-0.368 0-0.667 0.299-0.667 0.667v0.667c0 2.205-1.795 4-4 4-0.836 0-1.637-0.255-2.316-0.737-0.297-0.213-0.715-0.144-0.928 0.157-0.213 0.3-0.144 0.716 0.157 0.929 0.905 0.644 1.973 0.984 3.087 0.984 2.941 0 5.333-2.392 5.333-5.333v-0.667c0-0.368-0.299-0.667-0.667-0.667z"></path>
<path d="M8 8c-0.368 0-0.667 0.299-0.667 0.667v4.404c0 0.368 0.299 0.667 0.667 0.667s0.667-0.297 0.667-0.667v-4.404c0-0.368-0.299-0.667-0.667-0.667z"></path>
<path d="M16 2.667c-0.368 0-0.667 0.299-0.667 0.667v9.737c0 0.368 0.299 0.667 0.667 0.667s0.667-0.297 0.667-0.667v-9.737c0-0.368-0.299-0.667-0.667-0.667z"></path>
<path d="M24 8c-0.368 0-0.667 0.299-0.667 0.667v4.427c0 0.368 0.299 0.667 0.667 0.667s0.667-0.299 0.667-0.667v-4.427c0-0.368-0.299-0.667-0.667-0.667z"></path>
<path d="M31.333 8h-30.667c-0.368 0-0.667 0.299-0.667 0.667s0.299 0.667 0.667 0.667h30.667c0.368 0 0.667-0.299 0.667-0.667s-0.299-0.667-0.667-0.667z"></path>
<path d="M31.867 8.267l-4-5.333c-0.125-0.168-0.324-0.267-0.533-0.267h-22.667c-0.209 0-0.408 0.099-0.533 0.267l-4 5.333c-0.22 0.295-0.161 0.712 0.133 0.933 0.295 0.22 0.712 0.163 0.933-0.133l3.8-5.067h22l3.8 5.067c0.131 0.175 0.332 0.267 0.533 0.267 0.139 0 0.28-0.044 0.399-0.133 0.295-0.221 0.355-0.639 0.135-0.933z"></path>
<path d="M27.333 13.333c-0.368 0-0.667 0.299-0.667 0.667v14h-21.333v-14c0-0.368-0.299-0.667-0.667-0.667s-0.667 0.299-0.667 0.667v14.667c0 0.368 0.299 0.667 0.667 0.667h22.667c0.368 0 0.667-0.299 0.667-0.667v-14.667c-0-0.368-0.299-0.667-0.667-0.667z"></path>
<path d="M24.667 17.333h-6.667c-0.368 0-0.667 0.299-0.667 0.667v10.667c0 0.368 0.299 0.667 0.667 0.667h6.667c0.368 0 0.667-0.299 0.667-0.667v-10.667c-0-0.368-0.299-0.667-0.667-0.667zM24 28h-5.333v-9.333h5.333v9.333z"></path>
<path d="M15.333 17.333h-8c-0.368 0-0.667 0.299-0.667 0.667v5.333c0 0.368 0.299 0.667 0.667 0.667h8c0.368 0 0.667-0.299 0.667-0.667v-5.333c0-0.368-0.299-0.667-0.667-0.667zM14.667 22.667h-6.667v-4h6.667v4z"></path>
<path d="M10.965 2.736c-0.329-0.161-0.728-0.031-0.895 0.299l-2.667 5.333c-0.164 0.329-0.032 0.731 0.297 0.895 0.097 0.048 0.199 0.071 0.299 0.071 0.244 0 0.479-0.135 0.596-0.368l2.667-5.333c0.164-0.329 0.032-0.731-0.297-0.896z"></path>
<path d="M24.597 8.369l-2.667-5.333c-0.165-0.329-0.565-0.461-0.895-0.299-0.329 0.165-0.463 0.565-0.299 0.895l2.667 5.333c0.117 0.233 0.352 0.368 0.596 0.368 0.1 0 0.201-0.023 0.299-0.069 0.329-0.165 0.463-0.565 0.299-0.895z"></path>
</svg>