<?xml version="1.0" encoding="UTF-8"?>
<svg width="358px" height="332px" viewBox="0 0 358 332" version="1.1" xmlns="http://www.w3.org/2000/svg" xmlns:xlink="http://www.w3.org/1999/xlink">
    <title>Unit Sale</title>
    <g id="Page-1" stroke="none" stroke-width="1" fill="none" fill-rule="evenodd">
        <g id="Artboard-Copy" transform="translate(-1169.000000, -333.000000)">
            <g id="Group-3" transform="translate(548.000000, 237.000000)">
                <g id="2673746" transform="translate(620.000000, 96.000000)">
                    <g>
                        <path d="M358.314579,182.829654 C358.314579,182.949474 278.314856,183.045995 179.654102,183.045995 C80.9584257,183.045995 0.97616408,182.949474 0.97616408,182.829654 C0.97616408,182.709835 80.9584257,182.613313 179.654102,182.613313 C278.314856,182.613313 358.314579,182.709835 358.314579,182.829654" id="Fill-1" fill="#B0B2CB"></path>
                        <polyline id="Fill-2" fill="#E2E3EC" points="153.605322 70.0819549 153.605322 222.858536 325.299612 222.858536 325.299612 70.0819549 306.725887 70.0819549 269.124446 22.9337945 237.41408 69.6284712 153.605322 70.0819549"></polyline>
                        <path d="M187.550721,13.9298546 C186.7051,15.0581554 138.238636,72.3011128 138.238636,72.3011128 L236.299058,72.3011128 L269.124446,22.9337945 L306.725887,70.0819549 L341.121951,70.0453434 L299.136086,12.5203108 L187.550721,13.9298546" id="Fill-3" fill="#B0B2CB"></path>
                        <polygon id="Fill-4" fill="#B0B2CB" points="179.442073 222.858536 220.126663 222.858536 220.126663 216.519749 179.442073 216.519749"></polygon>
                        <polygon id="Fill-5" fill="#B0B2CB" points="170.071231 230.931378 224.358093 230.931378 224.358093 226.009624 170.071231 226.009624"></polygon>
                        <polyline id="Fill-6" fill="#D0D1E0" points="182.14357 155.099749 182.478659 216.182757 217.425166 216.182757 217.425166 155.099749 182.14357 155.099749"></polyline>
                        <path d="M210.680987,184.550396 C211.283814,185.152822 211.283814,186.130516 210.680987,186.732942 C210.078991,187.335368 209.102827,187.335368 208.5,186.732942 C207.898004,186.130516 207.898004,185.152822 208.5,184.550396 C209.102827,183.947138 210.078991,183.947138 210.680987,184.550396" id="Fill-7" fill="#E2E3EC"></path>
                        <polyline id="Fill-8" fill="#B0B2CB" points="199.901608 134.118015 167.679047 160.705474 167.679047 168.060231 200.187639 141.637524 229.966463 166.054917 229.966463 158.373153 199.901608 134.118015"></polyline>
                        <polygon id="Fill-9" fill="#B0B2CB" points="209.845344 16.4693634 217.378603 16.4693634 217.378603 6.02758897 209.845344 6.02758897"></polygon>
                        <polygon id="Fill-10" fill="#B0B2CB" points="222.468126 16.4693634 230.407151 16.4693634 230.407151 0.526706767 222.468126 0.526706767"></polygon>
                        <polygon id="Fill-11" fill="#FFFFFE" points="265.885809 56.3750977 274.766907 56.3750977 274.766907 47.486817 265.885809 47.486817"></polygon>
                        <polyline id="Fill-12" fill="#D0D1E0" points="236.299058 72.3011128 241.029379 72.3011128 272.092018 26.653193 269.124446 22.9337945 236.299058 72.3011128"></polyline>
                        <polyline id="Fill-13" fill="#D0D1E0" points="153.605322 72.3011128 153.605322 77.2303559 236.299058 72.3011128 153.605322 72.3011128"></polyline>
                        <polyline id="Fill-14" fill="#D0D1E0" points="306.725887 70.0819549 325.299612 76.2534937 325.299612 70.0819549 306.725887 70.0819549"></polyline>
                        <polygon id="Fill-15" fill="#B0B2CB" points="175.178215 226.577103 222.467295 226.577103 222.467295 220.425534 175.178215 220.425534"></polygon>
                        <path d="M221.226718,220.506246 C221.226718,220.625233 211.000277,220.721754 198.389135,220.721754 C185.772173,220.721754 175.548226,220.625233 175.548226,220.506246 C175.548226,220.385594 185.772173,220.289073 198.389135,220.289073 C211.000277,220.289073 221.226718,220.385594 221.226718,220.506246" id="Fill-16" fill="#D0D1E0"></path>
                        <path d="M221.226718,226.004632 C221.226718,226.124451 211.000277,226.221805 198.389135,226.221805 C185.772173,226.221805 175.548226,226.124451 175.548226,226.004632 C175.548226,225.884812 185.772173,225.787459 198.389135,225.787459 C211.000277,225.787459 221.226718,225.884812 221.226718,226.004632" id="Fill-17" fill="#D0D1E0"></path>
                        <polygon id="Fill-18" fill="#FFFFFE" points="179.442073 118.21613 218.845344 118.21613 218.845344 80.7583759 179.442073 80.7583759"></polygon>
                        <path d="M197.269124,80.7583759 C197.269124,80.7583759 186.099778,99.8246617 179.973392,99.9910777 C179.973392,99.9910777 185.645787,102.885885 186.075665,118.21613 L179.442073,118.21613 L179.442073,80.7583759 L197.269124,80.7583759" id="Fill-19" fill="#D0D1E0"></path>
                        <path d="M201.017461,80.7583759 C201.017461,80.7583759 212.186807,99.8246617 218.313193,99.9910777 C218.313193,99.9910777 212.640798,102.885885 212.210089,118.21613 L218.845344,118.21613 L218.845344,80.7583759 L201.017461,80.7583759" id="Fill-20" fill="#D0D1E0"></path>
                        <polygon id="Fill-21" fill="#E2E3EC" points="198.198725 120.383699 199.447616 120.383699 199.447616 80.4255439 198.198725 80.4255439"></polygon>
                        <polygon id="Fill-22" fill="#E2E3EC" points="178.85837 101.029514 218.78714 101.029514 218.78714 99.7788972 178.85837 99.7788972"></polygon>
                        <polygon id="Fill-23" fill="#D0D1E0" points="176.818736 119.146396 220.826774 119.146396 220.826774 118.21613 176.818736 118.21613"></polygon>
                        <polygon id="Fill-24" fill="#FFFFFE" points="261.713415 118.21613 301.116685 118.21613 301.116685 80.7583759 261.713415 80.7583759"></polygon>
                        <path d="M279.541297,80.7583759 C279.541297,80.7583759 268.371951,99.8246617 262.245565,99.9910777 C262.245565,99.9910777 267.91796,102.885885 268.34867,118.21613 L261.713415,118.21613 L261.713415,80.7583759 L279.541297,80.7583759" id="Fill-25" fill="#D0D1E0"></path>
                        <path d="M283.288803,80.7583759 C283.288803,80.7583759 294.45898,99.8246617 300.585366,99.9910777 C300.585366,99.9910777 294.912971,102.885885 294.48143,118.21613 L301.116685,118.21613 L301.116685,80.7583759 L283.288803,80.7583759" id="Fill-26" fill="#D0D1E0"></path>
                        <polygon id="Fill-27" fill="#E2E3EC" points="280.470067 120.383699 281.719789 120.383699 281.719789 80.4255439 280.470067 80.4255439"></polygon>
                        <polygon id="Fill-28" fill="#E2E3EC" points="261.129712 101.029514 301.060144 101.029514 301.060144 99.7788972 261.129712 99.7788972"></polygon>
                        <polygon id="Fill-29" fill="#D0D1E0" points="259.090909 119.146396 303.099778 119.146396 303.099778 118.21613 259.090909 118.21613"></polygon>
                        <polygon id="Fill-30" fill="#FFFFFE" points="261.713415 197.32782 301.116685 197.32782 301.116685 159.870065 261.713415 159.870065"></polygon>
                        <path d="M279.541297,159.870065 C279.541297,159.870065 268.371951,178.936351 262.245565,179.101935 C262.245565,179.101935 267.91796,181.996742 268.34867,197.32782 L261.713415,197.32782 L261.713415,159.870065 L279.541297,159.870065" id="Fill-31" fill="#D0D1E0"></path>
                        <path d="M283.288803,159.870065 C283.288803,159.870065 294.45898,178.936351 300.585366,179.101935 C300.585366,179.101935 294.912971,181.996742 294.48143,197.32782 L301.116685,197.32782 L301.116685,159.870065 L283.288803,159.870065" id="Fill-32" fill="#D0D1E0"></path>
                        <polygon id="Fill-33" fill="#E2E3EC" points="280.470067 199.495388 281.719789 199.495388 281.719789 159.536401 280.470067 159.536401"></polygon>
                        <polygon id="Fill-34" fill="#E2E3EC" points="261.129712 180.141203 301.060144 180.141203 301.060144 178.890586 261.129712 178.890586"></polygon>
                        <polygon id="Fill-35" fill="#D0D1E0" points="259.090909 198.257253 303.099778 198.257253 303.099778 197.32782 259.090909 197.32782"></polygon>
                        <path d="M109.490022,152.608501 C101.901053,150.485033 95.2682927,145.138085 91.5789911,138.169414 C87.8888581,131.200742 87.1937361,122.706035 89.6998337,115.229794 C91.6563193,109.394416 95.4262749,104.258817 97.0435144,98.3202607 C98.8777716,91.580411 97.7851996,84.4303459 96.6527162,77.5373935 C95.5202328,70.643609 94.3652993,63.51601 96.085643,56.7453734 C97.8059867,49.9747368 103.221452,43.616812 110.185144,43.1358697 C116.645787,42.6890426 122.612528,47.4784962 125.307373,53.3704561 C128.00388,59.262416 128.021341,66.0180752 127.391075,72.4666967 C126.761641,78.9161504 125.534368,85.3564511 125.920177,91.8258747 C126.700942,104.919489 134.030488,117.244261 133.169069,130.333714 C132.720067,137.149283 130.085089,141.51188 125.573448,146.637494 C121.683758,151.057504 115.218126,153.963128 109.490022,152.608501" id="Fill-36" fill="#E2E3EC"></path>
                        <path d="M110.727273,185.189434 C110.629157,185.189434 110.549335,161.557524 110.549335,132.412251 C110.549335,103.256992 110.629157,79.6292431 110.727273,79.6292431 C110.825388,79.6292431 110.904379,103.256992 110.904379,132.412251 C110.904379,161.557524 110.825388,185.189434 110.727273,185.189434" id="Fill-37" fill="#B0B2CB"></path>
                        <path d="M122.446231,121.481213 C122.506098,121.559429 119.948448,123.657935 116.733093,126.169985 C113.517738,128.682867 110.862805,130.656561 110.802106,130.579178 C110.742239,130.501794 113.299889,128.403288 116.515244,125.890406 C119.729767,123.378356 122.385532,121.40383 122.446231,121.481213" id="Fill-38" fill="#B0B2CB"></path>
                        <path d="M110.737251,119.959338 C110.681541,120.039218 109.067627,119.01992 107.133592,117.681935 C105.198725,116.34395 103.675443,115.194015 103.731153,115.113303 C103.786863,115.032591 105.400776,116.05189 107.335643,117.389875 C109.269678,118.72786 110.79296,119.878627 110.737251,119.959338" id="Fill-39" fill="#B0B2CB"></path>
                        <polyline id="Fill-40" fill="#E2E3EC" points="38.6033814 82.4791178 24.3600333 111.230817 28.613082 111.392241 16.5449002 134.238667 22.8833149 134.238667 12.9952882 154.537263 68.2674612 154.537263 56.0978381 134.238667 61.9290466 133.985714 50.2657982 111.150105 54.577051 110.896321 38.6033814 82.4791178"></polyline>
                        <path d="M39.1446785,115.729043 C39.2635809,115.730707 39.1829268,130.657393 38.9634146,149.065504 C38.7439024,167.480271 38.4678492,182.401965 38.3489468,182.400301 C38.2292129,182.399469 38.3106984,167.474446 38.5302106,149.060511 C38.7497228,130.652401 39.0249446,115.727378 39.1446785,115.729043" id="Fill-41" fill="#B0B2CB"></path>
                        <path d="M47.3614191,124.326927 C47.4379157,124.419288 45.6244457,126.049333 43.3137472,127.967278 C41.0005543,129.886055 39.0648559,131.367158 38.9883592,131.274797 C38.912694,131.182436 40.7245011,129.552391 43.0368625,127.633614 C45.3483925,125.715669 47.2849224,124.234566 47.3614191,124.326927" id="Fill-42" fill="#B0B2CB"></path>
                        <path d="M261.088137,88.6148772 L300.309313,88.6148772 C300.309313,88.6148772 300.314302,79.6292431 295.679601,79.6292431 C289.563193,79.6292431 288.488082,85.2008521 288.488082,85.2008521 C288.488082,85.2008521 288.488082,68.4294436 280.056818,70.8907368 C272.077051,73.2188972 271.174889,83.954396 271.174889,83.954396 C271.174889,83.954396 269.739745,78.5558596 265.413525,81.5979449 C261.088137,84.6400301 261.088137,88.6148772 261.088137,88.6148772" id="Fill-43" fill="#E2E3EC"></path>
                        <path d="M23.6981707,27.0126516 L64.2289357,27.0126516 C64.2289357,27.0126516 64.2339246,17.7274687 59.4437361,17.7274687 C53.1244457,17.7274687 52.0127494,23.4846316 52.0127494,23.4846316 C52.0127494,23.4846316 52.0127494,6.15406516 43.299612,8.69607018 C35.0537694,11.1032782 34.1216741,22.1965714 34.1216741,22.1965714 C34.1216741,22.1965714 32.6374723,16.6174737 28.1682373,19.7619048 C23.6981707,22.9055038 23.6981707,27.0126516 23.6981707,27.0126516" id="Fill-44" fill="#E2E3EC"></path>
                        <path d="M281.744734,299.623759 C276.756652,296.93198 274.744457,293.139358 273.572062,287.591048 C272.399667,282.042737 273.783259,276.006827 277.255543,271.524411 C280.149945,267.788371 284.41214,265.060812 286.39357,260.769774 C288.505543,256.19583 287.743902,250.382085 290.962583,246.507088 C293.174335,243.844431 296.734756,242.790185 299.564302,240.798185 C301.873337,239.173133 303.671009,236.938165 305.733093,235.007739 C307.795177,233.078145 310.311253,231.38403 313.13082,231.270867 C317.385532,231.100291 321.147173,234.865454 321.835643,239.070787 C322.524113,243.27612 320.632483,247.592952 317.723947,250.705764 C315.613636,252.962366 312.909645,254.817073 311.684035,257.653634 C309.381652,262.982276 313.189856,269.576511 310.661308,274.801143 C308.81541,278.616231 303.89551,280.908612 303.663525,285.142236 C303.578714,286.699058 304.189856,288.205955 304.356153,289.755288 C304.879157,294.602987 300.804878,299.028822 296.141075,300.438366 C291.47561,301.847078 286.442627,300.915148 281.744734,299.623759" id="Fill-45" fill="#E8781F"></path>
                        <path d="M305.9551,249.347154 C305.970898,249.361123 305.817905,249.576632 305.513581,249.973534 C305.166851,250.412872 304.717849,250.982847 304.159922,251.690115 C303.557927,252.42401 302.837029,253.33181 302.06541,254.436812 C301.283814,255.533494 300.336752,256.741674 299.44041,258.182005 C298.976441,258.891769 298.490022,259.633985 297.984479,260.406987 C297.482262,261.182486 297.023282,262.029544 296.511918,262.883258 C295.465909,264.57987 294.518016,266.486997 293.480322,268.470677 C291.519678,272.495449 289.607262,277.041103 288.021619,281.961193 C286.480876,286.897093 285.423226,291.715669 284.706486,296.135679 C284.409645,298.354837 284.085366,300.46 283.962306,302.450336 C283.887472,303.443008 283.77439,304.3999 283.738636,305.323509 C283.705377,306.246286 283.674612,307.133283 283.644678,307.982005 C283.547395,309.67612 283.624723,311.208812 283.631375,312.55595 C283.625554,313.90392 283.691242,315.062175 283.759424,316.008251 C283.80765,316.908561 283.845898,317.633303 283.875831,318.191629 C283.895787,318.691709 283.896619,318.955479 283.876663,318.957983 C283.856707,318.959639 283.816796,318.70003 283.758592,318.203278 C283.70122,317.645784 283.626386,316.923539 283.533259,316.02406 C283.429324,315.078817 283.330377,313.918065 283.305432,312.565935 C283.268016,311.215469 283.162417,309.67612 283.233093,307.974516 C283.251386,307.120802 283.269678,306.229644 283.288803,305.301875 C283.314579,304.373273 283.41602,303.409724 283.480876,302.410396 C283.584812,300.409243 283.89163,298.289935 284.175998,296.054967 C284.867794,291.605003 285.916297,286.751479 287.466186,281.784792 C289.061807,276.833915 291.001663,272.265794 293.000554,268.231038 C294.057373,266.241534 295.026885,264.332742 296.096175,262.637794 C296.61918,261.78408 297.0898,260.938687 297.605322,260.165684 C298.124169,259.396842 298.62306,258.657123 299.099501,257.950687 C300.02245,256.519509 300.99612,255.322145 301.805155,254.240441 C302.605044,253.150416 303.354213,252.26009 303.984479,251.546165 C304.57816,250.866356 305.056264,250.318847 305.424612,249.896982 C305.758038,249.524211 305.940965,249.334496 305.9551,249.347154" id="Fill-46" fill="#182C45"></path>
                        <path d="M259.88082,281.426165 C261.876386,281.513534 263.740576,282.613544 265.044346,284.12793 C266.347284,285.643148 267.13969,287.539459 267.638581,289.474877 C268.605599,293.219238 267.953714,297.622607 266.856984,301.331188 C262.828437,299.851749 260.37306,295.516612 259.265521,293.24004 C257.514412,289.639629 256.535754,282.07186 259.88082,281.426165" id="Fill-47" fill="#4C78AE"></path>
                        <path d="M272.634146,305.909293 C271.373614,304.066236 271.366962,301.518406 272.391353,299.534727 C273.415743,297.551048 275.365576,296.131519 277.503326,295.494145 C278.492794,295.199589 279.638581,295.082266 280.490854,295.663058 C281.288248,296.205574 281.625831,297.260652 281.514412,298.219208 C281.402993,299.177764 280.909091,300.052281 280.329545,300.823619 C278.341463,303.469634 275.93265,305.66383 272.634146,305.909293" id="Fill-48" fill="#4C78AE"></path>
                        <path d="M272.668237,318.754161 C272.638304,318.758276 272.568459,318.477865 272.468681,317.965303 C272.369734,317.453574 272.239191,316.710526 272.106984,315.786085 C271.854213,313.945524 271.550721,311.346105 271.919069,308.487078 C272.28908,305.623058 273.448171,303.182566 274.653825,301.732251 C275.250831,301.00002 275.820399,300.484962 276.244457,300.175429 C276.667683,299.863398 276.924612,299.727769 276.938747,299.747739 C276.994457,299.816802 275.996674,300.440862 274.896619,301.919469 C273.785754,303.377273 272.709812,305.755358 272.347284,308.543659 C271.988082,311.335288 272.235865,313.907248 272.411308,315.749474 C272.601718,317.598356 272.73143,318.744962 272.668237,318.754161" id="Fill-49" fill="#182C45"></path>
                        <path d="M261.135532,287.123187 C261.162971,287.111769 261.374169,287.540291 261.731707,288.323278 C262.090078,289.10793 262.590632,290.249544 263.193459,291.667409 C264.399945,294.502306 266.001386,298.446366 267.663525,302.844742 C269.324834,307.244782 270.730044,311.263729 271.699557,314.187659 C272.184313,315.650456 272.564302,316.837835 272.812916,317.662426 C273.062361,318.487018 273.187084,318.94799 273.158814,318.957308 C273.130543,318.967128 272.951774,318.524461 272.652439,317.717343 C272.33398,316.835338 271.914911,315.681243 271.409368,314.288341 C270.367517,311.391038 268.917406,307.392892 267.258592,302.997013 C265.598115,298.604461 264.043237,294.646256 262.909922,291.7839 C262.367794,290.404311 261.918792,289.261033 261.57622,288.389845 C261.266075,287.586055 261.108093,287.1359 261.135532,287.123187" id="Fill-50" fill="#182C45"></path>
                        <path d="M268.43847,309.584591 C265.821785,305.672982 261.217018,303.171749 256.512472,303.106847 C255.315133,303.091038 253.892461,303.375609 253.423503,304.478115 C252.952882,305.58395 253.740299,306.8121 254.604213,307.645845 C258.20122,311.111459 263.99418,312.053373 268.501663,309.90411" id="Fill-51" fill="#4C78AE"></path>
                        <path d="M258.572837,306.047419 C258.575388,306.018296 258.851441,306.023288 259.350333,306.059068 C259.601441,306.072381 259.906596,306.101504 260.25582,306.171398 C260.605876,306.236301 261.011641,306.287058 261.441519,306.417694 C262.316242,306.625714 263.327328,306.990165 264.404102,307.496902 C265.469235,308.026937 266.590909,308.710907 267.664357,309.572942 C268.726164,310.447459 269.625831,311.407679 270.361696,312.342937 C271.077605,313.293173 271.642184,314.210125 272.024667,315.0239 C272.238359,315.419138 272.372228,315.805223 272.506929,316.133895 C272.64745,316.462566 272.737251,316.755459 272.801275,316.998426 C272.93847,317.480201 273,317.749794 272.971729,317.757283 C272.891075,317.784742 272.585089,316.718015 271.75194,315.163689 C271.342018,314.383198 270.764135,313.504521 270.048226,312.590065 C269.312361,311.688922 268.426829,310.761985 267.390798,309.909103 C266.344789,309.068702 265.257206,308.392221 264.226996,307.854697 C263.185144,307.341303 262.207317,306.953554 261.359202,306.712251 C259.668792,306.213003 258.563747,306.132291 258.572837,306.047419" id="Fill-52" fill="#182C45"></path>
                        <path d="M70.0884146,316.1081 L69.8980044,317.946165 C69.8980044,317.946165 65.1385809,329.368962 66.0490576,330.221845 C66.9603659,331.074727 68.565133,331.817774 70.7028825,330.909143 C72.8406319,330.000511 80.8303769,319.593684 80.8303769,319.593684 L81.142184,318.080962 L70.0884146,316.1081" id="Fill-54" fill="#36629F"></path>
                        <path d="M66.316796,327.76388 C66.316796,327.76388 68.8952328,326.099719 71.0546009,329.428872 C71.0546009,329.428872 72.1845898,328.793163 75.0673503,325.487308 C77.9501109,322.180622 80.7297672,318.955479 80.7297672,318.955479 C80.7297672,318.955479 81.0299335,318.627639 80.9700665,318.917203 C80.9101996,319.205935 80.8486696,319.708511 80.8486696,319.708511 L75.3267738,326.377634 C75.3267738,326.377634 72.0049889,330.275098 71.0837029,330.691138 C70.1615854,331.107178 69.2402993,331.58396 67.929878,331.228662 C66.6186253,330.874195 65.8810976,330.099529 65.85449,329.933945 C65.828714,329.768361 66.316796,327.76388 66.316796,327.76388" id="Fill-55" fill="#1D498D"></path>
                        <path d="M71.6100333,330.543028 C71.5443459,330.596281 71.0570953,329.083559 69.4955654,328.148301 C67.9365299,327.208882 66.3725055,327.490125 66.3891353,327.406085 C66.3833149,327.377794 66.7466741,327.263799 67.357816,327.271288 C67.9631375,327.276281 68.8212306,327.440201 69.6294346,327.925303 C70.4368071,328.410406 70.9847561,329.09188 71.2741131,329.623579 C71.568459,330.159439 71.6383038,330.534707 71.6100333,330.543028" id="Fill-56" fill="#182C45"></path>
                        <path d="M81.1920732,318.417123 C81.2053769,318.428772 81.027439,318.66009 80.6923503,319.068642 C80.2899113,319.548752 79.8118071,320.117895 79.2563747,320.781063 C77.9501109,322.297945 76.2854767,324.231699 74.4445676,326.369313 C73.4966741,327.448521 72.6186253,328.516912 71.623337,329.309053 C70.6388581,330.102857 69.518847,330.550516 68.5476718,330.564662 C67.5698448,330.584632 66.8273282,330.207699 66.4207317,329.868211 C66.0058204,329.520401 65.8910754,329.234997 65.8910754,329.234997 C65.9118625,329.218356 66.0648559,329.477965 66.4822616,329.787499 C66.8930155,330.09204 67.6155765,330.423208 68.54102,330.380772 C69.4631375,330.34416 70.5266075,329.902326 71.4736696,329.122667 C72.429878,328.346336 73.3012749,327.277945 74.25,326.196241 C76.1125277,324.078596 77.796286,322.163148 79.1175166,320.661243 C79.6970621,320.018877 80.1959534,319.467208 80.6158537,319.002907 C80.9742239,318.614326 81.1787694,318.405474 81.1920732,318.417123" id="Fill-57" fill="#182C45"></path>
                        <path d="M71.7488914,324.393955 C71.7114745,324.457193 71.1444013,324.181774 70.4393016,323.866416 C69.7358647,323.547729 69.1538248,323.306426 69.1762749,323.235699 C69.1962306,323.169133 69.8256652,323.30393 70.5465632,323.629273 C71.2666297,323.952952 71.7863082,324.334877 71.7488914,324.393955" id="Fill-58" fill="#182C45"></path>
                        <path d="M72.8871951,322.679038 C72.8614191,322.7481 72.1771064,322.551729 71.3331486,322.330396 C70.4891907,322.105734 69.7973947,321.938486 69.8090355,321.865263 C69.8198448,321.796201 70.5407428,321.850286 71.3988359,322.078276 C72.2577605,322.303769 72.9121397,322.613303 72.8871951,322.679038" id="Fill-59" fill="#182C45"></path>
                        <path d="M73.9573171,321.194607 C73.9149113,321.258677 73.2522173,320.853454 72.3525499,320.578035 C71.453714,320.293464 70.6796009,320.25186 70.6804012,320.174476 C70.674612,320.108742 71.4853104,320.03219 72.4290466,320.330075 C73.3744457,320.620471 73.9997228,321.14385 73.9573171,321.194607" id="Fill-60" fill="#182C45"></path>
                        <path d="M74.4603659,319.54792 C74.4221175,319.614486 73.8192905,319.318266 73.0285477,319.108581 C72.2402993,318.891409 71.570122,318.842316 71.5717665,318.765764 C71.5676275,318.698366 72.2685698,318.630135 73.0967295,318.857293 C73.9257206,319.078627 74.4969512,319.491338 74.4603659,319.54792" id="Fill-61" fill="#182C45"></path>
                        <path d="M73.9082594,318.153353 C73.8957871,318.181644 73.5390798,318.072642 73.0243902,317.76394 C72.7682927,317.609173 72.4747783,317.401985 72.1779379,317.136551 C72.0299335,317.005083 71.8802661,316.857805 71.7339246,316.698045 C71.6632483,316.61983 71.5809313,316.535789 71.5177384,316.41597 C71.4512195,316.301143 71.4254435,316.111429 71.5218958,315.969143 C71.7330931,315.700381 72.0340909,315.712862 72.260255,315.761123 C72.488082,315.814376 72.6884701,315.92005 72.8547672,316.04819 C73.1873614,316.304471 73.3810976,316.638135 73.4900222,316.921875 C73.700388,317.497674 73.6787694,317.876271 73.6529933,317.878767 C73.6089246,317.88792 73.5615299,317.514316 73.3220621,316.994266 C73.1990022,316.738817 73.0077605,316.452581 72.7117517,316.239569 C72.4465078,316.034877 71.9393016,315.874286 71.7405765,316.109764 C71.6640798,316.205454 71.7771619,316.374366 71.9235033,316.528301 C72.0615299,316.6839 72.2012195,316.828682 72.3400776,316.96015 C72.6177938,317.224752 72.8888581,317.441093 73.1258315,317.610837 C73.5997783,317.949494 73.9248891,318.116742 73.9082594,318.153353" id="Fill-62" fill="#182C45"></path>
                        <path d="M73.7402993,317.993594 C73.7136918,317.992762 73.7253326,317.592531 74.0404656,317.048351 C74.2009424,316.782917 74.4387472,316.486697 74.7746674,316.239569 C74.9442905,316.115589 75.1288803,316.006586 75.345898,315.916722 C75.45898,315.874286 75.5828714,315.841003 75.7275499,315.853484 C75.8713969,315.86014 76.0401885,315.962486 76.0983925,316.120581 C76.1981707,316.440932 76.0343681,316.678907 75.9271064,316.865293 C75.804878,317.059168 75.6601996,317.227248 75.5063747,317.36787 C75.1995565,317.652441 74.8586475,317.825514 74.5618071,317.921203 C73.9598115,318.110917 73.5656874,318.006907 73.5731707,317.983609 C73.5723392,317.93618 73.9564856,317.968632 74.4986142,317.74813 C74.767184,317.639128 75.0715078,317.461895 75.3417406,317.193965 C75.4772727,317.061664 75.60449,316.906897 75.7109202,316.731328 C75.8198448,316.560752 75.9071508,316.351068 75.8572616,316.217103 C75.8165188,316.088962 75.6186253,316.084802 75.434867,316.154697 C75.2502772,316.228752 75.0698448,316.326937 74.914357,316.435108 C74.5992239,316.649784 74.3639135,316.91189 74.1942905,317.148201 C73.8600333,317.630807 73.7835366,318.005243 73.7402993,317.993594" id="Fill-63" fill="#182C45"></path>
                        <path d="M79.2422395,317.868782 C79.238082,317.910386 78.8572616,317.783078 78.3558758,318.074306 C77.8661308,318.349724 77.2982262,318.97212 76.991408,319.790055 C76.6787694,320.613815 76.7452882,321.441734 76.8966186,321.995068 C77.047949,322.55589 77.2466741,322.869584 77.2100887,322.89205 C77.1876386,322.909524 76.9273836,322.625784 76.7203437,322.049985 C76.5149667,321.48417 76.4101996,320.58802 76.7477827,319.699358 C77.0803769,318.817353 77.7081486,318.173323 78.2727273,317.910386 C78.8580931,317.631639 79.2721729,317.846316 79.2422395,317.868782" id="Fill-64" fill="#182C45"></path>
                        <path d="M76.1116962,322.66406 C76.1657428,322.711489 75.7641353,323.26815 75.2145233,323.90802 C74.6649113,324.548722 74.1751663,325.029664 74.1202882,324.982236 C74.0662417,324.934807 74.4678492,324.378145 75.0182927,323.738276 C75.5679047,323.097574 76.0568182,322.616632 76.1116962,322.66406" id="Fill-65" fill="#182C45"></path>
                        <path d="M77.2391907,321.631449 C77.3106984,321.618135 77.3996674,321.783719 77.4720067,321.989243 C77.5435144,322.195599 77.5776053,322.378657 77.5144124,322.413604 C77.4528825,322.448551 77.3057095,322.303769 77.2267184,322.075779 C77.1468958,321.846957 77.1693459,321.643098 77.2391907,321.631449" id="Fill-66" fill="#182C45"></path>
                        <path d="M77.3539357,319.986426 C77.421286,320.012221 77.4129712,320.199439 77.3697339,320.414947 C77.3256652,320.629624 77.2591463,320.806025 77.1868071,320.801865 C77.1161308,320.799368 77.0670732,320.599669 77.1161308,320.362526 C77.1635255,320.125383 77.2874169,319.961464 77.3539357,319.986426" id="Fill-67" fill="#182C45"></path>
                        <path d="M78.3143016,318.653434 C78.3583703,318.710847 78.2502772,318.864782 78.0989468,319.022045 C77.9459534,319.177644 77.7971175,319.290807 77.7372506,319.250035 C77.6790466,319.210927 77.743071,319.014556 77.9118625,318.840652 C78.0806541,318.666747 78.2727273,318.595188 78.3143016,318.653434" id="Fill-68" fill="#182C45"></path>
                        <path d="M79.8325942,318.014396 C79.8400776,318.086787 79.6696231,318.163338 79.4584257,318.221584 C79.2472284,318.278165 79.0601441,318.298135 79.0310421,318.232401 C79.0019401,318.167499 79.1574279,318.033534 79.3902439,317.970296 C79.6238914,317.906226 79.8259424,317.943669 79.8325942,318.014396" id="Fill-69" fill="#182C45"></path>
                        <path d="M96.8181818,320.189454 L98.4553769,312.580912 L84.232816,309.421504 L81.7200665,320.52811 L82.588969,320.780231 C86.4653548,321.870256 102.375,326.04813 105.175443,325.835118 C108.298503,325.597143 96.8181818,320.189454 96.8181818,320.189454" id="Fill-70" fill="#4C78AE"></path>
                        <path d="M86.9018847,321.561554 C86.9625831,320.326747 86.5468404,319.075298 85.7594235,318.123398 C84.9728381,317.171499 83.8877494,316.520812 82.6646341,316.350236 L81.779102,320.327579 L86.9018847,321.561554" id="Fill-71" fill="#1D498D"></path>
                        <path d="M102.38082,323.042657 C102.38082,323.042657 106.345344,325.206897 105.661863,325.786857 C104.978381,326.367649 88.7419623,322.749764 81.7200665,320.52811 L81.8131929,320.215248 L100.716186,324.595318 C100.716186,324.595318 101.545177,322.892882 102.38082,323.042657" id="Fill-72" fill="#1D498D"></path>
                        <path d="M81.591993,320.15617 C81.5903548,320.161995 81.6726718,320.189454 81.8306541,320.236882 C82.0385255,320.296792 82.2663525,320.361694 82.5232816,320.435749 C83.2184035,320.622967 84.0740022,320.851789 85.0834257,321.123048 C87.2486142,321.68803 90.2511086,322.429414 93.5837029,323.174125 C96.9171286,323.919669 99.9495565,324.52792 102.148836,324.938967 C103.177384,325.123689 104.04878,325.279288 104.758038,325.407429 C105.021619,325.449865 105.255266,325.487308 105.468958,325.522256 C105.631929,325.547218 105.718404,325.557203 105.719241,325.551378 C105.720067,325.544722 105.636086,325.523088 105.47561,325.487308 C105.263581,325.443208 105.032428,325.394115 104.77051,325.34003 C104.064579,325.197744 103.197339,325.023008 102.172949,324.816652 C99.9803215,324.373985 96.953714,323.746596 93.6219512,323.001885 C90.29102,322.257173 87.286031,321.535759 85.1133592,321.002396 C84.0989468,320.752772 83.2400222,320.541424 82.5407428,320.369183 C82.2804878,320.307609 82.0501663,320.252692 81.8398004,320.202767 C81.6784922,320.166155 81.5936807,320.149514 81.591993,320.15617" id="Fill-73" fill="#182C45"></path>
                        <path d="M100.662971,324.81582 C100.713692,324.834125 100.892461,324.225875 101.420455,323.688351 C101.939302,323.142506 102.542129,322.945303 102.522173,322.894546 C102.521341,322.849614 101.851996,322.981915 101.294069,323.566035 C100.728659,324.142667 100.618071,324.816652 100.662971,324.81582" id="Fill-74" fill="#182C45"></path>
                        <path d="M96.9412417,321.750436 C96.9753326,321.784551 97.2305987,321.585684 97.5108093,321.304441 C97.79102,321.023198 97.989745,320.768581 97.9556541,320.733634 C97.9207317,320.699519 97.6662971,320.899218 97.3860865,321.179629 C97.1058758,321.460872 96.9063193,321.716321 96.9412417,321.750436" id="Fill-75" fill="#182C45"></path>
                        <path d="M95.9251663,320.885073 C95.9492794,320.927509 96.2070399,320.827659 96.5005543,320.662075 C96.7949002,320.495659 97.0135809,320.326747 96.9894678,320.285143 C96.9661863,320.242707 96.7075942,320.342556 96.4140798,320.507308 C96.1197339,320.673724 95.9010532,320.841805 95.9251663,320.885073" id="Fill-76" fill="#182C45"></path>
                        <path d="M95.4961197,319.37984 C95.4844789,319.426436 95.8070953,319.543759 96.2170177,319.639449 C96.6261086,319.735138 96.9670177,319.774246 96.9778271,319.727649 C96.9894678,319.679388 96.6668514,319.562897 96.256929,319.467208 C95.8478381,319.371519 95.506929,319.331579 95.4961197,319.37984" id="Fill-77" fill="#182C45"></path>
                        <path d="M95.4570399,318.377183 C95.4312639,318.415459 95.7572062,318.659258 96.231153,318.801544 C96.7050998,318.947158 97.1108647,318.924692 97.1117084,318.878095 C97.1141907,318.82817 96.7317073,318.770757 96.2827051,318.632632 C95.8320399,318.497835 95.482816,318.333083 95.4570399,318.377183" id="Fill-78" fill="#182C45"></path>
                        <path d="M97.6995565,320.616311 C97.6937361,320.635449 98.0354767,320.756932 98.6141907,320.814346 C98.9035477,320.842637 99.2519401,320.850957 99.635255,320.816842 C99.8273282,320.792712 100.02439,320.786887 100.243071,320.711168 C100.347007,320.670396 100.465909,320.60799 100.532428,320.477353 C100.601441,320.349213 100.56153,320.178637 100.475055,320.080451 C99.7026053,319.433093 98.7181264,319.730977 98.2940687,320.110406 C98.0637472,320.300952 97.9323725,320.507308 97.8600333,320.653754 C97.7885255,320.801865 97.7718958,320.891729 97.7810421,320.895058 C97.8109756,320.914195 97.9232262,320.548912 98.3713969,320.208591 C98.5917406,320.041343 98.9010532,319.89989 99.2652439,319.874095 C99.6086475,319.850797 100.073448,319.927348 100.33786,320.191118 C100.458426,320.330907 100.363636,320.489835 100.181541,320.549744 C100.009424,320.612982 99.8015521,320.628792 99.6186253,320.654586 C99.2469512,320.697023 98.9068736,320.702847 98.623337,320.690366 C98.0546009,320.665404 97.7053769,320.588852 97.6995565,320.616311" id="Fill-79" fill="#182C45"></path>
                        <path d="M97.9265521,320.714496 C97.9365299,320.72781 98.1236142,320.524782 98.1726718,320.103749 C98.1959534,319.896561 98.1751663,319.640281 98.0720621,319.37984 C97.9556541,319.141033 97.8101441,318.814857 97.4151885,318.74413 C97.1973392,318.72416 97.0401885,318.942165 97.039357,319.103589 C97.0202328,319.267509 97.0618071,319.420612 97.1042129,319.547088 C97.1890244,319.805033 97.3012749,320.024702 97.4118625,320.19611 C97.6363636,320.539759 97.8384146,320.697855 97.8525499,320.682877 C97.873337,320.664571 97.7070399,320.478185 97.5199557,320.132872 C97.4268293,319.959799 97.3312084,319.745955 97.2597007,319.497995 C97.1765521,319.277494 97.1682373,318.910546 97.4068736,318.920531 C97.6405211,318.949654 97.8226164,319.229233 97.9215632,319.443078 C98.0213415,319.672732 98.0537694,319.90405 98.047949,320.094596 C98.0354767,320.483178 97.8974501,320.701183 97.9265521,320.714496" id="Fill-80" fill="#182C45"></path>
                        <path d="M82.7485836,316.326937 C82.7444568,316.360221 83.164357,316.378526 83.7904656,316.598195 C84.4107539,316.811208 85.2389135,317.269684 85.8725055,318.054336 C86.5044346,318.83982 86.7779933,319.746787 86.8536585,320.399138 C86.9351441,321.057313 86.8652993,321.471689 86.8985588,321.475038 C86.9085366,321.476682 86.9368071,321.375168 86.9625831,321.188782 C86.9883592,321.000732 87.0041574,320.725313 86.9783814,320.386657 C86.9326497,319.712672 86.6690687,318.762436 86.0097007,317.942837 C85.3486696,317.124902 84.4764412,316.666426 83.828714,316.479208 C83.5036031,316.381855 83.2308758,316.338586 83.0421286,316.325273 C82.8533814,316.310296 82.7485836,316.31612 82.7485836,316.326937" id="Fill-81" fill="#182C45"></path>
                        <path d="M85.5399113,310.732862 C85.4925166,310.722045 85.1457871,312.018426 84.7666297,313.629333 C84.3866408,315.239409 84.1172395,316.554095 84.1646341,316.564912 C84.2120288,316.576561 84.5587583,315.28018 84.9379157,313.669273 C85.3179047,312.059198 85.587306,310.744511 85.5399113,310.732862" id="Fill-82" fill="#182C45"></path>
                        <path d="M88.9997228,320.572211 C88.9830931,320.615479 89.8761086,320.974937 91.0293792,321.241203 C92.1826497,321.511629 93.1413525,321.58402 93.1463765,321.537424 C93.1529933,321.486667 92.2117517,321.336892 91.070122,321.068962 C89.9268293,320.805193 89.0163525,320.52395 88.9997228,320.572211" id="Fill-83" fill="#182C45"></path>
                        <path d="M86.2134146,319.947318 C86.1710089,319.974777 86.2458426,320.161163 86.2932373,320.39581 C86.3439579,320.630456 86.3497783,320.830987 86.3996674,320.838476 C86.4462306,320.848461 86.5227273,320.630456 86.4661863,320.359198 C86.4104767,320.088772 86.251663,319.91986 86.2134146,319.947318" id="Fill-84" fill="#182C45"></path>
                        <path d="M85.4542683,318.405474 C85.412694,318.431268 85.4717295,318.60018 85.585643,318.781574 C85.6995565,318.963799 85.8251109,319.090276 85.8666851,319.064481 C85.9082594,319.038687 85.8492239,318.869774 85.7353104,318.688381 C85.6213969,318.506155 85.4958426,318.379679 85.4542683,318.405474" id="Fill-85" fill="#182C45"></path>
                        <path d="M84.08398,317.473544 C84.0831486,317.523469 84.2727273,317.563409 84.4648004,317.68406 C84.6601996,317.799719 84.7832594,317.948662 84.8273282,317.925363 C84.8722284,317.907058 84.7973947,317.678236 84.5570953,317.532622 C84.3176275,317.386175 84.0789911,317.425283 84.08398,317.473544" id="Fill-86" fill="#182C45"></path>
                        <path d="M83.077051,316.952662 C83.049612,316.993434 83.1152993,317.08413 83.2233925,317.156521 C83.3306541,317.228912 83.4404102,317.253875 83.4670177,317.213103 C83.4944568,317.172331 83.4287694,317.081634 83.3206763,317.009243 C83.2134146,316.937684 83.1036585,316.91189 83.077051,316.952662" id="Fill-87" fill="#182C45"></path>
                        <path d="M85.9556541,294.055479 C85.6197339,262.58787 85.1657428,212.27198 85.6255543,205.726005 C85.6255543,205.726005 97.9598115,249.641534 98.0762195,253.359268 C98.1477273,255.62003 91.3187361,277.36395 85.9556541,294.055479 Z M103.595621,191.402576 L86.7538803,185.442386 L63.5612528,189.651048 L64.2239468,319.723489 L86.2458426,319.433925 C86.2458426,319.433925 86.2267184,317.918707 86.195122,315.25605 L99.1031042,318.790727 C99.1031042,318.790727 111.686807,276.257283 115.977273,258.800241 C119.555155,244.238837 103.595621,191.402576 103.595621,191.402576 L103.595621,191.402576 Z" id="Fill-88" fill="#3E505A"></path>
                        <path d="M86.1676829,292.86394 C86.2874169,292.86394 86.3855322,298.69599 86.3871951,305.889323 C86.3896896,313.084321 86.2940687,318.915539 86.1743348,318.915539 C86.0546009,318.915539 85.9564856,313.084321 85.9539911,305.889323 C85.9523282,298.69599 86.047949,292.86394 86.1676829,292.86394" id="Fill-89" fill="#1D498D"></path>
                        <path d="M90.9445676,316.350257 C90.9370843,316.348571 90.9553769,316.246226 90.9994457,316.049855 C91.0501663,315.83185 91.1175166,315.543118 91.2031596,315.177835 C91.3977273,314.389023 91.6737805,313.268211 92.0271619,311.836201 C92.767184,308.914767 93.8281596,304.729404 95.1360865,299.56801 C97.8068182,289.197794 101.486142,274.91181 105.550443,259.132241 C106.37694,255.94787 107.186807,252.825073 107.962583,249.837073 L107.960089,249.932762 C105.261918,236.154346 102.558758,224.092511 100.422672,215.502115 C99.3550443,211.226055 98.4969512,207.789564 97.8999446,205.394837 C97.6089246,204.229093 97.381929,203.317965 97.2206208,202.673103 C97.1516075,202.378546 97.0967295,202.145564 97.0543237,201.965835 C97.0185698,201.806075 97.0044346,201.723699 97.010255,201.722009 C97.0169069,201.720371 97.0451774,201.799419 97.0925721,201.95585 C97.1441242,202.133083 97.2114745,202.362737 97.296286,202.653133 C97.4742239,203.293835 97.7261641,204.198306 98.0471175,205.356561 C98.6873614,207.713845 99.60449,211.142847 100.696231,215.433885 C102.906319,224.009303 105.662694,236.071138 108.379157,249.848722 L108.388304,249.896982 L108.376663,249.944411 C107.60255,252.932411 106.793514,256.056872 105.969512,259.241243 C101.857816,275.009163 98.1344235,289.283499 95.4320953,299.644561 C94.068459,304.790977 92.9625831,308.965524 92.190133,311.878637 C91.8034922,313.301494 91.5008315,314.415649 91.2871397,315.199469 C91.184867,315.561424 91.1033814,315.845995 91.0418514,316.060672 C90.9844789,316.254546 90.9512195,316.3519 90.9445676,316.350257" id="Fill-90" fill="#1D498D"></path>
                        <path d="M73.5232816,318.641784 C73.4035477,318.641784 73.3062639,292.466206 73.3062639,260.184822 C73.3062639,227.892622 73.4035477,201.722035 73.5232816,201.722035 C73.642184,201.722035 73.7394678,227.892622 73.7394678,260.184822 C73.7394678,292.466206 73.642184,318.641784 73.5232816,318.641784" id="Fill-91" fill="#1D498D"></path>
                        <path d="M79.6280488,120.629163 L92.9550998,121.289003 C93.0947894,119.74383 93.2070399,113.752852 93.2070399,113.752852 C93.2070399,113.752852 98.7505543,113.100501 99.0232816,107.588802 C99.2968404,102.077935 98.8129157,89.380391 98.8129157,89.380391 C92.536031,86.3998797 85.1391353,87.0513985 79.4800443,91.0836591 L78.6402439,91.6827569 L79.6280488,120.629163" id="Fill-92" fill="#EEB7A5"></path>
                        <path d="M96.0282705,98.8095238 C95.712306,98.5008221 95.7064856,97.9932531 96.0149667,97.6762306 C96.3242794,97.3600401 96.8314856,97.3542155 97.1474501,97.6637494 C97.4642461,97.9724511 97.469235,98.4800201 97.1607539,98.7962105 C96.8514412,99.1132331 96.344235,99.1190576 96.0282705,98.8095238" id="Fill-93" fill="#182C45"></path>
                        <path d="M98.5751109,97.6013434 C98.4844789,97.6928722 97.95898,97.2560301 97.2006652,97.224411 C96.4423503,97.1811429 95.8761086,97.5647318 95.796286,97.4640501 C95.7563747,97.4182857 95.8486696,97.2493734 96.0964523,97.0754687 C96.3392461,96.902396 96.75,96.7426366 97.2231153,96.7659348 C97.6953991,96.7892331 98.0895233,96.9889323 98.3140244,97.1853033 C98.5426829,97.3825063 98.6175166,97.5597393 98.5751109,97.6013434" id="Fill-94" fill="#182C45"></path>
                        <path d="M89.0055432,97.9366717 C89.3738914,98.1829674 89.4728381,98.6797193 89.2267184,99.0483308 C88.9814302,99.4161103 88.4842018,99.5151278 88.1166851,99.2696642 C87.7491685,99.0242005 87.6493902,98.5266165 87.89551,98.158005 C88.1407982,97.7902256 88.6380266,97.691208 89.0055432,97.9366717" id="Fill-95" fill="#182C45"></path>
                        <path d="M90.3068182,97.9624662 C90.2170177,98.053995 89.6906874,97.617985 88.9323725,97.5855338 C88.1740576,97.5430977 87.6086475,97.9258546 87.5279933,97.8251729 C87.4889135,97.7802406 87.5812084,97.6113283 87.8281596,97.4374236 C88.0709534,97.2643509 88.4825388,97.1037594 88.9556541,97.1278897 C89.4279379,97.151188 89.8212306,97.3508872 90.0457317,97.5472581 C90.2752217,97.7444612 90.3500554,97.9216942 90.3068182,97.9624662" id="Fill-96" fill="#182C45"></path>
                        <path d="M93.116408,104.341193 C93.1139135,104.281283 93.5870288,104.2039 94.3536585,104.126516 C94.5532151,104.112371 94.7103659,104.072431 94.7286585,103.966757 C94.7677384,103.847769 94.6995565,103.633093 94.6072616,103.392622 C94.4309867,102.883388 94.2513858,102.367499 94.0643016,101.827479 C93.316796,99.5975038 92.8037694,97.7602707 92.9168514,97.7228271 C93.0299335,97.6845514 93.7275499,99.4602105 94.4750554,101.690185 C94.6513304,102.233534 94.8192905,102.752752 94.9855876,103.266145 C95.049612,103.498296 95.1776608,103.77205 95.0629157,104.095729 C95.0022173,104.258817 94.8417406,104.371148 94.7095344,104.400271 C94.5756652,104.435218 94.4642461,104.43189 94.3686253,104.432722 C93.5978381,104.43189 93.1197339,104.401103 93.116408,104.341193" id="Fill-97" fill="#182C45"></path>
                        <path d="M90.6202882,105.088401 C89.8470067,104.587489 92.7538803,106.326536 94.3012749,106.309063 C94.3012749,106.309063 93.3625277,107.692812 91.7951774,107.05211 C90.1687916,106.386446 90.6202882,105.088401 90.6202882,105.088401" id="Fill-98" fill="#FFFFFE"></path>
                        <path d="M93.2195122,113.673805 C93.2195122,113.673805 89.7264412,113.827739 86.1119734,111.363118 C86.1119734,111.363118 87.6618625,115.394546 93.1787694,115.102486 L93.2195122,113.673805" id="Fill-99" fill="#E4826F"></path>
                        <path d="M79.6787694,97.7411328 C79.5573725,97.6995288 75.5828714,97.2801604 76.0709534,101.953955 C76.5590355,106.627749 81.114745,104.588321 81.1089302,104.453524 C81.1031042,104.318727 79.6787694,97.7411328 79.6787694,97.7411328" id="Fill-100" fill="#EEB7A5"></path>
                        <path d="M79.5066519,102.963268 C79.4842018,102.949955 79.4309867,103.029003 79.299612,103.106386 C79.1723947,103.181273 78.9462306,103.24784 78.693459,103.182105 C78.1812639,103.052301 77.6840355,102.312581 77.5734479,101.47218 C77.5169069,101.048652 77.5634701,100.634276 77.6790466,100.283138 C77.7863082,99.9261754 77.9817073,99.6640702 78.2253326,99.5941754 C78.4664634,99.5109674 78.6577051,99.641604 78.7292129,99.7672481 C78.8057095,99.8912281 78.7857539,99.9877494 78.8115299,99.9927419 C78.8256652,100.002727 78.9029933,99.9045414 78.8456208,99.7148271 C78.8165188,99.6241303 78.75,99.5192882 78.6310976,99.4410727 C78.5088692,99.3620251 78.3400776,99.3329023 78.1687916,99.3695138 C77.8112528,99.4319198 77.5218958,99.797203 77.3946785,100.183288 C77.2475055,100.57187 77.1851441,101.038667 77.248337,101.515449 C77.3763858,102.454035 77.9509424,103.284451 78.6460643,103.409263 C78.9836475,103.460852 79.2472284,103.332712 79.3777716,103.207068 C79.5099778,103.077263 79.5232816,102.969925 79.5066519,102.963268" id="Fill-101" fill="#E4826F"></path>
                        <path d="M98.0437916,89.7215439 C99.3949557,89.3529323 100.319568,87.9134336 100.234756,86.5155388 C100.150776,85.116812 99.1538248,83.8537143 97.8675166,83.3020451 C96.5795455,82.751208 95.0604213,82.8685313 93.7949002,83.4684612 C93.3583703,81.44401 91.3295455,79.8896842 89.2624723,79.9978546 C87.1962306,80.105193 85.3395233,81.8625464 85.1166851,83.9219449 C84.9578714,82.8627068 83.7422395,82.2977243 82.6721175,82.2594486 C81.60449,82.222005 80.4686807,82.56399 79.7960089,83.394406 C79.123337,84.2248221 79.0875831,85.5910977 79.8924612,86.2942055 C78.6992794,86.1885313 77.4495565,86.4672782 76.498337,87.1961805 C75.5471175,87.9250827 74.9368071,89.1291028 75.0557095,90.3223058 C75.1737805,91.5155088 76.0884146,92.6246717 77.2666297,92.8393484 C77.6723947,92.9142356 78.1588137,92.9233885 78.3849778,93.2687018 C78.5105322,93.4600802 78.5138581,93.7038797 78.5121951,93.9318697 C78.5055432,95.2540451 78.4997228,96.5753885 78.493071,97.8967318 C79.181541,97.5281203 80.077051,98.012391 80.4329268,98.70801 C80.7879712,99.4036291 80.7513858,100.226556 80.7064856,101.007048 C81.0573725,101.50796 81.9088137,101.336551 82.2663525,100.839799 C82.6230599,100.342216 82.6305432,99.683208 82.6230599,99.0716291 C82.5989468,96.9473283 82.5740022,94.8230276 82.5490576,92.6987268 C83.1809867,93.0298947 83.9825388,93.0107569 84.5978381,92.648802 C85.212306,92.2876792 85.6197339,91.5962206 85.6388581,90.8831278 C86.5551552,91.7226967 87.8580931,92.1229273 89.0878603,91.9423659 C90.318459,91.7609724 91.4509424,91.0029474 92.0878603,89.9353885 C92.7572062,90.4404612 93.4356984,90.9505263 94.210643,91.2733734 C94.9839246,91.5970526 95.8761086,91.7177043 96.6618625,91.4239799 C97.4476164,91.1310877 98.0820399,90.3597494 98.0487805,89.5210125 C97.9539911,89.4436291 97.8583703,89.3662456 97.7635809,89.2888622" id="Fill-102" fill="#182C45"></path>
                        <path d="M142.04684,140.135619 C141.326774,140.135619 140.742239,139.551499 140.742239,138.830085 C140.742239,138.109504 141.326774,137.525383 142.04684,137.525383 C142.766907,137.525383 143.351441,138.109504 143.351441,138.830085 C143.351441,139.551499 142.766907,140.135619 142.04684,140.135619 Z M142.04684,136.411228 C139.535754,136.411228 137.500277,138.44816 137.500277,140.961043 C137.500277,143.474757 139.535754,145.511689 142.04684,145.511689 C144.557927,145.511689 146.594235,143.474757 146.594235,140.961043 C146.594235,138.44816 144.557927,136.411228 142.04684,136.411228 L142.04684,136.411228 Z" id="Fill-103" fill="#EEAF67"></path>
                        <path d="M140.538525,145.177193 L140.538525,153.359038 C140.538525,153.359038 142.347838,154.193614 142.249723,154.302617 C142.152439,154.410787 143.554324,153.359038 143.554324,153.359038 L143.554324,152.380511 L142.732816,151.546767 L143.554324,150.784581 L142.696231,149.743649 L143.554324,148.826697 L142.623891,147.774947 L143.554324,146.832201 L143.554324,145.177193 L140.538525,145.177193" id="Fill-104" fill="#EEAF67"></path>
                        <path d="M141.868071,133.442366 C141.394956,133.420732 141.027439,133.018837 141.049058,132.544551 C141.070676,132.070266 141.472284,131.702486 141.946231,131.72412 C142.420177,131.745754 142.786863,132.147649 142.766075,132.621935 C142.744457,133.096221 142.342849,133.464 141.868071,133.442366 Z M147.110588,129.124702 L141.907151,124.47587 L136.704545,129.1921 L138.248614,129.435068 L138.382483,134.207048 L145.456763,134.326867 L145.25388,129.31608 L147.110588,129.124702 L147.110588,129.124702 Z" id="Fill-105" fill="#4C78AE"></path>
                        <path d="M142.564856,133.134496 C142.558204,133.163619 142.409368,133.174436 142.159922,133.168612 C141.91214,133.142817 141.546286,133.178596 141.138858,133.328371 C140.733925,133.480642 140.284091,133.768541 139.955654,134.23201 C139.62306,134.685494 139.425998,135.309554 139.496674,135.956912 C139.562361,136.603439 139.890798,137.173414 140.313193,137.544521 C140.735588,137.924782 141.234479,138.111168 141.662694,138.173574 C142.53908,138.287569 143.072062,137.985524 143.096175,138.057915 C143.130266,138.084541 142.628049,138.517223 141.632761,138.478947 C141.148004,138.450657 140.558481,138.270927 140.052938,137.847398 C139.546563,137.433855 139.143293,136.766526 139.065965,136.002677 C138.981984,135.242987 139.230599,134.504932 139.636364,133.991539 C140.037971,133.46816 140.576774,133.167779 141.044069,133.036311 C141.516353,132.90817 141.91796,132.922316 142.176552,133.000531 C142.437639,133.059609 142.573171,133.105373 142.564856,133.134496" id="Fill-106" fill="#182C45"></path>
                        <path d="M144.224501,136.966226 C144.117239,136.904652 144.373337,136.320531 144.329268,135.58414 C144.306818,134.831108 144.01663,134.292752 144.097284,134.219529 C144.187916,134.114687 144.735033,134.681333 144.761641,135.563338 C144.80571,136.45616 144.312639,137.042777 144.224501,136.966226" id="Fill-107" fill="#182C45"></path>
                        <path d="M128.909368,130.314576 C129.384146,129.089754 130.128326,126.985424 130.878326,125.907048 C131.628326,124.828672 132.635255,123.891749 133.863359,123.426617 C135.461475,122.820862 137.240854,123.062997 138.931264,123.314286 C140.296563,123.517313 141.661863,123.719509 143.027993,123.922536 C143.583426,124.004912 144.29102,124.257865 144.26857,124.819519 C144.256098,125.149855 143.955931,125.411128 143.635809,125.495168 C143.316519,125.58004 142.978936,125.529283 142.65133,125.489343 C141.746674,125.378677 140.83204,125.353714 139.923226,125.41196 C139.271341,125.455228 138.467295,125.67989 138.362528,126.324752 C138.269401,126.898055 138.87306,127.389815 139.452605,127.407288 C140.032151,127.42393 140.565965,127.116892 141.064024,126.81984 C141.597007,126.501153 142.13082,126.183298 142.663803,125.864612 C142.968958,125.682386 143.314856,125.493504 143.660754,125.573383 C144.25194,125.709845 144.393293,126.556902 144.079823,127.076952 C143.766353,127.597003 143.191796,127.886566 142.689579,128.226887 C140.629157,129.625614 139.672949,131.891368 138.724224,134.883529" id="Fill-108" fill="#EEB7A5"></path>
                        <path d="M65.1593681,170.177875 C65.1485588,170.306015 62.914357,166.170576 62.914357,166.170576 L66.1829268,155.392642 C66.1829268,155.392642 65.1710089,170.049734 65.1593681,170.177875 Z M128.946785,129.687188 L119.765521,153.281654 L110.252494,131.258987 C107.276608,120.596712 94.126663,119.896932 94.126663,119.896932 L81.1122506,118.223619 C76.4334812,116.317323 68.8478381,117.907429 65.881929,119.539138 C62.0995011,121.62017 58.7369734,128.025524 57.9911308,132.741754 C57.9911308,132.741754 44.8844235,166.649855 47.1211197,170.191188 C49.357816,173.732521 63.3866408,187.55587 63.3866408,187.55587 L61.4326497,194.696782 L83.7006652,196.102997 L85.9789357,187.323719 L86.2433481,196.732882 L107.180155,198.211489 C106.263027,189.927298 104.785477,181.610657 104.383038,179.239228 L102.709257,154.946647 L102.918792,149.91589 L103.124169,149.394175 C105.088137,152.682556 107.550998,156.906195 110.592572,162.282266 C116.707317,173.094316 122.884424,170.330977 126.512195,165.990015 C128.880266,163.15595 129.945399,159.307579 129.945399,159.307579 L138.947894,133.976561 L128.946785,129.687188 L128.946785,129.687188 Z" id="Fill-109" fill="#0099CC"></path>
                        <polyline id="Fill-110" fill="#FFFFFE" points="79.440133 118.513183 86.4628603 145.511689 93.7524945 120.155709 92.9426275 120.092471 93.1380266 116.758326 79.440133 115.117464 79.440133 118.513183"></polyline>
                        <path d="M79.068459,118.77109 C79.0809313,118.773624 79.0676275,118.898436 79.0310421,119.135579 C78.9836475,119.412662 78.9254435,119.756311 78.8531042,120.175679 C78.6726718,121.132571 78.4257206,122.436441 78.1213969,124.046516 C77.7929601,125.713173 77.4029933,127.691028 76.9648004,129.916842 C76.7536031,131.009363 76.4359756,132.265805 77.0529379,133.298416 C77.6640798,134.330195 78.9512195,134.83194 80.2109202,135.25214 L80.4528825,135.332852 L80.3256652,135.555018 C79.3179047,137.310707 79.3960643,139.668822 80.1410754,141.782306 C80.6000554,143.133604 81.2444568,144.393373 81.8564302,145.630677 C82.4675721,146.867148 83.0629157,148.068672 83.6366408,149.228591 C84.7749446,151.542607 85.8276053,153.682717 86.7621951,155.583188 L86.4354213,155.662236 C86.4221175,152.606837 86.4121397,150.084802 86.4038248,148.265875 C86.4113082,147.42381 86.4171286,146.745664 86.421286,146.227278 C86.4312639,145.759649 86.4453991,145.511689 86.4628603,145.511689 C86.4803215,145.511689 86.5011086,145.758817 86.5235588,146.226446 C86.5435144,146.743168 86.568459,147.421313 86.6000554,148.262546 C86.6441242,150.081474 86.7056541,152.603509 86.7804878,155.658075 L86.7987805,156.423589 L86.453714,155.737123 C85.501663,153.844972 84.4290466,151.714847 83.2699557,149.410817 C82.6912417,148.254226 82.0909091,147.055198 81.4739468,145.821223 C80.8603104,144.587248 80.2042683,143.314165 79.731153,141.920431 C78.9636918,139.740381 78.8639135,137.246637 79.9631375,135.346165 L80.0778825,135.649043 C79.4301552,135.430206 78.7874169,135.193063 78.1937361,134.861895 C77.6025499,134.535719 77.0521064,134.090556 76.7128603,133.498115 C76.3594789,132.910667 76.2813193,132.220872 76.3212306,131.605133 C76.3619734,130.981905 76.4958426,130.400281 76.6122506,129.844451 C77.0853659,127.626125 77.506929,125.654095 77.8611419,123.993263 C78.2153548,122.393173 78.5022173,121.097624 78.7134146,120.146556 C78.8123614,119.733013 78.893847,119.394356 78.9595344,119.120602 C79.0194013,118.888451 79.0559867,118.768632 79.068459,118.77109" id="Fill-111" fill="#182C45"></path>
                        <path d="M95.02051,120.322096 C95.0471175,120.317965 95.1485588,120.762296 95.3023836,121.581063 C95.4562084,122.39983 95.6624169,123.590536 95.8894124,125.080792 C96.1080931,126.57188 96.3783259,128.35586 96.5329823,130.383639 C96.5695676,130.890376 96.6028271,131.411258 96.5837029,131.958767 C96.5878603,132.511268 96.4099224,133.11619 96.0698448,133.59214 C95.392184,134.557353 94.3985588,135.240491 93.3076497,135.788 L93.3467295,135.421053 C93.7400222,135.740571 94.036031,136.113343 94.3012749,136.533544 C94.3661308,136.638386 94.4276608,136.744892 94.4866962,136.854727 C94.5149667,136.926286 94.5449002,137.074396 94.5357539,137.139298 L94.5124723,137.34399 C94.4675721,137.598607 94.4027162,137.836581 94.3337029,138.073724 C93.4955654,140.681464 92.4670177,143.046236 91.5656874,145.219629 C90.6485588,147.38387 89.7954545,149.32012 89.0687361,150.941845 C88.3420177,152.562737 87.7391907,153.868271 87.3126386,154.765253 C87.113082,155.173805 86.9476164,155.513293 86.8104213,155.794536 C86.6915188,156.027519 86.6216741,156.146506 86.6075388,156.140886 C86.594235,156.134025 86.6374723,156.003388 86.7305987,155.758757 C86.8478381,155.469193 86.9883592,155.118887 87.1588137,154.697023 C87.5703991,153.717664 88.1200111,152.408802 88.7885255,150.819529 C89.482816,149.161193 90.2968404,147.215789 91.1981707,145.065694 C92.0762195,142.893133 93.0972838,140.506727 93.9179601,137.950576 C93.9853104,137.722586 94.0468404,137.492932 94.0850887,137.275759 L94.1033814,137.124321 C94.1025499,137.071068 94.1033814,137.097694 94.1050443,137.056922 C94.0501663,136.956241 93.9944568,136.858055 93.9345898,136.761534 C93.6992794,136.381273 93.402439,136.019318 93.0914634,135.765534 L92.8262195,135.548361 L93.1305432,135.397754 C94.1532705,134.891018 95.1261086,134.219529 95.7305987,133.360822 C96.3783259,132.5121 96.1696231,131.402937 96.1538248,130.407769 C96.0257761,128.401624 95.7879712,126.61182 95.6075388,125.1199 C95.4196231,123.678737 95.2657982,122.496351 95.1493902,121.605193 C95.0437916,120.779769 94.993071,120.327118 95.02051,120.322096" id="Fill-112" fill="#182C45"></path>
                        <path d="M85.9814302,188.353004 C85.8616962,188.349674 85.9781042,180.719499 86.2408537,171.312 C86.5036031,161.902837 86.8129157,154.279318 86.9326497,154.282646 C87.0515521,154.285975 86.9359756,161.914486 86.6732262,171.324481 C86.4104767,180.73198 86.1011641,188.356331 85.9814302,188.353004" id="Fill-113" fill="#182C45"></path>
                        <path d="M89.3730599,161.101544 C89.3198448,161.071589 89.5934035,160.798667 90.0457317,161.002526 C90.2469512,161.09988 90.491408,161.309564 90.5254989,161.670687 C90.5654102,162.040962 90.2477827,162.394596 89.8902439,162.47614 C89.5385255,162.581815 89.0886918,162.431208 88.9398559,162.091719 C88.7901885,161.763048 88.8949557,161.459338 89.018847,161.273784 C89.3057095,160.870226 89.6773836,160.962586 89.6482816,161.015008 C89.654102,161.079078 89.4088137,161.122346 89.2857539,161.425223 C89.2258869,161.567509 89.2067627,161.768872 89.2932373,161.906165 C89.3697339,162.045123 89.565133,162.110857 89.7796563,162.056772 C89.9925166,161.997694 90.1288803,161.843759 90.1263858,161.685664 C90.1330377,161.525073 90.0157982,161.360321 89.8927384,161.26796 C89.6333149,161.069093 89.4004989,161.158957 89.3730599,161.101544" id="Fill-114" fill="#182C45"></path>
                        <path d="M89.4578714,169.752682 C89.4054878,169.721895 89.6782151,169.449805 90.1313747,169.653664 C90.3317627,169.751018 90.5762195,169.960702 90.6103104,170.321825 C90.6510532,170.6921 90.3325942,171.045734 89.9758869,171.127278 C89.6241685,171.233784 89.1735033,171.083178 89.0254989,170.742857 C88.8758315,170.414185 88.9805987,170.110476 89.10449,169.924922 C89.3913525,169.521363 89.7621951,169.612892 89.7339246,169.666977 C89.739745,169.730216 89.4944568,169.773484 89.3705654,170.076361 C89.3106984,170.218647 89.2924058,170.42001 89.3788803,170.557303 C89.4553769,170.696261 89.6507761,170.761995 89.8644678,170.708742 C90.0773282,170.649664 90.2145233,170.494897 90.2120288,170.337634 C90.2186807,170.176211 90.1014412,170.011459 89.9783814,169.91993 C89.7189579,169.720231 89.4861419,169.810095 89.4578714,169.752682" id="Fill-115" fill="#182C45"></path>
                        <path d="M89.0853659,179.536281 C89.0329823,179.505494 89.306541,179.233404 89.7588692,179.437263 C89.9592572,179.534617 90.2045455,179.744301 90.2386364,180.105424 C90.2785477,180.474867 89.9600887,180.828501 89.6033814,180.910877 C89.251663,181.017383 88.8018293,180.865945 88.6521619,180.526456 C88.5033259,180.197784 88.6080931,179.894075 88.7319845,179.708521 C89.018847,179.304962 89.3896896,179.396491 89.3614191,179.449744 C89.3672395,179.513815 89.1211197,179.557083 88.9980599,179.85996 C88.9390244,180.002246 88.9199002,180.203609 89.0063747,180.340902 C89.0828714,180.47986 89.277439,180.545594 89.4919623,180.491509 C89.7048226,180.432431 89.8420177,180.278496 89.8395233,180.120401 C89.8461752,179.95981 89.7281042,179.795058 89.6050443,179.702697 C89.3464523,179.50383 89.1136364,179.593694 89.0853659,179.536281" id="Fill-116" fill="#182C45"></path>
                        <polyline id="Fill-117" fill="#4C78AE" points="93.7524945 146.469414 99.8722284 146.469414 99.8722284 145.511689 93.4257206 145.511689 93.7524945 146.469414"></polyline>
                        <path d="M137.201774,138.723579 C137.150222,138.831749 134.945122,137.88401 132.278548,136.606767 C129.61031,135.329524 127.490022,134.207048 127.541574,134.098877 C127.593126,133.990707 129.797395,134.938446 132.4648,136.215689 C135.132206,137.492932 137.253326,138.616241 137.201774,138.723579" id="Fill-118" fill="#182C45"></path>
                        <path d="M128.909368,132.273293 C128.866131,132.247499 128.958426,132.003699 129.321785,131.867238 C129.497228,131.804832 129.748337,131.774045 130.005266,131.897193 C130.269678,132.010356 130.468404,132.346516 130.440133,132.663539 C130.43847,132.979729 130.207317,133.320882 129.871397,133.367479 C129.523004,133.401594 129.31929,133.176932 129.230322,133.006356 C129.133038,132.825794 129.148836,132.630256 129.213692,132.53207 C129.279379,132.431388 129.348392,132.420571 129.365022,132.438045 C129.406596,132.482145 129.310144,132.652722 129.487251,132.840772 C129.661031,133.062105 129.981984,133.030486 130.007761,132.643569 C130.036031,132.269133 129.670177,132.127679 129.394124,132.165123 C129.117239,132.191749 128.955931,132.319058 128.909368,132.273293" id="Fill-119" fill="#182C45"></path>
                        <path d="M119.325665,158.231699 C119.206763,158.217554 119.253326,157.013534 119.430432,155.543248 C119.606707,154.072962 119.846175,152.893073 119.965078,152.907218 C120.08398,152.921363 120.036585,154.125383 119.86031,155.595669 C119.683204,157.065123 119.443736,158.245845 119.325665,158.231699" id="Fill-120" fill="#182C45"></path>
                        <path d="M121.449279,157.974586 C121.336197,158.012862 120.882206,156.962777 120.43653,155.629784 C119.990022,154.29596 119.720621,153.184301 119.833703,153.146025 C119.947616,153.108581 120.400776,154.158667 120.847284,155.491659 C121.29296,156.824652 121.562361,157.937143 121.449279,157.974586" id="Fill-121" fill="#182C45"></path>
                        <path d="M88.1665743,117.911589 C87.8988359,119.077333 87.3226164,120.1399 86.6075388,121.156702 L87.8306541,124.47587 L88.8741685,124.47587 L89.7472284,121.284842 C89.7472284,121.284842 89.1360865,120.791419 88.6845898,117.803419 L88.1665743,117.911589" id="Fill-122" fill="#4C78AE"></path>
                        <path d="M92.9060421,120.016752 C92.9243348,120.031729 92.8070953,120.239749 92.539357,120.591719 C92.2682927,120.917895 91.8409091,121.497023 90.9894678,121.696722 C90.5837029,121.781594 90.0490576,121.758296 89.6291574,121.398837 C89.2134146,121.034386 89.0679047,120.483549 88.9199002,119.977644 C88.6255543,118.935048 88.4135255,117.74018 88.3677938,116.455449 L88.7835366,116.507038 C88.5898004,117.190175 88.4093681,117.909093 88.1649113,118.638827 C87.9004989,119.375218 87.6419069,120.070837 87.2411308,120.727348 C87.0357539,121.046867 86.7721729,121.349744 86.4296009,121.543619 C86.0886918,121.745815 85.6945676,121.807388 85.3386918,121.789915 C84.6177938,121.743318 84.0216186,121.48787 83.4695122,121.253223 C82.9207317,121.006927 82.4351441,120.729013 82.008592,120.45609 C81.1563193,119.907749 80.5202328,119.396852 80.0812084,119.047378 C79.643847,118.693744 79.4101996,118.488221 79.4276608,118.46409 C79.4733925,118.39586 80.4720067,119.155549 82.1690687,120.194817 C82.5972838,120.446105 83.0778825,120.700722 83.6116962,120.923719 C84.1446785,121.1359 84.7425166,121.365554 85.3536585,121.391348 C85.9756098,121.434617 86.5327051,121.091799 86.883592,120.499358 C87.2344789,119.919398 87.5047118,119.202145 87.7549889,118.49987 C87.9919623,117.794266 88.1740576,117.077845 88.3752772,116.389714 C88.4077051,116.277383 88.5241131,116.211649 88.6371951,116.243268 C88.7278271,116.269063 88.7885255,116.352271 88.7918514,116.441303 C88.8259424,117.691088 89.0146896,118.856832 89.2782705,119.880291 C89.4104767,120.393684 89.5418514,120.875459 89.8470067,121.154206 C90.1471729,121.433784 90.5803769,121.483709 90.9387472,121.425464 C91.6762749,121.296491 92.1294346,120.788922 92.4271064,120.494366 C92.7231153,120.179008 92.883592,119.999278 92.9060421,120.016752" id="Fill-123" fill="#4C78AE"></path>
                        <path d="M87.8306541,124.47587 C87.6518847,124.907719 84.3849778,137.522055 84.3849778,137.522055 L86.4628603,145.511689 L90.2918514,132.190917 C90.2918514,132.190917 88.9922395,124.042356 88.933204,124.258697 C88.8741685,124.47587 87.8306541,124.47587 87.8306541,124.47587" id="Fill-124" fill="#4C78AE"></path>
                        <path d="M75.8556712,183.556892 C75.8705654,183.665895 73.5681818,183.983749 70.7286585,183.720812 C67.8874723,183.470356 65.679878,182.744782 65.713969,182.640772 C65.7463969,182.514296 67.9714523,183.042667 70.7677384,183.288962 C73.5615299,183.548571 75.8464523,183.42792 75.8556712,183.556892" id="Fill-125" fill="#182C45"></path>
                        <path d="M104.733114,185.277634 C104.726441,185.396622 103.142461,185.406607 101.195122,185.299268 C99.2477827,185.191098 97.674612,185.007208 97.6812428,184.888221 C97.6879157,184.768401 99.2710643,184.759248 101.219235,184.866586 C103.166574,184.973925 104.739745,185.157815 104.733114,185.277634" id="Fill-126" fill="#182C45"></path>
                        <path d="M66.3276053,143.430657 C66.3417406,143.430657 66.3583703,143.588752 66.373337,143.889965 C66.3866408,144.241103 66.4032705,144.677113 66.4223947,145.210476 C66.4581486,146.357083 66.4797672,148.017083 66.4822616,150.06816 C66.489745,154.170316 66.3816519,159.838446 66.0440687,166.089865 C65.7023282,172.342947 65.1967849,177.990276 64.7452882,182.066637 C64.5199557,184.105233 64.3187361,185.753584 64.1599224,186.889373 C64.0825942,187.417744 64.0194013,187.849594 63.9686807,188.195739 C63.9196231,188.494456 63.8871951,188.650055 63.8722284,188.648404 C63.8580931,188.646727 63.8614191,188.487799 63.8822062,188.186586 C63.9113082,187.837113 63.9478936,187.401935 63.9919623,186.870236 C64.1042129,185.66788 64.2555432,184.03201 64.440133,182.036682 C64.8134701,177.955328 65.2707871,172.311328 65.6108647,166.066566 C65.9484479,159.823469 66.1047672,154.163659 66.1762749,150.065664 C66.2087029,148.062847 66.2344789,146.418657 66.2536031,145.211308 C66.2669069,144.677945 66.2777162,144.241935 66.2868625,143.890797 C66.2985033,143.589584 66.3126386,143.430657 66.3276053,143.430657" id="Fill-127" fill="#182C45"></path>
                        <path d="M62.914357,166.583288 C62.799612,166.550005 63.5778825,163.455499 64.6538248,159.67203 C65.7289357,155.886897 66.6942905,152.847308 66.8090355,152.879759 C66.924612,152.912211 66.14551,156.005885 65.0703991,159.791018 C63.9944568,163.574486 63.0299335,166.615739 62.914357,166.583288" id="Fill-128" fill="#182C45"></path>
                        <path d="M65.4894678,170.970847 C65.3847007,171.029925 64.1441242,168.995489 62.7181264,166.428521 C61.2912971,163.860722 60.2203437,161.733093 60.3251109,161.674847 C60.4290466,161.616602 61.6696231,163.650206 63.0964523,166.218005 C64.5224501,168.784972 65.5934035,170.913434 65.4894678,170.970847" id="Fill-129" fill="#182C45"></path>
                        <polyline id="Fill-130" fill="#0099CC" points="157.598115 192.967719 157.598115 318.04019 168.324279 318.04019 168.324279 201.368401 249.936253 201.368401 249.936253 192.967719 157.598115 192.967719"></polyline>
                        <polygon id="Fill-131" fill="#1D498D" points="164.856984 318.04019 168.324279 318.04019 168.324279 201.368401 164.856984 201.368401"></polygon>
                        <polygon id="Fill-132" fill="#1D498D" points="243.409091 201.368401 249.936253 201.368401 249.936253 192.967719 243.409091 192.967719"></polygon>
                        <polygon id="Fill-133" fill="#0099CC" points="173.116962 257.181845 251.861142 257.181845 251.861142 207.492511 173.116962 207.492511"></polygon>
                        <polygon id="Fill-134" fill="#36629F" points="247.513304 257.181845 251.861142 257.181845 251.861142 207.492511 247.513304 207.492511"></polygon>
                        <path d="M243.409091,252.896632 C243.409091,252.896632 243.396619,252.635358 243.390798,252.142767 C243.385809,251.638526 243.379157,250.913784 243.371674,249.97187 C243.361696,248.059749 243.346729,245.273113 243.328437,241.702657 C243.30765,234.556752 243.276053,224.286386 243.238636,211.726135 L243.409091,211.89588 C225.540466,211.909193 202.646341,211.92417 177.763304,211.942476 L177.759146,211.942476 L177.975333,211.726135 C177.969512,226.324982 177.964523,240.237363 177.958703,252.896632 L177.759146,252.696932 C197.007206,252.736872 213.392461,252.770987 224.980876,252.794286 C230.775499,252.818416 235.370288,252.83589 238.530765,252.849203 C240.10061,252.859188 241.310421,252.867509 242.146896,252.873333 C242.549335,252.878326 242.858647,252.882486 243.083149,252.884982 C243.295177,252.889143 243.409091,252.896632 243.409091,252.896632 C243.409091,252.896632 243.310976,252.904952 243.10643,252.909113 C242.888581,252.911609 242.58592,252.915769 242.193459,252.920762 C241.366962,252.925754 240.168792,252.934075 238.618071,252.944892 C235.466741,252.958206 230.887749,252.975679 225.113082,252.998977 C213.491408,253.023108 197.060421,253.057223 177.759146,253.097163 L177.558758,253.097995 L177.558758,252.896632 C177.553769,240.237363 177.54878,226.324982 177.54296,211.726135 L177.542129,211.508962 L177.763304,211.508962 C202.646341,211.526436 225.540466,211.542246 243.409091,211.555559 L243.579545,211.555559 L243.579545,211.726135 C243.541297,224.329654 243.511364,234.636632 243.488914,241.808331 C243.470621,245.362145 243.455654,248.136301 243.446508,250.039268 C243.438193,250.96787 243.431541,251.680962 243.427384,252.178546 C243.420732,252.659489 243.409091,252.896632 243.409091,252.896632" id="Fill-135" fill="#182C45"></path>
                        <polygon id="Fill-136" fill="#4C78AE" points="185.990022 207.492511 188.330654 207.492511 188.330654 201.368401 185.990022 201.368401"></polygon>
                        <polygon id="Fill-137" fill="#4C78AE" points="224.442073 207.492511 226.782705 207.492511 226.782705 201.368401 224.442073 201.368401"></polygon>
                        <path d="M241.859202,215.130175 C241.824279,215.131008 241.810144,214.975409 241.72367,214.726617 C241.638858,214.481985 241.454268,214.133343 241.082594,213.873734 C240.722561,213.612461 240.149667,213.477664 239.605044,213.689013 C239.06541,213.884551 238.605599,214.460351 238.611419,215.129343 C238.605599,215.798336 239.06541,216.374967 239.605044,216.569674 C240.149667,216.781855 240.722561,216.647058 241.082594,216.384952 C241.454268,216.126175 241.638858,215.776702 241.72367,215.53207 C241.810144,215.283278 241.824279,215.129343 241.859202,215.130175 C241.884146,215.128511 241.928215,215.284942 241.887472,215.573674 C241.845898,215.854917 241.685421,216.283439 241.268016,216.628752 C240.865576,216.974065 240.165466,217.188742 239.468681,216.944942 C238.778548,216.725273 238.1699,215.992211 238.179047,215.129343 C238.170732,214.267308 238.778548,213.535078 239.468681,213.313744 C240.165466,213.069945 240.865576,213.284622 241.268016,213.629935 C241.685421,213.975248 241.845898,214.404602 241.887472,214.685013 C241.928215,214.973744 241.884146,215.131008 241.859202,215.130175" id="Fill-145" fill="#182C45"></path>
                        <path d="M241.070122,214.090907 C241.157428,214.172451 240.848115,214.644241 240.379157,215.143489 C239.9102,215.643569 239.459534,215.981393 239.372228,215.89985 C239.284922,215.818306 239.594235,215.346516 240.063193,214.847268 C240.532151,214.347188 240.982816,214.009363 241.070122,214.090907" id="Fill-146" fill="#182C45"></path>
                        <path d="M241.258038,215.780862 C241.213969,215.889033 240.616962,215.736762 240.0449,215.264972 C239.469512,214.794847 239.204268,214.239018 239.300721,214.175779 C239.40133,214.105053 239.795455,214.504451 240.31929,214.929644 C240.838969,215.35983 241.307095,215.668531 241.258038,215.780862" id="Fill-147" fill="#182C45"></path>
                        <path d="M241.224778,250.210677 C241.189856,250.210677 241.174889,250.05591 241.089246,249.807118 C241.003603,249.562486 240.819013,249.214677 240.447339,248.954236 C240.087306,248.693794 239.514412,248.558165 238.970621,248.769514 C238.430155,248.965885 237.971175,249.540852 237.976164,250.209845 C237.971175,250.878837 238.430155,251.455469 238.970621,251.650175 C239.514412,251.862356 240.087306,251.727559 240.447339,251.466286 C240.819013,251.206677 241.003603,250.857203 241.089246,250.612571 C241.174889,250.363779 241.189856,250.209845 241.224778,250.210677 C241.248891,250.209013 241.294623,250.365444 241.252217,250.654175 C241.210643,250.935419 241.050998,251.36394 240.633592,251.710085 C240.230322,252.055398 239.531042,252.269243 238.834257,252.025444 C238.144956,251.805774 237.534645,251.072712 237.543792,250.209845 C237.535477,249.34781 238.144956,248.615579 238.834257,248.394246 C239.531042,248.150446 240.230322,248.365123 240.633592,248.710436 C241.050998,249.055749 241.210643,249.485103 241.252217,249.767178 C241.294623,250.054246 241.248891,250.211509 241.224778,250.210677" id="Fill-148" fill="#182C45"></path>
                        <path d="M240.434867,249.171409 C240.522173,249.252952 240.21286,249.724742 239.743902,250.22399 C239.274945,250.72407 238.824279,251.061895 238.736973,250.980351 C238.650499,250.898807 238.959812,250.42785 239.427938,249.927769 C239.896896,249.427689 240.348392,249.089865 240.434867,249.171409" id="Fill-149" fill="#182C45"></path>
                        <path d="M240.622783,250.861363 C240.579545,250.969534 239.982539,250.817263 239.409645,250.345474 C238.835089,249.875348 238.569013,249.319519 238.666297,249.256281 C238.767738,249.185554 239.1602,249.584952 239.684035,250.010977 C240.203714,250.440331 240.672672,250.749033 240.622783,250.861363" id="Fill-150" fill="#182C45"></path>
                        <path d="M182.990022,249.367779 C182.955931,249.367779 182.940965,249.213845 182.85449,248.965053 C182.769678,248.720421 182.58592,248.370947 182.213415,248.111338 C181.853381,247.850065 181.280488,247.7161 180.736696,247.927449 C180.196231,248.122155 179.736419,248.697955 179.742239,249.366947 C179.736419,250.036772 180.196231,250.612571 180.736696,250.80811 C181.280488,251.018627 181.853381,250.88383 182.213415,250.623388 C182.58592,250.362947 182.769678,250.014306 182.85449,249.769674 C182.940965,249.521714 182.955931,249.366947 182.990022,249.367779 C183.014967,249.366115 183.059867,249.523378 183.018293,249.811278 C182.976718,250.092521 182.817073,250.521875 182.399667,250.867188 C181.996397,251.212501 181.296286,251.427178 180.599501,251.183378 C179.9102,250.962045 179.300721,250.228982 179.309867,249.366947 C179.301552,248.504912 179.9102,247.772682 180.599501,247.551348 C181.296286,247.307549 181.996397,247.522226 182.399667,247.867539 C182.817073,248.212852 182.976718,248.642206 183.018293,248.923449 C183.059867,249.21218 183.014967,249.368612 182.990022,249.367779" id="Fill-151" fill="#182C45"></path>
                        <path d="M182.200942,248.328511 C182.288248,248.410887 181.978936,248.881845 181.509978,249.381925 C181.04102,249.881173 180.590355,250.21983 180.503049,250.137454 C180.416574,250.05591 180.725887,249.584952 181.194013,249.084872 C181.663803,248.585624 182.114468,248.246967 182.200942,248.328511" id="Fill-152" fill="#182C45"></path>
                        <path d="M182.388858,250.018466 C182.345621,250.126637 181.748614,249.975198 181.175721,249.502576 C180.600333,249.033283 180.335089,248.477454 180.432373,248.414216 C180.532982,248.343489 180.927106,248.742055 181.450111,249.16808 C181.969789,249.597434 182.437916,249.906967 182.388858,250.018466" id="Fill-153" fill="#182C45"></path>
                        <path d="M183.298503,215.817474 C183.263581,215.818306 183.248614,215.663539 183.16214,215.414747 C183.076497,215.170115 182.892738,214.821474 182.521064,214.561865 C182.161031,214.300591 181.588137,214.164962 181.044346,214.377143 C180.50388,214.572682 180.0449,215.148481 180.049889,215.817474 C180.0449,216.486466 180.50388,217.063098 181.044346,217.257805 C181.588137,217.469153 182.161031,217.334356 182.521064,217.073915 C182.892738,216.813474 183.076497,216.464832 183.16214,216.220201 C183.248614,215.971409 183.263581,215.817474 183.298503,215.817474 C183.321785,215.816642 183.367517,215.973073 183.325942,216.261805 C183.283537,216.543048 183.124723,216.971569 182.707317,217.317714 C182.304047,217.663028 181.604767,217.876872 180.907982,217.633073 C180.217849,217.412571 179.60837,216.679509 179.617517,215.817474 C179.60837,214.955439 180.217849,214.223208 180.907982,214.001875 C181.604767,213.758075 182.304047,213.972752 182.706486,214.318065 C183.124723,214.663378 183.283537,215.092732 183.325942,215.373975 C183.367517,215.661875 183.321785,215.819138 183.298503,215.817474" id="Fill-154" fill="#182C45"></path>
                        <path d="M182.508592,214.779038 C182.595898,214.860581 182.286585,215.332371 181.816796,215.831619 C181.34867,216.331699 180.898004,216.669524 180.809867,216.58798 C180.723392,216.506436 181.032705,216.035479 181.501663,215.535398 C181.970621,215.035318 182.421286,214.697494 182.508592,214.779038" id="Fill-155" fill="#182C45"></path>
                        <path d="M182.695676,216.468992 C182.652439,216.577163 182.055432,216.424892 181.48337,215.953103 C180.907982,215.482977 180.642738,214.927148 180.739191,214.86391 C180.840632,214.793183 181.233925,215.192581 181.757761,215.617774 C182.277439,216.04796 182.746397,216.356662 182.695676,216.468992" id="Fill-156" fill="#182C45"></path>
                    </g>
                </g>
            </g>
        </g>
    </g>
</svg>
