<?xml version="1.0" encoding="UTF-8"?>
<svg width="244px" height="30px" viewBox="0 0 244 30" version="1.1" xmlns="http://www.w3.org/2000/svg" xmlns:xlink="http://www.w3.org/1999/xlink">
    <!-- Generator: Sketch 57.1 (83088) - https://sketch.com -->
    <title>Challenge</title>
    <desc>Created with Sketch.</desc>
    <g id="Page-1" stroke="none" stroke-width="1" fill="none" fill-rule="evenodd">
        <g id="Artboard-Copy-4" transform="translate(-212.000000, -185.000000)" fill="#FFFFFF" fill-rule="nonzero">
            <g id="Group-3" transform="translate(155.000000, 107.000000)">
                <g id="Group-6" transform="translate(55.000000, 75.000000)">
                    <g id="Group-4">
                        <path d="M28.3818359,29.9003906 L28.3818359,27.0292969 L31.2675781,27.0292969 L31.2675781,29.9003906 L28.3818359,29.9003906 Z M28.3818359,27.0292969 L28.3818359,24.0849609 L31.2675781,24.0849609 L31.2675781,27.0292969 L28.3818359,27.0292969 Z M28.3818359,24.0849609 L28.3818359,21.1552734 L31.2675781,21.1552734 L31.2675781,24.0849609 L28.3818359,24.0849609 Z M28.3818359,18.2109375 L28.3818359,15.28125 L31.2675781,15.28125 L31.2675781,18.2109375 L28.3818359,18.2109375 Z M28.3818359,15.28125 L28.3818359,12.3369141 L31.2675781,12.3369141 L31.2675781,15.28125 L28.3818359,15.28125 Z M28.3818359,12.3369141 L28.3818359,9.39257812 L31.2675781,9.39257812 L31.2675781,12.3369141 L28.3818359,12.3369141 Z M28.3818359,29.9003906 L28.3818359,32.8007812 L25.4521484,32.8007812 L25.4521484,29.9003906 L28.3818359,29.9003906 Z M25.4521484,29.9003906 L25.4521484,27.0292969 L28.3818359,27.0292969 L28.3818359,29.9003906 L25.4521484,29.9003906 Z M25.4521484,27.0292969 L25.4521484,24.0849609 L28.3818359,24.0849609 L28.3818359,27.0292969 L25.4521484,27.0292969 Z M25.4521484,24.0849609 L25.4521484,21.1552734 L28.3818359,21.1552734 L28.3818359,24.0849609 L25.4521484,24.0849609 Z M25.4521484,21.1552734 L25.4521484,18.2109375 L28.3818359,18.2109375 L28.3818359,21.1552734 L25.4521484,21.1552734 Z M25.4521484,18.2109375 L25.4521484,15.28125 L28.3818359,15.28125 L28.3818359,18.2109375 L25.4521484,18.2109375 Z M25.4521484,15.28125 L25.4521484,12.3369141 L28.3818359,12.3369141 L28.3818359,15.28125 L25.4521484,15.28125 Z M25.4521484,12.3369141 L25.4521484,9.39257812 L28.3818359,9.39257812 L28.3818359,12.3369141 L25.4521484,12.3369141 Z M25.4521484,9.39257812 L25.4521484,6.52148438 L28.3818359,6.52148438 L28.3818359,9.39257812 L25.4521484,9.39257812 Z M22.5078125,6.52148438 L22.5078125,3.57714844 L25.4521484,3.57714844 L25.4521484,6.52148438 L22.5078125,6.52148438 Z M25.4521484,29.9003906 L25.4521484,32.8007812 L22.5078125,32.8007812 L22.5078125,29.9003906 L25.4521484,29.9003906 Z M22.5078125,29.9003906 L22.5078125,27.0292969 L25.4521484,27.0292969 L25.4521484,29.9003906 L22.5078125,29.9003906 Z M22.5078125,27.0292969 L22.5078125,24.0849609 L25.4521484,24.0849609 L25.4521484,27.0292969 L22.5078125,27.0292969 Z M22.5078125,21.1552734 L22.5078125,18.2109375 L25.4521484,18.2109375 L25.4521484,21.1552734 L22.5078125,21.1552734 Z M22.5078125,18.2109375 L22.5078125,15.28125 L25.4521484,15.28125 L25.4521484,18.2109375 L22.5078125,18.2109375 Z M22.5078125,15.28125 L22.5078125,12.3369141 L25.4521484,12.3369141 L25.4521484,15.28125 L22.5078125,15.28125 Z M22.5078125,9.39257812 L22.5078125,6.52148438 L25.4521484,6.52148438 L25.4521484,9.39257812 L22.5078125,9.39257812 Z M19.578125,6.52148438 L19.578125,3.57714844 L22.5078125,3.57714844 L22.5078125,6.52148438 L19.578125,6.52148438 Z M22.5078125,29.9003906 L22.5078125,32.8007812 L19.578125,32.8007812 L19.578125,29.9003906 L22.5078125,29.9003906 Z M19.578125,29.9003906 L19.578125,27.0292969 L22.5078125,27.0292969 L22.5078125,29.9003906 L19.578125,29.9003906 Z M19.578125,21.1552734 L19.578125,18.2109375 L22.5078125,18.2109375 L22.5078125,21.1552734 L19.578125,21.1552734 Z M19.578125,18.2109375 L19.578125,15.28125 L22.5078125,15.28125 L22.5078125,18.2109375 L19.578125,18.2109375 Z M19.578125,15.28125 L19.578125,12.3369141 L22.5078125,12.3369141 L22.5078125,15.28125 L19.578125,15.28125 Z M16.6337891,6.52148438 L16.6337891,3.57714844 L19.578125,3.57714844 L19.578125,6.52148438 L16.6337891,6.52148438 Z M19.578125,29.9003906 L19.578125,32.8007812 L16.6337891,32.8007812 L16.6337891,29.9003906 L19.578125,29.9003906 Z M16.6337891,29.9003906 L16.6337891,27.0292969 L19.578125,27.0292969 L19.578125,29.9003906 L16.6337891,29.9003906 Z M16.6337891,24.0849609 L16.6337891,21.1552734 L19.578125,21.1552734 L19.578125,24.0849609 L16.6337891,24.0849609 Z M16.6337891,21.1552734 L16.6337891,18.2109375 L19.578125,18.2109375 L19.578125,21.1552734 L16.6337891,21.1552734 Z M16.6337891,18.2109375 L16.6337891,15.28125 L19.578125,15.28125 L19.578125,18.2109375 L16.6337891,18.2109375 Z M16.6337891,15.28125 L16.6337891,12.3369141 L19.578125,12.3369141 L19.578125,15.28125 L16.6337891,15.28125 Z M16.6337891,12.3369141 L16.6337891,9.39257812 L19.578125,9.39257812 L19.578125,12.3369141 L16.6337891,12.3369141 Z M13.6894531,6.52148438 L13.6894531,3.57714844 L16.6337891,3.57714844 L16.6337891,6.52148438 L13.6894531,6.52148438 Z M16.6337891,29.9003906 L16.6337891,32.8007812 L13.6894531,32.8007812 L13.6894531,29.9003906 L16.6337891,29.9003906 Z M13.6894531,29.9003906 L13.6894531,27.0292969 L16.6337891,27.0292969 L16.6337891,29.9003906 L13.6894531,29.9003906 Z M13.6894531,24.0849609 L13.6894531,21.1552734 L16.6337891,21.1552734 L16.6337891,24.0849609 L13.6894531,24.0849609 Z M13.6894531,21.1552734 L13.6894531,18.2109375 L16.6337891,18.2109375 L16.6337891,21.1552734 L13.6894531,21.1552734 Z M13.6894531,18.2109375 L13.6894531,15.28125 L16.6337891,15.28125 L16.6337891,18.2109375 L13.6894531,18.2109375 Z M13.6894531,15.28125 L13.6894531,12.3369141 L16.6337891,12.3369141 L16.6337891,15.28125 L13.6894531,15.28125 Z M13.6894531,12.3369141 L13.6894531,9.39257812 L16.6337891,9.39257812 L16.6337891,12.3369141 L13.6894531,12.3369141 Z M10.8183594,6.52148438 L10.8183594,3.57714844 L13.6894531,3.57714844 L13.6894531,6.52148438 L10.8183594,6.52148438 Z M13.6894531,29.9003906 L13.6894531,32.8007812 L10.8183594,32.8007812 L10.8183594,29.9003906 L13.6894531,29.9003906 Z M10.8183594,29.9003906 L10.8183594,27.0292969 L13.6894531,27.0292969 L13.6894531,29.9003906 L10.8183594,29.9003906 Z M10.8183594,24.0849609 L10.8183594,21.1552734 L13.6894531,21.1552734 L13.6894531,24.0849609 L10.8183594,24.0849609 Z M10.8183594,21.1552734 L10.8183594,18.2109375 L13.6894531,18.2109375 L13.6894531,21.1552734 L10.8183594,21.1552734 Z M10.8183594,18.2109375 L10.8183594,15.28125 L13.6894531,15.28125 L13.6894531,18.2109375 L10.8183594,18.2109375 Z M10.8183594,15.28125 L10.8183594,12.3369141 L13.6894531,12.3369141 L13.6894531,15.28125 L10.8183594,15.28125 Z M10.8183594,12.3369141 L10.8183594,9.39257812 L13.6894531,9.39257812 L13.6894531,12.3369141 L10.8183594,12.3369141 Z M7.87402344,6.52148438 L7.87402344,3.57714844 L10.8183594,3.57714844 L10.8183594,6.52148438 L7.87402344,6.52148438 Z M10.8183594,29.9003906 L10.8183594,32.8007812 L7.87402344,32.8007812 L7.87402344,29.9003906 L10.8183594,29.9003906 Z M7.87402344,29.9003906 L7.87402344,27.0292969 L10.8183594,27.0292969 L10.8183594,29.9003906 L7.87402344,29.9003906 Z M4.94433594,6.52148438 L4.94433594,3.57714844 L7.87402344,3.57714844 L7.87402344,6.52148438 L4.94433594,6.52148438 Z M4.94433594,29.9003906 L4.94433594,27.0292969 L7.87402344,27.0292969 L7.87402344,29.9003906 L4.94433594,29.9003906 Z M4.94433594,27.0292969 L4.94433594,24.0849609 L7.87402344,24.0849609 L7.87402344,27.0292969 L4.94433594,27.0292969 Z M4.94433594,9.39257812 L4.94433594,6.52148438 L7.87402344,6.52148438 L7.87402344,9.39257812 L4.94433594,9.39257812 Z M2,27.0292969 L2,24.0849609 L4.94433594,24.0849609 L4.94433594,27.0292969 L2,27.0292969 Z M2,24.0849609 L2,21.1552734 L4.94433594,21.1552734 L4.94433594,24.0849609 L2,24.0849609 Z M2,21.1552734 L2,18.2109375 L4.94433594,18.2109375 L4.94433594,21.1552734 L2,21.1552734 Z M2,18.2109375 L2,15.28125 L4.94433594,15.28125 L4.94433594,18.2109375 L2,18.2109375 Z M2,15.28125 L2,12.3369141 L4.94433594,12.3369141 L4.94433594,15.28125 L2,15.28125 Z M2,12.3369141 L2,9.39257812 L4.94433594,9.39257812 L4.94433594,12.3369141 L2,12.3369141 Z M2,9.39257812 L2,6.52148438 L4.94433594,6.52148438 L4.94433594,9.39257812 L2,9.39257812 Z M58.7494141,29.9003906 L58.7494141,32.8007812 L55.8636719,32.8007812 L55.8636719,29.9003906 L58.7494141,29.9003906 Z M55.8636719,29.9003906 L55.8636719,27.0292969 L58.7494141,27.0292969 L58.7494141,29.9003906 L55.8636719,29.9003906 Z M55.8636719,27.0292969 L55.8636719,24.0849609 L58.7494141,24.0849609 L58.7494141,27.0292969 L55.8636719,27.0292969 Z M55.8636719,24.0849609 L55.8636719,21.1552734 L58.7494141,21.1552734 L58.7494141,24.0849609 L55.8636719,24.0849609 Z M55.8636719,21.1552734 L55.8636719,18.2109375 L58.7494141,18.2109375 L58.7494141,21.1552734 L55.8636719,21.1552734 Z M55.8636719,18.2109375 L55.8636719,15.28125 L58.7494141,15.28125 L58.7494141,18.2109375 L55.8636719,18.2109375 Z M55.8636719,15.28125 L55.8636719,12.3369141 L58.7494141,12.3369141 L58.7494141,15.28125 L55.8636719,15.28125 Z M55.8636719,12.3369141 L55.8636719,9.39257812 L58.7494141,9.39257812 L58.7494141,12.3369141 L55.8636719,12.3369141 Z M55.8636719,9.39257812 L55.8636719,6.52148438 L58.7494141,6.52148438 L58.7494141,9.39257812 L55.8636719,9.39257812 Z M52.9339844,6.52148438 L52.9339844,3.57714844 L55.8636719,3.57714844 L55.8636719,6.52148438 L52.9339844,6.52148438 Z M55.8636719,29.9003906 L55.8636719,32.8007812 L52.9339844,32.8007812 L52.9339844,29.9003906 L55.8636719,29.9003906 Z M52.9339844,29.9003906 L52.9339844,27.0292969 L55.8636719,27.0292969 L55.8636719,29.9003906 L52.9339844,29.9003906 Z M52.9339844,27.0292969 L52.9339844,24.0849609 L55.8636719,24.0849609 L55.8636719,27.0292969 L52.9339844,27.0292969 Z M52.9339844,24.0849609 L52.9339844,21.1552734 L55.8636719,21.1552734 L55.8636719,24.0849609 L52.9339844,24.0849609 Z M52.9339844,21.1552734 L52.9339844,18.2109375 L55.8636719,18.2109375 L55.8636719,21.1552734 L52.9339844,21.1552734 Z M52.9339844,18.2109375 L52.9339844,15.28125 L55.8636719,15.28125 L55.8636719,18.2109375 L52.9339844,18.2109375 Z M52.9339844,15.28125 L52.9339844,12.3369141 L55.8636719,12.3369141 L55.8636719,15.28125 L52.9339844,15.28125 Z M52.9339844,12.3369141 L52.9339844,9.39257812 L55.8636719,9.39257812 L55.8636719,12.3369141 L52.9339844,12.3369141 Z M52.9339844,9.39257812 L52.9339844,6.52148438 L55.8636719,6.52148438 L55.8636719,9.39257812 L52.9339844,9.39257812 Z M49.9896484,6.52148438 L49.9896484,3.57714844 L52.9339844,3.57714844 L52.9339844,6.52148438 L49.9896484,6.52148438 Z M52.9339844,29.9003906 L52.9339844,32.8007812 L49.9896484,32.8007812 L49.9896484,29.9003906 L52.9339844,29.9003906 Z M49.9896484,29.9003906 L49.9896484,27.0292969 L52.9339844,27.0292969 L52.9339844,29.9003906 L49.9896484,29.9003906 Z M47.0599609,6.52148438 L47.0599609,3.57714844 L49.9896484,3.57714844 L49.9896484,6.52148438 L47.0599609,6.52148438 Z M49.9896484,29.9003906 L49.9896484,32.8007812 L47.0599609,32.8007812 L47.0599609,29.9003906 L49.9896484,29.9003906 Z M47.0599609,29.9003906 L47.0599609,27.0292969 L49.9896484,27.0292969 L49.9896484,29.9003906 L47.0599609,29.9003906 Z M44.115625,6.52148438 L44.115625,3.57714844 L47.0599609,3.57714844 L47.0599609,6.52148438 L44.115625,6.52148438 Z M44.115625,29.9003906 L44.115625,27.0292969 L47.0599609,27.0292969 L47.0599609,29.9003906 L44.115625,29.9003906 Z M44.115625,27.0292969 L44.115625,24.0849609 L47.0599609,24.0849609 L47.0599609,27.0292969 L44.115625,27.0292969 Z M44.115625,24.0849609 L44.115625,21.1552734 L47.0599609,21.1552734 L47.0599609,24.0849609 L44.115625,24.0849609 Z M44.115625,21.1552734 L44.115625,18.2109375 L47.0599609,18.2109375 L47.0599609,21.1552734 L44.115625,21.1552734 Z M44.115625,15.28125 L44.115625,12.3369141 L47.0599609,12.3369141 L47.0599609,15.28125 L44.115625,15.28125 Z M44.115625,12.3369141 L44.115625,9.39257812 L47.0599609,9.39257812 L47.0599609,12.3369141 L44.115625,12.3369141 Z M44.115625,9.39257812 L44.115625,6.52148438 L47.0599609,6.52148438 L47.0599609,9.39257812 L44.115625,9.39257812 Z M44.115625,29.9003906 L44.115625,32.8007812 L41.1712891,32.8007812 L41.1712891,29.9003906 L44.115625,29.9003906 Z M41.1712891,29.9003906 L41.1712891,27.0292969 L44.115625,27.0292969 L44.115625,29.9003906 L41.1712891,29.9003906 Z M41.1712891,27.0292969 L41.1712891,24.0849609 L44.115625,24.0849609 L44.115625,27.0292969 L41.1712891,27.0292969 Z M41.1712891,24.0849609 L41.1712891,21.1552734 L44.115625,21.1552734 L44.115625,24.0849609 L41.1712891,24.0849609 Z M41.1712891,21.1552734 L41.1712891,18.2109375 L44.115625,18.2109375 L44.115625,21.1552734 L41.1712891,21.1552734 Z M41.1712891,15.28125 L41.1712891,12.3369141 L44.115625,12.3369141 L44.115625,15.28125 L41.1712891,15.28125 Z M41.1712891,12.3369141 L41.1712891,9.39257812 L44.115625,9.39257812 L44.115625,12.3369141 L41.1712891,12.3369141 Z M41.1712891,9.39257812 L41.1712891,6.52148438 L44.115625,6.52148438 L44.115625,9.39257812 L41.1712891,9.39257812 Z M38.3001953,6.52148438 L38.3001953,3.57714844 L41.1712891,3.57714844 L41.1712891,6.52148438 L38.3001953,6.52148438 Z M41.1712891,29.9003906 L41.1712891,32.8007812 L38.3001953,32.8007812 L38.3001953,29.9003906 L41.1712891,29.9003906 Z M38.3001953,29.9003906 L38.3001953,27.0292969 L41.1712891,27.0292969 L41.1712891,29.9003906 L38.3001953,29.9003906 Z M38.3001953,27.0292969 L38.3001953,24.0849609 L41.1712891,24.0849609 L41.1712891,27.0292969 L38.3001953,27.0292969 Z M38.3001953,24.0849609 L38.3001953,21.1552734 L41.1712891,21.1552734 L41.1712891,24.0849609 L38.3001953,24.0849609 Z M38.3001953,21.1552734 L38.3001953,18.2109375 L41.1712891,18.2109375 L41.1712891,21.1552734 L38.3001953,21.1552734 Z M38.3001953,15.28125 L38.3001953,12.3369141 L41.1712891,12.3369141 L41.1712891,15.28125 L38.3001953,15.28125 Z M38.3001953,12.3369141 L38.3001953,9.39257812 L41.1712891,9.39257812 L41.1712891,12.3369141 L38.3001953,12.3369141 Z M38.3001953,9.39257812 L38.3001953,6.52148438 L41.1712891,6.52148438 L41.1712891,9.39257812 L38.3001953,9.39257812 Z M35.3558594,6.52148438 L35.3558594,3.57714844 L38.3001953,3.57714844 L38.3001953,6.52148438 L35.3558594,6.52148438 Z M38.3001953,29.9003906 L38.3001953,32.8007812 L35.3558594,32.8007812 L35.3558594,29.9003906 L38.3001953,29.9003906 Z M35.3558594,29.9003906 L35.3558594,27.0292969 L38.3001953,27.0292969 L38.3001953,29.9003906 L35.3558594,29.9003906 Z M32.4261719,6.52148438 L32.4261719,3.57714844 L35.3558594,3.57714844 L35.3558594,6.52148438 L32.4261719,6.52148438 Z M35.3558594,29.9003906 L35.3558594,32.8007812 L32.4261719,32.8007812 L32.4261719,29.9003906 L35.3558594,29.9003906 Z M32.4261719,29.9003906 L32.4261719,27.0292969 L35.3558594,27.0292969 L35.3558594,29.9003906 L32.4261719,29.9003906 Z M29.4818359,6.52148438 L29.4818359,3.57714844 L32.4261719,3.57714844 L32.4261719,6.52148438 L29.4818359,6.52148438 Z M29.4818359,29.9003906 L29.4818359,27.0292969 L32.4261719,27.0292969 L32.4261719,29.9003906 L29.4818359,29.9003906 Z M29.4818359,27.0292969 L29.4818359,24.0849609 L32.4261719,24.0849609 L32.4261719,27.0292969 L29.4818359,27.0292969 Z M29.4818359,24.0849609 L29.4818359,21.1552734 L32.4261719,21.1552734 L32.4261719,24.0849609 L29.4818359,24.0849609 Z M29.4818359,21.1552734 L29.4818359,18.2109375 L32.4261719,18.2109375 L32.4261719,21.1552734 L29.4818359,21.1552734 Z M29.4818359,18.2109375 L29.4818359,15.28125 L32.4261719,15.28125 L32.4261719,18.2109375 L29.4818359,18.2109375 Z M29.4818359,15.28125 L29.4818359,12.3369141 L32.4261719,12.3369141 L32.4261719,15.28125 L29.4818359,15.28125 Z M29.4818359,12.3369141 L29.4818359,9.39257812 L32.4261719,9.39257812 L32.4261719,12.3369141 L29.4818359,12.3369141 Z M29.4818359,9.39257812 L29.4818359,6.52148438 L32.4261719,6.52148438 L32.4261719,9.39257812 L29.4818359,9.39257812 Z M86.23125,29.9003906 L86.23125,32.8007812 L83.3455078,32.8007812 L83.3455078,29.9003906 L86.23125,29.9003906 Z M83.3455078,29.9003906 L83.3455078,27.0292969 L86.23125,27.0292969 L86.23125,29.9003906 L83.3455078,29.9003906 Z M83.3455078,27.0292969 L83.3455078,24.0849609 L86.23125,24.0849609 L86.23125,27.0292969 L83.3455078,27.0292969 Z M83.3455078,24.0849609 L83.3455078,21.1552734 L86.23125,21.1552734 L86.23125,24.0849609 L83.3455078,24.0849609 Z M83.3455078,21.1552734 L83.3455078,18.2109375 L86.23125,18.2109375 L86.23125,21.1552734 L83.3455078,21.1552734 Z M83.3455078,18.2109375 L83.3455078,15.28125 L86.23125,15.28125 L86.23125,18.2109375 L83.3455078,18.2109375 Z M83.3455078,15.28125 L83.3455078,12.3369141 L86.23125,12.3369141 L86.23125,15.28125 L83.3455078,15.28125 Z M83.3455078,12.3369141 L83.3455078,9.39257812 L86.23125,9.39257812 L86.23125,12.3369141 L83.3455078,12.3369141 Z M83.3455078,29.9003906 L83.3455078,32.8007812 L80.4158203,32.8007812 L80.4158203,29.9003906 L83.3455078,29.9003906 Z M80.4158203,29.9003906 L80.4158203,27.0292969 L83.3455078,27.0292969 L83.3455078,29.9003906 L80.4158203,29.9003906 Z M80.4158203,27.0292969 L80.4158203,24.0849609 L83.3455078,24.0849609 L83.3455078,27.0292969 L80.4158203,27.0292969 Z M80.4158203,24.0849609 L80.4158203,21.1552734 L83.3455078,21.1552734 L83.3455078,24.0849609 L80.4158203,24.0849609 Z M80.4158203,21.1552734 L80.4158203,18.2109375 L83.3455078,18.2109375 L83.3455078,21.1552734 L80.4158203,21.1552734 Z M80.4158203,18.2109375 L80.4158203,15.28125 L83.3455078,15.28125 L83.3455078,18.2109375 L80.4158203,18.2109375 Z M80.4158203,15.28125 L80.4158203,12.3369141 L83.3455078,12.3369141 L83.3455078,15.28125 L80.4158203,15.28125 Z M80.4158203,12.3369141 L80.4158203,9.39257812 L83.3455078,9.39257812 L83.3455078,12.3369141 L80.4158203,12.3369141 Z M80.4158203,9.39257812 L80.4158203,6.52148438 L83.3455078,6.52148438 L83.3455078,9.39257812 L80.4158203,9.39257812 Z M77.4714844,6.52148438 L77.4714844,3.57714844 L80.4158203,3.57714844 L80.4158203,6.52148438 L77.4714844,6.52148438 Z M80.4158203,29.9003906 L80.4158203,32.8007812 L77.4714844,32.8007812 L77.4714844,29.9003906 L80.4158203,29.9003906 Z M77.4714844,29.9003906 L77.4714844,27.0292969 L80.4158203,27.0292969 L80.4158203,29.9003906 L77.4714844,29.9003906 Z M77.4714844,9.39257812 L77.4714844,6.52148438 L80.4158203,6.52148438 L80.4158203,9.39257812 L77.4714844,9.39257812 Z M74.5417969,6.52148438 L74.5417969,3.57714844 L77.4714844,3.57714844 L77.4714844,6.52148438 L74.5417969,6.52148438 Z M77.4714844,29.9003906 L77.4714844,32.8007812 L74.5417969,32.8007812 L74.5417969,29.9003906 L77.4714844,29.9003906 Z M74.5417969,29.9003906 L74.5417969,27.0292969 L77.4714844,27.0292969 L77.4714844,29.9003906 L74.5417969,29.9003906 Z M71.5974609,6.52148438 L71.5974609,3.57714844 L74.5417969,3.57714844 L74.5417969,6.52148438 L71.5974609,6.52148438 Z M71.5974609,29.9003906 L71.5974609,27.0292969 L74.5417969,27.0292969 L74.5417969,29.9003906 L71.5974609,29.9003906 Z M71.5974609,27.0292969 L71.5974609,24.0849609 L74.5417969,24.0849609 L74.5417969,27.0292969 L71.5974609,27.0292969 Z M71.5974609,24.0849609 L71.5974609,21.1552734 L74.5417969,21.1552734 L74.5417969,24.0849609 L71.5974609,24.0849609 Z M71.5974609,18.2109375 L71.5974609,15.28125 L74.5417969,15.28125 L74.5417969,18.2109375 L71.5974609,18.2109375 Z M71.5974609,15.28125 L71.5974609,12.3369141 L74.5417969,12.3369141 L74.5417969,15.28125 L71.5974609,15.28125 Z M71.5974609,12.3369141 L71.5974609,9.39257812 L74.5417969,9.39257812 L74.5417969,12.3369141 L71.5974609,12.3369141 Z M68.653125,6.52148438 L68.653125,3.57714844 L71.5974609,3.57714844 L71.5974609,6.52148438 L68.653125,6.52148438 Z M71.5974609,29.9003906 L71.5974609,32.8007812 L68.653125,32.8007812 L68.653125,29.9003906 L71.5974609,29.9003906 Z M68.653125,29.9003906 L68.653125,27.0292969 L71.5974609,27.0292969 L71.5974609,29.9003906 L68.653125,29.9003906 Z M68.653125,27.0292969 L68.653125,24.0849609 L71.5974609,24.0849609 L71.5974609,27.0292969 L68.653125,27.0292969 Z M68.653125,24.0849609 L68.653125,21.1552734 L71.5974609,21.1552734 L71.5974609,24.0849609 L68.653125,24.0849609 Z M68.653125,18.2109375 L68.653125,15.28125 L71.5974609,15.28125 L71.5974609,18.2109375 L68.653125,18.2109375 Z M68.653125,15.28125 L68.653125,12.3369141 L71.5974609,12.3369141 L71.5974609,15.28125 L68.653125,15.28125 Z M68.653125,12.3369141 L68.653125,9.39257812 L71.5974609,9.39257812 L71.5974609,12.3369141 L68.653125,12.3369141 Z M65.7820313,6.52148438 L65.7820313,3.57714844 L68.653125,3.57714844 L68.653125,6.52148438 L65.7820313,6.52148438 Z M68.653125,29.9003906 L68.653125,32.8007812 L65.7820313,32.8007812 L65.7820313,29.9003906 L68.653125,29.9003906 Z M65.7820313,29.9003906 L65.7820313,27.0292969 L68.653125,27.0292969 L68.653125,29.9003906 L65.7820313,29.9003906 Z M65.7820313,27.0292969 L65.7820313,24.0849609 L68.653125,24.0849609 L68.653125,27.0292969 L65.7820313,27.0292969 Z M65.7820313,24.0849609 L65.7820313,21.1552734 L68.653125,21.1552734 L68.653125,24.0849609 L65.7820313,24.0849609 Z M65.7820313,18.2109375 L65.7820313,15.28125 L68.653125,15.28125 L68.653125,18.2109375 L65.7820313,18.2109375 Z M65.7820313,15.28125 L65.7820313,12.3369141 L68.653125,12.3369141 L68.653125,15.28125 L65.7820313,15.28125 Z M65.7820313,12.3369141 L65.7820313,9.39257812 L68.653125,9.39257812 L68.653125,12.3369141 L65.7820313,12.3369141 Z M62.8376953,6.52148438 L62.8376953,3.57714844 L65.7820313,3.57714844 L65.7820313,6.52148438 L62.8376953,6.52148438 Z M65.7820313,29.9003906 L65.7820313,32.8007812 L62.8376953,32.8007812 L62.8376953,29.9003906 L65.7820313,29.9003906 Z M62.8376953,29.9003906 L62.8376953,27.0292969 L65.7820313,27.0292969 L65.7820313,29.9003906 L62.8376953,29.9003906 Z M59.9080078,6.52148438 L59.9080078,3.57714844 L62.8376953,3.57714844 L62.8376953,6.52148438 L59.9080078,6.52148438 Z M62.8376953,29.9003906 L62.8376953,32.8007812 L59.9080078,32.8007812 L59.9080078,29.9003906 L62.8376953,29.9003906 Z M59.9080078,29.9003906 L59.9080078,27.0292969 L62.8376953,27.0292969 L62.8376953,29.9003906 L59.9080078,29.9003906 Z M59.9080078,9.39257812 L59.9080078,6.52148438 L62.8376953,6.52148438 L62.8376953,9.39257812 L59.9080078,9.39257812 Z M56.9636719,29.9003906 L56.9636719,27.0292969 L59.9080078,27.0292969 L59.9080078,29.9003906 L56.9636719,29.9003906 Z M56.9636719,27.0292969 L56.9636719,24.0849609 L59.9080078,24.0849609 L59.9080078,27.0292969 L56.9636719,27.0292969 Z M56.9636719,24.0849609 L56.9636719,21.1552734 L59.9080078,21.1552734 L59.9080078,24.0849609 L56.9636719,24.0849609 Z M56.9636719,21.1552734 L56.9636719,18.2109375 L59.9080078,18.2109375 L59.9080078,21.1552734 L56.9636719,21.1552734 Z M56.9636719,18.2109375 L56.9636719,15.28125 L59.9080078,15.28125 L59.9080078,18.2109375 L56.9636719,18.2109375 Z M56.9636719,15.28125 L56.9636719,12.3369141 L59.9080078,12.3369141 L59.9080078,15.28125 L56.9636719,15.28125 Z M56.9636719,12.3369141 L56.9636719,9.39257812 L59.9080078,9.39257812 L59.9080078,12.3369141 L56.9636719,12.3369141 Z M56.9636719,9.39257812 L56.9636719,6.52148438 L59.9080078,6.52148438 L59.9080078,9.39257812 L56.9636719,9.39257812 Z M110.827344,29.9003906 L110.827344,32.8007812 L107.897656,32.8007812 L107.897656,29.9003906 L110.827344,29.9003906 Z M107.897656,29.9003906 L107.897656,27.0292969 L110.827344,27.0292969 L110.827344,29.9003906 L107.897656,29.9003906 Z M107.897656,27.0292969 L107.897656,24.0849609 L110.827344,24.0849609 L110.827344,27.0292969 L107.897656,27.0292969 Z M107.897656,29.9003906 L107.897656,32.8007812 L104.95332,32.8007812 L104.95332,29.9003906 L107.897656,29.9003906 Z M104.95332,29.9003906 L104.95332,27.0292969 L107.897656,27.0292969 L107.897656,29.9003906 L104.95332,29.9003906 Z M104.95332,27.0292969 L104.95332,24.0849609 L107.897656,24.0849609 L107.897656,27.0292969 L104.95332,27.0292969 Z M104.95332,24.0849609 L104.95332,21.1552734 L107.897656,21.1552734 L107.897656,24.0849609 L104.95332,24.0849609 Z M104.95332,29.9003906 L104.95332,32.8007812 L102.023633,32.8007812 L102.023633,29.9003906 L104.95332,29.9003906 Z M102.023633,29.9003906 L102.023633,27.0292969 L104.95332,27.0292969 L104.95332,29.9003906 L102.023633,29.9003906 Z M102.023633,24.0849609 L102.023633,21.1552734 L104.95332,21.1552734 L104.95332,24.0849609 L102.023633,24.0849609 Z M102.023633,29.9003906 L102.023633,32.8007812 L99.0792969,32.8007812 L99.0792969,29.9003906 L102.023633,29.9003906 Z M99.0792969,29.9003906 L99.0792969,27.0292969 L102.023633,27.0292969 L102.023633,29.9003906 L99.0792969,29.9003906 Z M99.0792969,24.0849609 L99.0792969,21.1552734 L102.023633,21.1552734 L102.023633,24.0849609 L99.0792969,24.0849609 Z M99.0792969,29.9003906 L99.0792969,32.8007812 L96.1349609,32.8007812 L96.1349609,29.9003906 L99.0792969,29.9003906 Z M96.1349609,29.9003906 L96.1349609,27.0292969 L99.0792969,27.0292969 L99.0792969,29.9003906 L96.1349609,29.9003906 Z M96.1349609,24.0849609 L96.1349609,21.1552734 L99.0792969,21.1552734 L99.0792969,24.0849609 L96.1349609,24.0849609 Z M96.1349609,21.1552734 L96.1349609,18.2109375 L99.0792969,18.2109375 L99.0792969,21.1552734 L96.1349609,21.1552734 Z M96.1349609,18.2109375 L96.1349609,15.28125 L99.0792969,15.28125 L99.0792969,18.2109375 L96.1349609,18.2109375 Z M96.1349609,15.28125 L96.1349609,12.3369141 L99.0792969,12.3369141 L99.0792969,15.28125 L96.1349609,15.28125 Z M96.1349609,12.3369141 L96.1349609,9.39257812 L99.0792969,9.39257812 L99.0792969,12.3369141 L96.1349609,12.3369141 Z M96.1349609,9.39257812 L96.1349609,6.52148438 L99.0792969,6.52148438 L99.0792969,9.39257812 L96.1349609,9.39257812 Z M93.2638672,6.52148438 L93.2638672,3.57714844 L96.1349609,3.57714844 L96.1349609,6.52148438 L93.2638672,6.52148438 Z M96.1349609,29.9003906 L96.1349609,32.8007812 L93.2638672,32.8007812 L93.2638672,29.9003906 L96.1349609,29.9003906 Z M93.2638672,29.9003906 L93.2638672,27.0292969 L96.1349609,27.0292969 L96.1349609,29.9003906 L93.2638672,29.9003906 Z M93.2638672,24.0849609 L93.2638672,21.1552734 L96.1349609,21.1552734 L96.1349609,24.0849609 L93.2638672,24.0849609 Z M93.2638672,21.1552734 L93.2638672,18.2109375 L96.1349609,18.2109375 L96.1349609,21.1552734 L93.2638672,21.1552734 Z M93.2638672,18.2109375 L93.2638672,15.28125 L96.1349609,15.28125 L96.1349609,18.2109375 L93.2638672,18.2109375 Z M93.2638672,15.28125 L93.2638672,12.3369141 L96.1349609,12.3369141 L96.1349609,15.28125 L93.2638672,15.28125 Z M93.2638672,12.3369141 L93.2638672,9.39257812 L96.1349609,9.39257812 L96.1349609,12.3369141 L93.2638672,12.3369141 Z M93.2638672,9.39257812 L93.2638672,6.52148438 L96.1349609,6.52148438 L96.1349609,9.39257812 L93.2638672,9.39257812 Z M90.3195313,6.52148438 L90.3195313,3.57714844 L93.2638672,3.57714844 L93.2638672,6.52148438 L90.3195313,6.52148438 Z M93.2638672,29.9003906 L93.2638672,32.8007812 L90.3195313,32.8007812 L90.3195313,29.9003906 L93.2638672,29.9003906 Z M90.3195313,29.9003906 L90.3195313,27.0292969 L93.2638672,27.0292969 L93.2638672,29.9003906 L90.3195313,29.9003906 Z M87.3898438,6.52148438 L87.3898438,3.57714844 L90.3195313,3.57714844 L90.3195313,6.52148438 L87.3898438,6.52148438 Z M90.3195313,29.9003906 L90.3195313,32.8007812 L87.3898438,32.8007812 L87.3898438,29.9003906 L90.3195313,29.9003906 Z M87.3898438,29.9003906 L87.3898438,27.0292969 L90.3195313,27.0292969 L90.3195313,29.9003906 L87.3898438,29.9003906 Z M84.4455078,6.52148438 L84.4455078,3.57714844 L87.3898438,3.57714844 L87.3898438,6.52148438 L84.4455078,6.52148438 Z M84.4455078,29.9003906 L84.4455078,27.0292969 L87.3898438,27.0292969 L87.3898438,29.9003906 L84.4455078,29.9003906 Z M84.4455078,27.0292969 L84.4455078,24.0849609 L87.3898438,24.0849609 L87.3898438,27.0292969 L84.4455078,27.0292969 Z M84.4455078,24.0849609 L84.4455078,21.1552734 L87.3898438,21.1552734 L87.3898438,24.0849609 L84.4455078,24.0849609 Z M84.4455078,21.1552734 L84.4455078,18.2109375 L87.3898438,18.2109375 L87.3898438,21.1552734 L84.4455078,21.1552734 Z M84.4455078,18.2109375 L84.4455078,15.28125 L87.3898438,15.28125 L87.3898438,18.2109375 L84.4455078,18.2109375 Z M84.4455078,15.28125 L84.4455078,12.3369141 L87.3898438,12.3369141 L87.3898438,15.28125 L84.4455078,15.28125 Z M84.4455078,12.3369141 L84.4455078,9.39257812 L87.3898438,9.39257812 L87.3898438,12.3369141 L84.4455078,12.3369141 Z M84.4455078,9.39257812 L84.4455078,6.52148438 L87.3898438,6.52148438 L87.3898438,9.39257812 L84.4455078,9.39257812 Z M135.379492,29.9003906 L135.379492,32.8007812 L132.449805,32.8007812 L132.449805,29.9003906 L135.379492,29.9003906 Z M132.449805,29.9003906 L132.449805,27.0292969 L135.379492,27.0292969 L135.379492,29.9003906 L132.449805,29.9003906 Z M132.449805,27.0292969 L132.449805,24.0849609 L135.379492,24.0849609 L135.379492,27.0292969 L132.449805,27.0292969 Z M132.449805,29.9003906 L132.449805,32.8007812 L129.505469,32.8007812 L129.505469,29.9003906 L132.449805,29.9003906 Z M129.505469,29.9003906 L129.505469,27.0292969 L132.449805,27.0292969 L132.449805,29.9003906 L129.505469,29.9003906 Z M129.505469,27.0292969 L129.505469,24.0849609 L132.449805,24.0849609 L132.449805,27.0292969 L129.505469,27.0292969 Z M129.505469,24.0849609 L129.505469,21.1552734 L132.449805,21.1552734 L132.449805,24.0849609 L129.505469,24.0849609 Z M129.505469,29.9003906 L129.505469,32.8007812 L126.575781,32.8007812 L126.575781,29.9003906 L129.505469,29.9003906 Z M126.575781,29.9003906 L126.575781,27.0292969 L129.505469,27.0292969 L129.505469,29.9003906 L126.575781,29.9003906 Z M126.575781,24.0849609 L126.575781,21.1552734 L129.505469,21.1552734 L129.505469,24.0849609 L126.575781,24.0849609 Z M126.575781,29.9003906 L126.575781,32.8007812 L123.631445,32.8007812 L123.631445,29.9003906 L126.575781,29.9003906 Z M123.631445,29.9003906 L123.631445,27.0292969 L126.575781,27.0292969 L126.575781,29.9003906 L123.631445,29.9003906 Z M123.631445,24.0849609 L123.631445,21.1552734 L126.575781,21.1552734 L126.575781,24.0849609 L123.631445,24.0849609 Z M123.631445,29.9003906 L123.631445,32.8007812 L120.687109,32.8007812 L120.687109,29.9003906 L123.631445,29.9003906 Z M120.687109,29.9003906 L120.687109,27.0292969 L123.631445,27.0292969 L123.631445,29.9003906 L120.687109,29.9003906 Z M120.687109,24.0849609 L120.687109,21.1552734 L123.631445,21.1552734 L123.631445,24.0849609 L120.687109,24.0849609 Z M120.687109,21.1552734 L120.687109,18.2109375 L123.631445,18.2109375 L123.631445,21.1552734 L120.687109,21.1552734 Z M120.687109,18.2109375 L120.687109,15.28125 L123.631445,15.28125 L123.631445,18.2109375 L120.687109,18.2109375 Z M120.687109,15.28125 L120.687109,12.3369141 L123.631445,12.3369141 L123.631445,15.28125 L120.687109,15.28125 Z M120.687109,12.3369141 L120.687109,9.39257812 L123.631445,9.39257812 L123.631445,12.3369141 L120.687109,12.3369141 Z M120.687109,9.39257812 L120.687109,6.52148438 L123.631445,6.52148438 L123.631445,9.39257812 L120.687109,9.39257812 Z M117.816016,6.52148438 L117.816016,3.57714844 L120.687109,3.57714844 L120.687109,6.52148438 L117.816016,6.52148438 Z M120.687109,29.9003906 L120.687109,32.8007812 L117.816016,32.8007812 L117.816016,29.9003906 L120.687109,29.9003906 Z M117.816016,29.9003906 L117.816016,27.0292969 L120.687109,27.0292969 L120.687109,29.9003906 L117.816016,29.9003906 Z M117.816016,24.0849609 L117.816016,21.1552734 L120.687109,21.1552734 L120.687109,24.0849609 L117.816016,24.0849609 Z M117.816016,21.1552734 L117.816016,18.2109375 L120.687109,18.2109375 L120.687109,21.1552734 L117.816016,21.1552734 Z M117.816016,18.2109375 L117.816016,15.28125 L120.687109,15.28125 L120.687109,18.2109375 L117.816016,18.2109375 Z M117.816016,15.28125 L117.816016,12.3369141 L120.687109,12.3369141 L120.687109,15.28125 L117.816016,15.28125 Z M117.816016,12.3369141 L117.816016,9.39257812 L120.687109,9.39257812 L120.687109,12.3369141 L117.816016,12.3369141 Z M117.816016,9.39257812 L117.816016,6.52148438 L120.687109,6.52148438 L120.687109,9.39257812 L117.816016,9.39257812 Z M114.87168,6.52148438 L114.87168,3.57714844 L117.816016,3.57714844 L117.816016,6.52148438 L114.87168,6.52148438 Z M117.816016,29.9003906 L117.816016,32.8007812 L114.87168,32.8007812 L114.87168,29.9003906 L117.816016,29.9003906 Z M114.87168,29.9003906 L114.87168,27.0292969 L117.816016,27.0292969 L117.816016,29.9003906 L114.87168,29.9003906 Z M111.941992,6.52148438 L111.941992,3.57714844 L114.87168,3.57714844 L114.87168,6.52148438 L111.941992,6.52148438 Z M114.87168,29.9003906 L114.87168,32.8007812 L111.941992,32.8007812 L111.941992,29.9003906 L114.87168,29.9003906 Z M111.941992,29.9003906 L111.941992,27.0292969 L114.87168,27.0292969 L114.87168,29.9003906 L111.941992,29.9003906 Z M108.997656,6.52148438 L108.997656,3.57714844 L111.941992,3.57714844 L111.941992,6.52148438 L108.997656,6.52148438 Z M108.997656,29.9003906 L108.997656,27.0292969 L111.941992,27.0292969 L111.941992,29.9003906 L108.997656,29.9003906 Z M108.997656,27.0292969 L108.997656,24.0849609 L111.941992,24.0849609 L111.941992,27.0292969 L108.997656,27.0292969 Z M108.997656,24.0849609 L108.997656,21.1552734 L111.941992,21.1552734 L111.941992,24.0849609 L108.997656,24.0849609 Z M108.997656,21.1552734 L108.997656,18.2109375 L111.941992,18.2109375 L111.941992,21.1552734 L108.997656,21.1552734 Z M108.997656,18.2109375 L108.997656,15.28125 L111.941992,15.28125 L111.941992,18.2109375 L108.997656,18.2109375 Z M108.997656,15.28125 L108.997656,12.3369141 L111.941992,12.3369141 L111.941992,15.28125 L108.997656,15.28125 Z M108.997656,12.3369141 L108.997656,9.39257812 L111.941992,9.39257812 L111.941992,12.3369141 L108.997656,12.3369141 Z M108.997656,9.39257812 L108.997656,6.52148438 L111.941992,6.52148438 L111.941992,9.39257812 L108.997656,9.39257812 Z M162.817383,29.9003906 L162.817383,32.8007812 L159.931641,32.8007812 L159.931641,29.9003906 L162.817383,29.9003906 Z M159.931641,29.9003906 L159.931641,27.0292969 L162.817383,27.0292969 L162.817383,29.9003906 L159.931641,29.9003906 Z M159.931641,27.0292969 L159.931641,24.0849609 L162.817383,24.0849609 L162.817383,27.0292969 L159.931641,27.0292969 Z M159.931641,15.28125 L159.931641,12.3369141 L162.817383,12.3369141 L162.817383,15.28125 L159.931641,15.28125 Z M159.931641,12.3369141 L159.931641,9.39257812 L162.817383,9.39257812 L162.817383,12.3369141 L159.931641,12.3369141 Z M159.931641,9.39257812 L159.931641,6.52148438 L162.817383,6.52148438 L162.817383,9.39257812 L159.931641,9.39257812 Z M157.001953,6.52148438 L157.001953,3.57714844 L159.931641,3.57714844 L159.931641,6.52148438 L157.001953,6.52148438 Z M159.931641,29.9003906 L159.931641,32.8007812 L157.001953,32.8007812 L157.001953,29.9003906 L159.931641,29.9003906 Z M157.001953,29.9003906 L157.001953,27.0292969 L159.931641,27.0292969 L159.931641,29.9003906 L157.001953,29.9003906 Z M157.001953,27.0292969 L157.001953,24.0849609 L159.931641,24.0849609 L159.931641,27.0292969 L157.001953,27.0292969 Z M157.001953,24.0849609 L157.001953,21.1552734 L159.931641,21.1552734 L159.931641,24.0849609 L157.001953,24.0849609 Z M157.001953,21.1552734 L157.001953,18.2109375 L159.931641,18.2109375 L159.931641,21.1552734 L157.001953,21.1552734 Z M157.001953,18.2109375 L157.001953,15.28125 L159.931641,15.28125 L159.931641,18.2109375 L157.001953,18.2109375 Z M157.001953,15.28125 L157.001953,12.3369141 L159.931641,12.3369141 L159.931641,15.28125 L157.001953,15.28125 Z M157.001953,12.3369141 L157.001953,9.39257812 L159.931641,9.39257812 L159.931641,12.3369141 L157.001953,12.3369141 Z M157.001953,9.39257812 L157.001953,6.52148438 L159.931641,6.52148438 L159.931641,9.39257812 L157.001953,9.39257812 Z M154.057617,6.52148438 L154.057617,3.57714844 L157.001953,3.57714844 L157.001953,6.52148438 L154.057617,6.52148438 Z M157.001953,29.9003906 L157.001953,32.8007812 L154.057617,32.8007812 L154.057617,29.9003906 L157.001953,29.9003906 Z M154.057617,29.9003906 L154.057617,27.0292969 L157.001953,27.0292969 L157.001953,29.9003906 L154.057617,29.9003906 Z M154.057617,24.0849609 L154.057617,21.1552734 L157.001953,21.1552734 L157.001953,24.0849609 L154.057617,24.0849609 Z M154.057617,21.1552734 L154.057617,18.2109375 L157.001953,18.2109375 L157.001953,21.1552734 L154.057617,21.1552734 Z M154.057617,18.2109375 L154.057617,15.28125 L157.001953,15.28125 L157.001953,18.2109375 L154.057617,18.2109375 Z M154.057617,15.28125 L154.057617,12.3369141 L157.001953,12.3369141 L157.001953,15.28125 L154.057617,15.28125 Z M154.057617,12.3369141 L154.057617,9.39257812 L157.001953,9.39257812 L157.001953,12.3369141 L154.057617,12.3369141 Z M151.12793,6.52148438 L151.12793,3.57714844 L154.057617,3.57714844 L154.057617,6.52148438 L151.12793,6.52148438 Z M154.057617,29.9003906 L154.057617,32.8007812 L151.12793,32.8007812 L151.12793,29.9003906 L154.057617,29.9003906 Z M151.12793,29.9003906 L151.12793,27.0292969 L154.057617,27.0292969 L154.057617,29.9003906 L151.12793,29.9003906 Z M151.12793,24.0849609 L151.12793,21.1552734 L154.057617,21.1552734 L154.057617,24.0849609 L151.12793,24.0849609 Z M151.12793,21.1552734 L151.12793,18.2109375 L154.057617,18.2109375 L154.057617,21.1552734 L151.12793,21.1552734 Z M151.12793,15.28125 L151.12793,12.3369141 L154.057617,12.3369141 L154.057617,15.28125 L151.12793,15.28125 Z M151.12793,12.3369141 L151.12793,9.39257812 L154.057617,9.39257812 L154.057617,12.3369141 L151.12793,12.3369141 Z M148.183594,6.52148438 L148.183594,3.57714844 L151.12793,3.57714844 L151.12793,6.52148438 L148.183594,6.52148438 Z M151.12793,29.9003906 L151.12793,32.8007812 L148.183594,32.8007812 L148.183594,29.9003906 L151.12793,29.9003906 Z M148.183594,29.9003906 L148.183594,27.0292969 L151.12793,27.0292969 L151.12793,29.9003906 L148.183594,29.9003906 Z M148.183594,24.0849609 L148.183594,21.1552734 L151.12793,21.1552734 L151.12793,24.0849609 L148.183594,24.0849609 Z M148.183594,21.1552734 L148.183594,18.2109375 L151.12793,18.2109375 L151.12793,21.1552734 L148.183594,21.1552734 Z M148.183594,15.28125 L148.183594,12.3369141 L151.12793,12.3369141 L151.12793,15.28125 L148.183594,15.28125 Z M148.183594,12.3369141 L148.183594,9.39257812 L151.12793,9.39257812 L151.12793,12.3369141 L148.183594,12.3369141 Z M145.239258,6.52148438 L145.239258,3.57714844 L148.183594,3.57714844 L148.183594,6.52148438 L145.239258,6.52148438 Z M148.183594,29.9003906 L148.183594,32.8007812 L145.239258,32.8007812 L145.239258,29.9003906 L148.183594,29.9003906 Z M145.239258,29.9003906 L145.239258,27.0292969 L148.183594,27.0292969 L148.183594,29.9003906 L145.239258,29.9003906 Z M145.239258,24.0849609 L145.239258,21.1552734 L148.183594,21.1552734 L148.183594,24.0849609 L145.239258,24.0849609 Z M145.239258,21.1552734 L145.239258,18.2109375 L148.183594,18.2109375 L148.183594,21.1552734 L145.239258,21.1552734 Z M145.239258,15.28125 L145.239258,12.3369141 L148.183594,12.3369141 L148.183594,15.28125 L145.239258,15.28125 Z M145.239258,12.3369141 L145.239258,9.39257812 L148.183594,9.39257812 L148.183594,12.3369141 L145.239258,12.3369141 Z M142.368164,6.52148438 L142.368164,3.57714844 L145.239258,3.57714844 L145.239258,6.52148438 L142.368164,6.52148438 Z M145.239258,29.9003906 L145.239258,32.8007812 L142.368164,32.8007812 L142.368164,29.9003906 L145.239258,29.9003906 Z M142.368164,29.9003906 L142.368164,27.0292969 L145.239258,27.0292969 L145.239258,29.9003906 L142.368164,29.9003906 Z M142.368164,24.0849609 L142.368164,21.1552734 L145.239258,21.1552734 L145.239258,24.0849609 L142.368164,24.0849609 Z M142.368164,21.1552734 L142.368164,18.2109375 L145.239258,18.2109375 L145.239258,21.1552734 L142.368164,21.1552734 Z M142.368164,15.28125 L142.368164,12.3369141 L145.239258,12.3369141 L145.239258,15.28125 L142.368164,15.28125 Z M142.368164,12.3369141 L142.368164,9.39257812 L145.239258,9.39257812 L145.239258,12.3369141 L142.368164,12.3369141 Z M139.423828,6.52148438 L139.423828,3.57714844 L142.368164,3.57714844 L142.368164,6.52148438 L139.423828,6.52148438 Z M142.368164,29.9003906 L142.368164,32.8007812 L139.423828,32.8007812 L139.423828,29.9003906 L142.368164,29.9003906 Z M139.423828,29.9003906 L139.423828,27.0292969 L142.368164,27.0292969 L142.368164,29.9003906 L139.423828,29.9003906 Z M136.494141,6.52148438 L136.494141,3.57714844 L139.423828,3.57714844 L139.423828,6.52148438 L136.494141,6.52148438 Z M139.423828,29.9003906 L139.423828,32.8007812 L136.494141,32.8007812 L136.494141,29.9003906 L139.423828,29.9003906 Z M136.494141,29.9003906 L136.494141,27.0292969 L139.423828,27.0292969 L139.423828,29.9003906 L136.494141,29.9003906 Z M133.549805,6.52148438 L133.549805,3.57714844 L136.494141,3.57714844 L136.494141,6.52148438 L133.549805,6.52148438 Z M133.549805,29.9003906 L133.549805,27.0292969 L136.494141,27.0292969 L136.494141,29.9003906 L133.549805,29.9003906 Z M133.549805,27.0292969 L133.549805,24.0849609 L136.494141,24.0849609 L136.494141,27.0292969 L133.549805,27.0292969 Z M133.549805,24.0849609 L133.549805,21.1552734 L136.494141,21.1552734 L136.494141,24.0849609 L133.549805,24.0849609 Z M133.549805,21.1552734 L133.549805,18.2109375 L136.494141,18.2109375 L136.494141,21.1552734 L133.549805,21.1552734 Z M133.549805,18.2109375 L133.549805,15.28125 L136.494141,15.28125 L136.494141,18.2109375 L133.549805,18.2109375 Z M133.549805,15.28125 L133.549805,12.3369141 L136.494141,12.3369141 L136.494141,15.28125 L133.549805,15.28125 Z M133.549805,12.3369141 L133.549805,9.39257812 L136.494141,9.39257812 L136.494141,12.3369141 L133.549805,12.3369141 Z M133.549805,9.39257812 L133.549805,6.52148438 L136.494141,6.52148438 L136.494141,9.39257812 L133.549805,9.39257812 Z M190.299219,29.9003906 L190.299219,32.8007812 L187.413477,32.8007812 L187.413477,29.9003906 L190.299219,29.9003906 Z M187.413477,29.9003906 L187.413477,27.0292969 L190.299219,27.0292969 L190.299219,29.9003906 L187.413477,29.9003906 Z M187.413477,27.0292969 L187.413477,24.0849609 L190.299219,24.0849609 L190.299219,27.0292969 L187.413477,27.0292969 Z M187.413477,24.0849609 L187.413477,21.1552734 L190.299219,21.1552734 L190.299219,24.0849609 L187.413477,24.0849609 Z M187.413477,21.1552734 L187.413477,18.2109375 L190.299219,18.2109375 L190.299219,21.1552734 L187.413477,21.1552734 Z M187.413477,18.2109375 L187.413477,15.28125 L190.299219,15.28125 L190.299219,18.2109375 L187.413477,18.2109375 Z M187.413477,15.28125 L187.413477,12.3369141 L190.299219,12.3369141 L190.299219,15.28125 L187.413477,15.28125 Z M187.413477,12.3369141 L187.413477,9.39257812 L190.299219,9.39257812 L190.299219,12.3369141 L187.413477,12.3369141 Z M187.413477,9.39257812 L187.413477,6.52148438 L190.299219,6.52148438 L190.299219,9.39257812 L187.413477,9.39257812 Z M184.483789,6.52148438 L184.483789,3.57714844 L187.413477,3.57714844 L187.413477,6.52148438 L184.483789,6.52148438 Z M187.413477,29.9003906 L187.413477,32.8007812 L184.483789,32.8007812 L184.483789,29.9003906 L187.413477,29.9003906 Z M184.483789,29.9003906 L184.483789,27.0292969 L187.413477,27.0292969 L187.413477,29.9003906 L184.483789,29.9003906 Z M184.483789,27.0292969 L184.483789,24.0849609 L187.413477,24.0849609 L187.413477,27.0292969 L184.483789,27.0292969 Z M184.483789,24.0849609 L184.483789,21.1552734 L187.413477,21.1552734 L187.413477,24.0849609 L184.483789,24.0849609 Z M184.483789,21.1552734 L184.483789,18.2109375 L187.413477,18.2109375 L187.413477,21.1552734 L184.483789,21.1552734 Z M184.483789,18.2109375 L184.483789,15.28125 L187.413477,15.28125 L187.413477,18.2109375 L184.483789,18.2109375 Z M184.483789,15.28125 L184.483789,12.3369141 L187.413477,12.3369141 L187.413477,15.28125 L184.483789,15.28125 Z M184.483789,12.3369141 L184.483789,9.39257812 L187.413477,9.39257812 L187.413477,12.3369141 L184.483789,12.3369141 Z M184.483789,9.39257812 L184.483789,6.52148438 L187.413477,6.52148438 L187.413477,9.39257812 L184.483789,9.39257812 Z M181.539453,6.52148438 L181.539453,3.57714844 L184.483789,3.57714844 L184.483789,6.52148438 L181.539453,6.52148438 Z M184.483789,29.9003906 L184.483789,32.8007812 L181.539453,32.8007812 L181.539453,29.9003906 L184.483789,29.9003906 Z M181.539453,29.9003906 L181.539453,27.0292969 L184.483789,27.0292969 L184.483789,29.9003906 L181.539453,29.9003906 Z M178.609766,6.52148438 L178.609766,3.57714844 L181.539453,3.57714844 L181.539453,6.52148438 L178.609766,6.52148438 Z M181.539453,29.9003906 L181.539453,32.8007812 L178.609766,32.8007812 L178.609766,29.9003906 L181.539453,29.9003906 Z M178.609766,29.9003906 L178.609766,27.0292969 L181.539453,27.0292969 L181.539453,29.9003906 L178.609766,29.9003906 Z M175.66543,6.52148438 L175.66543,3.57714844 L178.609766,3.57714844 L178.609766,6.52148438 L175.66543,6.52148438 Z M175.66543,29.9003906 L175.66543,27.0292969 L178.609766,27.0292969 L178.609766,29.9003906 L175.66543,29.9003906 Z M175.66543,27.0292969 L175.66543,24.0849609 L178.609766,24.0849609 L178.609766,27.0292969 L175.66543,27.0292969 Z M175.66543,24.0849609 L175.66543,21.1552734 L178.609766,21.1552734 L178.609766,24.0849609 L175.66543,24.0849609 Z M175.66543,15.28125 L175.66543,12.3369141 L178.609766,12.3369141 L178.609766,15.28125 L175.66543,15.28125 Z M175.66543,12.3369141 L175.66543,9.39257812 L178.609766,9.39257812 L178.609766,12.3369141 L175.66543,12.3369141 Z M175.66543,9.39257812 L175.66543,6.52148438 L178.609766,6.52148438 L178.609766,9.39257812 L175.66543,9.39257812 Z M175.66543,29.9003906 L175.66543,32.8007812 L172.721094,32.8007812 L172.721094,29.9003906 L175.66543,29.9003906 Z M172.721094,29.9003906 L172.721094,27.0292969 L175.66543,27.0292969 L175.66543,29.9003906 L172.721094,29.9003906 Z M172.721094,27.0292969 L172.721094,24.0849609 L175.66543,24.0849609 L175.66543,27.0292969 L172.721094,27.0292969 Z M172.721094,24.0849609 L172.721094,21.1552734 L175.66543,21.1552734 L175.66543,24.0849609 L172.721094,24.0849609 Z M172.721094,21.1552734 L172.721094,18.2109375 L175.66543,18.2109375 L175.66543,21.1552734 L172.721094,21.1552734 Z M172.721094,12.3369141 L172.721094,9.39257812 L175.66543,9.39257812 L175.66543,12.3369141 L172.721094,12.3369141 Z M172.721094,9.39257812 L172.721094,6.52148438 L175.66543,6.52148438 L175.66543,9.39257812 L172.721094,9.39257812 Z M169.85,6.52148438 L169.85,3.57714844 L172.721094,3.57714844 L172.721094,6.52148438 L169.85,6.52148438 Z M172.721094,29.9003906 L172.721094,32.8007812 L169.85,32.8007812 L169.85,29.9003906 L172.721094,29.9003906 Z M169.85,29.9003906 L169.85,27.0292969 L172.721094,27.0292969 L172.721094,29.9003906 L169.85,29.9003906 Z M169.85,27.0292969 L169.85,24.0849609 L172.721094,24.0849609 L172.721094,27.0292969 L169.85,27.0292969 Z M169.85,24.0849609 L169.85,21.1552734 L172.721094,21.1552734 L172.721094,24.0849609 L169.85,24.0849609 Z M169.85,21.1552734 L169.85,18.2109375 L172.721094,18.2109375 L172.721094,21.1552734 L169.85,21.1552734 Z M169.85,18.2109375 L169.85,15.28125 L172.721094,15.28125 L172.721094,18.2109375 L169.85,18.2109375 Z M169.85,9.39257812 L169.85,6.52148438 L172.721094,6.52148438 L172.721094,9.39257812 L169.85,9.39257812 Z M166.905664,6.52148438 L166.905664,3.57714844 L169.85,3.57714844 L169.85,6.52148438 L166.905664,6.52148438 Z M169.85,29.9003906 L169.85,32.8007812 L166.905664,32.8007812 L166.905664,29.9003906 L169.85,29.9003906 Z M166.905664,29.9003906 L166.905664,27.0292969 L169.85,27.0292969 L169.85,29.9003906 L166.905664,29.9003906 Z M163.975977,6.52148438 L163.975977,3.57714844 L166.905664,3.57714844 L166.905664,6.52148438 L163.975977,6.52148438 Z M166.905664,29.9003906 L166.905664,32.8007812 L163.975977,32.8007812 L163.975977,29.9003906 L166.905664,29.9003906 Z M163.975977,29.9003906 L163.975977,27.0292969 L166.905664,27.0292969 L166.905664,29.9003906 L163.975977,29.9003906 Z M161.031641,6.52148438 L161.031641,3.57714844 L163.975977,3.57714844 L163.975977,6.52148438 L161.031641,6.52148438 Z M161.031641,29.9003906 L161.031641,27.0292969 L163.975977,27.0292969 L163.975977,29.9003906 L161.031641,29.9003906 Z M161.031641,27.0292969 L161.031641,24.0849609 L163.975977,24.0849609 L163.975977,27.0292969 L161.031641,27.0292969 Z M161.031641,24.0849609 L161.031641,21.1552734 L163.975977,21.1552734 L163.975977,24.0849609 L161.031641,24.0849609 Z M161.031641,21.1552734 L161.031641,18.2109375 L163.975977,18.2109375 L163.975977,21.1552734 L161.031641,21.1552734 Z M161.031641,18.2109375 L161.031641,15.28125 L163.975977,15.28125 L163.975977,18.2109375 L161.031641,18.2109375 Z M161.031641,15.28125 L161.031641,12.3369141 L163.975977,12.3369141 L163.975977,15.28125 L161.031641,15.28125 Z M161.031641,12.3369141 L161.031641,9.39257812 L163.975977,9.39257812 L163.975977,12.3369141 L161.031641,12.3369141 Z M161.031641,9.39257812 L161.031641,6.52148438 L163.975977,6.52148438 L163.975977,9.39257812 L161.031641,9.39257812 Z M217.781055,29.9003906 L217.781055,32.8007812 L214.895312,32.8007812 L214.895312,29.9003906 L217.781055,29.9003906 Z M214.895312,29.9003906 L214.895312,27.0292969 L217.781055,27.0292969 L217.781055,29.9003906 L214.895312,29.9003906 Z M214.895312,27.0292969 L214.895312,24.0849609 L217.781055,24.0849609 L217.781055,27.0292969 L214.895312,27.0292969 Z M214.895312,24.0849609 L214.895312,21.1552734 L217.781055,21.1552734 L217.781055,24.0849609 L214.895312,24.0849609 Z M214.895312,21.1552734 L214.895312,18.2109375 L217.781055,18.2109375 L217.781055,21.1552734 L214.895312,21.1552734 Z M214.895312,18.2109375 L214.895312,15.28125 L217.781055,15.28125 L217.781055,18.2109375 L214.895312,18.2109375 Z M214.895312,15.28125 L214.895312,12.3369141 L217.781055,12.3369141 L217.781055,15.28125 L214.895312,15.28125 Z M214.895312,12.3369141 L214.895312,9.39257812 L217.781055,9.39257812 L217.781055,12.3369141 L214.895312,12.3369141 Z M214.895312,29.9003906 L214.895312,32.8007812 L211.965625,32.8007812 L211.965625,29.9003906 L214.895312,29.9003906 Z M211.965625,29.9003906 L211.965625,27.0292969 L214.895312,27.0292969 L214.895312,29.9003906 L211.965625,29.9003906 Z M211.965625,27.0292969 L211.965625,24.0849609 L214.895312,24.0849609 L214.895312,27.0292969 L211.965625,27.0292969 Z M211.965625,24.0849609 L211.965625,21.1552734 L214.895312,21.1552734 L214.895312,24.0849609 L211.965625,24.0849609 Z M211.965625,21.1552734 L211.965625,18.2109375 L214.895312,18.2109375 L214.895312,21.1552734 L211.965625,21.1552734 Z M211.965625,18.2109375 L211.965625,15.28125 L214.895312,15.28125 L214.895312,18.2109375 L211.965625,18.2109375 Z M211.965625,15.28125 L211.965625,12.3369141 L214.895312,12.3369141 L214.895312,15.28125 L211.965625,15.28125 Z M211.965625,12.3369141 L211.965625,9.39257812 L214.895312,9.39257812 L214.895312,12.3369141 L211.965625,12.3369141 Z M211.965625,9.39257812 L211.965625,6.52148438 L214.895312,6.52148438 L214.895312,9.39257812 L211.965625,9.39257812 Z M209.021289,6.52148438 L209.021289,3.57714844 L211.965625,3.57714844 L211.965625,6.52148438 L209.021289,6.52148438 Z M211.965625,29.9003906 L211.965625,32.8007812 L209.021289,32.8007812 L209.021289,29.9003906 L211.965625,29.9003906 Z M209.021289,29.9003906 L209.021289,27.0292969 L211.965625,27.0292969 L211.965625,29.9003906 L209.021289,29.9003906 Z M209.021289,15.28125 L209.021289,12.3369141 L211.965625,12.3369141 L211.965625,15.28125 L209.021289,15.28125 Z M209.021289,9.39257812 L209.021289,6.52148438 L211.965625,6.52148438 L211.965625,9.39257812 L209.021289,9.39257812 Z M206.091602,6.52148438 L206.091602,3.57714844 L209.021289,3.57714844 L209.021289,6.52148438 L206.091602,6.52148438 Z M209.021289,29.9003906 L209.021289,32.8007812 L206.091602,32.8007812 L206.091602,29.9003906 L209.021289,29.9003906 Z M206.091602,29.9003906 L206.091602,27.0292969 L209.021289,27.0292969 L209.021289,29.9003906 L206.091602,29.9003906 Z M206.091602,27.0292969 L206.091602,24.0849609 L209.021289,24.0849609 L209.021289,27.0292969 L206.091602,27.0292969 Z M206.091602,15.28125 L206.091602,12.3369141 L209.021289,12.3369141 L209.021289,15.28125 L206.091602,15.28125 Z M203.147266,6.52148438 L203.147266,3.57714844 L206.091602,3.57714844 L206.091602,6.52148438 L203.147266,6.52148438 Z M206.091602,29.9003906 L206.091602,32.8007812 L203.147266,32.8007812 L203.147266,29.9003906 L206.091602,29.9003906 Z M203.147266,29.9003906 L203.147266,27.0292969 L206.091602,27.0292969 L206.091602,29.9003906 L203.147266,29.9003906 Z M203.147266,24.0849609 L203.147266,21.1552734 L206.091602,21.1552734 L206.091602,24.0849609 L203.147266,24.0849609 Z M203.147266,21.1552734 L203.147266,18.2109375 L206.091602,18.2109375 L206.091602,21.1552734 L203.147266,21.1552734 Z M203.147266,15.28125 L203.147266,12.3369141 L206.091602,12.3369141 L206.091602,15.28125 L203.147266,15.28125 Z M203.147266,12.3369141 L203.147266,9.39257812 L206.091602,9.39257812 L206.091602,12.3369141 L203.147266,12.3369141 Z M200.20293,6.52148438 L200.20293,3.57714844 L203.147266,3.57714844 L203.147266,6.52148438 L200.20293,6.52148438 Z M203.147266,29.9003906 L203.147266,32.8007812 L200.20293,32.8007812 L200.20293,29.9003906 L203.147266,29.9003906 Z M200.20293,29.9003906 L200.20293,27.0292969 L203.147266,27.0292969 L203.147266,29.9003906 L200.20293,29.9003906 Z M200.20293,24.0849609 L200.20293,21.1552734 L203.147266,21.1552734 L203.147266,24.0849609 L200.20293,24.0849609 Z M200.20293,21.1552734 L200.20293,18.2109375 L203.147266,18.2109375 L203.147266,21.1552734 L200.20293,21.1552734 Z M200.20293,18.2109375 L200.20293,15.28125 L203.147266,15.28125 L203.147266,18.2109375 L200.20293,18.2109375 Z M200.20293,15.28125 L200.20293,12.3369141 L203.147266,12.3369141 L203.147266,15.28125 L200.20293,15.28125 Z M200.20293,12.3369141 L200.20293,9.39257812 L203.147266,9.39257812 L203.147266,12.3369141 L200.20293,12.3369141 Z M197.331836,6.52148438 L197.331836,3.57714844 L200.20293,3.57714844 L200.20293,6.52148438 L197.331836,6.52148438 Z M200.20293,29.9003906 L200.20293,32.8007812 L197.331836,32.8007812 L197.331836,29.9003906 L200.20293,29.9003906 Z M197.331836,29.9003906 L197.331836,27.0292969 L200.20293,27.0292969 L200.20293,29.9003906 L197.331836,29.9003906 Z M197.331836,24.0849609 L197.331836,21.1552734 L200.20293,21.1552734 L200.20293,24.0849609 L197.331836,24.0849609 Z M197.331836,21.1552734 L197.331836,18.2109375 L200.20293,18.2109375 L200.20293,21.1552734 L197.331836,21.1552734 Z M197.331836,18.2109375 L197.331836,15.28125 L200.20293,15.28125 L200.20293,18.2109375 L197.331836,18.2109375 Z M197.331836,15.28125 L197.331836,12.3369141 L200.20293,12.3369141 L200.20293,15.28125 L197.331836,15.28125 Z M197.331836,12.3369141 L197.331836,9.39257812 L200.20293,9.39257812 L200.20293,12.3369141 L197.331836,12.3369141 Z M194.3875,6.52148438 L194.3875,3.57714844 L197.331836,3.57714844 L197.331836,6.52148438 L194.3875,6.52148438 Z M197.331836,29.9003906 L197.331836,32.8007812 L194.3875,32.8007812 L194.3875,29.9003906 L197.331836,29.9003906 Z M194.3875,29.9003906 L194.3875,27.0292969 L197.331836,27.0292969 L197.331836,29.9003906 L194.3875,29.9003906 Z M191.457812,6.52148438 L191.457812,3.57714844 L194.3875,3.57714844 L194.3875,6.52148438 L191.457812,6.52148438 Z M191.457812,29.9003906 L191.457812,27.0292969 L194.3875,27.0292969 L194.3875,29.9003906 L191.457812,29.9003906 Z M191.457812,27.0292969 L191.457812,24.0849609 L194.3875,24.0849609 L194.3875,27.0292969 L191.457812,27.0292969 Z M191.457812,9.39257812 L191.457812,6.52148438 L194.3875,6.52148438 L194.3875,9.39257812 L191.457812,9.39257812 Z M188.513477,27.0292969 L188.513477,24.0849609 L191.457812,24.0849609 L191.457812,27.0292969 L188.513477,27.0292969 Z M188.513477,24.0849609 L188.513477,21.1552734 L191.457812,21.1552734 L191.457812,24.0849609 L188.513477,24.0849609 Z M188.513477,21.1552734 L188.513477,18.2109375 L191.457812,18.2109375 L191.457812,21.1552734 L188.513477,21.1552734 Z M188.513477,18.2109375 L188.513477,15.28125 L191.457812,15.28125 L191.457812,18.2109375 L188.513477,18.2109375 Z M188.513477,15.28125 L188.513477,12.3369141 L191.457812,12.3369141 L191.457812,15.28125 L188.513477,15.28125 Z M188.513477,12.3369141 L188.513477,9.39257812 L191.457812,9.39257812 L191.457812,12.3369141 L188.513477,12.3369141 Z M188.513477,9.39257812 L188.513477,6.52148438 L191.457812,6.52148438 L191.457812,9.39257812 L188.513477,9.39257812 Z M245.262891,29.9003906 L245.262891,32.8007812 L242.377148,32.8007812 L242.377148,29.9003906 L245.262891,29.9003906 Z M242.377148,29.9003906 L242.377148,27.0292969 L245.262891,27.0292969 L245.262891,29.9003906 L242.377148,29.9003906 Z M242.377148,27.0292969 L242.377148,24.0849609 L245.262891,24.0849609 L245.262891,27.0292969 L242.377148,27.0292969 Z M242.377148,15.28125 L242.377148,12.3369141 L245.262891,12.3369141 L245.262891,15.28125 L242.377148,15.28125 Z M242.377148,12.3369141 L242.377148,9.39257812 L245.262891,9.39257812 L245.262891,12.3369141 L242.377148,12.3369141 Z M242.377148,9.39257812 L242.377148,6.52148438 L245.262891,6.52148438 L245.262891,9.39257812 L242.377148,9.39257812 Z M239.447461,6.52148438 L239.447461,3.57714844 L242.377148,3.57714844 L242.377148,6.52148438 L239.447461,6.52148438 Z M242.377148,29.9003906 L242.377148,32.8007812 L239.447461,32.8007812 L239.447461,29.9003906 L242.377148,29.9003906 Z M239.447461,29.9003906 L239.447461,27.0292969 L242.377148,27.0292969 L242.377148,29.9003906 L239.447461,29.9003906 Z M239.447461,27.0292969 L239.447461,24.0849609 L242.377148,24.0849609 L242.377148,27.0292969 L239.447461,27.0292969 Z M239.447461,24.0849609 L239.447461,21.1552734 L242.377148,21.1552734 L242.377148,24.0849609 L239.447461,24.0849609 Z M239.447461,21.1552734 L239.447461,18.2109375 L242.377148,18.2109375 L242.377148,21.1552734 L239.447461,21.1552734 Z M239.447461,18.2109375 L239.447461,15.28125 L242.377148,15.28125 L242.377148,18.2109375 L239.447461,18.2109375 Z M239.447461,15.28125 L239.447461,12.3369141 L242.377148,12.3369141 L242.377148,15.28125 L239.447461,15.28125 Z M239.447461,12.3369141 L239.447461,9.39257812 L242.377148,9.39257812 L242.377148,12.3369141 L239.447461,12.3369141 Z M239.447461,9.39257812 L239.447461,6.52148438 L242.377148,6.52148438 L242.377148,9.39257812 L239.447461,9.39257812 Z M236.503125,6.52148438 L236.503125,3.57714844 L239.447461,3.57714844 L239.447461,6.52148438 L236.503125,6.52148438 Z M239.447461,29.9003906 L239.447461,32.8007812 L236.503125,32.8007812 L236.503125,29.9003906 L239.447461,29.9003906 Z M236.503125,29.9003906 L236.503125,27.0292969 L239.447461,27.0292969 L239.447461,29.9003906 L236.503125,29.9003906 Z M236.503125,24.0849609 L236.503125,21.1552734 L239.447461,21.1552734 L239.447461,24.0849609 L236.503125,24.0849609 Z M236.503125,21.1552734 L236.503125,18.2109375 L239.447461,18.2109375 L239.447461,21.1552734 L236.503125,21.1552734 Z M236.503125,18.2109375 L236.503125,15.28125 L239.447461,15.28125 L239.447461,18.2109375 L236.503125,18.2109375 Z M236.503125,15.28125 L236.503125,12.3369141 L239.447461,12.3369141 L239.447461,15.28125 L236.503125,15.28125 Z M236.503125,12.3369141 L236.503125,9.39257812 L239.447461,9.39257812 L239.447461,12.3369141 L236.503125,12.3369141 Z M233.573437,6.52148438 L233.573437,3.57714844 L236.503125,3.57714844 L236.503125,6.52148438 L233.573437,6.52148438 Z M236.503125,29.9003906 L236.503125,32.8007812 L233.573437,32.8007812 L233.573437,29.9003906 L236.503125,29.9003906 Z M233.573437,29.9003906 L233.573437,27.0292969 L236.503125,27.0292969 L236.503125,29.9003906 L233.573437,29.9003906 Z M233.573437,24.0849609 L233.573437,21.1552734 L236.503125,21.1552734 L236.503125,24.0849609 L233.573437,24.0849609 Z M233.573437,21.1552734 L233.573437,18.2109375 L236.503125,18.2109375 L236.503125,21.1552734 L233.573437,21.1552734 Z M233.573437,15.28125 L233.573437,12.3369141 L236.503125,12.3369141 L236.503125,15.28125 L233.573437,15.28125 Z M233.573437,12.3369141 L233.573437,9.39257812 L236.503125,9.39257812 L236.503125,12.3369141 L233.573437,12.3369141 Z M230.629102,6.52148438 L230.629102,3.57714844 L233.573437,3.57714844 L233.573437,6.52148438 L230.629102,6.52148438 Z M233.573437,29.9003906 L233.573437,32.8007812 L230.629102,32.8007812 L230.629102,29.9003906 L233.573437,29.9003906 Z M230.629102,29.9003906 L230.629102,27.0292969 L233.573437,27.0292969 L233.573437,29.9003906 L230.629102,29.9003906 Z M230.629102,24.0849609 L230.629102,21.1552734 L233.573437,21.1552734 L233.573437,24.0849609 L230.629102,24.0849609 Z M230.629102,21.1552734 L230.629102,18.2109375 L233.573437,18.2109375 L233.573437,21.1552734 L230.629102,21.1552734 Z M230.629102,15.28125 L230.629102,12.3369141 L233.573437,12.3369141 L233.573437,15.28125 L230.629102,15.28125 Z M230.629102,12.3369141 L230.629102,9.39257812 L233.573437,9.39257812 L233.573437,12.3369141 L230.629102,12.3369141 Z M227.684766,6.52148438 L227.684766,3.57714844 L230.629102,3.57714844 L230.629102,6.52148438 L227.684766,6.52148438 Z M230.629102,29.9003906 L230.629102,32.8007812 L227.684766,32.8007812 L227.684766,29.9003906 L230.629102,29.9003906 Z M227.684766,29.9003906 L227.684766,27.0292969 L230.629102,27.0292969 L230.629102,29.9003906 L227.684766,29.9003906 Z M227.684766,24.0849609 L227.684766,21.1552734 L230.629102,21.1552734 L230.629102,24.0849609 L227.684766,24.0849609 Z M227.684766,21.1552734 L227.684766,18.2109375 L230.629102,18.2109375 L230.629102,21.1552734 L227.684766,21.1552734 Z M227.684766,15.28125 L227.684766,12.3369141 L230.629102,12.3369141 L230.629102,15.28125 L227.684766,15.28125 Z M227.684766,12.3369141 L227.684766,9.39257812 L230.629102,9.39257812 L230.629102,12.3369141 L227.684766,12.3369141 Z M224.813672,6.52148438 L224.813672,3.57714844 L227.684766,3.57714844 L227.684766,6.52148438 L224.813672,6.52148438 Z M227.684766,29.9003906 L227.684766,32.8007812 L224.813672,32.8007812 L224.813672,29.9003906 L227.684766,29.9003906 Z M224.813672,29.9003906 L224.813672,27.0292969 L227.684766,27.0292969 L227.684766,29.9003906 L224.813672,29.9003906 Z M224.813672,24.0849609 L224.813672,21.1552734 L227.684766,21.1552734 L227.684766,24.0849609 L224.813672,24.0849609 Z M224.813672,21.1552734 L224.813672,18.2109375 L227.684766,18.2109375 L227.684766,21.1552734 L224.813672,21.1552734 Z M224.813672,15.28125 L224.813672,12.3369141 L227.684766,12.3369141 L227.684766,15.28125 L224.813672,15.28125 Z M224.813672,12.3369141 L224.813672,9.39257812 L227.684766,9.39257812 L227.684766,12.3369141 L224.813672,12.3369141 Z M221.869336,6.52148438 L221.869336,3.57714844 L224.813672,3.57714844 L224.813672,6.52148438 L221.869336,6.52148438 Z M224.813672,29.9003906 L224.813672,32.8007812 L221.869336,32.8007812 L221.869336,29.9003906 L224.813672,29.9003906 Z M221.869336,29.9003906 L221.869336,27.0292969 L224.813672,27.0292969 L224.813672,29.9003906 L221.869336,29.9003906 Z M218.939648,6.52148438 L218.939648,3.57714844 L221.869336,3.57714844 L221.869336,6.52148438 L218.939648,6.52148438 Z M221.869336,29.9003906 L221.869336,32.8007812 L218.939648,32.8007812 L218.939648,29.9003906 L221.869336,29.9003906 Z M218.939648,29.9003906 L218.939648,27.0292969 L221.869336,27.0292969 L221.869336,29.9003906 L218.939648,29.9003906 Z M215.995312,6.52148438 L215.995312,3.57714844 L218.939648,3.57714844 L218.939648,6.52148438 L215.995312,6.52148438 Z M215.995312,29.9003906 L215.995312,27.0292969 L218.939648,27.0292969 L218.939648,29.9003906 L215.995312,29.9003906 Z M215.995312,27.0292969 L215.995312,24.0849609 L218.939648,24.0849609 L218.939648,27.0292969 L215.995312,27.0292969 Z M215.995312,24.0849609 L215.995312,21.1552734 L218.939648,21.1552734 L218.939648,24.0849609 L215.995312,24.0849609 Z M215.995312,21.1552734 L215.995312,18.2109375 L218.939648,18.2109375 L218.939648,21.1552734 L215.995312,21.1552734 Z M215.995312,18.2109375 L215.995312,15.28125 L218.939648,15.28125 L218.939648,18.2109375 L215.995312,18.2109375 Z M215.995312,15.28125 L215.995312,12.3369141 L218.939648,12.3369141 L218.939648,15.28125 L215.995312,15.28125 Z M215.995312,12.3369141 L215.995312,9.39257812 L218.939648,9.39257812 L218.939648,12.3369141 L215.995312,12.3369141 Z M215.995312,9.39257812 L215.995312,6.52148438 L218.939648,6.52148438 L218.939648,9.39257812 L215.995312,9.39257812 Z" id="Challenge"></path>
                    </g>
                </g>
            </g>
        </g>
    </g>
</svg>