<?xml version="1.0" encoding="UTF-8"?>
<svg width="111px" height="188px" viewBox="0 0 111 188" version="1.1" xmlns="http://www.w3.org/2000/svg" xmlns:xlink="http://www.w3.org/1999/xlink">
    <!-- Generator: Sketch 57.1 (83088) - https://sketch.com -->
    <title>Group 2</title>
    <desc>Created with Sketch.</desc>
    <defs>
        <path d="M47.0740741,0 L99.0740741,0 C105.149206,4.27981767e-15 110.074074,4.92486775 110.074074,11 L110.074074,45.0616833 C110.074074,52.1786282 104.30465,57.9480519 97.1877054,57.9480519 C89.3226261,57.9480519 82.1657585,62.4925709 78.8207029,69.6108624 L74.4261838,78.9624162 C72.8722983,82.2690907 68.9320358,83.6900069 65.6253612,82.1361214 C63.7355112,81.2480356 62.3758935,79.519819 61.9576106,77.474026 L60.1579131,68.671827 C58.8817595,62.4302462 53.3904084,57.9480519 47.0197021,57.9480519 C40.9745986,57.9480519 36.0740741,53.0475274 36.0740741,47.002424 L36.0740741,11 C36.0740741,4.92486775 40.9989418,1.11598369e-15 47.0740741,0 Z" id="path-1"></path>
        <mask id="mask-2" maskContentUnits="userSpaceOnUse" maskUnits="objectBoundingBox" x="0" y="0" width="74" height="97" fill="white">
            <use xlink:href="#path-1"></use>
        </mask>
    </defs>
    <g id="Page-1" stroke="none" stroke-width="1" fill="none" fill-rule="evenodd">
        <g id="Artboard-Copy-4" transform="translate(-527.000000, -138.000000)">
            <g id="Group-3" transform="translate(155.000000, 107.000000)">
                <g id="Rectangle-2">
                    <g id="Group-2" transform="translate(372.000000, 31.000000)">
                        <g id="pacman-(2)" transform="translate(0.000000, 55.000000)" fill-rule="nonzero">
                            <path d="M52.2146613,0.0349912222 C22.8795397,1.0738339 0.0541884166,25.9739902 0.0541884166,55.2095109 L0.0541884166,131.581645 C0.0541884166,132.303688 0.945318879,132.648935 1.43528484,132.116712 L16.2851223,115.981937 C17.2603805,114.922146 18.9377414,114.922146 19.91274,115.981937 L34.2809204,131.593024 C35.2826632,132.68152 37.0054635,132.68152 38.0069467,131.593024 L52.3746078,115.981937 C53.349866,114.922146 55.0272269,114.922146 56.0022254,115.981937 L70.3698865,131.593024 C71.3716294,132.68152 73.0944297,132.68152 74.0959128,131.593024 L88.4640933,115.981937 C89.4393514,114.922146 91.1167124,114.922146 92.0917109,115.981937 L106.941548,132.116712 C107.431514,132.649194 108.322645,132.303947 108.322645,131.581645 L108.322645,53.9169702 C108.322645,23.4869228 83.0121509,-1.05557376 52.2146613,0.0349912222 Z" id="Path" fill="#6C0068"></path>
                            <path d="M27.0778908,58.8835126 C27.0778908,31.1518051 47.5761276,7.33520787 74.6716381,4.05955271 C67.7593937,1.21744394 60.1342529,-0.249267326 52.1306288,0.0347624753 C22.8427672,1.07387697 0.0541884166,25.9805485 0.0541884166,55.2237188 L0.0541884166,131.615836 C0.0541884166,132.338068 0.943883234,132.683405 1.43305984,132.151043 L16.2589737,116.012046 C17.2324014,114.951978 18.9073193,114.951978 19.8807471,116.012046 L27.0776316,123.846146 L27.0776316,58.8835126 L27.0778908,58.8835126 Z" id="Path" fill-opacity="0.4" fill="#000000" style="mix-blend-mode: overlay;"></path>
                            <path d="M35.899826,78.2751678 L35.899826,78.2751678 C27.8193785,78.2751678 21.2689535,71.7625515 21.2689535,63.7287441 L21.2689535,58.4390412 C21.2689535,50.4052337 27.8193785,43.8926174 35.899826,43.8926174 L35.899826,43.8926174 C43.9802735,43.8926174 50.5306985,50.4052337 50.5306985,58.4390412 L50.5306985,63.7287441 C50.5301772,71.7625515 43.9800128,78.2751678 35.899826,78.2751678 Z" id="Path" fill="#FFFFFF"></path>
                            <path d="M44.2402205,75.6285809 C36.2926279,75.6285809 29.8499018,69.1116913 29.8499018,61.0726123 L29.8499018,55.7794386 C29.8499018,50.8648673 32.2646102,46.5280537 35.9521742,43.8926174 C28.2096741,44.1291143 22.0004971,50.5365722 22.0004971,58.4260255 L22.0004971,63.7191992 C22.0004971,71.7582782 28.4432232,78.2751678 36.3908159,78.2751678 C39.4795097,78.2751678 42.334398,77.2817253 44.6783495,75.6062797 C44.5317083,75.610688 44.3881435,75.6285809 44.2402205,75.6285809 Z" id="Path" fill="#E4EAF6"></path>
                            <path d="M40.2890877,68.033557 L40.2890877,68.033557 C37.4610043,68.033557 35.1682824,65.6755406 35.1682824,62.7663397 L35.1682824,60.1329891 C35.1682824,57.2240463 37.4607534,54.8657718 40.2890877,54.8657718 L40.2890877,54.8657718 C43.1171712,54.8657718 45.4098931,57.2237883 45.4098931,60.1329891 L45.4098931,62.7663397 C45.4098931,65.6757986 43.1171712,68.033557 40.2890877,68.033557 Z" id="Path" fill="#82B9FF"></path>
                            <path d="M72.4770072,78.2751678 L72.4770072,78.2751678 C64.3965597,78.2751678 57.8461347,71.7625515 57.8461347,63.7287441 L57.8461347,58.4390412 C57.8461347,50.4052337 64.3965597,43.8926174 72.4770072,43.8926174 L72.4770072,43.8926174 C80.5574547,43.8926174 87.1078797,50.4052337 87.1078797,58.4390412 L87.1078797,63.7287441 C87.1078797,71.7625515 80.557194,78.2751678 72.4770072,78.2751678 Z" id="Path" fill="#FFFFFF"></path>
                            <path d="M80.0856017,75.6285809 C72.1380091,75.6285809 65.695283,69.1116913 65.695283,61.0726123 L65.695283,55.7794386 C65.695283,50.8648673 68.1099914,46.5280537 71.7978118,43.8926174 C64.0553117,44.1291143 57.8461347,50.5365722 57.8461347,58.4260255 L57.8461347,63.7191992 C57.8461347,71.7582782 64.2888608,78.2751678 72.2364535,78.2751678 C75.3251473,78.2751678 78.1800356,77.2817253 80.5239871,75.6062797 C80.3773459,75.610688 80.2337811,75.6285809 80.0856017,75.6285809 Z" id="Path" fill="#E4EAF6"></path>
                            <path d="M76.1347253,68.033557 L76.1347253,68.033557 C73.3066419,68.033557 71.01392,65.6755406 71.01392,62.7663397 L71.01392,60.1329891 C71.01392,57.2240463 73.306391,54.8657718 76.1347253,54.8657718 L76.1347253,54.8657718 C78.9628088,54.8657718 81.2555307,57.2237883 81.2555307,60.1329891 L81.2555307,62.7663397 C81.2555307,65.6757986 78.9630596,68.033557 76.1347253,68.033557 Z" id="Path" fill="#82B9FF"></path>
                        </g>
                        <use id="Rectangle" stroke="#FFFFFF" mask="url(#mask-2)" stroke-width="8" stroke-dasharray="10,4" xlink:href="#path-1"></use>
                        <path d="M70.1640741,43.851 C70.1640741,44.6970042 69.8507439,45.4333302 69.2240741,46.06 C68.5974043,46.6866698 67.8767448,47 67.0620741,47 C66.1534029,47 65.3857439,46.6866698 64.7590741,46.06 C64.1324043,45.4333302 63.8190741,44.6970042 63.8190741,43.851 C63.8190741,42.9736623 64.1324043,42.2216698 64.7590741,41.595 C65.3857439,40.9683302 66.1534029,40.655 67.0620741,40.655 C67.8767448,40.655 68.5974043,40.9683302 69.2240741,41.595 C69.8507439,42.2216698 70.1640741,42.9736623 70.1640741,43.851 Z M67.0620741,16.967 C67.8767448,16.967 68.5974043,17.2724969 69.2240741,17.8835 C69.8507439,18.4945031 70.1640741,19.2543288 70.1640741,20.163 L70.1640741,36.002 C70.1640741,36.9106712 69.8507439,37.6704969 69.2240741,38.2815 C68.5974043,38.8925031 67.8767448,39.198 67.0620741,39.198 C66.1534029,39.198 65.3857439,38.8925031 64.7590741,38.2815 C64.1324043,37.6704969 63.8190741,36.9106712 63.8190741,36.002 L63.8190741,20.163 C63.8190741,19.2543288 64.1324043,18.4945031 64.7590741,17.8835 C65.3857439,17.2724969 66.1534029,16.967 67.0620741,16.967 Z M86.2820741,43.851 C86.2820741,44.6970042 85.9687439,45.4333302 85.3420741,46.06 C84.7154043,46.6866698 83.9947448,47 83.1800741,47 C82.2714029,47 81.5037439,46.6866698 80.8770741,46.06 C80.2504043,45.4333302 79.9370741,44.6970042 79.9370741,43.851 C79.9370741,42.9736623 80.2504043,42.2216698 80.8770741,41.595 C81.5037439,40.9683302 82.2714029,40.655 83.1800741,40.655 C83.9947448,40.655 84.7154043,40.9683302 85.3420741,41.595 C85.9687439,42.2216698 86.2820741,42.9736623 86.2820741,43.851 Z M83.1800741,16.967 C83.9947448,16.967 84.7154043,17.2724969 85.3420741,17.8835 C85.9687439,18.4945031 86.2820741,19.2543288 86.2820741,20.163 L86.2820741,36.002 C86.2820741,36.9106712 85.9687439,37.6704969 85.3420741,38.2815 C84.7154043,38.8925031 83.9947448,39.198 83.1800741,39.198 C82.2714029,39.198 81.5037439,38.8925031 80.8770741,38.2815 C80.2504043,37.6704969 79.9370741,36.9106712 79.9370741,36.002 L79.9370741,20.163 C79.9370741,19.2543288 80.2504043,18.4945031 80.8770741,17.8835 C81.5037439,17.2724969 82.2714029,16.967 83.1800741,16.967 Z" id="!!" fill="#FFFFFF" fill-rule="nonzero"></path>
                    </g>
                </g>
            </g>
        </g>
    </g>
</svg>