<?xml version="1.0" encoding="UTF-8"?>
<svg width="207px" height="213px" viewBox="0 0 207 213" version="1.1" xmlns="http://www.w3.org/2000/svg" xmlns:xlink="http://www.w3.org/1999/xlink">
    <!-- Generator: Sketch 57.1 (83088) - https://sketch.com -->
    <title>pacman</title>
    <desc>Created with Sketch.</desc>
    <defs>
        <linearGradient x1="2.22044605e-14%" y1="93.0444667%" x2="100%" y2="6.95553333%" id="linearGradient-1">
            <stop stop-color="#263238" offset="0%"></stop>
            <stop stop-color="#607D8B" offset="100%"></stop>
        </linearGradient>
    </defs>
    <g id="Page-1" stroke="none" stroke-width="1" fill="none" fill-rule="evenodd">
        <g id="Artboard-Copy-4" transform="translate(-1567.000000, -119.000000)">
            <g id="Group-3" transform="translate(155.000000, 107.000000)">
                <g id="Rectangle-2">
                    <g id="pacman" transform="translate(1412.000000, 12.000000)">
                        <path d="M99.9904654,213 C65.2087405,213 32.4744009,196.073988 12.4252397,167.722523 L12.4845963,167.562357 L11.9549848,166.78524 C-3.24365381,144.493875 -3.99271763,114.085213 9.94939985,85.4425371 L10.5513261,84.2065547 L9.51927336,83.2950645 C2.83956366,77.3972109 -0.398298124,72.3763184 0.153885638,68.7777832 L0.327775453,67.6483008 C8.09304248,47.9333203 21.4696001,31.1013281 39.0124071,18.9723926 C56.9640224,6.56098242 78.0502525,2.84217094e-14 99.9904654,2.84217094e-14 C158.995543,2.84217094e-14 207,47.7760664 207,106.5 C207,165.223934 158.995543,213 99.9904654,213 Z" id="Path" fill="#FED322" fill-rule="nonzero"></path>
                        <circle id="Oval" fill="#FEDA44" fill-rule="nonzero" cx="79" cy="40" r="30"></circle>
                        <g id="Group" transform="translate(0.000000, 36.000000)" fill="url(#linearGradient-1)">
                            <path d="M10.7394584,48.6251975 C16.2696122,53.3534189 23.9699959,58.6764797 33.8104905,64.4231129 C75.0879436,88.5287293 138.316594,110.940056 175.035644,114.480687 C175.508342,114.526219 175.974766,114.568409 176.434497,114.608093 C175.992335,115.160742 175.548919,115.713392 175.094627,116.262281 C138.239623,160.806312 74.9022108,176.694456 33.6268492,151.749632 C-0.873446386,130.898923 -9.03230573,88.1206127 10.7394584,48.6251975 Z M79.9864384,45.1041994 C87.6725993,33.4354887 100.041403,28.0075791 107.613782,32.9810046 C113.283235,36.7050168 114.655316,45.2048709 111.760561,54.1391583 L111.760561,54.1391583 L93.6972041,54.1094999 L100.878456,70.6605722 C93.8097314,76.853335 85.4504981,78.9620073 79.7806263,75.2379952 C72.2082478,70.2641519 72.3002776,56.7729101 79.9864384,45.1041994 Z M60.2192758,1.85177184 C67.7916544,6.82561512 67.6996246,20.3168569 60.0134637,31.9855676 C52.3273029,43.6542783 39.9584989,49.0821879 32.3861203,44.1087624 C26.8038892,40.4420427 25.3878213,32.1452997 28.1087673,23.3626361 L28.2393416,22.9506087 L46.3026981,22.9802671 L39.1214461,6.42919475 C46.1901707,0.236431956 54.549404,-1.87224033 60.2192758,1.85177184 Z" id="Combined-Shape"></path>
                        </g>
                    </g>
                </g>
            </g>
        </g>
    </g>
</svg>