<?xml version="1.0" encoding="UTF-8"?>
<svg width="1472px" height="221px" viewBox="0 0 1472 221" version="1.1" xmlns="http://www.w3.org/2000/svg" xmlns:xlink="http://www.w3.org/1999/xlink">
    <!-- Generator: Sketch 57.1 (83088) - https://sketch.com -->
    <title>Path 2</title>
    <desc>Created with Sketch.</desc>
    <g id="Page-1" stroke="none" stroke-width="1" fill="none" fill-rule="evenodd" fill-opacity="0.3">
        <g id="Artboard-Copy-4" transform="translate(-260.000000, -107.000000)" fill="#000000">
            <g id="Group-3" transform="translate(155.000000, 107.000000)">
                <g id="Rectangle-2">
                    <path d="M106.747267,33.6256681 C108.906438,24.4304772 114.190738,13.0788191 122.600169,-0.42930614 L191.016479,-0.42930614 L815.441044,-0.42930614 L883.684517,-0.42930614 L917.988609,-0.42930614 L1569.91652,-0.42930614 C1601.1877,15.9053384 1522.40342,46.3888741 1333.56369,91.0213009 C1074.65507,152.214566 1102.39657,48.9676544 746.360885,85.0638657 C663.501459,93.4644602 600.316147,150.111052 523.03031,175.259435 C313.865253,243.320584 235.499511,245.490763 133.413925,101.880854 C124.525039,79.1291255 101.248649,57.0424573 106.747267,33.6256681 Z" id="Path-2" style="mix-blend-mode: darken;" transform="translate(841.248696, 109.906617) scale(-1, 1) translate(-841.248696, -109.906617) "></path>
                </g>
            </g>
        </g>
    </g>
</svg>